<?xml version="1.0" encoding="UTF-8" standalone="no"?>
<!-- Created with Inkscape (http://www.inkscape.org/) -->

<svg
   xmlns:dc="http://purl.org/dc/elements/1.1/"
   xmlns:cc="http://creativecommons.org/ns#"
   xmlns:rdf="http://www.w3.org/1999/02/22-rdf-syntax-ns#"
   xmlns:svg="http://www.w3.org/2000/svg"
   xmlns="http://www.w3.org/2000/svg"
   xmlns:sodipodi="http://sodipodi.sourceforge.net/DTD/sodipodi-0.dtd"
   xmlns:inkscape="http://www.inkscape.org/namespaces/inkscape"
   width="744.09448819"
   height="1052.3622047"
   id="svg2"
   version="1.1"
   inkscape:version="0.48.2 r9819"
   sodipodi:docname="New document 1">
  <defs
     id="defs4" />
  <sodipodi:namedview
     id="base"
     pagecolor="#ffffff"
     bordercolor="#666666"
     borderopacity="1.0"
     inkscape:pageopacity="0.0"
     inkscape:pageshadow="2"
     inkscape:zoom="1.75"
     inkscape:cx="422.92096"
     inkscape:cy="923.92294"
     inkscape:document-units="px"
     inkscape:current-layer="layer1"
     showgrid="false"
     inkscape:window-width="1280"
     inkscape:window-height="752"
     inkscape:window-x="0"
     inkscape:window-y="0"
     inkscape:window-maximized="1" />
  <metadata
     id="metadata7">
    <rdf:RDF>
      <cc:Work
         rdf:about="">
        <dc:format>image/svg+xml</dc:format>
        <dc:type
           rdf:resource="http://purl.org/dc/dcmitype/StillImage" />
        <dc:title></dc:title>
      </cc:Work>
    </rdf:RDF>
  </metadata>
  <g
     inkscape:label="Layer 1"
     inkscape:groupmode="layer"
     id="layer1">
    <path
       style="fill:#000000"
       d="m 381.61021,362.23388 c 0.34694,-1.17369 2.34663,-5.97515 4.44376,-10.6699 2.09714,-4.69476 4.8895,-11.0967 6.20527,-14.22654 1.31576,-3.12984 3.33118,-6.97101 4.47871,-8.53593 1.14752,-1.56492 2.6332,-4.23239 3.3015,-5.92772 0.67157,-1.70365 1.90602,-3.08891 2.75978,-3.09694 1.18404,-0.0111 1.25509,-0.1982 0.30428,-0.80121 -1.00119,-0.63498 -0.92533,-1.44741 0.39341,-4.21282 0.89859,-1.88437 1.98538,-3.20884 2.41508,-2.94327 0.42971,0.26557 0.54299,-0.13813 0.25175,-0.89711 -0.29125,-0.75897 0.35644,-3.11662 1.4393,-5.23922 1.08287,-2.12259 2.0393,-5.68504 2.1254,-7.91655 0.0885,-2.29246 1.4975,-6.94513 3.23935,-10.69634 5.65146,-12.17085 12.71593,-29.67119 12.71593,-31.50031 0,-0.99363 0.64674,-2.63508 1.43721,-3.64765 1.35743,-1.73886 1.40642,-1.68312 0.88268,1.00427 -0.55856,2.86605 -4.56814,13.76411 -6.18905,16.82187 -0.48016,0.90579 -0.85203,2.18618 -0.82637,2.8453 0.0405,1.04101 6.6972,-10.88614 7.13882,-12.79101 0.0907,-0.39123 0.2688,-1.03143 0.39578,-1.42266 0.12698,-0.39123 0.16535,-1.07635 0.0853,-1.52248 -0.08,-0.44614 0.32579,-1.37915 0.90193,-2.07336 0.76442,-0.92106 0.7644,-1.79123 -9e-5,-3.21969 -0.65372,-1.22149 -0.7283,-2.58156 -0.19836,-3.61726 0.46709,-0.91287 1.82366,-5.71433 3.01459,-10.66991 1.19094,-4.95557 2.97308,-10.62366 3.96035,-12.59576 0.98726,-1.97208 2.18347,-5.38645 2.65823,-7.58748 0.47477,-2.20103 1.4074,-5.83895 2.07251,-8.08426 1.03,-3.47715 1.00244,-4.21389 -0.18595,-4.96932 -0.76738,-0.48782 -1.907,-0.69977 -2.53248,-0.47099 -0.7208,0.26364 -0.93016,-0.17414 -0.57174,-1.19551 0.45568,-1.29849 0.3219,-1.38575 -0.68882,-0.44929 -0.97527,0.90359 -1.02613,1.9057 -0.22865,4.50413 0.60086,1.95781 0.66975,3.56195 0.16631,3.8731 -0.47266,0.29212 -0.85938,-0.28151 -0.85938,-1.27473 0,-0.99321 -0.85359,-2.57833 -1.89687,-3.52249 -1.04328,-0.94416 -1.89687,-2.28002 -1.89687,-2.9686 0,-1.36442 -5.38371,-0.8136 -7.06585,0.72293 -3.00249,2.74258 -3.33141,-2.35095 -0.35632,-5.5178 2.36464,-2.51704 1.27751,-2.83451 -2.6651,-0.7783 -5.48733,2.86184 -9.29312,1.50074 -19.12485,-6.83977 -5.64784,-4.79121 -6.45821,-5.18204 -9.8119,-4.73222 -2.80032,0.3756 -3.6556,0.1655 -3.6556,-0.89805 0,-0.76362 0.38699,-1.14921 0.85998,-0.85688 0.473,0.29232 0.63661,-0.32268 0.36361,-1.36668 -0.40073,-1.53236 -0.03,-1.89818 1.92358,-1.89818 4.07552,0 7.47031,1.79638 12.647,6.69228 2.72683,2.57893 5.48135,4.68895 6.12116,4.68895 0.6398,0 0.90119,0.26208 0.58088,0.5824 -0.90347,0.90347 -6.93978,-3.17849 -8.72154,-5.8978 -0.87811,-1.34017 -1.85339,-2.17984 -2.16729,-1.86595 -0.98023,0.98024 5.75349,7.32706 9.73243,9.17321 4.57882,2.12448 7.02561,2.25493 8.43137,0.44951 0.57914,-0.7438 2.70661,-1.4907 4.72772,-1.65977 3.11076,-0.26021 3.8002,0.0275 4.49229,1.87467 0.48302,1.28917 0.46577,1.96464 -0.0421,1.65073 -0.9261,-0.57236 -4.80535,3.84391 -4.80535,5.47059 0,0.54222 0.9878,0.0578 2.19511,-1.07635 1.20731,-1.1342 2.88573,-2.06219 3.72983,-2.06219 1.62791,0 3.10932,-3.16856 2.18252,-4.66815 -0.30301,-0.49027 -0.0104,-1.20271 0.6501,-1.58321 0.66056,-0.38049 0.91172,-0.36965 0.55814,0.0241 -1.43213,1.5948 7.65376,11.91789 10.48955,11.91789 0.58319,0 1.07547,0.96029 1.09394,2.13398 0.0185,1.17369 0.67911,3.20097 1.46805,4.50507 l 1.43443,2.37109 -0.34532,-3.01417 -0.34533,-3.01417 2.30829,1.81571 c 1.26956,0.99862 2.68492,1.58292 3.14525,1.29843 0.46032,-0.28451 0.83696,-0.10086 0.83696,0.4081 0,0.50896 -0.43103,1.06905 -0.95784,1.24465 -0.52681,0.1756 -1.15361,1.33591 -1.39291,2.57846 -0.23929,1.24254 -0.65816,2.48225 -0.93081,2.75491 -0.27265,0.27264 -0.0204,1.0685 0.56061,1.76854 0.58098,0.70005 0.77972,1.27281 0.44163,1.27281 -0.33808,0 0.0584,1.30172 0.88117,2.89271 0.82274,1.59099 1.23173,3.72497 0.90889,4.74218 -0.32286,1.0172 -0.18599,1.84947 0.30412,1.84947 0.84588,0 1.60138,3.35635 2.6686,11.85545 0.262,2.08656 0.6506,4.32724 0.86356,4.97928 0.21295,0.65205 -0.0514,1.18555 -0.58746,1.18555 -0.53605,0 -0.72239,0.40816 -0.41407,0.90702 0.30831,0.49886 1.16271,0.67594 1.89869,0.39352 0.95563,-0.36671 1.10991,-1.11374 0.53973,-2.61343 -0.43912,-1.15497 -1.11017,-5.06652 -1.49122,-8.69234 -0.38105,-3.62582 -0.8486,-7.44599 -1.03901,-8.48927 -1.41674,-7.76256 -1.96656,-14.35856 -1.33667,-16.03559 0.49475,-1.31723 0.78129,0.18261 0.85204,4.45976 0.0586,3.54444 0.48059,7.17221 0.93771,8.0617 0.45711,0.88949 1.06793,4.81823 1.35735,8.73053 0.60008,8.11162 1.85682,13.82694 5.0693,23.05383 1.2363,3.55091 2.24782,7.13952 2.24782,7.97469 0,0.83517 1.6694,5.18542 3.70979,9.66721 2.42675,5.33048 3.9418,10.28083 4.38064,14.31355 0.36898,3.39066 1.47684,8.78679 2.46191,11.99139 1.32788,4.3198 1.54646,6.40457 0.84522,8.06171 -0.90893,2.14796 -0.94228,2.12415 -0.8548,-0.61016 0.14775,-4.61817 -0.0649,-6.16483 -0.84762,-6.16483 -0.40572,0 -0.5056,2.24067 -0.22196,4.97928 0.33532,3.2376 0.9251,4.89635 1.6861,4.74218 1.03915,-0.21052 1.55426,1.66898 1.42688,5.2062 -0.0232,0.64643 0.30889,0.95827 0.73816,0.69296 0.42927,-0.2653 1.07785,1.50059 1.44129,3.92418 0.36344,2.42361 1.4684,6.59313 2.45548,9.26562 2.35494,6.37591 6.72341,27.51868 6.24748,30.23692 -0.26937,1.53846 -0.52111,1.73324 -0.91005,0.70412 -0.60501,-1.60082 -5.06373,-20.50372 -6.04023,-25.60777 -0.3493,-1.82574 -2.31163,-8.39928 -4.36076,-14.60788 -2.08397,-6.3142 -4.1426,-14.88163 -4.67187,-19.44293 -1.08764,-9.37357 -3.81487,-19.73777 -6.63805,-25.22644 -1.07326,-2.08656 -2.76262,-6.92735 -3.75414,-10.75733 -0.99153,-3.82997 -3.10293,-9.52214 -4.69202,-12.64926 -2.18096,-4.29183 -2.74876,-6.43461 -2.31613,-8.74068 0.36574,-1.94955 -0.1391,-5.16921 -1.39516,-8.89774 -1.08254,-3.2135 -1.96827,-6.77899 -1.96827,-7.9233 0,-1.14432 -1.04491,-3.86358 -2.32202,-6.04282 -1.28737,-2.19673 -2.10657,-4.7862 -1.83847,-5.81141 0.26596,-1.01704 -0.54043,-3.65193 -1.79198,-5.85533 l -2.27554,-4.00617 -1.16117,3.87564 c -0.90545,3.02214 -0.90982,4.17848 -0.0198,5.25089 0.91373,1.10097 0.87248,1.27208 -0.20681,0.85791 -0.92299,-0.35418 -1.41115,0.24359 -1.54786,1.89541 -0.10982,1.327 -1.06597,4.11081 -2.12478,6.18624 -1.36715,2.67984 -1.5759,3.77771 -0.72027,3.78802 0.82884,0.01 0.76087,0.30143 -0.21783,0.93392 -1.2158,0.78571 -1.18133,0.9215 0.2371,0.93391 1.22344,0.0107 1.65977,-0.75088 1.65977,-2.897 0,-1.7462 1.23374,-4.67999 3.08241,-7.32988 1.69533,-2.43009 3.37252,-5.06776 3.72709,-5.8615 0.47125,-1.05497 0.6626,-0.86914 0.71133,0.69082 0.0367,1.17369 -0.25344,2.13689 -0.64467,2.14046 -1.53955,0.014 -5.26875,6.87437 -6.05449,11.13803 -0.4566,2.47757 -2.32645,7.49226 -4.15523,11.14373 -3.27033,6.52979 -5.46507,14.80944 -4.55459,17.18213 0.25496,0.66442 -0.79605,3.0454 -2.3356,5.29106 -5.81963,8.4888 -11.47917,21.68489 -14.04477,32.74754 -1.66544,7.18125 -11.02035,27.22229 -12.20376,26.14414 -0.45146,-0.4113 -0.52843,-0.23794 -0.17103,0.38524 0.35739,0.62318 -0.60882,3.18396 -2.14713,5.69061 -1.53831,2.50666 -3.10002,5.83796 -3.47044,7.40288 -0.37043,1.56492 -1.20141,3.4855 -1.84663,4.26796 -0.64521,0.78246 -3.75956,6.86431 -6.92078,13.51521 -5.29407,11.13826 -7.87226,15.19862 -6.32335,9.95858 z m 30.44533,-63.02589 c -0.46296,-0.46296 -3.49002,5.92976 -3.40173,7.18399 0.0231,0.32754 0.9075,-1.04525 1.96544,-3.05062 1.05794,-2.00538 1.70427,-3.86539 1.43629,-4.13337 z m 2.26434,-7.47251 c 0.45443,-2.0149 0.67289,-3.8168 0.48548,-4.00422 -0.44399,-0.44398 -3.01041,5.3217 -3.67983,8.26707 -0.46587,2.04978 -0.36933,2.13805 0.92393,0.84478 0.79429,-0.79429 1.81598,-3.09273 2.27042,-5.10763 z m 57.01576,-4.42804 c -0.3078,-1.92473 -0.63244,-2.43824 -0.86439,-1.36725 -0.35304,1.63013 0.29177,4.44967 1.0176,4.44967 0.18685,0 0.11791,-1.38709 -0.15321,-3.08242 z m -53.67252,-7.15121 c -0.53051,-0.53051 -2.43082,4.10236 -2.37506,5.7903 0.0204,0.61809 0.66717,-0.32786 1.43721,-2.10213 0.77006,-1.77426 1.19208,-3.43394 0.93785,-3.68817 z m 44.17887,-20.36924 c -0.93669,-0.92972 -1.04563,-0.82078 -0.53093,0.53093 0.35616,0.93537 0.88649,1.46175 1.17851,1.16974 0.29201,-0.29202 6e-4,-1.05731 -0.64758,-1.70067 z M 437.0561,234.91184 c 0.52651,-0.32541 0.9573,-1.01844 0.9573,-1.54008 0,-1.75849 -1.91103,0.21526 -3.8073,3.93225 -1.03582,2.03038 -1.86445,4.02871 -1.84139,4.44072 0.023,0.41201 0.87264,-0.82372 1.88799,-2.74606 1.01535,-1.92235 2.27687,-3.76143 2.8034,-4.08683 z m -7.34151,-34.30309 c -0.65205,-0.26311 -1.71904,-0.26311 -2.37109,0 -0.65205,0.2631 -0.11856,0.47838 1.18554,0.47838 1.3041,0 1.8376,-0.21528 1.18555,-0.47838 z m 3.67761,-1.98007 c 1.17974,-1.50428 1.14619,-1.53782 -0.35809,-0.35809 -0.91287,0.71592 -1.65976,1.46282 -1.65976,1.65976 0,0.7806 0.77885,0.27819 2.01785,-1.30167 z m -33.83788,-15.30549 c -0.49555,-0.46301 -1.968,-1.09897 -3.2721,-1.41325 -1.98577,-0.47855 -1.90871,-0.3487 0.47422,0.79906 3.3521,1.61457 4.02721,1.76277 2.79788,0.61419 z m 131.15972,171.11114 c -2.10354,-4.25119 -3.2611,-7.72993 -2.89211,-8.69151 0.40605,-1.05812 0.25027,-1.37772 -0.45812,-0.93991 -0.69875,0.43185 -1.54456,-1.08612 -2.4235,-4.34949 -2.13721,-7.93505 -5.47897,-25.26123 -6.27177,-32.5175 -1.29878,-11.8873 -7.62471,-25.59539 -16.15577,-35.00908 -4.1374,-4.56546 -5.7275,-7.1664 -6.59696,-10.79076 -0.63008,-2.62646 -2.17899,-6.17607 -3.44202,-7.88801 -1.26302,-1.71193 -2.29641,-3.63327 -2.29641,-4.26965 0,-0.63637 -1.45975,-4.98222 -3.24389,-9.65747 -1.78414,-4.67524 -3.54742,-10.5803 -3.91838,-13.12235 -0.37097,-2.54205 -1.47199,-6.20539 -2.44672,-8.14076 -0.97473,-1.93537 -1.77878,-5.13634 -1.78676,-7.11327 -0.021,-5.17712 -1.05464,-6.48345 -3.89572,-4.92314 -1.24003,0.68102 -6.21474,1.47198 -11.05492,1.75769 l -8.80031,0.51946 -0.57151,-3.57765 c -0.62984,-3.94279 -1.72374,-5.24641 -2.5643,-3.05595 -0.76467,1.99269 -2.77733,1.76156 -4.17701,-0.47967 -0.65153,-1.04328 -2.14128,-1.91107 -3.31055,-1.92842 -2.59078,-0.0384 -6.76939,-3.33578 -5.93607,-4.68413 0.97958,-1.585 2.01281,-1.12898 3.16334,1.39616 0.70075,1.53798 1.85393,2.37109 3.28207,2.37109 1.21095,0 2.6767,0.47496 3.25722,1.05548 1.75182,1.75182 3.11764,0.005 3.11764,-3.98723 0,-2.07252 0.64544,-5.31302 1.43433,-7.20108 1.0222,-2.44646 1.26946,-5.0948 0.86051,-9.21678 -0.3415,-3.44231 -0.1435,-6.89313 0.48908,-8.52368 1.35147,-3.4836 0.98397,-3.79299 -2.40571,-2.02526 -1.51212,0.78858 -3.91765,1.43641 -5.3456,1.43963 -1.99236,0.005 -3.15064,0.88395 -4.97929,3.78074 -1.31065,2.07619 -2.38299,4.17223 -2.38299,4.65786 0,1.1895 5.2209,5.51687 7.54654,6.255 1.02639,0.32576 2.84258,0.092 4.03598,-0.51948 2.06149,-1.05626 2.08933,-1.02746 0.5578,0.57716 -2.80276,2.9365 -7.81133,2.00066 -11.96346,-2.23533 -1.97872,-2.01869 -3.42792,-4.17959 -3.22045,-4.80199 0.20746,-0.6224 0.11851,-1.80583 -0.19769,-2.62983 -0.45438,-1.18408 -0.85968,-1.26184 -1.93319,-0.37091 -1.03797,0.86144 -1.12414,1.64116 -0.36542,3.30637 0.71305,1.56498 0.67641,2.77039 -0.13,4.27717 -0.61757,1.15394 -1.33625,1.88468 -1.59707,1.62386 -0.26082,-0.26082 -0.0633,-1.25767 0.43899,-2.21521 1.08943,-2.07695 -0.1613,-6.00638 -1.91451,-6.0148 -1.70306,-0.009 3.07151,-2.40405 6.4346,-3.22886 4.25076,-1.04252 12.27234,-5.01689 13.77298,-6.82395 1.06951,-1.28789 1.38032,-6.8661 1.54532,-27.73411 0.1136,-14.36709 0.42029,-26.67902 0.68156,-27.35986 0.80102,-2.08743 4.7037,-1.38022 8.11939,1.47134 3.24222,2.70672 3.245,2.71617 2.99968,10.19569 -0.14529,4.42964 0.40018,10.39088 1.33589,14.59972 0.86978,3.9123 2.32854,11.77271 3.24168,17.46756 1.23732,7.71663 2.11484,10.69336 3.44477,11.68529 0.98149,0.73204 1.69651,1.67157 1.58895,2.08785 -0.10756,0.41628 2.66662,1.92718 6.16484,3.35756 10.01289,4.09416 14.91674,10.78662 16.86715,23.01922 0.79272,4.97181 0.0699,5.1158 -2.38047,0.47422 -4.06802,-7.70578 -1.66376,0.11517 3.21512,10.45866 6.05177,12.83003 12.78342,23.69168 15.98222,25.78762 1.24292,0.8144 2.74375,3.0752 3.33519,5.02402 2.43382,8.01955 7.62838,17.99552 11.47526,22.0378 4.56684,4.79883 9.53333,12.85974 9.54679,15.49503 0.006,1.13544 -1.70211,-0.35177 -4.90135,-4.26797 -2.70062,-3.30586 -6.30077,-7.50445 -8.00031,-9.33019 -1.69954,-1.82574 -5.18462,-8.12463 -7.74463,-13.99756 -3.27974,-7.52405 -5.7491,-11.74371 -8.36021,-14.286 -2.0381,-1.98439 -5.56039,-6.68493 -7.82729,-10.44566 -4.11052,-6.81922 -9.65945,-12.21821 -11.43176,-11.12287 -0.51405,0.3177 -1.22114,2.48827 -1.57134,4.82349 -0.70918,4.72917 -2.35467,5.85879 -2.0429,1.40244 0.10941,-1.56389 0.51902,-2.84428 0.91025,-2.84531 0.39123,-9.5e-4 0.71133,-1.06888 0.71133,-2.37298 0,-1.3041 0.34704,-2.37109 0.77121,-2.37109 1.2195,0 2.1786,-18.68851 1.11341,-21.69547 -0.96198,-2.7156 1.70449,-1.95389 2.85119,0.81449 1.55274,3.74865 2.96604,4.63519 1.94367,1.21923 -2.2153,-7.40177 -6.78029,-13.71263 -9.28768,-12.83973 -0.65205,0.227 -1.18554,-0.0387 -1.18554,-0.59039 0,-0.9296 -4.76319,-3.89713 -6.2553,-3.89713 -0.67022,0 0.047,10.47781 1.0707,15.64085 0.30936,1.56033 1.24181,3.58761 2.0721,4.50507 0.83029,0.91746 1.33677,1.70076 1.12551,1.74067 -0.21126,0.0399 -1.11907,0.2138 -2.01737,0.38641 -1.23164,0.23667 -1.7719,-0.53912 -2.19713,-3.15499 -0.99881,-6.14442 -1.16397,-6.39361 -1.27598,-1.92519 -0.0673,2.68619 0.39594,4.80885 1.19413,5.47129 0.89144,0.73984 1.15696,2.38822 0.83902,5.20893 -0.28175,2.4997 -0.0481,4.38434 0.59273,4.78038 0.58181,0.35958 1.05784,2.31138 1.05784,4.33735 0,2.02595 0.82956,5.09503 1.84346,6.82018 1.0139,1.72515 2.26059,5.69741 2.77043,8.82724 0.50983,3.12984 1.36355,6.75761 1.89714,8.06171 0.8333,2.03656 0.92675,1.76894 0.6624,-1.89687 -0.16927,-2.34738 -0.12223,-3.41437 0.10455,-2.37109 1.03567,4.76451 4.59997,14.72759 7.07852,19.78615 1.49822,3.05777 3.40954,7.96593 4.24736,10.90701 0.83782,2.94107 1.90286,5.75286 2.36674,6.24842 1.51107,1.61424 0.88758,2.68403 -0.81633,1.40066 -0.91287,-0.68757 0.67304,1.18075 3.52423,4.15182 2.8512,2.97108 5.39415,5.40195 5.65098,5.40195 0.25684,0 -1.41793,-1.92058 -3.72171,-4.26796 -2.30378,-2.34738 -3.72269,-4.26796 -3.15314,-4.26796 1.42603,0 7.89532,7.28984 7.89532,8.89675 0,0.71708 0.59865,1.80061 1.33033,2.40786 3.6058,2.99255 10.05091,21.86161 10.05091,29.42561 0,1.89079 0.83034,5.80027 1.8452,8.68773 1.01486,2.88747 2.26197,9.32357 2.77134,14.30245 0.80516,7.87008 1.49328,10.18177 5.26806,17.69782 4.17597,8.31484 5.17991,11.5285 3.60148,11.5285 -0.40726,0 -2.31876,-3.1897 -4.24781,-7.08822 z m 1.52181,-1.01439 c -0.3089,-0.80495 -0.76504,-1.26015 -1.01364,-1.01153 -0.24862,0.24861 -0.1707,0.90721 0.17313,1.46356 0.93521,1.51319 1.48182,1.21922 0.84051,-0.45203 z m -2.39856,-4.70528 c -0.59519,-1.3063 -1.26081,-2.19645 -1.47916,-1.9781 -0.44297,0.44297 1.48,4.3532 2.14081,4.3532 0.23128,0 -0.0665,-1.06879 -0.66165,-2.3751 z M 518.63046,297.6844 c 0,-0.68276 -0.62735,-2.06985 -1.39411,-3.08241 -1.26039,-1.66447 -1.28594,-1.54541 -0.26628,1.24137 1.21209,3.31276 1.66039,3.80982 1.66039,1.84104 z m 16.40765,-27.46679 c -3.11088,-4.9364 -6.32053,-9.19973 -6.66596,-8.8543 -0.39277,0.39276 6.43528,10.05783 7.10552,10.05783 0.17538,0 -0.0224,-0.54159 -0.43956,-1.20353 z m -36.70418,-6.95302 c -0.33754,-0.87962 -0.82711,-1.38591 -1.08793,-1.12509 -0.26082,0.26082 -0.19805,1.19391 0.13949,2.07353 0.33754,0.87961 0.82711,1.38591 1.08793,1.12509 0.26082,-0.26082 0.19805,-1.19391 -0.13949,-2.07353 z m 24.36121,-8.93008 c -0.27494,-1.0514 -0.94771,-2.18842 -1.49504,-2.52668 -0.62576,-0.38674 -0.75929,-4.3e-4 -0.35973,1.04079 0.34947,0.9107 0.6354,2.0477 0.6354,2.52668 0,0.47897 0.38683,0.87086 0.85964,0.87086 0.4728,0 0.63468,-0.86024 0.35973,-1.91165 z m -29.38746,-2.2052 c 0.26837,-0.69936 0.10717,-1.87305 -0.35822,-2.6082 -0.61582,-0.97278 -0.85011,-0.62664 -0.86069,1.27155 -0.0157,2.83224 0.44929,3.34223 1.21891,1.33665 z m -1.23343,-5.18623 c 0,-0.42194 -0.67184,-1.59563 -1.49299,-2.6082 -0.82114,-1.01257 -1.31374,-1.41424 -1.09467,-0.8926 0.21907,0.52164 0.66412,1.69533 0.989,2.6082 0.60689,1.70528 1.59866,2.25902 1.59866,0.8926 z m 15.30437,-19.9171 c -2.53434,-3.55174 -6.9079,-11.00316 -9.71902,-16.5587 -2.81113,-5.55553 -5.43123,-10.11849 -5.82246,-10.1399 -1.32102,-0.0723 -0.72311,4.69029 0.79883,6.363 0.83058,0.91287 4.13134,5.92773 7.33503,11.14413 3.20367,5.2164 6.25857,9.96556 6.78865,10.55369 0.53008,0.58813 1.59151,1.97522 2.35872,3.08242 0.7672,1.10719 1.7264,2.01308 2.13153,2.01308 0.40513,0 -1.33694,-2.90597 -3.87128,-6.45772 z m -36.42682,-20.6715 c -0.31517,-0.31516 -1.1332,-0.34885 -1.81784,-0.0748 -0.7566,0.30276 -0.53187,0.5275 0.57301,0.573 0.99981,0.0412 1.55998,-0.18297 1.24483,-0.49813 z m 3.10217,-1.85405 c 0,-0.81325 -0.43376,-1.21055 -0.96391,-0.8829 -0.53014,0.32765 -0.71836,0.99303 -0.41824,1.47863 0.81303,1.31552 1.38215,1.07022 1.38215,-0.59573 z m -18.02029,-9.42839 c -0.65414,-3.4668 -1.50157,-5.95204 -1.88317,-5.52274 -1.0333,1.16247 1.1456,13.75296 2.19796,12.7006 0.53379,-0.53379 0.41114,-3.33062 -0.31479,-7.17786 z m 18.87418,-1.35828 c -0.052,-2.38278 -0.40133,-5.39932 -0.7763,-6.70342 -0.60811,-2.11492 -1.13585,-2.34918 -4.88475,-2.16832 -2.31164,0.11154 -6.0471,0.74714 -8.30102,1.41245 -4.32496,1.27664 -4.28304,1.15728 -2.59657,7.39492 0.21155,0.78246 0.4173,1.93164 0.45721,2.55374 0.0399,0.6221 0.92616,0.9667 1.96943,0.76579 1.04328,-0.20092 1.89688,-0.0553 1.89688,0.32353 0,0.37886 2.77417,0.70342 6.16483,0.72124 l 6.16483,0.0324 -0.0946,-4.33233 z m -9.38982,-10.00629 c 2.86902,-0.67116 5.85505,-1.37628 6.63562,-1.56691 2.3905,-0.58383 3.66511,-2.94161 2.80839,-5.19495 -0.43284,-1.13844 -0.60104,-2.25584 -0.37377,-2.4831 0.22725,-0.22726 -0.51547,-0.34478 -1.65051,-0.26117 -1.13503,0.0837 -2.38522,0.97258 -2.77817,1.97545 -1.08416,2.76684 -0.98296,3.24606 0.68546,3.24606 1.01986,0 1.38102,-0.58222 1.07857,-1.73879 -0.26007,-0.99452 0.0478,-1.73881 0.71925,-1.73881 0.64569,0 1.17398,0.95525 1.17398,2.12277 0,1.62005 -0.6551,2.21892 -2.7662,2.52877 -2.59016,0.38015 -2.74861,0.2199 -2.48964,-2.51796 0.2299,-2.43067 -0.0923,-2.97623 -1.90963,-3.23385 -1.20241,-0.17045 -2.74627,0.1549 -3.4308,0.72302 -0.92,0.76353 -1.56027,0.65259 -2.45487,-0.42535 -1.08288,-1.30478 -1.41277,-1.28105 -3.13419,0.22542 -1.05815,0.92603 -1.61196,1.1502 -1.23069,0.49815 0.38127,-0.65205 0.46966,-1.18555 0.19641,-1.18555 -0.27326,0 -0.94897,0.84484 -1.50159,1.87741 -1.31604,2.45906 -0.22856,6.63813 1.75217,6.73339 0.98393,0.0473 1.12062,0.25094 0.3714,0.55326 -2.15001,0.86754 -1.28656,2.47049 0.94844,1.76072 1.17369,-0.37273 4.48136,-1.22682 7.35037,-1.89798 z m -7.58748,-1.48264 c -1.03898,-0.70309 -0.6553,-0.79108 1.42265,-0.32628 3.48733,0.78006 4.24436,1.32291 1.81784,1.30352 -0.99981,-0.008 -2.45803,-0.44774 -3.24049,-0.97724 z m 5.17739,-0.96821 c -0.94532,-1.52957 0.29067,-2.25073 1.76311,-1.02872 0.71265,0.59146 1.57656,0.79454 1.91979,0.45131 0.34323,-0.34324 0.62407,-0.12614 0.62407,0.48244 0,1.38567 -3.46209,1.46201 -4.30697,0.095 z m 13.17018,2.39329 c -0.3089,-0.80496 -0.76504,-1.26015 -1.01364,-1.01154 -0.24862,0.24862 -0.1707,0.90722 0.17313,1.46356 0.93521,1.51319 1.48182,1.21923 0.84051,-0.45202 z m -16.4507,-17.50516 c 1.8775,-0.60128 1.97623,-0.75936 0.47422,-0.75936 -1.04328,0 -2.96387,0.34171 -4.26797,0.75936 -1.8775,0.60128 -1.97622,0.75935 -0.47421,0.75935 1.04328,0 2.96386,-0.34171 4.26796,-0.75935 z m -1.78456,-3.08242 c 0.0617,-0.65205 0.0302,-1.60036 -0.0702,-2.10737 -0.10037,-0.50699 0.70268,-0.12075 1.78455,0.85833 1.08188,0.97908 2.02151,1.3939 2.08808,0.92182 0.58163,-4.12439 0.42904,-5.12629 -0.78072,-5.12629 -0.74203,0 -1.08536,-0.42679 -0.76297,-0.94843 0.32239,-0.52164 0.22141,-0.94844 -0.2244,-0.94844 -0.44581,0 -0.90849,-1.60048 -1.02818,-3.55663 l -0.21763,-3.55664 1.86857,3.31953 c 1.02772,1.82574 2.5155,4.59991 3.30618,6.16483 0.99648,1.97222 1.449,2.31883 1.47473,1.12957 0.0204,-0.94366 0.4459,-1.46309 0.94552,-1.15432 0.49961,0.30878 0.28884,-0.62632 -0.46838,-2.07801 -0.75722,-1.45168 -1.37939,-3.13735 -1.38261,-3.74593 -0.003,-0.60857 -0.51776,-1.27714 -1.14343,-1.48571 -0.69924,-0.23307 -0.49752,-0.62481 0.52348,-1.0166 0.92518,-0.35502 1.4223,-0.25108 1.12212,0.23463 -0.29642,0.47961 -0.14266,1.11695 0.34169,1.4163 0.48436,0.29935 0.77073,-0.20466 0.63639,-1.12001 -0.13434,-0.91535 -0.84377,-1.66428 -1.57651,-1.66428 -0.91132,0 -1.51787,-1.64808 -1.91979,-5.21639 -0.7644,-6.78638 -3.59094,-16.29065 -4.65011,-15.63605 -0.45541,0.28146 -0.66798,-0.31923 -0.47239,-1.33486 0.51694,-2.68425 -0.52409,-5.93026 -1.76109,-5.49115 -0.58563,0.20788 -0.92168,1.18562 -0.74678,2.17276 0.1749,0.98713 0.26403,5.12989 0.19806,9.20612 -0.0764,4.7254 0.36802,8.3895 1.22653,10.11043 1.38603,2.77835 1.06123,7.6197 -0.58311,8.6915 -1.16154,0.75711 0.0514,13.14684 1.2871,13.14684 0.48012,0 0.92349,-0.5335 0.98526,-1.18555 z m -0.11231,-27.32351 c 0,-1.07406 0.42679,-1.68907 0.94843,-1.36668 0.52164,0.3224 0.94844,1.20118 0.94844,1.95285 0,0.75168 -0.4268,1.36668 -0.94844,1.36668 -0.52164,0 -0.94843,-0.87878 -0.94843,-1.95285 z m 6.44378,4.08683 c -0.51916,-1.95615 -1.16369,-6.70305 -1.43229,-10.54868 -0.31323,-4.48475 -0.78396,-6.52536 -1.31274,-5.69061 -0.64931,1.02503 -0.82749,0.94893 -0.83892,-0.35834 -0.008,-0.91287 0.41227,-1.65976 0.93391,-1.65976 2.14612,0 0.88048,-5.40083 -1.88698,-8.05223 -1.55947,-1.49407 -2.96064,-2.53421 -3.11369,-2.31143 -0.15305,0.2228 -0.84995,1.15197 -1.54867,2.06484 -1.77847,2.32354 0.25643,4.89415 2.79763,3.53414 1.8928,-1.01299 3.58379,0.3766 1.79991,1.4791 -1.68916,1.04396 -0.14917,9.47755 4.36673,23.91406 0.89062,2.84715 1.08902,0.84631 0.23511,-2.37109 z m 17.54648,73.31586 c -0.8942,-1.01778 -0.8848,-1.40051 0.0432,-1.75659 0.67044,-0.25728 1.24516,0.32437 1.32146,1.33739 0.15857,2.10507 0.12548,2.11523 -1.36458,0.4192 z m 0.0598,-5.44415 c 0.22509,-1.24126 -0.18597,-3.07084 -0.91344,-4.06572 -1.53526,-2.09958 -1.73564,-4.29163 -0.39232,-4.29163 0.5117,0 1.19742,1.06404 1.52383,2.36453 0.3264,1.3005 0.88436,2.18475 1.2399,1.96502 0.35554,-0.21973 0.61462,0.9265 0.57575,2.54719 -0.0389,1.62067 -0.60444,3.12462 -1.25682,3.34208 -0.79479,0.26492 -1.05112,-0.34924 -0.7769,-1.86147 z m -43.89243,-1.32312 c 0.0455,-1.10488 0.27025,-1.32961 0.57301,-0.57301 0.27398,0.68464 0.24029,1.50267 -0.0749,1.81783 -0.31515,0.31516 -0.53931,-0.24501 -0.49813,-1.24482 z m 6.1577,-2.83402 c -1.00438,-0.73442 -1.61274,-1.54871 -1.35192,-1.80953 0.26082,-0.26082 1.29598,0.12667 2.30036,0.8611 1.00438,0.73442 1.61274,1.54871 1.35192,1.80953 -0.26082,0.26082 -1.29598,-0.12668 -2.30036,-0.8611 z m 2.14527,-6.84267 c -0.61767,-1.45669 -6.48253,-5.05602 -7.3574,-4.51531 -0.48916,0.30231 -1.18562,0.0704 -1.54768,-0.51551 -0.46828,-0.75768 -0.88315,-0.70138 -1.43718,0.19506 -1.29958,2.10278 -2.05735,-1.28292 -0.94308,-4.21368 0.913,-2.40125 3.85598,-3.6119 3.85598,-1.58621 0,0.52164 -0.4268,0.94844 -0.94844,0.94844 -1.92868,0 -0.86603,1.97372 1.65976,3.08278 1.43451,0.62988 2.94951,1.68772 3.36666,2.35075 0.41715,0.66303 1.27477,1.20552 1.90583,1.20552 0.63106,0 1.68047,0.85359 2.33201,1.89687 0.65154,1.04328 0.78976,1.89687 0.30718,1.89687 -0.4826,0 -1.0197,-0.33551 -1.19359,-0.74558 z m -30.86454,-4.6305 c 1.45575,-0.95546 2.87895,-2.65701 3.16266,-3.78123 0.28372,-1.12422 1.54673,-3.0125 2.8067,-4.19617 1.25996,-1.18368 2.29084,-2.68745 2.29084,-3.34173 0,-1.8775 2.75777,-4.14444 4.3149,-3.5469 1.17365,0.45036 1.08989,0.82459 -0.49165,2.19624 -1.10167,0.95548 -2.01066,3.07235 -2.15348,5.01502 -0.13591,1.8489 -0.55839,3.1701 -0.93884,2.93599 -1.11183,-0.68416 -4.52467,1.50651 -4.52467,2.90434 0,0.70327 -0.74689,1.49343 -1.65976,1.7559 -0.91287,0.26248 -2.51336,0.7739 -3.55664,1.13648 -1.11506,0.38753 -0.80596,-0.0567 0.74994,-1.07794 z m 7.31177,-2.2114 c 0,-0.52164 0.42679,-0.94844 0.94843,-0.94844 0.52164,0 0.94844,0.4268 0.94844,0.94844 0,0.52164 -0.4268,0.94843 -0.94844,0.94843 -0.52164,0 -0.94843,-0.42679 -0.94843,-0.94843 z m 2.91196,-0.71133 c 0.0367,-0.39123 0.43346,-1.56492 0.88178,-2.6082 0.72229,-1.68086 0.8227,-1.59986 0.88177,0.71133 0.0367,1.43451 -0.36013,2.6082 -0.88177,2.6082 -0.52164,0 -0.91844,-0.3201 -0.88178,-0.71133 z m 23.06785,-7.41982 c -0.33689,-1.34229 -0.20137,-2.85169 0.30117,-3.35423 0.58598,-0.58598 0.95893,0.28937 1.0398,2.44053 0.14812,3.94002 -0.47487,4.36451 -1.34097,0.9137 z m -7.95953,-3.25008 c 0,-0.52164 0.45199,-0.94844 1.00441,-0.94844 0.55243,0 0.74064,0.4268 0.41824,0.94844 -0.32239,0.52164 -0.77438,0.94843 -1.00441,0.94843 -0.23003,0 -0.41824,-0.42679 -0.41824,-0.94843 z m 4.74218,-4.74218 c 0,-0.52164 0.4268,-0.94844 0.94844,-0.94844 0.52164,0 0.94843,0.4268 0.94843,0.94844 0,0.52164 -0.42679,0.94843 -0.94843,0.94843 -0.52164,0 -0.94844,-0.42679 -0.94844,-0.94843 z"
       id="path3047"
       inkscape:connector-curvature="0"
       sodipodi:nodetypes="ssssscssssscsssssccscssssssssssssssssssssssssssscsssssscsssscsscscccscsssccssssssscssssssssssssssssssccsssssssssssssssscscssscssssscsssssssssssssscssscsssssssscssssssssscssssssssssssssssssssssssssssscssscssssssssscsssssscsssssccssssssssssssssssscsssssssscsssssssssscssssssssssssssssssssssssssssscsscsscsssscsscssssssssssssscsssssssscsssssscccccsscssssscsssscssscccsssccsssssssssssssssssssscssscssscsssssssccsssssscssccscsscccsssscsssssccsssssssscsscssssscssccsssssssscccccssssscscscssssssscccsssssscssscssssscscscssssssssssssss" />
    <path
       style="fill:#000000"
       d="m 328.82396,362.03547 c -0.24352,-1.44956 -1.12224,-5.73737 -1.95267,-9.5285 -1.6327,-7.45359 -4.09282,-33.93546 -4.06807,-43.79051 0.009,-3.34511 -0.4998,-8.63646 -1.12937,-11.75857 -0.62954,-3.1221 -1.38648,-10.42052 -1.68209,-16.21871 -0.29906,-5.86598 -1.6057,-16.29745 -2.94574,-23.51713 -2.92639,-15.76648 -3.77679,-26.9306 -2.31939,-30.44909 0.77248,-1.86493 0.79763,-2.7153 0.10091,-3.41202 -0.51041,-0.51041 -0.928,-1.96502 -0.928,-3.23247 0,-3.4317 3.21333,-21.85168 4.14347,-23.75187 0.62673,-1.28037 0.32445,-2.50929 -1.35737,-5.51839 -1.88817,-3.37832 -2.10031,-4.45923 -1.6661,-8.48951 0.93057,-8.6375 1.48201,-11.51127 2.2089,-11.51127 0.39918,0 0.72577,-0.48376 0.72577,-1.07503 0,-0.59129 0.9123,-1.93211 2.02734,-2.97964 l 2.02734,-1.90459 0,1.76324 c 0,0.96977 0.36492,1.76322 0.81093,1.76322 0.44602,0 0.81094,-0.49082 0.81094,-1.09072 0,-0.59989 0.74435,-1.76435 1.65412,-2.58768 1.62051,-1.46654 1.7062,-1.44491 4.21489,1.06379 2.53411,2.53411 2.55027,2.60169 1.55243,6.49504 -1.19928,4.67936 -0.36052,9.5332 2.21265,12.80445 1.91421,2.43352 2.22281,5.19314 0.74589,6.67006 -1.40338,1.40337 -2.37922,1.19645 -2.10344,-0.44602 0.17982,-1.07102 -0.40957,-1.48157 -2.40284,-1.67366 -3.81108,-0.36728 -4.35729,1.775 -1.19011,4.66778 1.3602,1.24234 2.62414,3.12957 2.80877,4.19385 l 0.3357,1.93506 0.95449,-2.02734 c 0.80497,-1.70971 0.86635,-1.32856 0.39177,2.43281 -0.60788,4.81793 -0.4776,25.18574 0.16521,25.82855 1.0158,1.0158 1.3374,-1.36315 1.59007,-11.76208 0.33454,-13.76845 1.03372,-18.75948 2.97987,-21.27152 1.70024,-2.19462 1.99649,-7.62746 0.61023,-11.19094 -0.99139,-2.54844 -1.47738,-6.74546 -0.78028,-6.73849 0.24857,0.002 1.81474,0.383 3.48038,0.84558 2.11244,0.58668 4.00298,0.57864 6.25051,-0.0265 3.36928,-0.90726 5.42166,-2.6982 2.77099,-2.41802 -0.82927,0.0876 -2.78499,0.0919 -4.34604,0.01 l -2.83828,-0.14986 3.81206,-1.17283 c 5.42717,-1.66974 5.62179,-2.76677 0.49321,-2.77996 -2.36789,-0.006 -5.13033,-0.23215 -6.13875,-0.50237 -2.51458,-0.6738 -3.10776,-3.69296 -1.32012,-6.7192 1.33171,-2.25438 1.36091,-2.90512 0.33895,-7.55113 -1.73186,-7.87338 -1.32818,-10.19486 2.39497,-13.77239 1.98149,-1.90398 3.02639,-3.5411 2.73868,-4.29085 -0.59244,-1.54391 -2.77394,-1.55376 -4.79954,-0.0216 -0.86578,0.65483 -2.13165,1.20221 -2.81305,1.21639 -0.68141,0.0142 -1.92769,0.83022 -2.76953,1.81341 -1.48979,1.73997 -1.54713,1.74536 -2.15055,0.20274 -0.34098,-0.8717 -0.64561,-2.38442 -0.67696,-3.36163 -0.12047,-3.75561 -4.1302,-2.87952 -5.55728,1.21422 -0.44291,1.2705 -1.74274,3.32154 -2.88853,4.55787 -2.715,2.92953 -8.07544,3.13838 -13.91191,0.54202 -5.92202,-2.63439 -11.02835,-3.41919 -16.01598,-2.4615 -2.34157,0.44961 -5.99788,0.97539 -8.12514,1.16841 -4.96187,0.4502 -10.23889,1.84482 -12.52767,3.31085 -0.98922,0.63361 -3.0759,1.31557 -4.63708,1.51546 -1.56118,0.19987 -4.94842,1.47558 -7.5272,2.83489 -2.57876,1.35931 -5.10702,2.47226 -5.61833,2.47322 -1.15074,0.002 -5.94819,5.37162 -6.00427,6.72017 -0.52533,12.63392 -1.87066,15.65203 -8.10957,18.19291 -2.43042,0.98984 -3.91811,1.81092 -3.30598,1.82461 0.85526,0.0192 0.89741,0.28464 0.18203,1.14661 -0.72477,0.8733 -0.6155,1.24274 0.49344,1.66829 0.78341,0.30062 1.55372,0.1585 1.71183,-0.31583 0.15811,-0.47431 0.62122,-0.65612 1.02914,-0.40401 0.40791,0.25211 0.74167,0.10168 0.74167,-0.33428 0,-0.43596 1.2795,-1.58342 2.84333,-2.54993 1.56577,-0.96769 2.60258,-2.14681 2.30751,-2.62424 -0.30801,-0.49837 -0.15507,-0.63166 0.35973,-0.31349 1.29214,0.79859 2.2999,-1.64612 2.90735,-7.05294 0.29184,-2.59748 1.11709,-6.06423 1.83391,-7.70388 l 1.3033,-2.98117 1.44599,4.69092 c 0.7953,2.57999 2.44996,6.00718 3.67703,7.61595 2.89967,3.80166 3.09676,6.82243 0.66056,10.12451 -2.1842,2.96053 -2.47434,5.69758 -0.78321,7.3887 1.77317,1.77318 2.43041,8.22702 1.28134,12.58225 -2.92301,11.07874 -4.75523,14.76861 -7.33345,14.76861 -2.51684,0 -3.69755,3.86097 -2.06602,6.75594 1.59279,2.82622 1.60098,4.1931 0.0926,15.47795 -0.66068,4.94292 -1.93383,16.06078 -2.82921,24.70635 -0.89538,8.64558 -2.0195,16.19099 -2.49803,16.76759 -0.57223,0.6895 -0.96708,11.13132 -1.15347,30.50409 -0.2717,28.23948 -0.80394,36.00883 -3.55951,51.95919 -0.58143,3.36559 -0.48857,3.85194 0.73544,3.85194 1.14155,0 1.74746,-1.76405 3.27287,-9.52848 1.76008,-8.95898 1.87465,-11.47435 1.91701,-42.08348 0.0413,-29.82881 0.1639,-32.68631 1.46419,-34.12314 0.95921,-1.05994 1.41914,-2.90219 1.41914,-5.68437 0,-6.69644 3.60022,-36.79487 5.70036,-47.65595 0.43121,-2.23007 0.90861,-4.78452 1.06087,-5.67655 0.15227,-0.89203 0.87746,-2.77941 1.61154,-4.19418 0.73409,-1.41476 2.81117,-8.30918 4.61575,-15.32092 2.33106,-9.05742 3.86067,-13.43747 5.28295,-15.12776 1.10106,-1.30853 2.00191,-3.26344 2.00191,-4.34426 0,-2.39622 2.10586,-2.6509 2.83828,-0.34325 0.28312,0.89203 0.87578,1.62187 1.31703,1.62187 0.44125,0 0.2342,0.81104 -0.46012,1.80232 -1.60158,2.28659 -1.62434,5.80805 -0.046,7.11797 0.85023,0.70562 1.21641,2.5776 1.21641,6.21848 0,4.52163 0.48152,6.19876 3.64921,12.71034 2.00706,4.12576 3.64921,8.50092 3.64921,9.72259 0,1.22166 0.59881,3.1351 1.33069,4.25209 1.15897,1.76881 1.25974,3.76625 0.78096,15.47909 -0.30235,7.39653 -0.92114,15.18 -1.37506,17.29663 -0.77473,3.61241 -0.67344,4.0735 1.65184,7.51891 1.36245,2.01876 2.47577,4.3474 2.47403,5.17474 -0.006,2.50387 -5.47301,22.18096 -6.5111,23.43178 -0.56451,0.6802 -0.77271,2.26866 -0.49946,3.8108 0.25768,1.45444 0.53935,12.23587 0.6259,23.95874 0.10553,14.29266 0.61913,25.11221 1.55906,32.84288 0.91923,7.56041 1.47516,10.27251 1.61515,7.87937 l 0.21346,-3.64921 0.56733,3.64921 0.56734,3.64921 0.10578,-4.46014 c 0.0582,-2.45309 -0.43626,-9.75151 -1.09875,-16.21871 -0.66249,-6.46721 -1.21491,-18.64972 -1.22762,-27.07226 -0.0251,-16.66655 0.94358,-23.72502 4.93565,-35.96337 l 2.17754,-6.67562 1.70165,5.45922 c 2.2851,7.33101 3.15619,11.40428 5.50309,25.7326 3.193,19.49398 4.14184,27.44359 5.17824,43.38504 0.53644,8.25127 1.1203,15.15435 1.29744,15.34019 1.20303,1.26204 1.31027,-2.80007 0.46415,-17.58192 -0.52938,-9.24839 -1.85979,-22.47153 -2.95645,-29.38475 -1.09668,-6.91323 -2.56015,-16.21871 -3.25218,-20.67885 -0.69202,-4.46015 -2.57144,-12.2709 -4.17647,-17.35721 l -2.91824,-9.24785 3.06703,-10.62007 c 2.77595,-9.61212 6.62949,-20.51827 8.548,-24.19223 0.40443,-0.77447 0.73532,-2.30385 0.73532,-3.39861 0,-1.09478 0.38418,-2.22793 0.85374,-2.51813 0.46956,-0.2902 0.70442,-0.95035 0.52191,-1.467 -0.18252,-0.51665 0.0194,-1.85166 0.44858,-2.96669 0.42922,-1.11504 0.85164,-7.13623 0.93872,-13.38044 0.14576,-10.45308 0.33291,-11.73292 2.36079,-16.14434 1.22073,-2.65555 1.99119,-5.45697 1.72847,-6.28475 -0.26071,-0.82142 -0.21295,-2.31457 0.10614,-3.31811 0.52969,-1.66584 0.67309,-1.55648 1.64813,1.25702 0.58737,1.69488 0.86151,4.11384 0.60918,5.37546 -0.25816,1.2908 -0.0684,2.53508 0.43387,2.84553 1.70103,1.05129 0.44289,15.98447 -2.05392,24.37855 -1.09791,3.69102 -1.06023,5.14568 0.42013,16.21871 0.89442,6.69021 2.5605,16.67292 3.70241,22.18378 1.1419,5.51086 2.44658,14.26897 2.89927,19.46246 0.45272,5.19347 1.18212,11.63222 1.62092,14.3083 0.74856,4.56515 1.64987,17.35875 3.17077,45.00692 0.46995,8.54316 1.12006,13.13752 2.37743,16.80132 0.95182,2.77353 1.73058,5.75428 1.73058,6.62391 0,2.4285 0.86755,4.14657 2.09383,4.14657 0.8018,0 0.98661,-0.73069 0.66657,-2.63554 z m -86.82381,-4.05469 c 0.22496,-0.55751 0.40902,-0.10137 0.40902,1.01367 0,1.11504 -0.18406,1.57119 -0.40902,1.01368 -0.22496,-0.55752 -0.22496,-1.46983 0,-2.02735 z m 0.81093,-5.67655 c 0.22496,-0.55751 0.40903,-0.10136 0.40903,1.01368 0,1.11504 -0.18407,1.57118 -0.40903,1.01366 -0.22496,-0.55751 -0.22496,-1.46982 0,-2.02734 z m 39.70061,-3.24373 c 0.19328,-1.00353 0.35143,-0.18246 0.35143,1.8246 0,2.00707 -0.15815,2.82814 -0.35143,1.82461 -0.1933,-1.00353 -0.1933,-2.64568 0,-3.64921 z m -38.9116,-2.83828 c 0.20397,-0.78052 0.37086,-0.14191 0.37086,1.41914 0,1.56105 -0.16689,2.19967 -0.37086,1.41914 -0.20397,-0.78053 -0.20397,-2.05775 0,-2.83828 z m 0.78802,-10.53101 c 0.18639,-1.23267 0.34388,-0.41662 0.34998,1.81345 0.006,2.23008 -0.14643,3.23863 -0.33891,2.24123 -0.19248,-0.9974 -0.19747,-2.82201 -0.011,-4.05468 z m 0.83889,-10.09716 c 0.25887,-0.64691 0.45103,-0.45476 0.48993,0.48995 0.0352,0.85485 -0.15645,1.33381 -0.42591,1.06435 -0.26947,-0.26947 -0.29828,-0.96891 -0.064,-1.5543 z m 35.76582,-32.10194 c 1.39638,-1.33747 1.41365,-1.32018 0.38789,0.38789 -0.59049,0.98326 -1.24816,1.61318 -1.46149,1.39983 -0.21335,-0.21334 0.26977,-1.01781 1.0736,-1.78772 z m 3.97001,-13.31045 c 0.25888,-0.6469 0.45103,-0.45474 0.48994,0.48995 0.0352,0.85486 -0.15645,1.33382 -0.42592,1.06435 -0.26946,-0.26947 -0.29828,-0.9689 -0.064,-1.5543 z m 0.96862,-4.51082 c 0.3235,-0.78052 1.43127,-4.33851 2.46174,-7.90662 1.03046,-3.56812 1.89959,-5.91511 1.93139,-5.21553 0.10821,2.38025 -3.72833,14.54128 -4.58746,14.54128 -0.21662,0 -0.12917,-0.63861 0.19433,-1.41913 z m -38.25475,-6.89295 c 0.22496,-0.55752 0.40902,-0.10136 0.40902,1.01367 0,1.11504 -0.18406,1.57119 -0.40902,1.01367 -0.22496,-0.55752 -0.22496,-1.46982 0,-2.02734 z m 69.72355,-0.76025 c 0.25887,-0.64691 0.45102,-0.45476 0.48994,0.48994 0.0352,0.85486 -0.15646,1.33382 -0.42593,1.06435 -0.26945,-0.26947 -0.29827,-0.9689 -0.064,-1.55429 z m -30.9869,-16.8776 c -0.0155,-5.57518 0.3052,-14.97153 0.71289,-20.88078 0.83828,-12.15022 0.36167,-14.26708 -4.48786,-19.93267 l -2.71537,-3.1723 0.37022,-7.40354 c 0.20361,-4.07194 0.45869,-9.04567 0.56681,-11.05273 0.171,-3.17405 0.75061,-4.22995 4.45129,-8.10935 2.34007,-2.45309 4.46296,-5.09877 4.71752,-5.87929 0.67221,-2.06106 2.53039,-1.73849 3.10186,0.53846 0.27024,1.07668 0.71494,10.29094 0.98823,20.47612 0.2733,10.18518 0.74615,18.78973 1.05076,19.12121 0.30462,0.33148 0.51452,-6.96694 0.46644,-16.21871 -0.10314,-19.84844 0.28333,-27.95094 1.30317,-27.32066 0.40783,0.25207 0.74152,2.26136 0.74152,4.46511 0,2.20375 0.36492,4.00682 0.81093,4.00682 0.44601,0 0.81094,-1.09476 0.81094,-2.43281 0,-1.33804 0.36492,-2.43281 0.81093,-2.43281 0.44601,0 0.81093,-0.52584 0.81093,-1.16854 0,-0.6427 0.41814,-1.42697 0.92921,-1.74282 0.65395,-0.40416 0.76948,0.0621 0.39002,1.57401 -0.33438,1.33225 -0.20592,2.14829 0.33818,2.14829 0.48254,0 0.81239,0.63861 0.73299,1.41914 -0.28431,2.79501 0.13355,3.00171 1.22954,0.6082 1.017,-2.22108 1.11969,-2.27014 1.17982,-0.5637 0.0363,1.02799 -0.67056,3.48562 -1.57064,5.4614 -1.30825,2.87181 -1.44698,3.89575 -0.69168,5.1052 0.73483,1.17663 0.55909,4.53285 -0.79076,15.10111 -0.95458,7.47353 -1.52416,13.93032 -1.26576,14.34842 0.2584,0.41811 -0.11987,1.66017 -0.84059,2.76014 -0.97133,1.48243 -1.09645,2.39973 -0.48354,3.54495 0.63952,1.19495 -0.0746,4.17884 -3.15194,13.16944 -2.18833,6.39343 -4.96482,14.9087 -6.16995,18.92284 -1.20516,4.01413 -2.39333,7.63912 -2.64041,8.05552 -1.03245,1.74005 -1.67908,-3.0046 -1.7057,-12.51567 z m 7.66984,-2.12459 c 1.86371,-5.5697 4.47197,-11.45292 3.37232,-7.60663 -1.49874,5.24218 -4.87512,14.63232 -5.15917,14.34827 -0.19328,-0.19327 0.6108,-3.22702 1.78685,-6.74164 z M 250.0846,246.4926 c 0.2056,-0.78902 0.38735,-0.33981 0.40388,0.99823 0.0165,1.33805 -0.1517,1.9836 -0.37383,1.43457 -0.22213,-0.54903 -0.23565,-1.64379 -0.03,-2.4328 z m 63.26098,-1.99209 c 0.25886,-0.64691 0.45102,-0.45476 0.48993,0.48994 0.0352,0.85486 -0.15645,1.33382 -0.42592,1.06435 -0.26947,-0.26947 -0.29828,-0.9689 -0.064,-1.55429 z m -0.82928,-6.53817 c 0.19329,-1.00353 0.35143,-0.18246 0.35143,1.82461 0,2.00706 -0.15814,2.82814 -0.35143,1.8246 -0.1933,-1.00353 -0.1933,-2.64567 0,-3.64921 z m -61.59586,1.62188 c 0.22496,-0.55752 0.40902,-0.10137 0.40902,1.01366 0,1.11504 -0.18406,1.57119 -0.40902,1.01367 -0.22496,-0.55752 -0.22496,-1.46981 0,-2.02733 z m 59.73535,-14.0365 c 0,-0.6427 0.36492,-1.16855 0.81094,-1.16855 0.44601,0 0.81094,0.75139 0.81094,1.66974 0,0.91835 -0.36493,1.44419 -0.81094,1.16854 -0.44602,-0.27565 -0.81094,-1.02703 -0.81094,-1.66973 z m -59.98343,-5.46135 c -0.0142,-0.35398 0.84541,-1.58314 1.91021,-2.73147 l 1.93599,-2.08789 -0.68428,3.54241 c -0.37635,1.94833 -0.70017,3.88586 -0.71959,4.30561 -0.0406,0.87657 -2.40324,-2.05331 -2.44233,-3.02866 z m 50.96251,0.83281 c 0.8009,-0.79492 0.89404,-0.70178 0.45397,0.45396 -0.30454,0.79976 -0.75799,1.24983 -1.00765,1.00015 -0.24969,-0.24967 -5.2e-4,-0.90402 0.55368,-1.45411 z m 1.99638,-17.01613 c 0.22496,-0.55751 0.40902,-0.10136 0.40902,1.01368 0,1.11503 -0.18406,1.57118 -0.40902,1.01366 -0.22497,-0.55751 -0.22497,-1.46982 0,-2.02734 z m 0.78603,-6.06658 c 0.2056,-0.78902 0.38735,-0.3398 0.40387,0.99824 0.0165,1.33804 -0.15169,1.98359 -0.37383,1.43457 -0.22213,-0.54903 -0.23565,-1.6438 -0.0301,-2.43281 z m 1.28297,-9.97732 c 0.75559,-1.89299 0.8002,-1.84835 0.83839,0.83887 0.0222,1.56105 -0.22838,3.75057 -0.5568,4.86561 -0.55012,1.86776 -0.61612,1.80172 -0.83839,-0.83888 -0.1327,-1.5764 0.11786,-3.76593 0.5568,-4.8656 z m 6.57742,5.75234 c 0,-0.4197 0.36492,-0.98861 0.81093,-1.26426 0.44601,-0.27565 0.81094,0.0677 0.81094,0.76307 0,0.69534 -0.36493,1.26426 -0.81094,1.26426 -0.44601,0 -0.81093,-0.34337 -0.81093,-0.76307 z m -52.13484,-7.34628 c -0.23328,-0.89203 -0.0934,-1.62187 0.31089,-1.62187 0.40425,0 0.73501,0.72984 0.73501,1.62187 0,0.89203 -0.1399,1.62188 -0.31089,1.62188 -0.17099,0 -0.50174,-0.72985 -0.73501,-1.62188 z m 3.48254,-3.01046 c 0.8836,-1.37801 0.90649,-1.37624 0.46286,0.0358 -0.25668,0.817 -0.49551,1.91177 -0.53072,2.43281 -0.0462,0.68375 -0.17499,0.67378 -0.46285,-0.0358 -0.21937,-0.54072 0.0195,-1.63549 0.53071,-2.43282 z m 44.54982,-2.06661 c 0.61516,-1.76465 0.6389,-2.70009 0.0733,-2.88861 -0.96172,-0.32058 -1.15255,-7.96196 -0.21333,-8.54241 0.34272,-0.21183 0.48779,1.13509 0.3224,2.99314 -0.44264,4.97255 1.08343,2.89018 2.87288,-3.92016 1.38363,-5.26585 3.78295,-10.13727 4.99241,-10.13627 0.88337,7.4e-4 0.52244,6.53998 -0.39393,7.13724 -0.47781,0.31142 -1.11182,1.55965 -1.4089,2.77386 -0.29707,1.21418 -1.29543,2.91127 -2.21854,3.77129 -1.007,0.93815 -1.84006,2.97462 -2.08251,5.09079 -0.47126,4.1133 -2.06287,8.70306 -2.531,7.29868 -0.17742,-0.53227 0.0868,-2.14217 0.58719,-3.57755 z m -49.41927,1.14808 c 0,-0.37689 0.73255,-1.3482 1.6279,-2.15847 1.42394,-1.28866 4.04865,-5.63604 4.04865,-6.70592 0,-0.2091 -0.54738,0.0741 -1.2164,0.62935 -1.01854,0.84531 -1.21641,0.71941 -1.21641,-0.77401 0,-0.98096 -1.07869,-2.86226 -2.39711,-4.18067 -1.41995,-1.41995 -2.20628,-2.8944 -1.92898,-3.61703 0.25747,-0.67096 -0.2099,-1.96913 -1.0386,-2.88483 -1.46946,-1.62373 -1.46806,-1.69318 0.0566,-2.80808 1.37196,-1.00318 1.18645,-1.48476 -0.48805,-1.26691 -0.28877,0.0375 -0.3335,-0.66412 -0.0994,-1.55931 0.23539,-0.90012 1.01374,-1.55064 1.74143,-1.45542 1.86032,0.24345 8.04019,-1.60924 8.64794,-2.5926 0.51991,-0.84125 -2.2539,-0.38428 -5.95934,0.98177 -1.30349,0.48054 -1.70311,0.41818 -1.31758,-0.20562 0.90545,-1.46507 -3.05321,0.055 -5.22695,2.00714 -1.06039,0.95226 -2.44691,2.82616 -3.08114,4.1642 l -1.15315,2.43281 0.50345,-2.43281 c 1.10284,-5.32935 8.08118,-9.21923 14.89862,-8.30482 2.73926,0.36741 3.29102,0.16114 4.22196,-1.57834 1.69802,-3.17275 9.44677,-6.75996 10.59368,-4.90424 0.41351,0.6691 0.75169,0.53692 1.12671,-0.44036 0.65018,-1.69427 2.79517,-1.86333 2.79517,-0.22031 0,0.64686 -0.5638,1.49164 -1.25289,1.87726 -0.85043,0.47593 -1.32727,2.18137 -1.48441,5.30907 -0.12732,2.53435 -0.5115,4.88264 -0.85374,5.21842 -0.34222,0.33579 -0.54452,-0.11933 -0.44955,-1.01136 0.27979,-2.62789 0.0118,-3.32402 -0.79088,-2.05481 -0.60038,0.94927 -0.95634,0.70409 -1.7659,-1.21641 l -1.01394,-2.40533 -0.30437,2.2454 -0.30436,2.24541 -2.15534,-1.6954 c -1.27258,-1.00102 -2.27466,-1.33735 -2.44671,-0.8212 -0.16027,0.4808 -0.67768,0.63545 -1.1498,0.34365 -0.47214,-0.29179 -0.16728,0.6683 0.67746,2.13352 0.84472,1.46524 2.13189,2.82789 2.86038,3.02812 0.93469,0.25692 1.33774,1.32333 1.36948,3.62348 0.0248,1.79268 0.24978,3.46421 0.50011,3.71453 0.25031,0.2503 0.45511,-0.33555 0.45511,-1.30191 0,-0.96637 0.36492,-1.75704 0.81093,-1.75704 1.32114,0 0.9304,2.63705 -0.90298,6.09403 -2.41477,4.55325 -7.09356,10.12468 -8.50251,10.12468 -0.65316,0 -1.39762,0.54739 -1.65434,1.21641 -0.25673,0.66902 -0.98658,1.21641 -1.62187,1.21641 -0.6353,0 -1.36515,0.54737 -1.62188,1.21639 -0.48695,1.26895 -3.537,1.72699 -3.537,0.53116 z m 6.08556,-11.48451 c 0.2776,-0.44916 -0.0657,-0.99654 -0.76308,-1.2164 -0.69729,-0.21986 -1.88595,-0.5979 -2.64146,-0.84011 -1.21465,-0.38939 -1.2001,-0.24857 0.12568,1.21641 1.66491,1.8397 2.5249,2.06004 3.27886,0.8401 z m 47.81391,4.2877 c 0.84123,-3.35173 1.45758,-1.42962 0.75471,2.35361 -0.48027,2.5851 -0.73109,3.00215 -0.95865,1.59403 -0.16951,-1.04891 -0.0777,-2.82534 0.20394,-3.94764 z m 20.64227,0.58364 c -0.27993,-1.70359 0.916,-5.67655 1.70874,-5.67655 0.36171,0 0.29583,1.3104 -0.14639,2.91199 -0.44223,1.6016 -0.57364,3.51744 -0.29205,4.25742 0.33578,0.88238 0.23967,1.06632 -0.27922,0.53448 -0.43517,-0.44601 -0.88115,-1.35832 -0.99108,-2.02734 z m 4.18658,-1.30905 c -0.18584,-0.17205 -0.11742,-0.53329 0.15204,-0.80276 0.26948,-0.26946 2.06367,0.0909 3.98711,0.80077 l 3.49716,1.2907 -3.64921,-0.48794 c -2.00707,-0.26836 -3.80126,-0.62871 -3.9871,-0.80077 z m -32.88587,-5.06645 c -0.28075,-1.27827 0.0189,-3.8247 0.67369,-5.72528 1.0041,-2.91442 1.00972,-3.35797 0.0378,-2.98501 -0.62784,0.24093 -1.14154,0.0631 -1.14154,-0.39529 0,-0.45834 -0.29112,-0.65343 -0.64692,-0.43353 -0.35581,0.2199 -1.17688,0.0646 -1.82461,-0.34519 -1.0965,-0.69365 -0.40628,-0.89759 3.28247,-0.96984 0.223,-0.004 1.35358,0.21434 2.51241,0.48604 1.73399,0.40654 2.28137,0.11115 3.09238,-1.66879 1.77244,-3.89009 5.74389,-8.29927 7.0306,-7.80551 1.06582,0.409 1.06148,0.68852 -0.0369,2.3647 -0.68504,1.04549 -1.24552,2.4611 -1.24552,3.14582 0,0.68471 -0.32236,1.24493 -0.71635,1.24493 -0.39399,0 -0.9314,0.63861 -1.19422,1.41914 -0.86694,2.57457 -3.76603,7.09442 -3.76294,5.86663 0.002,-0.66206 0.72614,-2.38975 1.60995,-3.8393 0.8838,-1.44954 1.22953,-2.63553 0.76825,-2.63553 -0.46126,0 -1.51436,1.50923 -2.34022,3.35383 -1.13749,2.54068 -1.58457,2.98307 -1.84392,1.82461 -0.45944,-2.05216 -2.24112,4.00634 -2.24724,7.64165 -0.006,3.13462 -1.27488,2.7905 -2.00727,-0.54408 z m 5.50346,-2.69685 c 0.25887,-0.6469 0.45103,-0.45474 0.48994,0.48995 0.0352,0.85486 -0.15646,1.33382 -0.42592,1.06436 -0.26946,-0.26947 -0.29828,-0.96891 -0.064,-1.55431 z m 21.56073,-1.52503 c -1.29538,-0.9224 -2.36084,-2.29085 -2.36766,-3.041 -0.0107,-1.17699 -0.12017,-1.19721 -0.79853,-0.14753 -0.54725,0.84682 -0.78988,-0.58451 -0.79852,-4.71073 -0.008,-3.74782 0.28575,-5.74286 0.79852,-5.42595 0.45953,0.284 0.85879,-0.48592 0.92137,-1.77675 0.0928,-1.91247 0.16682,-1.9852 0.46187,-0.45332 0.1933,1.00353 0.63036,1.8246 0.97127,1.8246 0.3409,0 0.45971,2.55444 0.26402,5.67655 -0.37782,6.02811 0.14706,7.34284 1.24299,3.1135 0.87382,-3.37218 3.4369,-3.9019 3.4369,-0.71031 0,2.75354 -0.87103,7.32803 -1.39532,7.32803 -0.20991,0 -1.44152,-0.75469 -2.73691,-1.67709 z m 2.78067,-2.9182 c 0.78672,-0.78673 0.66213,-2.70313 -0.17573,-2.70313 -0.394,0 -0.90721,0.72984 -1.14048,1.62187 -0.41686,1.59405 0.25307,2.14439 1.31621,1.08126 z m -15.46311,-1.68946 c -0.14958,-6.82626 0.26469,-7.95839 3.6315,-9.92424 l 3.04648,-1.7788 -2.63554,2.74775 c -2.27476,2.37162 -2.62774,3.29751 -2.57855,6.76382 0.0425,2.9908 0.23493,3.60202 0.75395,2.39421 0.48096,-1.11928 0.71459,-1.23802 0.75393,-0.38317 0.0481,1.04557 -2.04447,4.84331 -2.66868,4.84331 -0.11052,0 -0.24691,-2.09829 -0.30309,-4.66288 z m 15.55851,-6.25101 c -1.09317,-1.17955 -1.98758,-2.49076 -1.98758,-2.91379 0,-0.42303 -0.36492,-0.76916 -0.81094,-0.76916 -0.44601,0 -0.76124,-1.00353 -0.7005,-2.23007 0.0947,-1.91206 0.16055,-1.96988 0.46187,-0.40547 0.1933,1.00354 0.84884,1.82461 1.45679,1.82461 0.60795,0 1.33699,0.72984 1.62012,1.62187 0.28312,0.89202 1.01331,1.62187 1.62266,1.62187 1.31367,0 1.77463,3.06622 1.2191,8.10935 l -0.40198,3.64921 -0.24598,-4.18189 c -0.18175,-3.08973 -0.76508,-4.74202 -2.23356,-6.32653 z m -10.78912,7.20937 c 0.5651,-2.04662 0.52775,-3.22037 -0.12761,-4.01004 -1.25405,-1.51103 -0.68939,-4.85494 0.81979,-4.85494 1.67233,0 1.91196,7.44658 0.31969,9.93396 -1.64848,2.57517 -1.9346,2.2729 -1.01187,-1.06898 z m -32.2823,-1.36383 c 0.22496,-0.55751 0.40902,-0.10137 0.40902,1.01367 0,1.11504 -0.18406,1.57119 -0.40902,1.01367 -0.22496,-0.55751 -0.22496,-1.46982 0,-2.02734 z m 6.48748,-0.81093 c 0.22496,-0.55752 0.40903,-0.10137 0.40903,1.01367 0,1.11503 -0.18407,1.57119 -0.40903,1.01367 -0.22496,-0.55752 -0.22496,-1.46982 0,-2.02734 z m -1.63876,0.0507 c 0.25887,-0.64691 0.45103,-0.45475 0.48993,0.48994 0.0352,0.85486 -0.15644,1.33382 -0.42591,1.06436 -0.26947,-0.26947 -0.29827,-0.96891 -0.064,-1.5543 z m -1.60497,-0.86161 c 0.22496,-0.55752 0.40902,-0.10138 0.40902,1.01366 0,1.11504 -0.18406,1.57118 -0.40902,1.01367 -0.22497,-0.55752 -0.22497,-1.46982 0,-2.02733 z m -7.9529,0.40546 c -0.33211,0.78053 -0.95127,1.41914 -1.37589,1.41914 -0.42462,0 -0.5465,-0.36493 -0.27084,-0.81094 0.71202,-1.15208 -0.69621,-1.00676 -1.89892,0.19595 -0.8019,0.8019 -1.15614,0.76541 -1.73997,-0.17924 -0.40319,-0.65238 -0.57418,-1.34503 -0.37999,-1.53922 0.1942,-0.1942 3.09373,-0.47101 6.4434,-0.61513 5.85103,-0.25175 6.08806,-0.19101 6.03331,1.54601 -0.0413,1.31045 -0.2087,1.47327 -0.6082,0.59163 -0.89129,-1.96687 -4.18543,-1.72961 -4.28126,0.30837 -0.0719,1.52877 -0.14926,1.49464 -0.69931,-0.30837 -0.53345,-1.7486 -0.7015,-1.83222 -1.22233,-0.6082 z m 52.55434,-2.02734 c 0.22496,-0.55752 0.40903,-0.10136 0.40903,1.01367 0,1.11504 -0.18407,1.57119 -0.40903,1.01367 -0.22496,-0.55752 -0.22496,-1.46983 0,-2.02734 z m -31.90035,0.69497 c 0,-0.17529 0.56634,-0.53603 1.25853,-0.80165 0.72166,-0.27694 1.04717,-0.14098 0.76307,0.3187 -0.47623,0.77056 -2.0216,1.13974 -2.0216,0.48295 z m -34.98313,-2.0443 c -1.05294,-0.85363 -1.68284,-1.78465 -1.3998,-2.06893 0.28305,-0.28427 1.56027,0.40263 2.83827,1.52644 2.69554,2.37032 1.41283,2.85407 -1.43847,0.54249 z m 33.09726,-0.55152 c 0.20281,-0.52851 1.07091,-0.7773 1.92913,-0.55288 1.92106,0.50238 1.30561,1.78526 -0.78107,1.62807 -0.83424,-0.0629 -1.35087,-0.54668 -1.14806,-1.07519 z m -14.94104,-0.0435 c -5.02268,-0.4263 -5.87928,-0.71978 -5.87928,-2.01423 0,-1.65994 1.20824,-2.02962 2.071,-0.63365 0.29966,0.48488 1.23351,0.7015 2.0752,0.48139 0.84169,-0.22011 1.53035,-0.0694 1.53035,0.33482 0,0.96767 3.01448,0.95108 3.61457,-0.0199 0.25661,-0.41519 0.12686,-0.96486 -0.28835,-1.22146 -0.41518,-0.25661 -0.96852,-0.008 -1.22962,0.55217 -0.37907,0.81344 -0.57006,0.81445 -0.94778,0.005 -0.26018,-0.55752 -1.31026,-1.01368 -2.33352,-1.01368 -2.46991,0 -3.56008,-1.56635 -2.82204,-4.05467 0.57214,-1.92894 0.60525,-1.90408 0.68216,0.51229 l 0.0809,2.53965 6.73946,0.56139 c 7.51746,0.62621 9.64581,1.41012 8.07992,2.97601 -0.76646,0.76645 -1.09224,0.68861 -1.49343,-0.35685 -0.37934,-0.98856 -0.8824,-1.13951 -1.92968,-0.57902 -0.94537,0.50594 -1.76138,0.43356 -2.45312,-0.21759 -0.81641,-0.76851 -0.95908,-0.72183 -0.6718,0.21985 0.2006,0.65755 1.54196,1.43633 2.9808,1.7306 3.59306,0.73486 4.44077,1.86794 0.91188,1.21887 -1.56105,-0.28713 -5.48395,-0.74659 -8.71756,-1.02104 z m -7.93997,0.47126 c -0.83207,-1.34632 -0.0852,-1.53301 1.079,-0.26972 0.5751,0.62403 0.68786,1.13461 0.25058,1.13461 -0.43727,0 -1.03558,-0.38921 -1.32958,-0.86489 z m 20.71221,-2.42671 c 0,-0.41969 0.53593,-0.76308 1.19095,-0.76308 0.72342,0 1.00841,0.47569 0.72596,1.21175 -0.47869,1.24743 -1.91691,0.9108 -1.91691,-0.44867 z m 4.05467,0.0479 c 0,-0.44602 0.38646,-0.81094 0.8588,-0.81094 0.47234,0 0.63326,0.36492 0.35761,0.81094 -0.27566,0.44601 -0.66212,0.81093 -0.8588,0.81093 -0.19669,0 -0.35761,-0.36492 -0.35761,-0.81093 z M 283.34097,151.243 c 0.25886,-0.64691 0.45102,-0.45475 0.48993,0.48994 0.0352,0.85486 -0.15645,1.33382 -0.42592,1.06436 -0.26947,-0.26947 -0.29828,-0.9689 -0.064,-1.5543 z m 43.5498,-1.08395 c 0.56418,-0.6798 1.2369,-1.02488 1.49494,-0.76684 0.25804,0.25804 -0.0676,0.80864 -0.72376,1.22357 -1.71672,1.08571 -1.94104,0.95286 -0.77118,-0.45673 z m -62.13149,-1.36358 c 0.74031,-0.4143 1.97317,-0.60185 2.73968,-0.41677 1.12201,0.27091 0.9985,0.50008 -0.63368,1.17575 -2.36033,0.97708 -4.09262,0.35279 -2.106,-0.75898 z m 43.4637,-0.6374 c 0.81242,-0.52051 -0.53422,-0.63076 -4.05467,-0.33195 -4.48332,0.38053 -5.81041,0.16557 -8.87977,-1.43831 -1.98478,-1.03714 -3.74857,-2.34187 -3.91952,-2.89939 -0.50188,-1.63667 1.19647,-1.16766 3.49905,0.96631 2.4064,2.23018 4.96913,2.74501 9.7057,1.94981 1.87462,-0.31472 3.66783,-0.19337 4.24849,0.28751 1.12836,0.93447 0.62313,2.27671 -0.84987,2.25778 -0.57889,-0.007 -0.47851,-0.32463 0.25059,-0.79176 z m -18.53325,-0.47562 c -0.15796,-0.13239 -0.15796,-0.57291 0,-0.97894 0.15796,-0.40602 1.38197,-0.0491 2.72002,0.79314 l 2.4328,1.53136 -2.4328,-0.55244 c -1.33805,-0.30383 -2.56206,-0.66073 -2.72002,-0.79312 z m 35.10933,-1.23084 c -0.3021,-0.48881 -0.0499,-1.38808 0.56035,-1.99836 0.93887,-0.93888 1.10962,-0.80212 1.10962,0.88875 0,2.10529 -0.74759,2.60204 -1.66997,1.10961 z m 3.63758,-6.658 c 0.45679,-1.20145 1.24352,-2.18446 1.74829,-2.18446 0.50478,0 0.69626,0.57723 0.42554,1.28272 -0.27072,0.70551 -0.49781,2.62134 -0.50464,4.25741 -0.009,2.21915 -0.21209,2.66574 -0.79852,1.75828 -0.65666,-1.0161 -0.80952,-0.94932 -0.9283,0.40547 -0.0781,0.89203 -0.28411,0.50658 -0.45755,-0.85656 -0.17344,-1.36313 0.0584,-3.46142 0.51518,-4.66286 z m -31.56675,3.08662 c -0.63659,-0.76705 -0.69095,-1.21641 -0.14715,-1.21641 0.4743,0 1.10957,0.4 1.41173,0.88889 0.30215,0.48889 1.61697,0.73218 2.92183,0.54067 1.30486,-0.19152 2.56041,-0.0441 2.79011,0.32752 0.76362,1.23557 -5.93309,0.71658 -6.97652,-0.54067 z m 43.79051,-4.77885 c 0,-0.17529 0.56634,-0.53604 1.25853,-0.80165 0.72167,-0.27693 1.04717,-0.14098 0.76307,0.31871 -0.47623,0.77055 -2.0216,1.13973 -2.0216,0.48294 z m -19.48365,3.59271 c 0.65735,-0.41571 1.20474,-1.59611 1.2164,-2.62312 0.0132,-1.15781 0.72785,-2.1754 1.88101,-2.67822 1.42971,-0.6234 1.74983,-1.25084 1.38423,-2.71311 -0.26158,-1.0462 -0.0333,-2.43506 0.50719,-3.08637 0.56141,-0.67644 0.90661,-3.06731 0.80511,-5.57615 -0.0977,-2.41558 0.23024,-5.15419 0.72883,-6.0858 0.66657,-1.24549 0.66848,-3.22804 0.007,-7.48993 -0.49462,-3.18784 -1.0493,-5.94608 -1.23262,-6.12941 -0.18333,-0.18333 -0.97758,0.31094 -1.76502,1.09836 -0.78743,0.78743 -2.83468,2.05984 -4.54947,2.82756 -3.06032,1.37015 -8.69291,8.46494 -8.69291,10.94957 0,0.59856 -1.46796,3.29834 -3.26213,5.99952 -2.48287,3.73804 -3.13987,5.39833 -2.75035,6.9503 0.31611,1.25951 0.16813,2.03905 -0.38708,2.03905 -1.97977,0 -0.70977,2.43155 2.50465,4.79546 2.847,2.09371 4.13978,2.50094 7.90661,2.49054 2.47672,-0.007 5.04096,-0.35255 5.69833,-0.76825 z m -10.10578,-1.66785 c 0.22322,-0.36118 -0.0526,-0.84151 -0.61286,-1.06741 -0.76243,-0.30738 -0.77088,-0.42681 -0.0336,-0.47472 0.54183,-0.0352 1.37134,0.65761 1.84338,1.5396 0.69935,1.30676 0.63045,1.5162 -0.37228,1.13143 -0.67678,-0.25971 -1.04787,-0.76771 -0.82465,-1.1289 z m -1.73552,-3.06436 c 1.28087,-0.15976 2.649,0.0297 3.04027,0.42096 0.40791,0.40792 -0.58557,0.53183 -2.32887,0.29045 -2.79869,-0.3875 -2.85521,-0.44403 -0.7114,-0.71141 z m 7.80782,-1.7979 c -1.08124,-0.7098 -1.08124,-0.88725 0,-1.59704 1.75172,-1.14993 2.08527,-1.02219 2.08527,0.79852 0,1.82071 -0.33355,1.94844 -2.08527,0.79852 z m 4.21019,-1.81582 c -0.18293,-0.94291 0.19759,-1.17133 1.41914,-0.85189 1.71535,0.44858 2.09088,1.17709 1.11157,2.1564 -0.8544,0.8544 -2.25158,0.13419 -2.53071,-1.30451 z m -8.53002,0.48183 c -0.29451,-0.29451 0.19206,-1.04504 1.08125,-1.66785 0.88919,-0.62281 1.61671,-1.5213 1.61671,-1.99664 0,-0.54136 -0.46138,-0.48133 -1.23496,0.16068 -1.03261,0.85699 -1.15127,0.80682 -0.72418,-0.30617 0.28403,-0.74016 0.11227,-1.3311 -0.3869,-1.3311 -0.49373,0 -0.89769,0.62847 -0.89769,1.39661 0,1.20803 -0.23869,1.15792 -1.76771,-0.37109 -1.53697,-1.53697 -1.6413,-2.04513 -0.7993,-3.89312 0.87552,-1.92156 2.87901,-2.57568 2.55516,-0.83423 -0.23973,1.2891 2.37169,2.20217 3.86379,1.35096 1.23558,-0.70487 1.07824,-0.93013 -1.21641,-1.7415 -3.09051,-1.09278 -3.19097,-1.49311 -0.97229,-3.87457 0.91478,-0.98191 1.44062,-2.14548 1.16854,-2.58572 -0.27208,-0.44024 -0.13724,-0.80043 0.29967,-0.80043 0.4369,0 1.03481,-1.09477 1.32869,-2.43282 0.36748,-1.67314 1.02065,-2.4328 2.09176,-2.4328 1.58608,0 2.16915,1.26566 0.80944,1.75703 -0.4114,0.14867 -0.9193,3.00721 -1.12865,6.35232 -0.23663,3.78069 -1.04191,7.53954 -2.12823,9.93397 -1.69483,3.73572 -2.44258,4.43258 -3.55869,3.31647 z m -4.89506,-1.31053 c -0.89623,-0.65533 -1.21629,-1.55428 -0.87244,-2.45034 0.48528,-1.26462 0.74895,-1.19315 2.47694,0.67137 1.06362,1.14766 1.93385,2.25032 1.93385,2.45035 0,0.74173 -2.16853,0.33027 -3.53835,-0.67138 z m 11.09082,-4.25756 c 0.54804,-2.39493 1.06833,-3.31096 1.49695,-2.63555 0.50436,0.79476 0.66273,0.75267 0.68181,-0.18118 0.019,-0.93129 0.17843,-0.97439 0.68013,-0.18388 0.36042,0.5679 0.48258,2.20933 0.27148,3.64763 -0.32837,2.23741 -0.47514,2.38108 -1.01619,0.99481 -0.4973,-1.27419 -0.64455,-1.33159 -0.68937,-0.26873 -0.0313,0.74335 -0.51315,1.53562 -1.07066,1.76059 -0.55752,0.22496 -1.05428,0.43783 -1.1039,0.47304 -0.0496,0.0352 0.28775,-1.58782 0.74975,-3.60673 z m 5.27383,0.2513 c 0.58189,-0.58189 0.9596,-0.62977 0.9596,-0.12164 0,0.46088 -0.24328,1.08126 -0.54063,1.3786 -0.29733,0.29733 -0.72916,0.35208 -0.9596,0.12164 -0.23045,-0.23044 0.0128,-0.85081 0.54063,-1.3786 z m -3.19407,-6.85915 c 0.95597,-1.64395 1.18682,-1.11776 0.40428,0.92149 -0.27811,0.72474 -0.67648,1.14688 -0.88527,0.93808 -0.20879,-0.20878 0.007,-1.0456 0.48099,-1.85957 z m 3.19407,-0.43927 c 0.58189,-0.58189 0.9596,-0.62976 0.9596,-0.12164 0,1.08243 -0.95902,2.04144 -1.50023,1.50024 -0.23045,-0.23044 0.0128,-0.85081 0.54063,-1.3786 z m -4.71694,-2.2571 c 0,-0.89202 0.33075,-1.62186 0.735,-1.62186 0.40427,0 0.54417,0.72984 0.31089,1.62186 -0.23326,0.89203 -0.56402,1.62187 -0.73502,1.62187 -0.17098,0 -0.31087,-0.72984 -0.31087,-1.62187 z m 4.32854,-1.8246 c 0.22496,-0.55751 0.40902,-0.10137 0.40902,1.01367 0,1.11504 -0.18406,1.57118 -0.40902,1.01367 -0.22496,-0.55752 -0.22496,-1.46982 0,-2.02734 z m -2.99993,-2.63554 c 0.25673,-0.66902 0.61019,-1.21641 0.78549,-1.21641 0.17528,0 0.3187,0.54739 0.3187,1.21641 0,0.66902 -0.35347,1.21641 -0.78548,1.21641 -0.43202,0 -0.57545,-0.54739 -0.31871,-1.21641 z m 0.47297,-3.52098 c -0.7563,-0.47994 -0.50686,-0.89926 0.92232,-1.55045 1.73996,-0.79277 1.9133,-0.71781 1.55031,0.67029 -0.44746,1.71104 -0.90605,1.87429 -2.47263,0.88016 z"
       id="path3207"
       inkscape:connector-curvature="0" />
  </g>
</svg>
