<?xml version="1.0" encoding="UTF-8" standalone="no"?>
<!-- Created with Inkscape (http://www.inkscape.org/) -->

<svg
   xmlns:dc="http://purl.org/dc/elements/1.1/"
   xmlns:cc="http://creativecommons.org/ns#"
   xmlns:rdf="http://www.w3.org/1999/02/22-rdf-syntax-ns#"
   xmlns:svg="http://www.w3.org/2000/svg"
   xmlns="http://www.w3.org/2000/svg"
   xmlns:sodipodi="http://sodipodi.sourceforge.net/DTD/sodipodi-0.dtd"
   xmlns:inkscape="http://www.inkscape.org/namespaces/inkscape"
   width="1052.3622"
   height="744.09448"
   id="svg2"
   version="1.1"
   inkscape:version="0.48.2 r9819"
   sodipodi:docname="evolution_vader.svg">
  <defs
     id="defs4" />
  <sodipodi:namedview
     id="base"
     pagecolor="#ffffff"
     bordercolor="#666666"
     borderopacity="1.0"
     inkscape:pageopacity="0.0"
     inkscape:pageshadow="2"
     inkscape:zoom="2"
     inkscape:cx="626.99722"
     inkscape:cy="575.79949"
     inkscape:document-units="px"
     inkscape:current-layer="layer1"
     showgrid="false"
     inkscape:window-width="1277"
     inkscape:window-height="756"
     inkscape:window-x="0"
     inkscape:window-y="0"
     inkscape:window-maximized="0"
     inkscape:snap-grids="true"
     inkscape:snap-to-guides="false"
     inkscape:snap-nodes="false"
     inkscape:snap-bbox="true"
     showguides="true"
     inkscape:guide-bbox="true" />
  <metadata
     id="metadata7">
    <rdf:RDF>
      <cc:Work
         rdf:about="">
        <dc:format>image/svg+xml</dc:format>
        <dc:type
           rdf:resource="http://purl.org/dc/dcmitype/StillImage" />
        <dc:title />
      </cc:Work>
    </rdf:RDF>
  </metadata>
  <g
     inkscape:label="Layer 1"
     inkscape:groupmode="layer"
     id="layer1"
     transform="translate(0,-308.2677)">
    <path
       style="fill:#000000"
       d="m 764.02564,818.37922 c -7.26686,-2.34709 -9.17739,-2.42099 -21.85704,-0.84543 -6.23405,0.77463 -12.26101,1.40705 -13.39326,1.40537 -3.0289,-0.004 -6.12542,-1.00734 -7.5696,-2.45153 -0.76041,-0.76038 -3.50614,-1.9656 -6.83204,-2.99888 -3.05842,-0.95017 -6.90338,-2.32138 -8.54441,-3.04713 -2.7647,-1.22267 -2.96068,-1.43062 -2.66936,-2.83277 0.27874,-1.34167 0.005,-1.72237 -2.41439,-3.35779 -2.9439,-1.99001 -3.38593,-3.26052 -1.88157,-5.40834 0.68,-0.97077 0.73456,-1.61528 0.2764,-3.26496 -0.78097,-2.81212 -0.68421,-5.46935 0.29383,-8.06871 1.84417,-4.9015 3.81199,-12.04062 9.49303,-34.43982 5.42395,-21.38545 14.22048,-51.92328 20.62831,-71.61294 4.30355,-13.22353 13.92106,-36.4894 20.22497,-48.92641 3.27654,-6.4643 7.77427,-15.78754 9.99493,-20.71831 2.22071,-4.93078 6.31741,-12.76296 9.10381,-17.40486 3.24947,-5.41335 5.59171,-10.03974 6.53164,-12.9015 3.67293,-11.18249 6.28418,-16.99521 10.35392,-23.04826 4.63637,-6.89579 7.55829,-10.08893 13.71952,-14.99292 4.11867,-3.27826 6.26181,-5.37196 6.65584,-6.50234 0.57734,-1.6561 0.56137,-1.67542 -2.38902,-2.8983 -2.53117,-1.04909 -2.91919,-1.39778 -2.62476,-2.35869 0.57996,-1.89291 6.72484,-12.34546 9.98274,-16.98085 2.70735,-3.85206 3.21925,-5.02071 4.29486,-9.80512 2.31332,-10.2903 4.74565,-14.74303 9.41995,-17.24465 11.24072,-6.01584 31.50686,1.35871 34.43621,12.53084 0.2806,1.07011 0.78736,4.51799 1.12618,7.66194 0.33882,3.14395 0.96705,6.55648 1.39612,7.58339 1.10339,2.64074 0.98903,3.19381 -0.7885,3.81345 -1.39394,0.48595 -1.6676,0.98507 -2.45742,4.48263 -0.85804,3.79932 -0.85148,3.98822 0.18767,5.44764 1.0608,1.48971 1.06195,1.58912 0.0775,6.78854 -0.54946,2.90217 -1.13154,5.40918 -1.29347,5.57112 -0.16192,0.16194 -4.48783,1.05973 -9.61308,1.99509 l -9.31865,1.70065 -1.71018,4.74284 -1.71024,4.74285 2.90667,4.05194 c 4.87979,6.80259 8.8331,15.27887 7.50799,16.09783 -0.84935,0.52493 -0.57045,3.38187 0.36517,3.74091 0.73165,0.28077 0.80791,0.95837 0.48981,4.35317 -0.362,3.86298 -1.84218,3.84214 -0.64125,4.09373 l 2.73557,0.5731 c -0.76453,3.42725 -2.00379,7.57924 -2.1273,10.36548 -0.36745,8.28899 -0.7035,9.36961 -1.13961,12.07119 -0.3895,2.41282 12.31829,4.01869 11.62603,9.97717 13.71687,6.17154 8.01026,5.38413 15.27085,10.91119 0.98084,0.74666 8.21561,3.52641 8.89471,4.00908 1.94121,1.4328 3.12885,-0.12381 7.0039,4.32154 0.25808,0.26347 1.032,-0.1505 1.86721,-0.32087 1.15909,1.22225 2.24941,1.42578 3.49108,1.8776 1.40311,0.51056 4.386,0.90974 4.386,0.90974 l 4.3715,-2.2972 c 2.4043,-1.26345 3.32657,-2.07354 5.10038,-2.89544 4.2665,-1.79782 3.84305,-3.45251 8.15928,-6.70151 12.16879,-9.22744 8.96788,-4.15091 -2.90013,4.69165 -1.33917,1.00342 -2.4349,1.9766 -2.4349,2.16263 0,0.18603 0.80863,1.22107 1.79699,2.3001 1.36245,1.48742 1.6851,2.20729 1.33425,2.9768 -0.54071,1.18607 -4.62423,3.97221 -7.82697,5.34031 -2.23329,0.95397 -2.23514,0.95731 -1.68722,3.01021 0.87761,3.28786 -1.04266,6.18728 -6.46365,9.75962 -5.41328,3.56723 -6.56783,3.91315 -8.06465,2.4163 l -1.13193,-1.1319 -9.5618,-8.70695 -39.58178,-20.74986 12.54643,41.72687 c 5.96065,19.82391 11.11373,31.03914 11.11373,34.12752 0,2.30682 0.24633,2.93568 1.68706,4.30683 0.92785,0.88308 1.92961,2.05314 2.22612,2.60013 0.29651,0.547 1.13499,5.20892 1.86331,10.35985 1.48063,10.47225 2.23902,13.57507 6.57795,26.91208 3.24887,9.98657 8.65986,21.99186 11.04796,24.51201 3.39566,3.58342 5.68017,3.83321 12.87011,1.40725 2.75032,-0.92799 5.79403,-1.71457 6.76376,-1.74795 2.12881,-0.0733 3.97807,1.50065 5.35758,4.5598 0.94058,2.0859 0.93862,2.19595 -0.0588,3.29813 -1.22906,1.35813 -7.84238,6.33214 -10.79639,8.12025 -1.68394,1.01929 -3.5227,1.40209 -9.38036,1.95279 -4.00716,0.37673 -7.54473,0.84499 -7.86119,1.04058 -0.38562,0.23833 -0.40202,0.81172 -0.0498,1.73851 1.16483,3.06376 0.95185,3.22412 -8.1853,6.16246 l -5.03669,1.61972 -5.91529,-11.95236 c -3.25341,-6.57379 -7.08252,-14.97911 -8.50914,-18.67847 -4.46029,-11.56576 -7.89749,-19.61408 -11.21175,-26.25257 l -3.19842,-6.40652 1.74796,-1.20641 c 0.96136,-0.66353 1.80869,-1.24433 1.88298,-1.29068 0.16373,-0.1022 -9.88625,-22.02231 -12.46754,-27.19298 -1.01313,-2.02949 -2.01768,-3.68998 -2.23236,-3.68998 -0.9278,0 -2.04605,1.83657 -3.71398,6.09975 -0.98131,2.5081 -4.45137,9.97216 -7.71129,16.58679 -3.25997,6.61463 -6.18124,13.1336 -6.49174,14.48659 -0.84055,3.6626 -0.71804,9.31063 0.24184,11.15127 0.45455,0.87156 0.71575,1.69536 0.58045,1.83066 -0.1353,0.1353 -3.26856,1.02931 -6.9628,1.98669 l -6.7168,1.74069 -0.91539,3.0068 c -0.50348,1.65374 -1.82045,8.16459 -2.92657,14.46855 -1.10612,6.30397 -2.13969,12.00219 -2.2968,12.6627 -0.23441,0.98539 0.0916,1.36149 1.81623,2.09541 1.15609,0.49196 3.64215,0.9505 5.52459,1.019 1.88243,0.0685 3.70566,0.40759 4.05159,0.75355 0.71438,0.71437 2.17157,7.20738 1.76507,7.86505 -0.47221,0.76413 -5.43061,1.98812 -10.78305,2.66183 l -5.21463,0.65637 -0.3503,2.26053 c -0.19264,1.2433 -0.60171,3.7866 -0.9091,5.65179 l -0.55885,3.39126 -3.63832,-0.30494 c -3.61821,-0.30324 -8.7815,-1.3211 -10.60823,-2.09124 -0.74133,-0.31254 -0.95667,-0.13597 -0.95667,0.78443 0,2.0499 -1.01274,3.30698 -2.61589,3.24697 -0.81622,-0.0306 -3.63695,-0.7509 -6.26821,-1.60076 z M 556.97756,812.5597 c -1.95432,-0.42311 -6.34081,-0.82063 -9.7477,-0.88337 -5.48061,-0.10093 -6.28875,-0.24006 -7.01332,-1.20741 -0.94808,-1.26576 -0.7758,-4.36928 0.58216,-10.48687 1.4943,-6.73182 -0.37219,-19.417 -4.0026,-27.20264 -1.12935,-2.42198 -2.4662,-5.6467 -2.97078,-7.16604 -2.10476,-6.33778 -2.02168,-14.57855 0.2351,-23.32198 0.96601,-3.74261 1.10902,-5.41035 0.82384,-9.60747 -0.29537,-4.347 -0.73034,-6.04038 -3.01898,-11.75327 -2.04397,-5.10213 -2.76622,-6.41697 -3.06579,-5.58121 -0.21555,0.60133 -0.94957,2.44632 -1.63117,4.09997 -0.6816,1.65366 -1.55851,3.85044 -1.94869,4.88173 -0.39017,1.03129 -1.57216,2.99928 -2.62663,4.37331 -1.57344,2.05028 -2.73668,5.14483 -6.48731,17.25815 -5.3745,17.35791 -6.36633,21.32553 -7.48891,29.95784 -1.00262,7.70979 -1.06176,11.51477 -0.20407,13.12787 1.33339,2.50775 5.18916,6.54827 7.28881,7.63804 1.6199,0.84078 3.70913,1.23007 8.02998,1.49626 7.39687,0.45569 8.78202,1.19025 8.53939,4.52852 l -0.16653,2.29116 -2.73332,0.32057 c -1.50332,0.17632 -3.46695,0.62245 -4.36361,0.9914 -1.92345,0.79146 -7.53256,0.44746 -14.56559,-0.8933 l -4.71595,-0.89903 -6.55726,1.7435 c -8.02322,2.13329 -9.02204,2.16216 -10.48436,0.30312 -1.59894,-2.03271 -1.45231,-5.0589 0.59855,-12.35375 1.67561,-5.96008 1.73052,-6.49469 1.69912,-16.5457 -0.0178,-5.71264 -0.12055,-14.69159 -0.22824,-19.95323 -0.16344,-7.98603 -0.0267,-10.244 0.82785,-13.66659 1.16013,-4.64666 3.86999,-10.77237 8.02986,-18.15168 1.56424,-2.77486 3.07148,-5.79136 3.34944,-6.70335 0.73371,-2.40738 1.14489,-35.47305 0.53871,-43.32239 -0.43676,-5.65563 -0.73452,-7.05116 -1.94536,-9.1173 -1.1752,-2.00531 -1.42967,-3.12421 -1.42967,-6.28612 0,-5.17067 -1.64476,-13.14809 -4.35142,-21.10526 -1.88971,-5.55544 -4.26276,-16.54183 -5.86399,-27.14815 -0.48005,-3.1798 3.38144,-18.47168 6.69904,-26.52882 1.37348,-3.33567 2.11714,-6.1672 2.41929,-9.21168 0.23994,-2.4176 1.19994,-6.67507 2.13333,-9.46105 0.93339,-2.78598 1.69707,-5.80322 1.69707,-6.70497 0,-0.90175 0.72662,-3.10407 1.61471,-4.89403 1.95289,-3.93607 2.17353,-6.8201 1.13394,-14.82175 -0.64186,-4.94034 -0.6438,-6.20072 -0.0126,-8.19995 0.41018,-1.29929 0.68069,-3.607 0.60113,-5.12824 -0.12985,-2.48271 0.0591,-3.00982 1.84576,-5.14828 4.11651,-4.92714 4.70413,-1.90683 -6.44712,-33.13723 -9.32145,-26.10579 -10.10219,-28.04083 -12.50099,-30.98324 -1.86106,-2.28279 -2.71781,-3.91993 -3.1426,-6.005 -0.80727,-3.96255 -0.89131,-15.62597 -0.11817,-16.39911 0.33432,-0.33432 0.71087,-0.50124 0.83679,-0.37095 0.12593,0.13028 2.22102,3.60606 4.65576,7.72393 l 4.42678,7.48706 0,4.65584 c 0,4.13012 0.27317,5.41429 2.41928,11.37284 1.3306,3.69436 3.8067,10.65299 5.50245,15.46363 1.69574,4.81064 3.70585,10.46861 4.46691,12.57326 0.76105,2.10466 2.36252,6.65564 3.55882,10.11328 1.19629,3.45765 2.37224,6.49009 2.61321,6.73875 0.24097,0.24867 0.94984,-0.26651 1.57526,-1.14483 2.10452,-2.95553 6.5625,-4.41495 15.4523,-5.05863 9.87149,-0.71478 13.97109,-0.0685 17.16482,2.70596 0.60133,0.52239 2.25926,1.37917 3.68435,1.90397 1.42505,0.52481 2.72583,1.1724 2.89065,1.4391 0.57947,0.9376 -1.44773,6.5082 -2.73764,7.52285 -0.8921,0.70173 -1.48025,2.00206 -1.92267,4.25074 -0.60433,3.07193 -0.56459,3.36706 0.76736,5.69752 1.45543,2.54641 1.81913,4.37109 0.87127,4.37109 -0.30067,0 -0.5482,0.79949 -0.55006,1.77665 0,0.97716 -0.34909,2.43936 -0.77167,3.24933 -0.68748,1.31774 -0.62959,1.90939 0.55006,5.62412 2.18512,6.88102 1.87954,8.05934 -2.41598,9.31551 -1.70444,0.49845 -4.0912,1.25307 -5.30392,1.67694 -1.21271,0.42386 -3.21588,0.77066 -4.45148,0.77066 -2.26946,0 -2.9102,0.58066 -2.9102,2.63732 0,0.49936 2.56502,6.07571 5.70005,12.3919 8.80857,17.74673 9.13334,18.97427 6.07934,22.97825 -1.24422,1.63126 -1.39278,2.32979 -1.39278,6.54903 0,4.4837 0.17983,5.19877 3.54916,14.11307 1.95203,5.16453 6.0888,16.11219 9.19281,24.32814 5.48478,14.51742 5.73373,15.03869 8.83944,18.51101 l 3.19574,3.57293 -0.1248,4.17553 c -0.0686,2.29655 -0.13694,4.6901 -0.15186,5.31901 -0.0224,0.94822 5.30242,16.03374 13.68906,38.78155 1.8211,4.93946 1.61249,6.26806 -0.98422,6.26806 -1.28116,0 -1.70089,-0.35933 -2.39449,-2.04998 -0.46253,-1.1275 -4.17351,-10.25736 -8.24659,-20.28858 l -7.4056,-18.23858 -4.52266,-4.44796 c -2.48748,-2.44638 -6.1937,-6.82479 -8.23609,-9.72978 -3.59836,-5.11829 -9.25603,-11.39143 -10.27378,-11.39143 -1.20097,0 -0.28592,3.31981 2.46915,8.95806 6.74323,13.79996 9.88939,27.25982 11.00852,47.09616 0.31777,5.63243 0.60209,7.0692 2.05119,10.36543 2.24329,5.10279 2.53094,9.84063 0.96809,15.94432 -1.06009,4.14001 -1.1428,5.94732 -1.13865,24.8732 0.005,23.77243 0.41317,28.65142 2.84894,34.07541 2.02872,4.51756 3.49991,6.2827 7.46278,8.954 4.12272,2.77905 6.21305,3.79779 9.60576,4.68147 1.6226,0.42264 3.60164,1.19529 4.39791,1.717 0.92304,0.60482 2.35869,0.9141 3.96178,0.85346 3.89115,-0.14718 4.51817,0.21752 4.51817,2.62793 0,3.72434 -0.72001,3.90202 -16.57386,4.08975 -10.30297,0.122 -14.65988,-0.0305 -17.31929,-0.60628 z m -1.33643,-169.77987 c -3.71299,-10.22663 -9.51181,-25.87654 -10.17853,-27.46985 l -0.68626,-1.64 -0.39468,1.64 c -0.71515,2.97167 -0.57352,12.76337 0.21176,14.64081 1.741,4.16227 11.51768,17.85287 12.77052,17.88296 0.0622,0.002 -0.71306,-2.27277 -1.72281,-5.05392 z m 95.61505,167.06822 c -2.28577,-2.46637 -2.53795,-4.61242 -1.33687,-11.37597 2.11849,-11.92952 2.33469,-17.99649 1.04276,-29.26332 -0.8564,-7.4689 -1.08775,-11.99115 -0.88166,-17.23286 0.26453,-6.72839 0.43761,-7.60123 3.25194,-16.39991 2.69292,-8.41922 3.00179,-9.89741 3.28365,-15.71658 0.1711,-3.53281 0.21593,-6.4233 0.0995,-6.4233 -0.11638,0 -1.03866,1.2915 -2.0496,2.86999 -1.01089,1.57849 -2.82724,4.01162 -4.03635,5.40697 -3.40774,3.93269 -5.96011,8.97923 -10.0028,19.77784 -2.04638,5.46608 -6.43199,15.4733 -9.74581,22.23826 -5.59434,11.42045 -6.09142,12.70078 -6.95192,17.90582 l -0.92671,5.60588 2.23148,3.7562 c 1.34895,2.27061 3.56239,4.90912 5.59647,6.67129 3.30524,2.86335 3.4389,2.92035 7.53254,3.21118 3.63805,0.25848 4.18761,0.43553 4.32487,1.3934 0.27847,1.94258 -1.0661,2.92862 -4.80391,3.52284 -6.34688,1.00903 -8.73055,0.76202 -13.38091,-1.38659 -3.34684,-1.54631 -5.35244,-2.07319 -9.50698,-2.49749 -9.80687,-1.00158 -9.99405,-1.04179 -11.40236,-2.45015 -1.83417,-1.83415 -1.49485,-3.31908 2.81996,-12.34044 4.04313,-8.45338 5.74757,-13.59456 7.39259,-22.29861 1.80984,-9.57664 4.6848,-20.50022 6.82805,-25.94372 1.06047,-2.69345 4.48385,-9.58141 7.60754,-15.30659 3.73125,-6.83875 5.98208,-11.6325 6.56177,-13.97504 0.6209,-2.50904 0.95901,-7.12577 1.14116,-15.57992 0.14235,-6.60785 0.4259,-14.65877 0.63014,-17.89092 0.34948,-5.53083 0.31045,-5.87683 -0.66316,-5.88 -0.56897,-0.002 -1.73905,-0.37085 -2.60026,-0.81999 -0.86122,-0.44915 -1.93022,-0.81663 -2.37558,-0.81663 -0.44543,0 -1.48786,-0.48282 -2.3166,-1.07293 l -1.50683,-1.07293 0.26607,-10.59629 0.26606,-10.59629 -4.49834,-14.43397 c -2.47409,-7.93869 -5.72499,-18.24648 -7.22427,-22.9062 -1.73396,-5.38922 -2.63535,-9.0694 -2.47709,-10.11328 0.79528,-5.24616 4.52205,-17.33664 6.40345,-20.77428 2.76306,-5.0485 6.13472,-13.63491 7.62044,-19.40657 1.88063,-7.30565 2.6288,-8.50005 9.58804,-15.30658 6.4414,-6.30003 9.57373,-10.27517 9.57373,-12.14971 0,-0.55131 -1.02123,-2.28664 -2.26942,-3.85629 -3.27846,-4.12287 -4.69289,-7.60827 -5.42865,-13.37718 -0.67824,-5.31795 0.0109,-14.35861 1.20447,-15.79655 0.12611,-0.98026 -0.25217,-0.80323 -0.96024,-0.99547 -6.0748,-1.63348 -7.11688,-2.99723 -1.83945,-5.5908 1.95433,-0.96045 3.78641,-1.83765 4.07134,-1.94933 0.65003,-0.25481 0.19587,-1.38919 -5.84389,-14.59654 -4.51042,-9.86309 -4.7949,-10.69021 -3.90182,-11.34327 0.52983,-0.38744 1.24875,-0.70443 1.59752,-0.70443 0.34877,0 2.06005,3.75148 3.80281,8.33662 3.10128,8.15928 7.29911,17.20944 7.35334,15.85325 0.0448,-1.11754 1.57904,-0.77639 2.26395,0.50339 0.5172,0.96633 0.46997,1.30747 -0.25409,1.83692 -1.07594,0.78676 -1.13493,1.89795 -0.17078,3.21653 0.67787,0.92706 0.94464,0.86858 4.72722,-1.03628 3.95233,-1.99036 4.08708,-2.0162 9.56859,-1.83468 5.40207,0.17889 5.64414,0.24226 8.53413,2.2341 1.63584,1.12749 3.24833,2.04999 3.58322,2.04999 0.69781,0 7.48781,5.30097 7.76464,6.06189 0.1007,0.27679 -0.41803,1.21761 -1.15269,2.09073 -1.25498,1.49145 -1.32719,1.93351 -1.19348,7.30791 0.12852,5.16487 0.28498,5.93599 1.61113,7.93997 1.41493,2.13805 1.53711,4.47934 0.23375,4.47934 -0.28481,0 -1.00531,0.7995 -1.60112,1.77666 -0.81535,1.33727 -1.08371,2.75372 -1.08529,5.72737 0,4.5592 -0.3977,5.01624 -5.32319,6.15345 -2.67248,0.61704 -2.82052,0.73656 -2.24466,1.81258 0.3391,0.63359 0.71487,2.1475 0.83503,3.36424 0.1201,1.21674 0.26043,2.61961 0.31176,3.11748 0.0556,0.53893 0.94076,1.15913 2.18753,1.53267 1.82897,0.54797 2.32425,0.48525 3.91072,-0.49524 0.99909,-0.61746 2.37504,-1.12266 3.05771,-1.12266 1.22573,0 8.56715,-4.57898 11.74967,-7.32844 0.90199,-0.77926 1.80918,-1.41714 2.01604,-1.41751 0.2068,-3.7e-4 1.17101,1.10633 2.14265,2.45932 0.97164,1.35299 1.91786,2.45999 2.10274,2.45999 0.18488,0 0.78862,0.76598 1.34162,1.70218 l 1.00553,1.70219 -1.571,1.316 c -3.93893,3.29967 -7.79592,6.15695 -10.1809,7.54207 -1.42816,0.82942 -2.60185,1.79216 -2.60819,2.13942 -0.007,0.34727 0.9161,2.65103 2.04999,5.11947 1.82717,3.97792 2.22875,4.49057 3.5326,4.50998 0.80906,0.012 1.61544,-0.21175 1.79196,-0.49731 0.18237,-0.29515 1.15199,-0.0288 2.24684,0.61714 1.50852,0.89007 2.45666,1.0636 4.37463,0.80071 2.27783,-0.31221 2.48688,-0.23529 2.99544,1.10234 0.30066,0.79088 0.69732,2.87906 0.88144,4.64041 l 0.33472,3.20245 -1.85477,-0.32638 c -1.02008,-0.17951 -4.35549,-0.92018 -7.41194,-1.64593 -7.16316,-1.70088 -9.44357,-1.00601 -8.52927,2.59901 0.7234,2.85259 8.21007,12.95455 15.80695,21.3288 1.99931,2.20392 4.52112,4.98327 5.60396,6.17635 4.22713,4.65731 8.39708,9.88531 8.86371,11.11258 0.34735,0.91356 0.25076,1.6279 -0.33275,2.46095 -0.45215,0.64557 -0.82213,1.7195 -0.82213,2.38652 0,0.66702 -0.21424,1.34516 -0.47604,1.50698 -0.26185,0.16182 -0.62199,1.02376 -0.80031,1.91543 -0.45865,2.29312 -4.92402,6.85925 -6.21273,6.35289 -0.5413,-0.21269 -2.7062,-0.73138 -4.81086,-1.15265 -2.10465,-0.42127 -5.54863,-1.42273 -7.65329,-2.22548 -3.19568,-1.2189 -4.96288,-1.50116 -10.71794,-1.71191 l -6.8913,-0.25237 -0.33079,2.65884 c -0.18198,1.46237 -0.62079,6.10283 -0.97513,10.31214 -0.56312,6.68921 -0.53021,8.20419 0.26152,12.0266 3.94861,19.06343 4.40152,24.82686 3.95746,50.3595 -0.25988,14.94277 -0.57323,21.5943 -1.10727,23.50654 -1.09037,3.90428 -2.8562,8.74056 -4.66626,12.78016 -2.08667,4.65683 -3.6521,10.83241 -4.71142,18.58656 -0.47238,3.45765 -1.59878,9.48462 -2.50307,13.39326 -1.28947,5.57344 -1.70614,8.87571 -1.93131,15.30659 -0.17209,4.91301 -0.0676,8.76035 0.26071,9.59797 0.66518,1.69753 8.10762,6.95986 10.93223,7.72992 1.11246,0.30328 4.19565,1.39712 6.8515,2.43076 2.86491,1.11499 5.26563,1.7407 5.90288,1.53846 1.33944,-0.42513 2.4455,0.4543 2.91273,2.3159 0.52868,2.10642 -0.59017,4.22213 -2.92754,5.53581 -1.94345,1.09226 -2.61213,1.14413 -11.31119,0.8774 -5.08512,-0.15591 -11.01571,-0.42723 -13.17908,-0.60292 -2.95608,-0.24005 -4.48696,-0.098 -6.16106,0.57188 -3.44355,1.37785 -6.36699,1.17618 -7.96631,-0.54955 z M 637.39169,624.73992 c 1.6401,-3.39988 1.64644,-3.45018 1.30161,-10.24994 -0.37195,-7.33364 -1.38782,-12.91907 -2.71933,-14.95119 -0.45488,-0.69423 -1.20479,-2.53418 -1.66645,-4.08879 -0.46166,-1.55461 -1.04757,-2.82657 -1.30199,-2.82657 -0.25447,0 -0.88761,0.64859 -1.407,1.4413 -1.1779,1.79768 -0.96798,4.22127 1.27192,14.68528 0.90101,4.20931 1.81203,10.29778 2.02441,13.52993 0.21243,3.23215 0.4903,5.87663 0.61745,5.87663 0.12721,0 0.9729,-1.53749 1.87938,-3.41665 z m 55.00416,-13.66395 c -3.25615,-8.17281 -9.43722,-22.71135 -12.43524,-29.24915 -1.5248,-3.32511 -2.03014,-3.96331 -3.13839,-3.96331 -0.86122,0 -1.42051,-0.38052 -1.60692,-1.09333 -0.65206,-2.49352 -1.15253,-0.72421 -1.50764,5.32997 -0.23294,3.97104 -0.15679,7.36247 0.19953,8.88329 0.31701,1.35299 0.5975,3.81298 0.6233,5.46664 0.0257,1.65366 0.33987,4.72864 0.69788,6.83329 0.64336,3.78236 0.67933,3.84075 3.10969,5.04465 5.48818,2.71862 14.76889,4.53277 14.05779,2.74795 z m -24.69811,-53.14174 c -1.64042,-3.84721 -3.39456,-7.45015 -3.89804,-8.00652 -0.97175,-1.07378 -2.26799,-0.85537 -1.43198,0.24129 0.26611,0.34906 1.05468,2.11065 1.75238,3.91464 1.2558,3.24704 5.96924,11.43643 6.35836,11.04733 0.11097,-0.11099 -1.14034,-3.34953 -2.78072,-7.19674 z m 19.61004,3.58364 c 0.52993,-0.58559 0.71323,-1.1794 0.41994,-1.36064 -0.28618,-0.17687 -0.82431,0.0447 -1.19582,0.49239 -0.37157,0.44769 -1.02893,0.81398 -1.46091,0.81398 -0.43192,0 -0.63325,0.246 -0.44744,0.54666 0.52698,0.8527 1.65404,0.64596 2.68423,-0.49239 z m -0.62074,-2.27968 c 0.74193,-1.17836 -1.02724,-4.88122 -2.33218,-4.88122 -2.29282,0 -2.75792,3.18196 -0.75746,5.18238 1.03692,1.03691 2.32628,0.91123 3.08964,-0.30116 z m -23.18565,-12.89897 c -0.61412,-0.73994 -0.73805,-0.72007 -1.09021,0.17479 -0.65381,1.66136 -0.53098,1.89853 0.65446,1.2641 0.93819,-0.5021 1.01171,-0.74489 0.43575,-1.43889 z m -21.24428,-51.4846 c 0,-1.21043 -1.82225,-3.91016 -2.63667,-3.90638 -0.50419,0.002 -1.22415,0.66639 -1.59998,1.47565 -0.89674,1.93092 -0.86548,2.21897 0.27333,2.51657 1.68684,0.44081 3.96332,0.3915 3.96332,-0.0858 z m 1.63999,-1.6195 c 0,-0.2432 -0.37299,-0.9197 -0.82891,-1.50333 -0.76861,-0.98399 -0.78206,-0.95183 -0.18554,0.44218 0.64365,1.50414 1.01445,1.89203 1.01445,1.06115 z M 440.81151,809.9341 c -2.10465,-0.41 -7.02462,-0.76627 -10.93327,-0.7917 -8.99874,-0.0585 -11.02676,-0.56921 -11.6485,-2.93315 -0.25423,-0.96661 -0.24818,-2.61232 0.0135,-3.66695 0.2611,-1.05233 1.10095,-5.11131 1.86635,-9.01995 1.77298,-9.05405 1.56696,-17.14538 -0.66116,-25.96653 -1.27526,-5.04876 -1.41541,-6.46685 -1.16387,-11.7762 0.25889,-5.4644 0.52376,-6.67187 2.79601,-12.74622 1.38052,-3.69049 2.65303,-7.98516 2.82781,-9.54369 l 0.31777,-2.83369 -5.4779,-4.23664 c -3.01286,-2.33016 -5.61562,-4.23665 -5.78392,-4.23665 -0.1683,0 -0.306,3.26625 -0.306,7.25832 0,8.13173 -0.16912,8.61591 -3.9716,11.37041 -4.14369,3.00168 -18.69339,15.98226 -24.76045,22.09016 -5.84262,5.88195 -12.42305,14.65791 -13.14364,17.52896 -0.1836,0.73149 -0.0407,3.85339 0.31747,6.93754 0.59613,5.13277 0.82092,5.83167 2.65485,8.25437 2.28485,3.0184 4.71169,4.45744 8.46678,5.02055 3.2063,0.48081 4.3089,1.49037 4.08959,3.74448 -0.151,1.552 -0.35811,1.72387 -2.26634,1.88075 -1.15509,0.095 -2.7698,-0.0608 -3.58827,-0.3461 -1.05083,-0.36633 -2.44165,-0.27076 -4.73314,0.32522 -5.53977,1.44082 -6.56371,0.97741 -14.01498,-6.34278 -3.5731,-3.51024 -7.40856,-6.95963 -8.52324,-7.66531 -8.08076,-5.11571 -7.49804,-4.55687 -7.44155,-7.13665 0.0465,-2.12346 0.33755,-2.62397 2.8489,-4.89931 7.93186,-7.18645 13.72766,-15.71695 18.43548,-27.13411 1.1158,-2.70598 2.88671,-6.21552 3.93534,-7.79896 2.24947,-3.3967 7.18433,-7.95809 12.25714,-11.32952 2.97123,-1.97471 3.8072,-2.86579 4.57524,-4.87686 1.14445,-2.9967 0.926,-4.44133 -1.92411,-12.7247 -1.86669,-5.4252 -3.72394,-13.33326 -4.57477,-19.47911 -0.18909,-1.36581 -0.97999,-2.85399 -2.28367,-4.29701 -3.84381,-4.25464 -6.0119,-10.9014 -5.61077,-17.20105 0.18692,-2.93566 0.7647,-4.5329 3.87227,-10.70472 2.00891,-3.98982 3.7762,-7.86921 3.92731,-8.62088 0.23956,-1.19168 -0.24882,-1.73842 -3.81444,-4.27028 l -4.08919,-2.90361 0,-3.33011 c 0,-5.20684 1.59942,-18.32999 2.7681,-22.71214 0.58227,-2.1833 2.38061,-7.24108 3.99631,-11.23952 1.6157,-3.99844 3.33766,-8.64595 3.8266,-10.32779 0.48892,-1.68185 1.71264,-4.51516 2.71937,-6.29626 1.00674,-1.78109 2.00982,-3.95721 2.22906,-4.83581 0.21925,-0.87859 1.36355,-2.85016 2.54288,-4.38126 1.17933,-1.5311 2.14424,-3.06633 2.14424,-3.41162 0,-0.3453 0.82946,-1.17154 1.84326,-1.8361 1.94708,-1.27633 3.07671,-3.56157 3.07671,-6.22414 0,-3.07713 1.08438,-5.33706 3.949,-8.23004 1.58637,-1.60207 3.4993,-3.99897 4.25096,-5.32645 2.08191,-3.67678 5.82858,-8.47484 9.28957,-11.89641 2.91218,-2.87902 3.43828,-3.16217 7.98396,-4.29704 10.28092,-2.56672 17.55114,-2.00012 23.96742,1.8679 1.78631,1.07686 3.53968,1.95793 3.89638,1.95793 1.00544,0 1.74149,1.17177 2.16731,3.45027 0.3366,1.80111 0.24124,2.12235 -0.70334,2.36936 -1.60249,0.41907 -2.72496,2.74272 -1.89325,3.91924 2.14682,3.03684 2.43735,4.05703 1.74918,6.14222 -0.6038,1.82952 -0.54536,2.26924 0.56382,4.24277 1.28506,2.28646 1.29134,2.88296 0.0995,9.4527 -0.53761,2.96351 -2.45952,6.41962 -5.38399,9.68187 l -2.10346,2.3464 -5.02188,0.1927 c -5.49714,0.21093 -7.59883,1.0268 -9.07279,3.52203 -0.46729,0.79104 -1.60763,2.23145 -2.53408,3.20091 -1.98655,2.07873 -2.00603,2.38021 -0.77452,11.98763 1.12552,8.7805 0.80364,10.28659 -3.11482,14.574 -1.49902,1.64017 -3.11379,3.91144 -3.58836,5.04726 -0.94836,2.26974 -1.63585,11.1024 -0.93413,12.00149 0.24239,0.31058 2.1627,1.60604 4.26736,2.8788 2.10466,1.27276 5.91763,3.80119 8.47329,5.61874 2.55565,1.81754 6.22588,4.19508 8.15606,5.28343 l 3.50943,1.9788 5.51052,-0.69886 c 6.75523,-0.85671 8.50597,-0.81752 12.34383,0.2763 3.82532,1.09025 5.46664,2.14954 5.46664,3.52814 0,0.60038 0.64191,2.10845 1.42647,3.35127 1.33402,2.11322 1.38096,2.40482 0.72428,4.49911 -0.38621,1.23169 -1.15112,2.74728 -1.6998,3.36799 -0.54869,0.62071 -0.99762,1.40626 -0.99762,1.74566 0,0.33941 -0.4567,0.93855 -1.0149,1.33143 -0.5582,0.39288 -1.18578,1.25524 -1.39462,1.91636 -0.20885,0.66111 -0.84029,1.34821 -1.40321,1.52687 -0.56292,0.17866 -1.77394,1.49433 -2.69117,2.92369 -0.91721,1.42937 -2.30253,3.15086 -3.07847,3.82553 -4.13767,3.59766 -10.78964,7.50761 -11.75626,6.9102 -0.68331,-0.4223 -0.65726,-6.38786 0.0417,-9.55503 0.2986,-1.35299 1.30845,-4.14775 2.24413,-6.21058 1.95328,-4.3063 1.9376,-4.33593 -2.81376,-5.31563 -1.65366,-0.34098 -8.48024,-2.41889 -15.17019,-4.61758 -11.83837,-3.89076 -12.16991,-3.96589 -12.40218,-2.8102 -0.72636,3.61427 -0.81201,6.22913 -0.3075,9.38726 0.50273,3.14698 0.97605,4.06753 4.3827,8.5239 7.94873,10.39804 18.28178,27.92327 22.12212,37.51992 2.90172,7.25111 2.9196,7.67356 0.81627,19.28261 -0.57198,3.15699 -1.55446,9.18395 -2.18328,13.39326 -0.62882,4.20931 -2.1565,11.95827 -3.39484,17.21991 -2.70081,11.47554 -3.09801,18.22656 -1.24306,21.12779 1.99802,3.125 6.48373,6.53129 13.45221,10.21514 6.35445,3.35925 7.15637,3.64355 10.27709,3.64355 3.99291,0 6.74851,1.14891 6.23826,2.60096 -0.55025,1.56586 -3.06853,4.04844 -4.82103,4.75269 -2.36343,0.94976 -18.69105,0.97626 -23.50654,0.0382 z m -321.57495,-1.90833 c -1.46796,-0.63047 -1.55086,-2.2742 -0.46954,-9.31012 0.92558,-6.02245 1.04552,-16.52765 0.25592,-22.41321 -0.34287,-2.55565 -0.67667,-6.46407 -0.74179,-8.68537 -0.10366,-3.53601 -0.28122,-4.16562 -1.42648,-5.05826 -0.71945,-0.56075 -1.92308,-1.15213 -2.67475,-1.31418 -0.75166,-0.16205 -2.16615,-0.50729 -3.14331,-0.7672 -0.97716,-0.25991 -1.80471,-0.31109 -1.83899,-0.11374 -0.0343,0.19736 -0.1444,1.09683 -0.2447,1.99883 -0.55356,4.97793 -0.62044,5.07986 -5.3244,8.11443 -2.46571,1.59065 -6.615986,4.91599 -9.222834,7.38964 -2.606843,2.47366 -5.374049,4.99651 -6.149333,5.60636 -1.571664,1.23627 -1.692761,1.97781 -0.786693,4.81728 1.40667,4.40826 1.908851,5.33188 4.079342,7.50276 1.839304,1.83963 2.879616,2.39155 5.480615,2.90763 4.761543,0.94477 5.123703,1.09544 5.123703,2.1317 0,1.3251 -3.484367,4.99409 -4.720369,4.97049 -0.560778,-0.0107 -2.495591,-0.37587 -4.299581,-0.81146 -1.803991,-0.43559 -5.689649,-0.79583 -8.6348,-0.80052 -4.887814,-0.008 -5.467015,-0.12073 -6.64121,-1.29493 -0.805427,-0.80542 -1.527078,-2.49165 -1.930128,-4.50997 -1.275536,-6.38739 -1.836336,-7.23842 -7.837808,-11.89407 -1.257682,-0.97564 -2.01591,-2.02426 -2.01591,-2.78796 0,-1.98711 2.944572,-5.50649 12.400389,-14.82107 l 8.919497,-8.78628 0,-2.53128 c 0,-3.04187 -0.878215,-5.17408 -2.319521,-5.63153 -1.180832,-0.37479 -2.600452,-3.30208 -2.600452,-5.3622 0,-2.05134 -0.56032,-3.06892 -1.689853,-3.06892 -0.564419,0 -1.775454,-0.6765 -2.691187,-1.50333 -3.081598,-2.78241 -3.490836,-11.19391 -0.824599,-16.94871 1.861336,-4.0175 4.629395,-7.58103 14.65447,-18.86583 10.251912,-11.54014 9.927842,-11.23318 16.992852,-16.09546 2.96732,-2.04216 7.1493,-5.07709 9.29328,-6.74428 5.2137,-4.05422 6.23486,-4.65806 10.05156,-5.94382 1.79432,-0.60446 5.81783,-2.43473 8.94112,-4.06726 4.83008,-2.52465 5.94135,-3.36494 7.43625,-5.62289 3.80541,-5.74782 5.23928,-7.39872 8.04283,-9.26017 3.62485,-2.40676 7.18967,-3.50777 11.35738,-3.50777 6.22164,0 14.68139,3.11502 16.07314,5.9184 0.34725,0.69947 1.5218,1.87683 2.61012,2.61636 1.75972,1.19576 1.97876,1.60534 1.97876,3.70015 0,1.69998 0.32005,2.6452 1.14998,3.39628 0.6325,0.57239 1.78037,2.14801 2.55083,3.50137 0.77045,1.35336 1.83024,2.95265 2.35508,3.55398 0.52484,0.60133 1.10536,2.44632 1.29004,4.09998 l 0.33579,3.00665 -4.49779,3.21303 -4.49779,3.21304 -4.21052,-0.0899 -4.21051,-0.0899 -0.35681,5.35014 c -0.19624,2.94257 -0.57023,6.44803 -0.83108,7.78989 -0.33851,1.74131 -0.22863,3.52755 0.38382,6.23958 0.88676,3.92665 0.89457,3.67754 -0.73112,23.30049 l -0.29438,3.55331 4.03804,5.46664 c 9.42199,12.75539 12.76793,18.47984 16.84138,28.8133 1.21988,3.09458 3.08322,7.62095 4.14076,10.05859 1.7579,4.05204 1.89035,4.71875 1.54453,7.77533 -0.31737,2.80518 -0.14022,4.09075 1.10068,7.9878 0.8134,2.55451 1.39493,5.08258 1.29228,5.61793 -0.28401,1.48132 -3.44696,2.27506 -9.20178,2.30919 -6.20088,0.0368 -8.46188,-0.86745 -10.03006,-4.01128 -1.01077,-2.02635 -1.00946,-2.05187 0.16972,-3.30705 0.65359,-0.69571 1.48098,-1.25599 1.83863,-1.24507 2.41701,0.0739 2.6556,-0.12687 2.29289,-1.92902 -0.61787,-3.06993 -0.88628,-3.71516 -1.41065,-3.39109 -0.28012,0.17313 -0.36548,0.88786 -0.18968,1.5883 0.42356,1.68758 -0.47998,2.1653 -1.85325,0.97987 -1.0303,-0.88938 -1.05628,-1.13686 -0.38504,-3.66751 0.44326,-1.67115 1.26591,-3.14922 2.14123,-3.84718 0.78179,-0.62338 1.42143,-1.32075 1.42143,-1.54971 0,-0.22896 -2.57667,-3.11441 -5.72594,-6.41211 -3.14927,-3.29769 -6.75858,-7.52909 -8.02068,-9.40311 -4.58204,-6.80359 -7.14579,-9.7223 -11.25937,-12.81827 -5.57257,-4.19404 -10.39859,-8.70795 -11.41831,-10.67986 -0.90701,-1.75399 -0.65584,-4.65639 0.67956,-7.85245 1.12017,-2.68094 0.92951,-5.47854 -0.65619,-9.62826 -0.77795,-2.03586 -1.48412,-3.70157 -1.56927,-3.70157 -0.0851,0 -0.18763,1.90649 -0.22774,4.23664 -0.0401,2.33016 -0.28851,6.8281 -0.55203,9.99544 -0.42627,5.12361 -0.72011,6.23907 -2.66411,10.11327 -1.71534,3.41852 -2.44373,5.82326 -3.38872,11.18779 -0.66205,3.75831 -1.56716,8.30929 -2.01135,10.11328 -0.44419,1.80399 -1.01353,6.85382 -1.2652,11.22184 -0.27776,4.82085 -0.77956,8.71247 -1.27689,9.90276 -0.8991,2.15186 -0.77113,2.54231 1.24983,3.81345 3.16456,1.99044 13.7127,5.03713 16.6732,4.81583 2.32464,-0.17377 3.50734,0.0714 4.33431,0.89833 1.60216,1.60216 1.00417,2.83591 -2.50393,5.16606 l -3.36298,2.23376 -12.08028,-0.16612 c -6.64415,-0.0914 -14.17126,0.018 -16.72691,0.2431 -2.76304,0.24334 -5.14524,0.19508 -5.87664,-0.11905 z m 12.72231,-75.47645 c 0.21964,-0.35539 -1.06141,0.16304 -2.84679,1.15207 l -3.24614,1.79824 2.49361,3.65057 c 0.70102,1.02627 1.40204,2.05254 2.10306,3.07881 0.13019,0.19059 0.26037,0.38117 0.39056,0.57176 l 0.35317,-4.80264 c 0.19424,-2.64144 0.53288,-5.09341 0.75253,-5.44881 z m 196.78658,75.31908 c -1.80399,-0.28955 -11.39794,-0.56088 -21.31989,-0.60296 -18.9065,-0.0802 -19.78922,-0.18714 -21.05451,-2.55135 -0.42475,-0.79366 -0.36759,-1.7973 0.21388,-3.75534 1.49094,-5.02054 2.14654,-12.99664 1.84796,-22.48254 l -0.28789,-9.14629 -1.98792,-4.03037 c -3.47878,-7.05295 -3.68337,-15.73094 -0.60853,-25.81176 1.6251,-5.32787 1.68637,-6.49957 0.44939,-8.59362 -1.51153,-2.5588 -2.11694,-2.31921 -3.72998,1.47611 -1.1671,2.74608 -2.07385,3.96056 -4.02755,5.39437 -4.93704,3.62327 -5.60983,4.26622 -8.49956,8.12259 -3.2827,4.38079 -2.59651,3.6557 -16.08919,17.0017 -11.02806,10.90819 -12.10027,12.48323 -12.52335,18.39632 l -0.26989,3.77205 4.85705,4.92118 4.85706,4.92118 3.85732,0.47684 c 2.69934,0.33369 4.79268,1.00472 6.97308,2.23527 3.86251,2.17986 4.49919,3.78928 2.34952,5.93912 -1.33157,1.33168 -1.77715,1.44173 -5.40227,1.33431 -6.60022,-0.19557 -7.37048,-0.20021 -11.1943,-0.0674 -4.49921,0.15629 -6.34724,-0.80733 -13.22221,-6.89448 -2.99913,-2.65545 -5.67586,-4.50219 -7.6533,-5.28018 -4.52843,-1.78167 -8.71597,-4.25337 -9.66822,-5.70668 -1.2429,-1.8969 -0.55498,-3.31246 3.70667,-7.62741 5.83925,-5.91228 11.83217,-16.01205 14.1103,-23.77987 1.3719,-4.67782 4.17101,-10.128 6.95781,-13.54759 1.04928,-1.28754 5.06351,-5.05293 8.92051,-8.36753 8.92049,-7.66603 8.87874,-7.52621 4.99134,-16.71773 -3.32412,-7.85968 -5.23662,-13.52009 -6.13473,-18.15696 -0.63761,-3.29192 -0.90344,-3.71389 -4.68152,-7.43118 -6.44002,-6.3364 -8.5594,-12.92839 -6.75558,-21.01215 1.02983,-4.61515 4.83141,-12.73467 10.39589,-22.20381 2.75146,-4.68218 7.18884,-13.28789 9.86084,-19.1238 9.42007,-20.57433 13.40153,-27.45764 21.49704,-37.16503 4.89993,-5.87556 7.49988,-7.71088 15.09824,-10.65795 8.95529,-3.47336 9.56391,-3.78935 12.38183,-6.42865 1.45828,-1.36585 4.37993,-4.11565 6.49254,-6.11066 2.11261,-1.99503 5.04262,-4.19209 6.51113,-4.88237 3.88368,-1.82554 9.12796,-2.64161 13.99664,-2.17802 9.0122,0.85813 21.29185,7.42067 21.29906,11.38272 0.001,0.45926 -0.55186,1.8798 -1.22821,3.15674 -1.02356,1.93248 -1.11414,2.48239 -0.5403,3.27998 2.94339,4.09114 2.83646,3.51012 2.57746,14.00612 -0.27327,11.07373 -0.21414,10.9121 -5.15414,14.08903 -2.82901,1.81934 -5.95509,2.02909 -11.23625,0.7539 -1.80399,-0.43559 -4.34137,-0.80075 -5.63863,-0.81146 -2.57398,-0.0213 -7.34212,1.73662 -9.20039,3.3919 -1.06741,0.95082 -4.01585,8.55776 -5.64469,14.56325 -0.44836,1.65307 -1.39055,3.0691 -3.04236,4.57238 -1.83712,1.67193 -2.67248,3.0202 -3.59683,5.80527 -1.24795,3.76008 -2.75221,6.44447 -5.70884,10.18752 -1.58206,2.00288 -3.17728,5.277 -6.52547,13.39326 -1.14372,2.77248 -1.27539,4.22011 -1.69055,18.58657 -0.71193,24.63636 -1.04494,21.50731 3.22901,30.33984 2.03683,4.20931 4.40229,8.39129 5.25659,9.29328 2.76269,2.91695 3.42212,4.88441 3.36634,10.04364 -0.0524,4.84849 -0.43243,7.93019 -1.15456,9.36292 -0.22732,0.451 -0.57685,5.98597 -0.77675,12.29994 -0.1999,6.31396 -0.70591,14.30892 -1.12447,17.76657 -0.41855,3.45765 -0.92601,8.43057 -1.12769,11.05095 -0.34525,4.48586 -0.28345,4.90634 1.05746,7.19441 0.78956,1.34729 3.24964,3.89866 5.521,5.72587 3.6152,2.90828 4.82092,3.51973 10.25554,5.20084 3.38727,1.04779 9.11066,2.55961 12.71864,3.3596 3.60799,0.79998 6.86747,1.7097 7.2433,2.0216 1.00075,0.8305 0.80521,2.15005 -0.56632,3.82173 -2.44152,2.97581 -6.34159,3.67873 -13.7836,2.48424 z M 914.24566,639.56887 c 0.99537,-0.56468 5.58167,-4.61464 6.13921,-5.07613 4.78987,-0.73865 -4.14283,4.66109 -5.6657,5.55376 -0.27716,0 -1.57894,0.14949 -0.47351,-0.47763 z m 15.14014,-9.42662 c -11.26822,5.93041 -8.80668,3.8815 -4.26029,0.36963 4.5464,-3.51188 12.91033,-9.31179 16.91225,-12.53352 8.17342,-6.06552 10.34057,-5.85795 5.70564,-1.66532 -4.63492,4.19263 -17.80459,13.1954 -18.3576,13.82921 z m 3.92428,-13.82851 c 4.51772,-6.10117 13.91925,-10.74736 25.26225,-19.13525 3.48345,-2.73856 10.5526,-10.10605 17.9114,-13.40335 1.6004,1.53257 -24.36343,21.15805 -37.62379,30.47149 -1.52124,0.52597 -11.58428,8.63032 -13.71152,10.1768 -4.674,-0.40339 4.00552,-4.39215 8.16166,-8.10969 z m 17.94995,-5.54554 c 10.71611,-8.13025 41.46325,-32.80773 52.55107,-41.5668 3.0381,-2.85445 5.7389,-4.48313 7.7048,-7.80707 1.2206,-2.54268 -3.9186,-2.12253 -2.9872,-2.03558 -2.3803,-4.97989 6.5907,-3.42057 4.6937,2.69827 -11.1708,16.11145 -71.23714,57.40185 -61.96237,48.71118 z m 54.28307,-51.20872 c 3.8096,-0.95571 2.0068,1.1504 -3.2447,5.10931 -0.426,0.3219 -23.09671,19.63642 -24.7086,18.40491 2.2244,-5.14118 19.32353,-16.0406 27.9533,-23.51422 z"
       inkscape:connector-curvature="0"
       sodipodi:nodetypes="csccsssscscsssssssscscssscsscccccscccssssscsscscccacscccsscscsccccsscsssssccsssscscssscscsscsscsscssccsccsccccsssccccsssssssscssssssssscssscssssssssssssssssssscsssssscscssssscsssccsccscsssssssssssscccsscscscssssssssscsssccsscsscscsssssscsssscssscssscssssssscssscccsscssssssccscssssccsssscsscscsccscccssssssscccscccccscccsscscscsccssssccsssssssccsscsssscccssssscscssssscsscssssccscscccsscsssscsscscssssscsscsssssssscssssssssssccsssssssssssssssscssscscssssssssssssssssscscsssscssscsssssssscscscsssssssssssssssscccsssssscsssssssscscssssscssssssssssssssssscssscccccsssscssssscssscscssssssssssssssssssssscscssccssccscsscsssscsssssssscccsssssssssssssssssssssssscssssscssssssssssssssssssssccsccscscsccccccccccccccccc"
       id="path3136" />
  </g>
</svg>
