<?xml version="1.0" encoding="UTF-8" standalone="no"?>
<!-- Created with Inkscape (http://www.inkscape.org/) -->

<svg
   xmlns:dc="http://purl.org/dc/elements/1.1/"
   xmlns:cc="http://creativecommons.org/ns#"
   xmlns:rdf="http://www.w3.org/1999/02/22-rdf-syntax-ns#"
   xmlns:svg="http://www.w3.org/2000/svg"
   xmlns="http://www.w3.org/2000/svg"
   xmlns:sodipodi="http://sodipodi.sourceforge.net/DTD/sodipodi-0.dtd"
   xmlns:inkscape="http://www.inkscape.org/namespaces/inkscape"
   width="210mm"
   height="297mm"
   id="svg2"
   version="1.1"
   inkscape:version="0.48.4 r9939"
   sodipodi:docname="Új dokumentum 1">
  <defs
     id="defs4" />
  <sodipodi:namedview
     id="base"
     pagecolor="#ffffff"
     bordercolor="#666666"
     borderopacity="1.0"
     inkscape:pageopacity="0.0"
     inkscape:pageshadow="2"
     inkscape:zoom="0.7"
     inkscape:cx="375"
     inkscape:cy="785.80023"
     inkscape:document-units="px"
     inkscape:current-layer="layer1"
     showgrid="false"
     inkscape:window-width="1342"
     inkscape:window-height="368"
     inkscape:window-x="10"
     inkscape:window-y="10"
     inkscape:window-maximized="0" />
  <metadata
     id="metadata7">
    <rdf:RDF>
      <cc:Work
         rdf:about="">
        <dc:format>image/svg+xml</dc:format>
        <dc:type
           rdf:resource="http://purl.org/dc/dcmitype/StillImage" />
        <dc:title></dc:title>
      </cc:Work>
    </rdf:RDF>
  </metadata>
  <g
     inkscape:label="1. réteg"
     inkscape:groupmode="layer"
     id="layer1">
    <g
       id="g3041"
       transform="translate(64.871966,157.09001)">
      <path
         id="path3043"
         d="m 28.709,28.63 c 3.516,0 7.758,0.726 12.727,2.179 5.015,1.454 8.343,2.18 9.984,2.18 2.109,0 5.555,-0.82 10.336,-2.461 4.781,-1.64 8.93,-2.461 12.445,-2.461 5.766,0 10.899,1.547 15.399,4.641 2.531,1.781 5.039,4.195 7.523,7.242 -3.75,3.188 -6.492,6.024 -8.226,8.508 -3.141,4.5 -4.711,9.469 -4.711,14.906 0,5.953 1.664,11.32 4.992,16.102 3.328,4.781 7.125,7.804 11.392,9.07 -1.783,5.766 -4.736,11.794 -8.861,18.074 -6.234,9.42 -12.422,14.13 -18.562,14.13 -2.438,0 -5.813,-0.77 -10.125,-2.32 -4.266,-1.55 -7.875,-2.32 -10.828,-2.32 -2.954,0 -6.399,0.8 -10.336,2.39 -3.891,1.64 -7.055,2.46 -9.493,2.46 -7.359,0 -14.578,-6.23 -21.656,-18.7 C 3.631,89.919 0.092,77.825 0.092,65.966 0.09199,54.95 2.7873,45.974 8.1779,39.036 13.615,32.098 20.4589,28.63 28.7089,28.63 M 73.0059,0.927 c 0.187,0.60946 0.305,1.1486 0.352,1.6172 0.046,0.4689 0.07,0.9376 0.07,1.4063 0,3.0001 -0.703,6.281 -2.109,9.844 -1.407,3.562 -3.633,6.867 -6.68,9.914 -2.625,2.578 -5.227,4.312 -7.805,5.203 -1.64,0.516 -4.125,0.914 -7.453,1.195 0.094,-7.125 1.945,-13.289 5.555,-18.492 3.656,-5.203 9.679,-8.7655 18.07,-10.687"
         inkscape:connector-curvature="0" />
    </g>
    <path
       style="font-size:76.14319611px;font-style:normal;font-variant:normal;font-weight:bold;font-stretch:normal;text-align:center;line-height:125%;letter-spacing:0px;word-spacing:0px;text-anchor:middle;fill:#000000;fill-opacity:1;stroke:none;font-family:Droid Sans Mono;-inkscape-font-specification:Droid Sans Mono Bold"
       d="M 463.625 188.625 C 458.44466 188.62506 454.76198 189.68741 452.53125 191.84375 C 450.30047 194.0002 449.18748 197.46631 449.1875 202.25 L 449.1875 205.8125 L 437.375 207.0625 L 437.375 211.15625 L 449.1875 211.15625 L 449.1875 246.875 L 455.9375 246.875 L 455.9375 211.15625 L 470.40625 211.15625 L 470.40625 206.0625 L 455.9375 206.0625 L 455.9375 202.1875 C 455.93748 199.33713 456.47188 197.27061 457.5625 196.03125 C 458.65307 194.79199 460.73252 194.18755 463.78125 194.1875 C 466.33419 194.18755 468.89095 194.52479 471.46875 195.21875 L 473 189.90625 C 469.95126 189.03879 466.82238 188.62506 463.625 188.625 z M 578.375 189.03125 L 578.375 193.5625 L 588.34375 194.34375 L 588.34375 241.5625 L 575.53125 242.3125 L 575.53125 246.875 L 608.21875 246.875 L 608.21875 242.3125 L 595.125 241.5625 L 595.125 189.03125 L 578.375 189.03125 z M 546.4375 189.25 C 543.78536 189.25006 542.46873 190.64318 542.46875 193.46875 C 542.46873 196.31921 543.78536 197.75005 546.4375 197.75 C 547.50328 197.75005 548.4191 197.41281 549.1875 196.71875 C 549.98063 196 550.37497 194.9064 550.375 193.46875 C 550.37497 190.64318 549.06481 189.25006 546.4375 189.25 z M 312.5625 195.15625 L 309.71875 205.8125 L 299.78125 207.65625 L 299.78125 211.15625 L 309.71875 211.15625 L 309.71875 234.8125 C 309.71873 243.33896 314.21488 247.625 323.1875 247.625 C 326.21138 247.625 329.30901 247.23066 332.53125 246.4375 L 332.53125 241.28125 C 328.88764 241.80177 325.93008 242.0625 323.625 242.0625 C 318.86603 242.0625 316.46873 239.64582 316.46875 234.8125 L 316.46875 211.15625 L 332.75 211.15625 L 332.75 206.0625 L 316.46875 206.0625 L 316.46875 195.15625 L 312.5625 195.15625 z M 637.3125 205 C 634.16463 205.00004 632.59373 206.74226 632.59375 210.1875 C 632.59373 213.63281 634.16463 215.34378 637.3125 215.34375 C 640.46032 215.34378 642.03122 213.63281 642.03125 210.1875 C 642.03122 206.74226 640.46032 205.00004 637.3125 205 z M 225.53125 205.3125 C 220.64835 205.31254 216.90211 206.54621 214.25 209 C 212.70668 210.42686 211.60551 212.19851 210.96875 214.34375 L 217.8125 214.34375 C 219.02591 211.5697 221.51988 210.18752 225.3125 210.1875 C 230.88937 210.18754 233.68747 213.13863 233.6875 219.0625 C 233.68747 224.76335 230.90229 227.62502 225.375 227.625 C 221.21548 227.62501 218.61573 226.07503 217.53125 223 L 210.78125 223 C 211.09727 224.15875 211.55545 225.27795 212.1875 226.34375 C 213.45159 228.4506 215.20027 229.95793 217.40625 230.875 C 214.10968 232.85791 212.43749 235.25521 212.4375 238.03125 C 212.43749 240.68338 213.65176 242.58505 216.03125 243.75 C 210.08256 245.1876 207.09375 248.52657 207.09375 253.78125 C 207.09375 257.37524 208.51165 260.17334 211.3125 262.15625 C 214.13812 264.16391 218.25284 265.15623 223.65625 265.15625 C 232.43499 265.15624 238.44309 263.32824 241.71875 259.65625 L 234.8125 259.65625 C 233.91295 259.65625 233.09403 259.37464 232.40625 258.90625 C 230.12755 259.6574 227.17171 260.03125 223.5625 260.03125 C 216.84543 260.03124 213.49999 257.87529 213.5 253.5625 C 213.49999 248.65483 216.33041 246.1875 222.03125 246.1875 L 229.03125 246.1875 C 232.69958 246.1875 235.16691 246.56891 236.40625 247.3125 C 237.4968 247.98866 238.08785 249.22977 238.21875 251 L 244.65625 251 C 244.62286 247.53213 243.46518 244.84895 241.21875 242.96875 C 238.93838 241.06022 235.65652 240.09376 231.34375 240.09375 L 224.375 240.09375 C 220.38441 240.09376 218.40623 239.0508 218.40625 236.96875 C 218.40623 235.06022 219.64636 233.41929 222.125 232.03125 C 222.89335 232.17998 223.94924 232.25001 225.3125 232.25 C 230.02185 232.25001 233.68513 231.07345 236.3125 228.71875 C 238.96459 226.3393 240.31246 223.14685 240.3125 219.15625 C 240.31246 215.98365 239.48607 213.35686 237.875 211.25 L 245.15625 210.25 L 245.15625 206.0625 L 231.125 206.0625 C 229.53866 205.56682 227.66284 205.31254 225.53125 205.3125 z M 271.875 205.3125 C 266.17416 205.31254 261.62091 207.20129 258.25 210.96875 C 254.90386 214.73628 253.25 219.85626 253.25 226.375 C 253.25 232.81943 254.96096 237.97711 258.40625 241.84375 C 261.8763 245.68561 266.30241 247.625 271.65625 247.625 C 277.30747 247.625 281.82301 245.72979 285.21875 241.9375 C 287.77703 239.08042 289.36909 235.43278 290 231 L 283 231 C 281.95925 238.3185 278.2237 242 271.78125 242 C 264.07273 242 260.21874 236.78521 260.21875 226.375 C 260.21874 216.06397 264.0598 210.90629 271.71875 210.90625 C 278.36422 210.90628 282.12769 214.7295 283.0625 222.34375 L 290.03125 222.34375 C 289.43658 217.82291 287.80611 214.05229 285.125 211.0625 C 281.67969 207.22068 277.27836 205.31254 271.875 205.3125 z M 363.1875 205.3125 C 357.48666 205.31254 352.93341 207.20129 349.5625 210.96875 C 346.21636 214.73628 344.5625 219.85626 344.5625 226.375 C 344.5625 232.81943 346.27346 237.97711 349.71875 241.84375 C 353.1888 245.68561 357.61491 247.625 362.96875 247.625 C 368.61997 247.625 373.13551 245.72979 376.53125 241.9375 C 378.95898 239.22621 380.49545 235.78653 381.1875 231.65625 L 374.21875 231.65625 C 373.05374 238.54824 369.34565 242 363.09375 242 C 355.38523 242 351.53124 236.78521 351.53125 226.375 C 351.53124 216.06397 355.3723 210.90629 363.03125 210.90625 C 369.86712 210.90628 373.67547 214.94317 374.46875 223 L 381.40625 223 C 380.887 218.18875 379.24574 214.19406 376.4375 211.0625 C 372.99219 207.22068 368.59086 205.31254 363.1875 205.3125 z M 499.40625 205.3125 C 494.77121 205.31254 490.01433 206.49557 485.15625 208.875 L 487.5 213.96875 C 491.98629 211.93632 496.04391 210.90629 499.6875 210.90625 C 505.7353 210.90629 508.78122 213.83799 508.78125 219.6875 L 508.78125 222.25 L 501.21875 222.53125 C 491.99299 222.8207 486.14877 225.19486 483.65625 229.65625 L 492.09375 229.65625 C 492.1787 229.59614 492.25492 229.52616 492.34375 229.46875 C 494.3762 228.13031 497.82938 227.35456 502.6875 227.15625 L 508.6875 226.90625 L 508.6875 230.59375 C 508.68747 234.26212 507.61865 237.09254 505.4375 239.125 C 503.28107 241.13269 500.3623 242.15625 496.71875 242.15625 C 492.95599 242.15625 490.62541 240.88566 489.71875 238.34375 L 482.5 238.34375 C 482.94513 240.83014 484.01355 242.84147 485.6875 244.40625 C 487.99261 246.53786 491.14734 247.625 495.1875 247.625 C 498.36011 247.625 500.96104 247.16709 502.96875 246.25 C 504.9764 245.30813 506.93518 243.62301 508.84375 241.21875 L 509.15625 241.21875 L 510.53125 246.875 L 515.375 246.875 L 515.375 218.90625 C 515.37496 214.14733 514.12191 210.68769 511.59375 208.53125 C 509.09031 206.37489 505.03269 205.31254 499.40625 205.3125 z M 533 206.0625 L 533 210.625 L 543 211.40625 L 543 241.5625 L 530.21875 242.3125 L 530.21875 246.875 L 562.875 246.875 L 562.875 242.3125 L 549.78125 241.5625 L 549.78125 206.0625 L 533 206.0625 z M 633.1875 238.03125 C 632.24561 244.15344 631.00548 250.36702 629.46875 256.6875 L 634.5625 256.6875 C 637.66075 249.69779 639.82963 243.75788 641.09375 238.875 L 640.5625 238.03125 L 633.1875 238.03125 z "
       id="text3049" />
  </g>
</svg>
