<?xml version="1.0" encoding="UTF-8" standalone="no"?>
<!-- Created with Inkscape (http://www.inkscape.org/) -->

<svg
   xmlns:dc="http://purl.org/dc/elements/1.1/"
   xmlns:cc="http://creativecommons.org/ns#"
   xmlns:rdf="http://www.w3.org/1999/02/22-rdf-syntax-ns#"
   xmlns:svg="http://www.w3.org/2000/svg"
   xmlns="http://www.w3.org/2000/svg"
   xmlns:sodipodi="http://sodipodi.sourceforge.net/DTD/sodipodi-0.dtd"
   xmlns:inkscape="http://www.inkscape.org/namespaces/inkscape"
   width="744.09448819"
   height="1052.3622047"
   id="svg2"
   version="1.1"
   inkscape:version="0.48.4 r9939"
   sodipodi:docname="mateist.svg">
  <defs
     id="defs4" />
  <sodipodi:namedview
     id="base"
     pagecolor="#ffffff"
     bordercolor="#666666"
     borderopacity="1.0"
     inkscape:pageopacity="0.0"
     inkscape:pageshadow="2"
     inkscape:zoom="1.5011719"
     inkscape:cx="385.90322"
     inkscape:cy="784.51644"
     inkscape:document-units="px"
     inkscape:current-layer="layer1"
     showgrid="false"
     inkscape:snap-global="true"
     inkscape:window-width="1342"
     inkscape:window-height="744"
     inkscape:window-x="10"
     inkscape:window-y="10"
     inkscape:window-maximized="0" />
  <metadata
     id="metadata7">
    <rdf:RDF>
      <cc:Work
         rdf:about="">
        <dc:format>image/svg+xml</dc:format>
        <dc:type
           rdf:resource="http://purl.org/dc/dcmitype/StillImage" />
        <dc:title></dc:title>
      </cc:Work>
    </rdf:RDF>
  </metadata>
  <g
     inkscape:label="Layer 1"
     inkscape:groupmode="layer"
     id="layer1"
     style="display:inline">
    <g
       id="g4013"
       transform="translate(-1080,221.96706)">
      <path
         id="path3726"
         style="fill:#000000;display:inline"
         d="m 1318.707,511.3938 c -0.351,-0.002 -2.1104,-0.90141 -3.9099,-1.99856 -1.7995,-1.09715 -13.4995,-7.43839 -26,-14.09165 -12.5005,-6.65326 -23.0523,-12.40046 -23.4484,-12.77157 l -0.7201,-0.67473 1.4069,-5.33332 c 0.7738,-2.93332 1.6053,-5.53166 1.8477,-5.77409 0.2424,-0.24242 6.0065,-0.89151 12.8091,-1.44241 l 12.3683,-1.00163 0.7288,-0.7288 0.7288,-0.72879 -10.5249,-6.40206 c -5.7886,-3.52113 -10.767,-6.7939 -11.063,-7.27282 l -0.5381,-0.87076 1.2065,-5.02926 1.2065,-5.02925 1.1318,-0.37266 c 0.6225,-0.20496 9.9069,-0.85713 20.6319,-1.44926 10.725,-0.59213 24.1125,-1.3583 29.75,-1.70259 l 10.25,-0.62598 -0.023,2.40196 c -0.013,1.32109 -0.8367,5.55197 -1.8315,9.40197 l -1.8086,7 -10.1685,-0.25034 -10.1686,-0.25035 0,0.93223 0,0.93222 8.5016,6.13743 8.5017,6.13744 -0.6481,2.68068 c -0.3565,1.47438 -0.9975,3.63114 -1.4245,4.79279 l -0.7764,2.1121 -6.3272,0.69111 c -3.4799,0.3801 -8.0146,0.94967 -10.0771,1.2657 l -3.75,0.57461 0,0.73716 c 0,0.40544 3.3676,2.2055 7.4837,4.00013 4.1161,1.79463 7.9925,3.87599 8.6143,4.62525 l 1.1306,1.36228 -2.2262,9.00978 c -1.2244,4.95538 -2.5134,9.0081 -2.8643,9.00604 z m -5.6881,-13.05727 0.95,0.061 -0.95,-0.94348 c -0.5225,-0.51891 -7.7,-4.60351 -15.95,-9.07689 -8.25,-4.47337 -15.3711,-8.49242 -15.8247,-8.93121 l -0.8247,-0.79781 3.3247,-0.58888 c 1.8286,-0.32389 10.2931,-1.53619 18.81,-2.694 8.517,-1.15781 15.6486,-2.26829 15.848,-2.46772 0.1994,-0.19943 -6.9468,-5.23102 -15.8804,-11.18131 l -16.243,-10.8187 19.7596,-1.19787 19.7595,-1.19788 0.6355,-0.65752 0.6355,-0.65752 -15,0.7341 c -8.25,0.40375 -18.15,1.02249 -22,1.37497 l -7,0.64088 16.351,10.95545 16.351,10.95546 -2.851,0.69869 c -1.5681,0.38427 -10.4121,1.69944 -19.6534,2.9226 l -16.8024,2.22391 0.8028,0.80277 c 0.4415,0.44152 8.4526,5.07263 17.8024,10.29135 9.3497,5.21873 17.4271,9.51605 17.9496,9.5496 z m 316.1748,4.86793 -9.6205,-0.30692 0,-6.37913 0,-6.37912 -8.25,0.68764 c -4.5375,0.3782 -13.8227,1.8011 -20.6338,3.162 -6.811,1.3609 -12.6059,2.2522 -12.8774,1.98066 -0.2716,-0.27153 -1.1098,-4.63794 -1.8627,-9.70312 -0.7529,-5.06519 -1.1562,-9.42209 -0.8963,-9.68201 0.2599,-0.25992 7.1208,-0.88055 15.2464,-1.37918 l 14.7738,-0.9066 6,-1.20057 6,-1.20057 -0.05,-2.5 c -0.027,-1.375 -0.3419,-4.525 -0.699,-7 l -0.6493,-4.5 8.4173,0.32257 8.4173,0.32258 0.4641,3.17742 c 0.2552,1.74759 1.4289,10.82743 2.6082,20.17743 1.1792,9.35 2.3899,18.03811 2.6903,19.30692 l 0.5462,2.30692 -9.6205,-0.30692 z m -0.6621,-8.80692 0.7042,0 -1.8306,-13.66386 c -1.0069,-7.51513 -2.046,-13.87917 -2.3092,-14.14233 -0.2632,-0.26316 -0.1994,2.51057 0.1418,6.16386 l 0.6203,6.64233 -1.3588,0 c -0.7473,0 -10.1449,1.15752 -20.8835,2.57227 -10.7387,1.41474 -19.7173,2.76474 -19.9525,3 -0.2353,0.23525 -0.2403,0.58617 -0.011,0.77983 0.2291,0.19365 8.2916,-0.66901 17.9166,-1.91702 9.625,-1.24801 19.1648,-2.48558 21.1995,-2.75016 l 3.6995,-0.48106 0.6797,6.89807 0.6797,6.89807 z m -61.652,-59 -4.887,0 -4.4618,-2.25 -4.4619,-2.25 -0.8522,-7.31454 -0.8521,-7.31455 0.5092,-0.50919 0.5092,-0.50919 3.0433,1.57373 3.0432,1.57374 3.2997,-0.0222 3.2997,-0.0222 2.142,-1.72777 c 1.1781,-0.95027 2.8656,-3.16791 3.75,-4.9281 l 1.608,-3.20041 0,-2.2118 0,-2.2118 2.4911,-4.25083 2.4912,-4.25083 3.3769,-2.08703 3.3768,-2.08703 4.0945,0 4.0944,0 5.4464,2.03776 c 2.9956,1.12077 5.8932,2.58327 6.4392,3.25 l 0.9927,1.21224 0.7311,6.90133 0.7311,6.90134 -2.3827,-0.70345 c -1.3105,-0.3869 -4.0617,-0.96311 -6.1139,-1.28048 l -3.7311,-0.57702 -2.9701,1.23027 -2.9701,1.23027 -1.4064,2.14887 c -0.7735,1.18188 -2.1374,4.66546 -3.0309,7.74129 l -1.6245,5.59241 -1.9907,2.53074 -1.9906,2.53073 -3.4284,1.62685 -3.4283,1.62685 z m -0.6956,-8.115 4.1151,0.115 2.5667,-2.01892 2.5666,-2.01892 3.172,-8.40423 3.172,-8.40423 2.4067,-2.26101 2.4067,-2.26102 4.2396,-0.69067 4.2395,-0.69067 -4.5629,-0.12516 -4.563,-0.12517 -2.6663,2.78302 -2.6663,2.78301 -1.9109,5.55416 c -1.051,3.05478 -2.64,6.96408 -3.5311,8.68733 l -1.6202,3.13319 -2.2397,1.2148 c -1.2318,0.66813 -3.8146,1.52973 -5.7396,1.91464 l -3.5,0.69985 z m -224.4942,7.115 -0.6774,0 -5.653,-18.25 c -3.1092,-10.0375 -7.3542,-24.05009 -9.4334,-31.13909 l -3.7803,-12.88909 4.9616,-4.34034 4.9616,-4.34035 1.6243,-0.0206 c 0.8934,-0.0113 5.3934,1.51022 10,3.38118 4.6066,1.87096 17.6007,7.53726 28.8757,12.59177 11.275,5.05451 20.6067,9.293 20.7372,9.41887 0.1306,0.12586 -3.3994,3.52862 -7.8443,7.56167 l -8.0816,7.33283 -4.4324,-2.15345 c -2.4378,-1.18439 -4.9829,-2.14252 -5.6557,-2.12918 l -1.2232,0.0243 -6,5.37802 -6,5.37803 1.8327,5.21495 1.8328,5.21494 -0.8328,0.74981 c -0.458,0.4124 -3.9156,3.50964 -7.6836,6.88276 -3.7679,3.37314 -7.1556,6.13297 -7.5282,6.13297 z m 3.4947,-15.28233 c 0.2382,-0.23818 -0.2381,-2.85959 -1.0584,-5.82536 -0.8203,-2.96577 -3.7562,-12.7653 -6.5243,-21.77673 -2.7681,-9.01143 -5.0329,-16.74093 -5.0329,-17.17667 0,-0.43575 0.7875,-0.99806 1.75,-1.24958 l 1.75,-0.45733 -1.7814,-0.116 -1.7814,-0.116 -0.5027,1.31008 -0.5028,1.31008 6.0786,20.43992 c 3.3432,11.24196 6.3246,21.26133 6.6254,22.26528 0.3008,1.00395 0.7418,1.63049 0.9799,1.39231 z m -1.2807,-10.71767 c 0.4439,0 5.7751,-4.51448 11.847,-10.03218 l 11.0399,-10.03219 2.1391,0.55923 2.1391,0.55922 -6.5,-3.47852 c -3.575,-1.91318 -10.1067,-4.77366 -10.6567,-4.77474 -0.55,-10e-4 1.7304,1.25013 4.4505,2.66471 l 7.5972,3.77153 -4.4455,4.13695 c -2.4451,2.27532 -7.5893,6.94698 -11.4317,10.38146 -3.8423,3.43449 -6.6228,6.24453 -6.1789,6.24453 z m 4.0876,-14 c 0.6971,0 2.0563,-0.87164 3.0204,-1.93699 l 1.753,-1.93698 -0.5765,-0.93281 c -0.3171,-0.51304 -1.9506,-1.50197 -3.63,-2.19761 l -3.0536,-1.26481 -0.5676,0.5676 -0.5676,0.5676 1.1773,3.567 1.1772,3.567 z m 6.9603,-12.74504 c 0.55,0 -1.3246,-0.80095 -2.6996,-1.58697 -1.375,-0.78602 -6.8012,-3.00749 -7.3512,-3.00749 -0.55,0 2.3663,1.36915 3.7413,2.15517 1.375,0.78602 5.7595,2.43929 6.3095,2.43929 z m -10.1793,-4.42312 0.7475,-0.12627 -5.951,-2.70557 c -0.8942,-0.40654 -3.0354,-1.73957 -3.4786,-1.66385 l -1.6629,0.28411 3.1415,1.37974 c 0.8994,0.395 6.6612,2.92345 7.2035,2.83184 z m 183.9018,27.16605 c -0.3329,-10e-4 -4.5466,-2.62647 -9.3637,-5.83402 l -8.7583,-5.83191 8.5378,-10.7716 8.5378,-10.77159 5.3053,-9.14439 c 2.9179,-5.02941 6.5142,-11.26583 7.9918,-13.85871 l 2.6865,-4.71434 8.7287,5.31847 8.7288,5.31847 -0.1004,1.41453 -0.1003,1.41453 -8.0875,10.74261 -8.0876,10.7426 -7.7068,12.98873 c -4.2388,7.1438 -7.9792,12.98778 -8.3121,12.98662 z m -3.288,-12.38497 c 0.4495,-0.27781 5.9191,-8.18471 12.1547,-17.57089 l 11.3375,-17.06578 -0.5486,-0.54867 -0.5487,-0.54867 -11.6061,17.6094 c -6.3834,9.68517 -11.6061,17.83898 -11.6061,18.11956 l 0,0.51016 z m -116.2454,-7.61292 c -0.2936,0 -0.7454,-1.0125 -1.004,-2.25 -0.2585,-1.2375 -1.6096,-7.875 -3.0023,-14.75 -1.3927,-6.875 -3.3272,-14.975 -4.2989,-18 l -1.7667,-5.5 -2.3019,-0.32634 -2.3018,-0.32634 -4.6177,1.57342 c -2.5398,0.86539 -4.7162,1.46224 -4.8366,1.32634 -0.1203,-0.13589 -0.3815,-4.01485 -0.5804,-8.6199 l -0.3616,-8.37282 13,-3.33197 c 7.15,-1.83258 16.8112,-4.45362 21.4693,-5.82452 4.6581,-1.37091 8.5345,-2.40375 8.6141,-2.29521 0.08,0.10854 0.4437,4.31585 0.8092,9.34957 l 0.6645,9.15224 -4.8264,0.6638 c -2.6545,0.36508 -5.3999,1.01823 -6.1008,1.45143 l -1.2744,0.78764 1.9985,8.39633 c 1.0992,4.61798 3.8159,13.54967 6.0371,19.84819 2.2212,6.29852 3.9418,11.49907 3.8237,11.55677 -0.1182,0.0577 -4.3535,1.31687 -9.4119,2.79814 -5.0584,1.48128 -9.4373,2.69323 -9.731,2.69323 z m 7.294,-10 0.7889,0 -5.521,-20.57135 -5.521,-20.57136 1.2744,-0.7876 c 0.7009,-0.43317 3.7479,-1.34115 6.7711,-2.01772 l 5.4968,-1.23013 -0.5304,-0.53046 -0.5305,-0.53047 -12.2971,3.2502 -12.2971,3.25021 -1,1.01652 -1,1.01652 1.6874,-0.5918 c 0.9281,-0.32548 3.561,-1.09629 5.851,-1.7129 2.2899,-0.61661 4.3724,-0.91219 4.6277,-0.65683 0.2554,0.25535 2.4202,7.59743 4.8107,16.31572 2.3905,8.7183 4.8535,17.76395 5.4733,20.10145 l 1.127,4.25 z m 66.5539,6.67203 c -1.6059,0.0946 -4.5473,-0.22338 -6.5364,-0.70666 -1.9892,-0.48328 -7.7464,-1.29292 -12.7939,-1.7992 -5.0475,-0.50628 -9.4402,-1.18355 -9.7617,-1.50504 l -0.5846,-0.58452 1.1404,-4.52872 c 0.6272,-2.49079 2.0342,-10.49553 3.1268,-17.7883 l 1.9864,-13.25959 0.6579,-11.31917 0.658,-11.31916 2.0936,0.49115 c 1.1515,0.27013 8.7093,1.06006 16.795,1.75539 l 14.7013,1.26424 0.6503,5.56378 c 0.3577,3.06007 0.7171,6.46377 0.7987,7.56377 l 0.1484,2 -1.1564,-0.21879 c -0.636,-0.12034 -4.7305,-0.51686 -9.0988,-0.88117 l -7.9424,-0.66237 -0.6512,3.25617 c -0.3582,1.79089 -0.6512,4.04187 -0.6512,5.00218 l 0,1.74601 9.0425,0.70738 9.0425,0.70739 -0.6873,2.1716 c -0.378,1.19438 -1.5261,4.13071 -2.5514,6.52519 l -1.8641,4.35358 -1.4236,-0.54629 c -0.783,-0.30046 -4.154,-0.8552 -7.4911,-1.23275 l -6.0675,-0.68646 0,4.16055 0,4.16055 1.25,0.40396 c 0.6875,0.22218 4.4763,0.91761 8.4195,1.5454 l 7.1695,1.14143 -2.7497,6.17322 -2.7497,6.17322 z m -3.4198,-6.86673 1.5,0.0593 -2,-0.88584 c -1.1,-0.48722 -4.6452,-1.40063 -7.8781,-2.02982 l -5.8781,-1.14397 0.6589,-6.43172 c 0.3624,-3.53744 0.9366,-7.82016 1.276,-9.51714 l 0.6171,-3.08542 7.1021,0.66479 c 3.9061,0.36563 7.8896,0.89754 8.8521,1.18202 l 1.75,0.51724 0,-0.97762 0,-0.97762 -8.5,-0.70805 -8.5,-0.70804 0,-3.23085 c 0,-1.77696 0.2894,-6.65465 0.6431,-10.8393 l 0.6432,-7.60845 13.3938,0.73264 2.2821,-1.00355 -9.4188,-0.39371 -6.9565,0.0798 -2.2401,18 c -1.2321,9.9 -2.2641,19.61992 -2.2935,21.59982 l -0.053,3.59981 6.75,1.52316 c 3.7125,0.83774 7.425,1.54987 8.25,1.58251 z m 6,-44.96319 2.5,0 -1.25,-0.50439 -1.25,-0.50439 -1.25,0.50439 -1.25,0.50439 z"
         inkscape:connector-curvature="0"
         sodipodi:nodetypes="cssccscscccsccccssscccccccccccccsscssccsccccssccsssscccccssccccsccsccccccsscsssccccscccccscccccssscssccssccccccccccccccccsscccccccccsccccssccccsccccccccccccccccccccsscssccscssccccsscscsccccccccscsssccccccsscsscccscccccsscccccccccssssssscsscsscscccsscccccccsccscccssccscsscccscscsscscsscsscssccccssccccccccccscccccsccsccccsscccccsccsccccccsscccssccccccsscsscsscccccsccccccsccsccccccccc" />
    </g>
    <g
       id="g4216"
       transform="translate(-2.0203233,-1.010128)">
      <g
         transform="translate(-640,-128.57143)"
         id="g4211">
        <path
           sodipodi:nodetypes="cccccccccsscsscsscccccsccccccsccscccssccscccccscccccsccsccccccsscccssccccccccssccccccccccsccccscsscccscscsscscsscsscsscscccsscccscccsscccccccscscsscssssssscccccccccccccscccsccccccccsssccccccssccscssccccsscscsccccccccsccccccccccccccsscsscccccccccccccccsscccccccccsccccsscccssccccccccscscssccsscccccccccsscsssccccscccccscccccssccsssscccccssccccsccscccssccscscccsccccssscccccccccccccsscssccscc"
           inkscape:connector-curvature="0"
           id="path3726-1"
           style="fill:#ffffff;display:inline"
           d="m 1055.1097,246.60158 2.5,0 -1.25,-0.50439 -1.25,-0.50439 -1.25,0.50439 -1.25,0.50439 z m -6,44.96319 1.5,0.0593 -2,-0.88583 c -1.1,-0.48722 -4.6452,-1.40063 -7.8781,-2.02982 l -5.8781,-1.14397 0.6589,-6.43172 c 0.3624,-3.53744 0.9366,-7.82016 1.276,-9.51714 l 0.6171,-3.08542 7.1021,0.66479 c 3.9061,0.36563 7.8896,0.89754 8.8521,1.18202 l 1.75,0.51724 0,-0.97762 0,-0.97762 -8.5,-0.70805 -8.5,-0.70804 0,-3.23085 c 0,-1.77696 0.2894,-6.65465 0.6431,-10.8393 l 0.6432,-7.60845 13.2517,0.76421 2.44,-1.01934 -9.4346,-0.40949 -6.9565,0.0798 -2.2401,18 c -1.2321,9.9 -2.2641,19.61992 -2.2935,21.59982 l -0.053,3.59981 6.75,1.52316 c 3.7125,0.83774 7.425,1.54987 8.25,1.58251 z m 3.4198,6.86674 c -1.6059,0.0946 -4.5473,-0.22339 -6.5364,-0.70666 -1.9892,-0.48328 -7.7464,-1.29292 -12.7939,-1.7992 -5.0475,-0.50628 -9.4402,-1.18356 -9.7617,-1.50504 l -0.5846,-0.58452 1.1404,-4.52873 c 0.6272,-2.49079 2.0342,-10.49552 3.1268,-17.7883 l 1.9864,-13.25959 0.6579,-11.31916 0.658,-11.31916 2.0936,0.49115 c 1.1515,0.27012 8.7093,1.06006 16.795,1.75538 l 14.7013,1.26424 0.6503,5.56378 c 0.3577,3.06007 0.7171,6.46377 0.7987,7.56377 l 0.1484,2 -1.1564,-0.21879 c -0.636,-0.12034 -4.7305,-0.51686 -9.0988,-0.88117 l -7.9424,-0.66237 -0.6512,3.25617 c -0.3582,1.79089 -0.6512,4.04187 -0.6512,5.00218 l 0,1.74601 9.0425,0.70738 9.0425,0.70739 -0.6873,2.1716 c -0.378,1.19438 -1.5261,4.13071 -2.5514,6.52519 l -1.8641,4.35358 -1.4236,-0.54629 c -0.783,-0.30046 -4.154,-0.8552 -7.4911,-1.23275 l -6.0675,-0.68646 0,4.16055 0,4.16055 1.25,0.40396 c 0.6875,0.22218 4.4763,0.91761 8.4195,1.5454 l 7.1695,1.14143 -2.7497,6.17322 -2.7497,6.17322 z m -66.55393,-6.67204 0.7889,0 -5.521,-20.57134 -5.521,-20.57137 1.2744,-0.7876 c 0.7009,-0.43317 3.7479,-1.34115 6.7711,-2.01772 l 5.4968,-1.23012 -0.5304,-0.53046 -0.5305,-0.53047 -12.2971,3.2502 -12.2971,3.25021 -1,1.01652 -1,1.01652 1.6874,-0.5918 c 0.9281,-0.32548 3.561,-1.09629 5.851,-1.7129 2.2899,-0.61661 4.3724,-0.91219 4.6277,-0.65683 0.2554,0.25535 2.4202,7.59743 4.8107,16.31572 2.3905,8.7183 4.8535,17.76395 5.4733,20.10145 l 1.127,4.25 0.7888,0 z m -7.294,10 c -0.2936,0 -0.7454,-1.01249 -1.004,-2.25 -0.2585,-1.2375 -1.6096,-7.875 -3.0023,-14.75 -1.3927,-6.875 -3.3272,-14.975 -4.2989,-18 l -1.7667,-5.5 -2.3019,-0.32634 -2.3018,-0.32634 -4.6177,1.57342 c -2.5398,0.86539 -4.7162,1.46224 -4.8366,1.32634 -0.1203,-0.13589 -0.3815,-4.01485 -0.5804,-8.61989 l -0.3616,-8.37282 13,-3.33197 c 7.15,-1.83259 16.8112,-4.45362 21.4693,-5.82453 4.6581,-1.3709 8.5345,-2.40375 8.6141,-2.29521 0.08,0.10855 0.4437,4.31586 0.8092,9.34957 l 0.6645,9.15224 -4.8264,0.6638 c -2.6545,0.36508 -5.3999,1.01823 -6.1008,1.45143 l -1.2744,0.78764 1.9985,8.39633 c 1.0992,4.61798 3.8159,13.54967 6.0371,19.84819 2.2212,6.29852 3.9418,11.49907 3.8237,11.55677 -0.1182,0.0577 -4.3535,1.31687 -9.4119,2.79814 -5.0584,1.48128 -9.4373,2.69323 -9.731,2.69323 z m 116.24543,7.61292 c 0.4495,-0.27781 5.9191,-8.18471 12.1547,-17.57089 l 11.3375,-17.06578 -0.5486,-0.54867 -0.5487,-0.54867 -11.6061,17.6094 c -6.3834,9.68517 -11.6061,17.83898 -11.6061,18.11956 l 0,0.51016 z m 3.288,12.38497 c -0.3329,-9.9e-4 -4.5466,-2.62647 -9.3637,-5.83402 l -8.7583,-5.83191 8.5378,-10.7716 8.5378,-10.77159 5.3053,-9.14438 c 2.9179,-5.02941 6.5142,-11.26583 7.9918,-13.85871 l 2.6865,-4.71434 8.7287,5.31847 8.7288,5.31847 -0.1004,1.41453 -0.1003,1.41453 -8.0875,10.74261 -8.0876,10.7426 -7.7068,12.98873 c -4.2388,7.1438 -7.9792,12.98778 -8.3121,12.98661 z m -182.48128,-26.62941 -0.0575,-0.2841 -6.56655,-3.08438 c -0.88909,-0.41762 -2.91726,-1.62438 -3.32075,-1.56915 l -1.26832,0.17362 2.58907,1.39553 c 0.86468,0.46607 8.73316,3.90755 8.62405,3.36848 z m 10.60541,4.69144 c 0.55,0 -2.61882,-1.40071 -3.99382,-2.18674 -1.375,-0.78602 -6.18564,-2.8023 -6.73564,-2.8023 -0.55,0 0.125,0.6431 1.5,1.42912 1.375,0.78603 8.67946,3.55992 9.22946,3.55992 z m -8.80696,11.94008 c 0.6971,0 2.0563,-0.87164 3.0204,-1.93698 l 1.753,-1.93698 -0.5765,-0.93282 c -0.3171,-0.51303 -1.9506,-1.50196 -3.63,-2.19761 l -3.0536,-1.26481 -0.5676,0.56761 -0.5676,0.5676 1.1773,3.567 1.1772,3.567 1.2674,0 z m -4.0876,14 c 0.4439,0 5.7751,-4.51447 11.847,-10.03217 l 11.0399,-10.0322 2.1391,0.55924 2.1391,0.55921 -6.5,-3.47852 c -3.575,-1.91318 -7.28146,-3.5741 -7.83146,-3.57518 -0.55,-9.9e-4 1.55686,1.25014 4.27696,2.66472 l 4.9455,2.57197 -4.4455,4.13695 c -2.4451,2.27532 -7.5893,6.94698 -11.4317,10.38146 -3.8423,3.43449 -6.6228,6.24453 -6.1789,6.24453 z m 1.2807,10.71767 c 0.2382,-0.23818 -0.2381,-2.85959 -1.0584,-5.82535 -0.8203,-2.96578 -3.7562,-12.76531 -6.5243,-21.77673 -2.7681,-9.01143 -5.0329,-16.74093 -5.0329,-17.17667 0,-0.43575 0.7875,-0.99806 1.75,-1.24958 l 1.90784,-0.26793 -1.93924,-0.3054 -1.7814,-0.116 -0.5027,1.31008 -0.5028,1.31008 6.0786,20.43992 c 3.3432,11.24196 6.3246,21.26133 6.6254,22.26528 0.3008,1.00395 0.7418,1.63049 0.9799,1.39231 z m -3.4947,15.28233 -0.6774,0 -5.653,-18.25 c -3.1092,-10.0375 -7.3542,-24.05009 -9.4334,-31.13909 l -3.7803,-12.88909 4.9616,-4.34034 4.9616,-4.34035 1.6243,-0.0206 c 0.8934,-0.0113 5.3934,1.51022 10,3.38118 4.6066,1.87096 17.6007,7.53726 28.8757,12.59177 11.275,5.05451 20.6067,9.293 20.7372,9.41887 0.1306,0.12586 -3.3994,3.52862 -7.8443,7.56167 l -8.0816,7.33283 -4.4324,-2.15345 c -2.4378,-1.18439 -4.9829,-2.14252 -5.6557,-2.12918 l -1.2232,0.0243 -6,5.37802 -6,5.37803 1.8327,5.21495 1.8328,5.21494 -0.8328,0.74981 c -0.458,0.4124 -3.9156,3.50964 -7.6836,6.88276 -3.7679,3.37314 -7.1556,6.13297 -7.5282,6.13297 z m 224.49423,-7.115 4.1151,0.115 2.5667,-2.01891 2.5666,-2.01892 3.172,-8.40423 3.172,-8.40423 2.4067,-2.26101 2.4067,-2.26102 4.2396,-0.69067 4.2395,-0.69067 -4.5629,-0.12516 -4.563,-0.12517 -2.6663,2.78302 -2.6663,2.78301 -1.9109,5.55416 c -1.051,3.05478 -2.64,6.96408 -3.5311,8.68733 l -1.6202,3.13319 -2.2397,1.2148 c -1.2318,0.66813 -3.8146,1.52973 -5.7396,1.91464 l -3.5,0.69985 4.1151,0.115 z m 0.6956,8.115 -4.887,0 -4.4618,-2.25 -4.4619,-2.25 -0.8522,-7.31454 -0.8521,-7.31455 0.5092,-0.50919 0.5092,-0.50919 3.0433,1.57374 3.0432,1.57373 3.2997,-0.0222 3.2997,-0.0222 2.142,-1.72778 c 1.1781,-0.95027 2.8656,-3.16791 3.75,-4.92809 l 1.608,-3.20041 0,-2.2118 0,-2.2118 2.4911,-4.25083 2.4912,-4.25083 3.3769,-2.08703 3.3768,-2.08704 4.0945,0 4.0944,0 5.4464,2.03776 c 2.9956,1.12077 5.8932,2.58328 6.4392,3.25 l 0.9927,1.21224 0.7311,6.90133 0.7311,6.90134 -2.3827,-0.70345 c -1.3105,-0.3869 -4.0617,-0.9631 -6.1139,-1.28048 l -3.7311,-0.57702 -2.9701,1.23028 -2.9701,1.23027 -1.4064,2.14887 c -0.7735,1.18187 -2.1374,4.66546 -3.0309,7.74129 l -1.6245,5.5924 -1.9907,2.53074 -1.9906,2.53073 -3.4284,1.62685 -3.4283,1.62685 z m 61.652,59 0.7042,0 -1.8306,-13.66386 c -1.0069,-7.51513 -2.046,-13.87916 -2.3092,-14.14233 -0.2632,-0.26316 -0.1994,2.51057 0.1418,6.16386 l 0.6203,6.64233 -1.3588,0 c -0.7473,0 -10.1449,1.15752 -20.8835,2.57227 -10.7387,1.41474 -19.7173,2.76475 -19.9525,3 -0.2353,0.23526 -0.2403,0.58617 -0.011,0.77984 0.2291,0.19364 8.2916,-0.66902 17.9166,-1.91702 9.625,-1.24801 19.1648,-2.48559 21.1995,-2.75016 l 3.6995,-0.48106 0.6797,6.89807 0.6797,6.89807 0.7043,0 z m 0.6621,8.80692 -9.6205,-0.30692 0,-6.37912 0,-6.37912 -8.25,0.68764 c -4.5375,0.3782 -13.8227,1.8011 -20.6338,3.16199 -6.811,1.36091 -12.6059,2.25221 -12.8774,1.98066 -0.2716,-0.27152 -1.1098,-4.63794 -1.8627,-9.70312 -0.7529,-5.06518 -1.1562,-9.42209 -0.8963,-9.68201 0.2599,-0.25992 7.1208,-0.88055 15.2464,-1.37918 l 14.7738,-0.9066 6,-1.20057 6,-1.20057 -0.05,-2.5 c -0.027,-1.375 -0.3419,-4.525 -0.699,-7 l -0.6493,-4.5 8.4173,0.32257 8.4173,0.32258 0.4641,3.17742 c 0.2552,1.74759 1.4289,10.82743 2.6082,20.17743 1.1792,9.35 2.3899,18.03811 2.6903,19.30692 l 0.5462,2.30692 -9.6205,-0.30692 z m -316.17483,-4.86793 0.95,0.061 -0.95,-0.94348 c -0.5225,-0.51891 -7.7,-4.60351 -15.95,-9.07689 -8.25,-4.47337 -15.3711,-8.49242 -15.8247,-8.93121 l -0.8247,-0.79781 3.3247,-0.58888 c 1.8286,-0.32389 10.2931,-1.53619 18.81,-2.694 8.517,-1.15781 15.6486,-2.26829 15.848,-2.46772 0.1994,-0.19943 -6.9468,-5.23102 -15.8804,-11.18131 l -16.243,-10.8187 19.7596,-1.19787 19.7595,-1.19788 0.6355,-0.65752 0.6355,-0.65752 -15,0.7341 c -8.25,0.40375 -18.15,1.02249 -22,1.37497 l -7,0.64088 16.351,10.95545 16.351,10.95546 -2.851,0.69869 c -1.5681,0.38427 -10.4121,1.69944 -19.6534,2.9226 l -16.8024,2.22391 0.8028,0.80277 c 0.4415,0.44152 8.4526,5.07263 17.8024,10.29135 9.3497,5.21873 17.4271,9.51605 17.9496,9.5496 z m 5.6881,13.05728 c -0.351,-0.002 -2.1104,-0.90141 -3.9099,-1.99856 -1.7995,-1.09715 -13.4995,-7.4384 -26,-14.09166 -12.5005,-6.65325 -23.0523,-12.40046 -23.4484,-12.77157 l -0.7201,-0.67473 1.4069,-5.33332 c 0.7738,-2.93332 1.6053,-5.53166 1.8477,-5.77409 0.2424,-0.24242 6.0065,-0.89151 12.8091,-1.44241 l 12.3683,-1.00163 0.7288,-0.72879 0.7288,-0.72879 -10.5249,-6.40206 c -5.7886,-3.52114 -10.767,-6.79391 -11.063,-7.27283 l -0.5381,-0.87076 1.2065,-5.02926 1.2065,-5.02925 1.1318,-0.37266 c 0.6225,-0.20496 9.9069,-0.85713 20.6319,-1.44926 10.725,-0.59213 24.1125,-1.3583 29.75,-1.70259 l 10.25,-0.62598 -0.023,2.40196 c -0.013,1.32109 -0.8367,5.55197 -1.8315,9.40197 l -1.8086,7 -10.1685,-0.25034 -10.1686,-0.25035 0,0.93223 0,0.93222 8.5016,6.13743 8.5017,6.13744 -0.6481,2.68068 c -0.3565,1.47438 -0.9975,3.63114 -1.4245,4.79279 l -0.7764,2.1121 -6.3272,0.69111 c -3.4799,0.3801 -8.0146,0.94967 -10.0771,1.2657 l -3.75,0.57461 0,0.73716 c 0,0.40544 3.3676,2.2055 7.4837,4.00013 4.1161,1.79463 7.9925,3.87599 8.6143,4.62525 l 1.1306,1.36228 -2.2262,9.00978 c -1.2244,4.95538 -2.5134,9.0081 -2.8643,9.00604 z" />
      </g>
      <path
         inkscape:connector-curvature="0"
         d="m 367.0793,399.24433 c -0.2723,0 -1.9563,-1.81837 -3.7423,-4.04082 l -3.2473,-4.04082 -4.59443,2.56783 -4.5944,2.56784 -0.5757,-0.843 c -0.3166,-0.46365 -1.6249,-2.5008 -2.9072,-4.52701 l -2.3316,-3.68402 -1.1684,0.0119 c -0.6427,0.007 -3.5855,0.65517 -6.5395,1.44142 l -5.3711,1.42956 0.6736,-5.07763 0.6735,-5.07763 -3.8025,0.60961 c -2.0914,0.33529 -5.265,0.90283 -7.0525,1.26121 l -3.25,0.65156 0,-5.58946 0,-5.58947 -4.5829,1.96447 c -2.5206,1.08045 -4.7491,1.96446 -4.9523,1.96446 -0.2032,0 -0.5034,-2.8125 -0.6671,-6.25 l -0.2977,-6.25 -4,-0.26654 c -2.2,-0.1466 -5.0188,-0.49426 -6.264,-0.77257 l -2.264,-0.50603 1.514,-2.92777 c 0.8327,-1.61027 1.514,-3.38462 1.514,-3.94299 l 0,-1.01521 -5.0897,-0.67517 -5.0897,-0.67517 0.4838,-2.10928 c 0.2661,-1.1601 0.8127,-3.57177 1.2147,-5.35927 l 0.7309,-3.25 -3.375,-0.0153 -3.375,-0.0153 -1.3395,-0.84903 -1.3396,-0.84904 2.1199,-4.15537 2.12,-4.15538 -1.2804,-0.40432 c -0.7042,-0.22237 -2.9443,-0.91561 -4.978,-1.54053 l -3.6976,-1.13621 2.6976,-3.82929 c 1.4837,-2.10611 2.8602,-3.67888 3.0589,-3.49505 0.1988,0.18384 1.8292,3.71071 3.6232,7.83749 l 3.2618,7.50325 5.5357,8.30206 5.5358,8.30205 8.3411,8.07818 8.3411,8.07818 6.3812,4.29816 c 3.5096,2.36398 10.0346,6.00778 14.5,8.09733 l 8.1188,3.79918 8,2.0944 8.00003,2.0944 9.4024,1.052 9.4025,1.052 10.1933,-1.09748 c 5.6063,-0.60361 11.7222,-1.53597 13.591,-2.07191 1.8687,-0.53597 3.7457,-0.97447 4.1711,-0.97447 l 0.7734,0 -2.5524,5.03701 -2.5525,5.03702 -1.2144,-0.68455 c -0.6679,-0.3765 -2.7175,-1.79701 -4.5546,-3.1567 l -3.3402,-2.47215 -4.387,4.30555 -4.3871,4.30555 -4.5537,-3.27024 -4.5537,-3.27024 -4.8066,3.08438 c -2.6436,1.6964 -5.0294,3.08437 -5.3017,3.08437 z m 54.2574,-5.55389 c -0.3389,0.20944 -2.958,-1.04276 -5.8203,-2.78266 -2.8623,-1.7399 -5.2183,-3.42972 -5.2356,-3.75516 -0.017,-0.32544 1.7571,-1.12753 3.943,-1.78243 2.1858,-0.65489 8.3733,-3.39619 13.75,-6.09177 l 9.7757,-4.90107 8.4593,-6.85717 8.4594,-6.85716 6.8769,-8.45935 6.8769,-8.45934 5.3778,-11 5.3779,-11 2.0145,-7.5 2.0146,-7.5 0.9173,-8.31268 c 0.5046,-4.57197 1.1049,-8.50014 1.334,-8.72927 0.2291,-0.22912 1.9634,0.92008 3.854,2.55378 l 3.4374,2.97037 -3.7608,3.11457 -3.7609,3.11457 3.0109,3.42913 c 1.6559,1.88602 3.0108,3.86346 3.0108,4.39433 0,0.53086 -0.4207,0.9652 -0.9349,0.9652 -0.5142,0 -2.1081,0.44605 -3.542,0.99122 l -2.6072,0.99123 2.5421,3.74091 c 1.3981,2.0575 2.542,4.03637 2.542,4.39748 0,0.36112 -1.6841,0.97251 -3.7424,1.35865 -2.0583,0.38615 -4.1009,0.92364 -4.539,1.19443 l -0.7967,0.49236 2.4687,4.41686 2.4686,4.41686 -3.1796,0.0153 c -1.7488,0.008 -3.7268,0.36301 -4.3956,0.78797 l -1.2159,0.77266 1.4677,4.87691 c 0.8073,2.6823 1.3544,4.96929 1.216,5.0822 -0.1385,0.11291 -2.5018,0.60391 -5.2518,1.09111 l -5,0.88581 -0.2963,6.18878 -0.2963,6.18878 -4.2037,0.30523 -4.2037,0.30525 -0.3023,5.25 -0.3022,5.25 -4.3865,0 -4.3865,0 -0.65,4.33456 c -0.3575,2.384 -0.9843,4.87549 -1.3929,5.53662 l -0.7429,1.20207 -4.7513,-2.03663 c -2.6132,-1.12014 -5.1639,-2.03662 -5.6683,-2.03662 l -0.9171,0 0,6.11663 0,6.11663 -1.75,-0.50792 c -0.9625,-0.27935 -3.4034,-1.22363 -5.4242,-2.0984 l -3.6743,-1.59048 -1.7241,4.51442 c -0.9482,2.48294 -2.0013,4.68579 -2.3402,4.89523 z m -37.5872,-6.86452 -15,0.34717 -6.5,-1.36209 c -3.57503,-0.74914 -9.42503,-2.34167 -13.00003,-3.53894 -3.575,-1.19727 -10.2094,-4.13966 -14.7432,-6.53865 l -8.2433,-4.36179 -5.766,-4.43684 c -3.1713,-2.44026 -8.6869,-7.53594 -12.2568,-11.32372 -3.5699,-3.78779 -8.2197,-9.49617 -10.333,-12.6853 -2.1132,-3.18912 -5.569,-9.48459 -7.6795,-13.98992 l -3.8373,-8.19151 -2.3205,-8.5 -2.3204,-8.5 0,-16.5 0,-16.5 2.3204,-8.5 2.3205,-8.5 3.8373,-8.19151 c 2.1105,-4.50533 5.5663,-10.8008 7.6795,-13.98992 2.1133,-3.18913 6.7673,-8.90686 10.3423,-12.70609 l 6.5,-6.90767 6.5,-4.94443 6.5,-4.94443 10,-4.86423 10,-4.86423 8.5,-2.29375 8.50003,-2.29374 16.5,0 16.5,0 8.5,2.32045 8.5,2.32045 8.2275,3.85412 8.2274,3.85412 7.4832,5.17313 7.4832,5.17314 7.2911,7.65229 7.2911,7.6523 3.8405,5.80849 c 2.1123,3.19467 5.5673,9.49467 7.6778,14 l 3.8373,8.19151 2.3204,8.5 2.3205,8.5 0,16.5 0,16.5 -2.3205,8.5 -2.3204,8.5 -3.8373,8.19151 c -2.1105,4.50533 -5.5655,10.80533 -7.6778,14 l -3.8405,5.80849 -7.2911,7.6523 -7.2911,7.65229 -7.4832,5.17314 -7.4832,5.17313 -8.2274,3.85009 -8.2275,3.85008 -8,2.1917 -8,2.1917 -15,0.34716 z m 52.3182,-23.39691 0.3182,-3.31533 -1.1906,-1.43467 -1.1907,-1.43468 -2.1276,-0.116 -2.1275,-0.116 1.8392,-0.47451 1.8392,-0.4745 2.1608,1.95247 c 1.1884,1.07386 3.1613,2.19433 4.3842,2.48994 l 2.2235,0.53748 4.4953,-3.95693 4.4953,-3.95694 6.0868,-8.07776 6.0868,-8.07776 3.3262,-6.61474 c 1.8295,-3.63811 4.5115,-10.37262 5.96,-14.96556 l 2.6338,-8.35081 1.1322,-9.95686 1.1322,-9.95686 -1.2217,-10.19233 -1.2217,-10.19233 -3.049,-9.24 -3.0491,-9.24 -4.3165,-7.57454 -4.3165,-7.57455 -5.5844,-6.91161 -5.5843,-6.91162 -6.9116,-5.58433 -6.9116,-5.58433 -7.5745,-4.31654 -7.5746,-4.31654 -9.24,-3.05405 -9.24,-3.05404 -6.4136,-0.71661 -6.4137,-0.7166 0.7439,1.89768 c 0.4091,1.04372 2.2189,7.07268 4.0218,13.39768 1.8029,6.325 4.3424,16.5625 5.6432,22.75 l 2.3652,11.25 7.5266,0.10942 7.5266,0.10941 -9.5,2.32451 c -5.225,1.27848 -14.3068,3.02924 -20.1819,3.89058 l -10.6819,1.56608 -11.9664,0 -11.96643,0 -8.7687,3.19433 c -4.8228,1.75688 -8.356,3.31781 -7.8517,3.46873 0.5044,0.15091 7.6074,0.7014 15.7846,1.22329 l 14.86773,0.94891 1.1323,1.14969 1.1324,1.14969 -2,1.52238 -2,1.52238 -6.91213,-0.61174 -6.912,-0.61175 -2.2467,2.11066 -2.2467,2.11066 -15.8413,-1.10632 -15.8412,-1.10632 -5.8395,-1.37182 -5.8396,-1.37183 -1.1104,-1.11047 -1.1105,-1.11047 1.1297,-1.12969 1.1297,-1.12969 8.3203,-2.41573 c 4.5762,-1.32865 14.1703,-3.53239 21.3203,-4.89721 7.15,-1.36481 14.35,-2.82329 16,-3.24108 l 3,-0.7596 0.2389,-11.9635 0.2388,-11.9635 1.5819,-12.84592 c 0.8701,-7.06526 1.3729,-13.05497 1.1174,-13.31047 -0.2555,-0.2555 -3.9027,0.87046 -8.1048,2.50214 l -7.6401,2.96668 -6.7161,4.01185 c -3.6938,2.20651 -9.9317,6.73111 -13.8619,10.05465 l -7.146,6.04281 -6.1596,8.17438 -6.1596,8.17439 -3.3263,6.61474 c -1.8294,3.63811 -4.4808,10.27572 -5.8919,14.75024 l -2.5658,8.13549 -1.178,8.85224 -1.178,8.85225 0.6594,8.73463 0.6594,8.73464 1.9061,7.45306 c 1.0484,4.09919 3.2881,10.74912 4.9771,14.77763 1.689,4.02851 3.5052,7.99957 4.0361,8.82457 l 0.9651,1.5 13.652,-14.29804 13.652,-14.29804 5.122,-2.59243 5.1219,-2.59243 5.1078,-4.35953 5.1078,-4.35953 2.3922,0.0703 c 1.3157,0.0386 3.2922,0.43212 4.3922,0.87436 l 2,0.80409 1.75,-0.90956 1.75,-0.90955 0,-1.36432 c 0,-0.75038 -1.5164,-3.61765 -3.3697,-6.37171 -1.8533,-2.75406 -3.8469,-6.37618 -4.4301,-8.04916 l -1.0604,-3.04178 2.4995,0.95031 2.4995,0.9503 2.1806,-0.35584 c 1.1993,-0.1957 1.6181,-0.16344 0.9306,0.0717 -0.6875,0.23514 -1.235,0.73203 -1.2167,1.1042 0.018,0.37218 0.8779,1.68918 1.9103,2.92668 l 1.87703,2.25 3.261,0 3.2609,0 1.8993,-1.71885 1.8993,-1.71884 3.6465,0.31416 3.6465,0.31416 2.0055,1.40469 2.0054,1.40468 3.2049,0 3.205,0 2.1486,-2.73151 2.1486,-2.73152 -3.3261,-0.84677 c -1.8293,-0.46574 -3.776,-1.32779 -4.326,-1.91568 l -1,-1.0689 2,0.75563 c 1.1,0.4156 3.4625,1.17798 5.25,1.69419 1.7875,0.5162 3.25,1.15204 3.25,1.41298 0,0.26094 -1.1476,2.20866 -2.5503,4.32827 l -2.5504,3.85382 -7.9056,0.68962 -7.9057,0.68962 -7.164,-0.70592 -7.16403,-0.70592 -3.0618,-4.34381 c -1.684,-2.3891 -3.2364,-4.16924 -3.4498,-3.95587 -0.2133,0.21337 0.5213,2.11905 1.6325,4.23484 l 2.0204,3.84691 4.04513,3.30287 4.045,3.30286 2.5312,5.35047 2.5312,5.35046 1.3963,0.53583 1.3964,0.53583 -0.2146,-5.93916 -0.2147,-5.93916 2.2529,0 2.2529,0 -0.2242,6.5 -0.2242,6.5 1.1408,0 1.1407,0 1.4848,2.23627 1.4848,2.23626 1.6372,-1.35871 1.6371,-1.35871 0,-5.30083 0,-5.30083 2.4794,-2.94662 c 1.3637,-1.62065 4.055,-5.86385 5.9808,-9.42934 l 3.5012,-6.48272 -0.5238,-0.52385 -0.5238,-0.52384 1.5431,-0.59216 c 0.8487,-0.32568 1.5431,-0.36682 1.5431,-0.0914 0,0.27541 -0.6499,2.05631 -1.4443,3.95757 -0.7944,1.90125 -2.7495,5.3743 -4.3447,7.71788 l -2.9002,4.26105 -1.6412,4.88644 -1.6412,4.88643 4.5081,3.9682 4.5082,3.9682 6.6511,8.90672 6.6511,8.90671 2.0766,-1.79541 c 1.1421,-0.98749 4.4001,-3.89926 7.2401,-6.47062 l 5.1636,-4.6752 2.4348,-0.61108 2.4347,-0.61107 1.6006,-3.35661 1.6006,-3.3566 -0.5615,-3.46048 -0.5616,-3.46048 2.1993,-2.19923 2.1992,-2.19924 2.2772,0.57154 2.2772,0.57154 3.7565,-9.06306 3.7566,-9.06307 2.2345,0.56083 2.2345,0.56082 1.014,-2.23264 1.014,-2.23264 -0.3318,4.63051 -0.3318,4.6305 -3.0216,7.60648 -3.0216,7.60648 1.145,2.51302 1.145,2.51301 -1.0225,2.25 -1.0226,2.25 1.0314,1.63032 1.0315,1.63031 -2.1694,3.67685 -2.1694,3.67684 0,1.94284 0,1.94284 -2,2 -2,2 0,3.3 0,3.3 -1.1091,1.10912 -1.1092,1.10912 -0.327,3.34088 c -0.1799,1.83748 -0.3558,3.86036 -0.3909,4.49527 l -0.064,1.15439 -5.5,2.27962 -5.4999,2.27963 0,0.8481 c 0,0.46646 0.6592,2.4258 1.4648,4.35409 l 1.4649,3.50598 -2.53,0.9619 c -1.3915,0.52904 -3.2528,0.9619 -4.1361,0.9619 l -1.6062,0 -1.8287,-1.65499 -1.8288,-1.65499 0,-2.34501 0,-2.34501 -1,0 -1,0 0,1.03212 c 0,0.56766 0.6521,2.59266 1.449,4.5 l 1.449,3.46788 2.301,0.15753 c 1.2656,0.0866 2.751,0.1513 3.301,0.14367 0.55,-0.008 2.35,-0.30869 4,-0.66901 l 3,-0.65513 2.5,4.26147 2.5,4.26147 0.3182,-3.31532 z m -62.2682,-86.28436 -2.05,-0.0997 2.5,-0.69053 2.5,-0.69052 0.5774,-6.4598 c 0.3176,-3.55288 0.6551,-5.73298 0.75,-4.84465 0.095,0.88833 1.0726,2.75931 2.1726,4.15773 1.1,1.39842 2,2.87885 2,3.28985 0,0.41099 -0.9,-0.0672 -2,-1.06272 l -2,-1.80998 0,2.95499 0,2.95499 -1.2,1.2 -1.2,1.2 -2.05,-0.0997 z m -3.1333,-0.90532 c -0.046,0.003 -0.3834,-0.295 -0.75,-0.66167 -0.3667,-0.36666 -0.6667,-2.01141 -0.6667,-3.65498 l 0,-2.98833 -2.189,1.90499 -2.1891,1.90499 2.3823,-3.42571 2.3822,-3.4257 -0.094,-3.3243 -0.094,-3.32429 0.9764,0 0.9764,0 -0.3254,8.495 c -0.1789,4.67225 -0.3628,8.49725 -0.4086,8.5 z m 79.5833,-1.495 -0.8595,2 -0.055,-1.5 c -0.03,-0.825 0.3813,-2.175 0.9144,-3 l 0.9694,-1.5 -0.055,1 c -0.03,0.55 -0.4417,1.9 -0.9144,3 z m -89.059,-0.5 c -0.5175,0 -0.941,-0.17686 -0.941,-0.39301 0,-0.21616 0.6984,-0.661 1.552,-0.98855 l 1.5519,-0.59553 -0.611,0.98854 c -0.336,0.5437 -1.0344,0.98855 -1.5519,0.98855 z m 92.6674,-2 c -0.3346,0 -0.6084,-0.70156 -0.6084,-1.55902 l 0,-1.55901 -1.0998,0.67969 -1.0998,0.67969 1.1052,-2.06498 c 0.6078,-1.13574 1.5527,-2.3416 2.0998,-2.67969 l 0.9946,-0.61471 0,1.61803 0,1.61803 -1.0401,-0.6428 -1.0401,-0.64281 0.6485,2.58379 0.6485,2.58379 -0.6084,0 z m -52.791,-6.00638 -1.6826,0.006 -0.6458,-2.0346 -0.6457,-2.0346 -7.2281,0.655 -7.2281,0.65499 -3.2553,-2.97324 -3.2553,-2.97323 7.8118,-1.25824 7.8117,-1.25825 15.1268,-4.30026 15.1268,-4.30026 9.9925,-1.58866 c 5.4959,-0.87338 12.0763,-1.58827 14.6232,-1.58827 l 4.6307,0 0,0.82569 c 0,0.45412 -1.0125,1.77243 -2.25,2.92956 -1.2375,1.15714 -4.9229,3.7102 -8.1898,5.67347 -3.2668,1.96326 -8.4418,4.51069 -11.5,5.66094 -3.0581,1.15025 -10.5102,3.39777 -16.5602,4.99448 -6.05,1.59671 -11.7572,2.90598 -12.6826,2.90948 z m 2.1871,95.00638 0.9341,0 3.3651,-5.25 c 1.8509,-2.8875 4.0931,-5.84968 4.9828,-6.58262 l 1.6175,-1.33262 2.1729,0.68963 2.1728,0.68963 0.6252,-0.85701 c 0.3438,-0.47135 3.9626,-1.98201 8.0418,-3.35701 l 7.4167,-2.5 1.08,-1.75293 1.08,-1.75292 -2.2495,-4.24708 c -1.2372,-2.33589 -2.2482,-4.69707 -2.2467,-5.24707 0,-0.55 1.6237,-2.29328 3.6047,-3.87396 l 3.6019,-2.87397 3.8981,-6.03107 c 2.1439,-3.31709 3.8981,-6.63631 3.8981,-7.37604 l 0,-1.34496 -1.5856,0 -1.5856,0 -5.1644,5.46102 -5.1644,5.46101 -6.75,2.49417 -6.75,2.49417 0,-0.95518 0,-0.95519 1.1061,0 1.1061,0 2.0737,-2.63626 2.0736,-2.63627 0.2521,-2.36373 0.252,-2.36374 -0.6818,0.0354 c -0.375,0.0195 -1.6351,0.58198 -2.8002,1.25 -1.1652,0.66801 -4.5658,3.46456 -7.5571,6.21456 l -5.4386,5 -5.1929,7.13969 -5.193,7.13969 0,9.17605 0,9.17605 1.0352,1.93426 c 0.5693,1.06384 1.4555,1.93426 1.9693,1.93426 z m 24.4365,-41 1.559,0 0,-1 c 0,-0.55 -0.4234,-1 -0.941,-1 -0.5175,0 -1.2191,0.45 -1.559,1 l -0.618,1 1.559,0 z m 6.1845,-3 1.4039,0 1.9815,-3.25 c 1.0899,-1.7875 1.9686,-3.7 1.9528,-4.25 l -0.029,-1 -3.5028,-1.64091 -3.5028,-1.64091 -2.084,4.08504 -2.084,4.08505 2.2301,1.80587 c 1.2266,0.99322 2.8619,1.80586 3.6341,1.80586 z m 5.8981,-10 3.2315,0 1.1369,-1.36988 1.1369,-1.36988 -4.0826,-0.65284 -4.0827,-0.65284 -2.4773,-2.47728 c -1.3625,-1.3625 -2.6818,-2.47728 -2.9318,-2.47728 -0.25,0 -0.4545,0.92149 -0.4545,2.04775 l 0,2.04775 2.646,2.45225 2.646,2.45225 3.2316,0 z m 2.6989,-5 3.7775,0 0,-1.56739 0,-1.56739 -2,0.63478 -2,0.63478 -2,-0.63478 -2,-0.63478 0,-1.43261 c 0,-0.78793 -0.1882,-1.43261 -0.4182,-1.43261 -0.2301,0 -1.1301,-0.27314 -2,-0.60699 l -1.5818,-0.60699 0,2.05029 0,2.05028 2.2225,1.55671 2.2225,1.5567 3.7775,0 z m 0.899,-3.74625 c 0.401,-0.41456 2.1364,-4.31256 3.8564,-8.66222 l 3.1273,-7.90847 -1.3026,-0.82622 c -0.7165,-0.45442 -1.7608,-0.83311 -2.3208,-0.84153 l -1.0182,-0.0153 -3.2571,8.24493 -3.2571,8.24493 1.7215,1.25881 1.7216,1.25882 0.729,-0.75374 z m -69.63,-14.25375 3.5085,0 0,-0.8 c 0,-0.44 -0.54,-1.34 -1.2,-2 -0.66,-0.66 -1.6767,-1.2 -2.2594,-1.2 -0.5827,0 -1.6216,0.9 -2.3085,2 l -1.249,2 3.5084,0 z m -93.92343,34.85017 c -1.1375,-0.0824 -3.3598,-0.34253 -4.9386,-0.57805 l -2.8705,-0.42822 3.2346,-3.33727 3.2346,-3.33727 -3.3641,-1.71186 c -1.8503,-0.94152 -3.5394,-1.86738 -3.7536,-2.05746 -0.2142,-0.19008 0.8212,-1.93285 2.3009,-3.87282 1.4797,-1.93997 3.1175,-3.52722 3.6395,-3.52722 l 0.9491,0 0.058,2.75 c 0.032,1.5125 0.8498,5.7875 1.8181,9.5 l 1.7605,6.75 -2.0681,-0.14983 z m -3.3181,-19.93302 c -0.4125,-0.0456 -2.273,-1.02229 -4.1343,-2.1705 l -3.3844,-2.08766 3.6246,-2.07949 c 1.9935,-1.14373 3.6289,-2.3558 3.6343,-2.6935 0.01,-0.3377 -1.7902,-1.8614 -3.9902,-3.386 -2.2,-1.5246 -3.9858,-3.0483 -3.9684,-3.386 0.017,-0.3377 2.0424,-1.83419 4.5,-3.32552 l 4.4684,-2.71153 0,10.96153 0,10.96152 -0.75,-0.0829 z m 212.25003,-13.48495 -3.5,2.66958 -0.01,-1.80089 c 0,-0.99049 -0.4471,-5.62589 -0.9833,-10.30089 l -0.9749,-8.5 -2.0914,-8 -2.0914,-8 -3.7992,-8.11883 c -2.0895,-4.46536 -5.7394,-10.99036 -8.1109,-14.5 -2.3714,-3.50964 -6.9996,-9.19367 -10.2848,-12.63117 l -5.9731,-6.25 1.9085,-0.011 c 1.0496,-0.006 3.596,-0.28993 5.6585,-0.63084 l 3.75,-0.61983 0,6.13084 0,6.13084 6,0 c 3.3,0 6,0.17004 6,0.37788 0,0.20783 -0.675,1.99337 -1.5,3.96788 -0.825,1.9745 -1.5,3.98323 -1.5,4.46383 l 0,0.87383 4.0984,1.22792 4.0984,1.22792 -0.6225,2.18037 c -0.3423,1.1992 -0.8732,3.31953 -1.1797,4.71183 l -0.5572,2.53145 5.6153,1.46855 5.6153,1.46854 -2.9934,3.5 c -1.6463,1.925 -3.0116,3.78209 -3.034,4.12686 -0.022,0.34477 2.2651,1.61874 5.0832,2.83105 l 5.1238,2.2042 -3.7267,3.81649 -3.7267,3.81648 4.6029,2.69748 c 2.5316,1.48362 4.6029,2.84302 4.6029,3.0209 0,0.17788 -1.6058,1.31586 -3.5685,2.52883 l -3.5684,2.20542 2.5684,2.68086 c 1.4127,1.47448 2.5685,2.94033 2.5685,3.25746 0,0.31713 -1.575,1.7779 -3.5,3.24617 z m -211.88703,-9.71189 c -0.1373,0.13736 -1.7227,-1.27 -3.523,-3.12746 l -3.2734,-3.37721 3.5917,-1.18536 3.5917,-1.18536 0,-0.95764 c 0,-0.52669 -0.7138,-2.047 -1.5862,-3.37847 l -1.5862,-2.42084 0.6452,-1.04397 0.6452,-1.04398 1.941,0 c 1.0675,0 1.941,-0.24293 1.941,-0.53984 0,-0.29691 -0.9,-2.30386 -1.9999,-4.4599 l -1.9998,-3.92006 4.0771,-1.22153 4.0771,-1.22154 -0.6455,-3.56856 c -0.3551,-1.96272 -0.8886,-4.58107 -1.1857,-5.81857 l -0.5401,-2.25 4.1084,0 4.1084,0 0,-1.34107 c 0,-0.73759 -0.6247,-3.41663 -1.3881,-5.95343 l -1.3882,-4.61237 5.6382,-0.29656 5.6381,-0.29659 0.2968,-6.21563 0.2968,-6.21564 2.7032,0.53784 c 1.4868,0.29581 3.6032,0.61785 4.7032,0.71564 l 2,0.17779 0.5,-4.95953 0.5,-4.95953 5.206,0.28133 5.2061,0.28134 0.6512,-4.9093 0.6513,-4.9093 4.3927,1.57961 c 2.416,0.86879 4.3834,1.80816 4.372,2.0875 -0.011,0.27933 -2.7786,2.26668 -6.1493,4.41633 l -6.1284,3.90846 -6.9776,6.58229 c -3.8377,3.62027 -8.8634,9.06146 -11.1683,12.09155 -2.3049,3.03009 -5.8248,8.23014 -7.822,11.55568 -1.9971,3.32554 -5.0619,9.61953 -6.8106,13.98666 l -3.1794,7.94023 -1.9405,9.49861 c -1.0672,5.22423 -2.0528,9.611 -2.1902,9.74836 z M 450.4992,209.20678 c -0.4125,-0.0206 -2.4375,-1.48315 -4.5001,-3.25 -2.0625,-1.76685 -3.75,-3.4937 -3.75,-3.83745 10e-5,-0.34375 1.2376,-0.87474 2.7501,-1.17997 1.5125,-0.30523 3.5375,-0.85963 4.5,-1.23199 l 1.75,-0.67702 0,5.10699 0,5.10699 -0.75,-0.0376 z m -9.5706,-7.38226 c -0.099,0.0581 -2.7628,-1.5112 -5.9202,-3.48729 -3.1574,-1.9761 -5.7449,-3.87698 -5.7499,-4.22419 -0.01,-0.3472 2.0704,-1.15496 4.6123,-1.79502 2.5419,-0.64006 4.7394,-1.03098 4.8832,-0.86872 0.1439,0.16227 0.7323,2.53931 1.3077,5.28232 0.5755,2.743 0.9655,5.03481 0.8669,5.0929 z m -104.91263,-8.73689 -5.7332,2.7987 0.6111,-4.071 c 0.3361,-2.23905 0.999,-4.49399 1.4732,-5.01099 l 0.8621,-0.93998 3.5439,1.68998 c 1.9492,0.9295 4.1208,1.68999 4.8259,1.68999 l 1.2819,0 2.2482,-4 c 1.2364,-2.2 2.6175,-4 3.0691,-4 0.4515,0 1.5837,1.16404 2.5159,2.58676 0.9322,1.42272 1.5465,2.71205 1.365,2.86518 -0.1814,0.15313 -2.5799,1.02412 -5.3299,1.93554 -2.75,0.91142 -7.5799,2.91654 -10.7332,4.45582 z m 91.74043,1.0562 c 0,-0.0553 -2.9082,-1.36409 -6.454,-2.90847 l -6.4467,-2.80797 4.4467,-1.15105 c 2.4458,-0.63308 5.1878,-1.36482 6.0934,-1.62609 l 1.6465,-0.47503 0.3607,4.53455 c 0.1983,2.49401 0.3574,4.48933 0.3534,4.43406 z m -14.6513,-6.47565 c -0.1957,0.16629 -1.4809,-0.0618 -2.8559,-0.50689 -1.375,-0.44507 -4.4902,-1.32174 -6.9227,-1.94815 l -4.4227,-1.13892 4.9227,-2.89789 c 2.7075,-1.59384 5.1991,-2.90557 5.5369,-2.91495 0.3377,-0.009 1.3979,2.03529 2.3559,4.54371 0.9579,2.50841 1.5816,4.6968 1.3858,4.86309 z m -57.10593,-1.80314 -1.75,0.51407 0,-0.63722 c 0,-0.35046 1.3738,-2.6339 3.0528,-5.07431 l 3.05283,-4.4371 1.6972,0.99345 c 0.9335,0.5464 2.9933,2.07561 4.5773,3.39824 l 2.8801,2.40479 -1.8801,0.52137 c -1.034,0.28675 -3.6801,0.80965 -5.8801,1.162 -2.20003,0.35235 -4.78753,0.87197 -5.75003,1.15471 z m 40.44903,-1.78882 c -0.9344,-0.0925 -4.3151,-0.42996 -7.5126,-0.75 l -5.8137,-0.58189 5.1671,-3.84659 5.167,-3.8466 0.8039,0.8466 c 0.4421,0.46562 1.4976,2.53409 2.3455,4.59659 l 1.5418,3.75 -1.699,-0.16811 z m -19.7342,-0.83189 -5.5352,0 0.9426,-1.76119 c 0.5184,-0.96865 1.9075,-2.63441 3.0868,-3.70169 l 2.1442,-1.94051 2.4125,2.9517 c 1.3268,1.62343 2.4286,3.28919 2.4484,3.70169 l 0.036,0.75 -5.5352,0 z"
         style="fill:#ffffff;display:inline"
         id="path3822-6" />
    </g>
  </g>
  <g
     inkscape:groupmode="layer"
     id="layer2"
     inkscape:label="felso"
     style="display:inline">
    <g
       id="g3982"
       transform="translate(-1085.5867,282.85714)">
      <path
         id="path3822"
         style="fill:#000000;display:inline"
         d="m 1452.7599,333.56374 -5.5352,0 0.9426,-1.76119 c 0.5184,-0.96865 1.9075,-2.63441 3.0868,-3.70169 l 2.1442,-1.94051 2.4125,2.9517 c 1.3268,1.62343 2.4286,3.28919 2.4484,3.70169 l 0.036,0.75 -5.5352,0 z m 19.7342,0.83189 c -0.9344,-0.0925 -4.3151,-0.42996 -7.5126,-0.75 l -5.8137,-0.58189 5.1671,-3.84659 5.167,-3.8466 0.8039,0.8466 c 0.4421,0.46562 1.4976,2.53409 2.3455,4.59659 l 1.5418,3.75 -1.699,-0.16811 z m -40.449,1.78882 -1.75,0.51407 0,-0.63722 c 0,-0.35046 1.3738,-2.6339 3.0528,-5.07431 l 3.0528,-4.4371 1.6972,0.99345 c 0.9335,0.5464 2.9933,2.07561 4.5773,3.39824 l 2.8801,2.40479 -1.8801,0.52137 c -1.034,0.28675 -3.6801,0.80965 -5.8801,1.162 -2.2,0.35235 -4.7875,0.87197 -5.75,1.15471 z m 57.1059,1.80314 c -0.1957,0.16629 -1.4809,-0.0618 -2.8559,-0.50689 -1.375,-0.44507 -4.4902,-1.32174 -6.9227,-1.94815 l -4.4227,-1.13892 4.9227,-2.89789 c 2.7075,-1.59384 5.1991,-2.90557 5.5369,-2.91495 0.3377,-0.009 1.3979,2.03529 2.3559,4.54371 0.9579,2.50841 1.5816,4.6968 1.3858,4.86309 z m 14.6513,6.47565 c 0,-0.0553 -2.9082,-1.36409 -6.454,-2.90847 l -6.4467,-2.80797 4.4467,-1.15105 c 2.4458,-0.63308 5.1878,-1.36482 6.0934,-1.62609 l 1.6465,-0.47503 0.3607,4.53455 c 0.1983,2.49401 0.3574,4.48933 0.3534,4.43406 z m -91.7404,-1.0562 -5.7332,2.7987 0.6111,-4.071 c 0.3361,-2.23905 0.999,-4.49399 1.4732,-5.01099 l 0.8621,-0.93998 3.5439,1.68998 c 1.9492,0.9295 4.1208,1.68999 4.8259,1.68999 l 1.2819,0 2.2482,-4 c 1.2364,-2.2 2.6175,-4 3.0691,-4 0.4515,0 1.5837,1.16404 2.5159,2.58676 0.9322,1.42272 1.5465,2.71205 1.365,2.86518 -0.1814,0.15313 -2.5799,1.02412 -5.3299,1.93554 -2.75,0.91142 -7.5799,2.91654 -10.7332,4.45582 z m 104.9126,8.73689 c -0.099,0.0581 -2.7628,-1.5112 -5.9202,-3.48729 -3.1574,-1.9761 -5.7449,-3.87698 -5.7499,-4.22419 -0.01,-0.3472 2.0704,-1.15496 4.6123,-1.79502 2.5419,-0.64006 4.7394,-1.03098 4.8832,-0.86872 0.1439,0.16227 0.7323,2.53931 1.3077,5.28232 0.5755,2.743 0.9655,5.03481 0.8669,5.0929 z m 9.5706,7.38226 c -0.4125,-0.0206 -2.4375,-1.48315 -4.5001,-3.25 -2.0625,-1.76685 -3.75,-3.4937 -3.75,-3.83745 10e-5,-0.34375 1.2376,-0.87474 2.7501,-1.17997 1.5125,-0.30523 3.5375,-0.85963 4.5,-1.23199 l 1.75,-0.67702 0,5.10699 0,5.10699 -0.75,-0.0376 z m -173.6367,66.75786 c -0.1373,0.13736 -1.7227,-1.27 -3.523,-3.12746 l -3.2734,-3.37721 3.5917,-1.18536 3.5917,-1.18536 0,-0.95764 c 0,-0.52669 -0.7138,-2.047 -1.5862,-3.37847 l -1.5862,-2.42084 0.6452,-1.04397 0.6452,-1.04398 1.941,0 c 1.0675,0 1.941,-0.24293 1.941,-0.53984 0,-0.29691 -0.9,-2.30386 -1.9999,-4.4599 l -1.9998,-3.92006 4.0771,-1.22153 4.0771,-1.22154 -0.6455,-3.56856 c -0.3551,-1.96272 -0.8886,-4.58107 -1.1857,-5.81857 l -0.5401,-2.25 4.1084,0 4.1084,0 0,-1.34107 c 0,-0.73759 -0.6247,-3.41663 -1.3881,-5.95343 l -1.3882,-4.61237 5.6382,-0.29656 5.6381,-0.29659 0.2968,-6.21563 0.2968,-6.21564 2.7032,0.53784 c 1.4868,0.29581 3.6032,0.61785 4.7032,0.71564 l 2,0.17779 0.5,-4.95953 0.5,-4.95953 5.206,0.28133 5.2061,0.28134 0.6512,-4.9093 0.6513,-4.9093 4.3927,1.57961 c 2.416,0.86879 4.3834,1.80816 4.372,2.0875 -0.011,0.27933 -2.7786,2.26668 -6.1493,4.41633 l -6.1284,3.90846 -6.9776,6.58229 c -3.8377,3.62027 -8.8634,9.06146 -11.1683,12.09155 -2.3049,3.03009 -5.8248,8.23014 -7.822,11.55568 -1.9971,3.32554 -5.0619,9.61953 -6.8106,13.98666 l -3.1794,7.94023 -1.9405,9.49861 c -1.0672,5.22423 -2.0528,9.611 -2.1902,9.74836 z m 211.887,9.71189 -3.5,2.66958 -0.01,-1.80089 c 0,-0.99049 -0.4471,-5.62589 -0.9833,-10.30089 l -0.9749,-8.5 -2.0914,-8 -2.0914,-8 -3.7992,-8.11883 c -2.0895,-4.46536 -5.7394,-10.99036 -8.1109,-14.5 -2.3714,-3.50964 -6.9996,-9.19367 -10.2848,-12.63117 l -5.9731,-6.25 1.9085,-0.011 c 1.0496,-0.006 3.596,-0.28993 5.6585,-0.63084 l 3.75,-0.61983 0,6.13084 0,6.13084 6,0 c 3.3,0 6,0.17004 6,0.37788 0,0.20783 -0.675,1.99337 -1.5,3.96788 -0.825,1.9745 -1.5,3.98323 -1.5,4.46383 l 0,0.87383 4.0984,1.22792 4.0984,1.22792 -0.6225,2.18037 c -0.3423,1.1992 -0.8732,3.31953 -1.1797,4.71183 l -0.5572,2.53145 5.6153,1.46855 5.6153,1.46854 -2.9934,3.5 c -1.6463,1.925 -3.0116,3.78209 -3.034,4.12686 -0.022,0.34477 2.2651,1.61874 5.0832,2.83105 l 5.1238,2.2042 -3.7267,3.81649 -3.7267,3.81648 4.6029,2.69748 c 2.5316,1.48362 4.6029,2.84302 4.6029,3.0209 0,0.17788 -1.6058,1.31586 -3.5685,2.52883 l -3.5684,2.20542 2.5684,2.68086 c 1.4127,1.47448 2.5685,2.94033 2.5685,3.25746 0,0.31713 -1.575,1.7779 -3.5,3.24617 z m -212.25,13.48495 c -0.4125,-0.0456 -2.273,-1.02229 -4.1343,-2.1705 l -3.3844,-2.08766 3.6246,-2.07949 c 1.9935,-1.14373 3.6289,-2.3558 3.6343,-2.6935 0.01,-0.3377 -1.7902,-1.8614 -3.9902,-3.386 -2.2,-1.5246 -3.9858,-3.0483 -3.9684,-3.386 0.017,-0.3377 2.0424,-1.83419 4.5,-3.32552 l 4.4684,-2.71153 0,10.96153 0,10.96152 -0.75,-0.0829 z m 3.3181,19.93302 c -1.1375,-0.0824 -3.3598,-0.34253 -4.9386,-0.57805 l -2.8705,-0.42822 3.2346,-3.33727 3.2346,-3.33727 -3.3641,-1.71186 c -1.8503,-0.94152 -3.5394,-1.86738 -3.7536,-2.05746 -0.2142,-0.19008 0.8212,-1.93285 2.3009,-3.87282 1.4797,-1.93997 3.1175,-3.52722 3.6395,-3.52722 l 0.9491,0 0.058,2.75 c 0.032,1.5125 0.8498,5.7875 1.8181,9.5 l 1.7605,6.75 -2.0681,-0.14983 z m 93.9234,-34.85017 3.5085,0 0,-0.8 c 0,-0.44 -0.54,-1.34 -1.2,-2 -0.66,-0.66 -1.6767,-1.2 -2.2594,-1.2 -0.5827,0 -1.6216,0.9 -2.3085,2 l -1.249,2 3.5084,0 z m 69.63,14.25375 c 0.401,-0.41456 2.1364,-4.31256 3.8564,-8.66222 l 3.1273,-7.90847 -1.3026,-0.82622 c -0.7165,-0.45442 -1.7608,-0.83311 -2.3208,-0.84153 l -1.0182,-0.0153 -3.2571,8.24493 -3.2571,8.24493 1.7215,1.25881 1.7216,1.25882 0.729,-0.75374 z m -0.899,3.74625 3.7775,0 0,-1.56739 0,-1.56739 -2,0.63478 -2,0.63478 -2,-0.63478 -2,-0.63478 0,-1.43261 c 0,-0.78793 -0.1882,-1.43261 -0.4182,-1.43261 -0.2301,0 -1.1301,-0.27314 -2,-0.60699 l -1.5818,-0.60699 0,2.05029 0,2.05028 2.2225,1.55671 2.2225,1.5567 3.7775,0 z m -2.6989,5 3.2315,0 1.1369,-1.36988 1.1369,-1.36988 -4.0826,-0.65284 -4.0827,-0.65284 -2.4773,-2.47728 c -1.3625,-1.3625 -2.6818,-2.47728 -2.9318,-2.47728 -0.25,0 -0.4545,0.92149 -0.4545,2.04775 l 0,2.04775 2.646,2.45225 2.646,2.45225 3.2316,0 z m -5.8981,10 1.4039,0 1.9815,-3.25 c 1.0899,-1.7875 1.9686,-3.7 1.9528,-4.25 l -0.029,-1 -3.5028,-1.64091 -3.5028,-1.64091 -2.084,4.08504 -2.084,4.08505 2.2301,1.80587 c 1.2266,0.99322 2.8619,1.80586 3.6341,1.80586 z m -6.1845,3 1.559,0 0,-1 c 0,-0.55 -0.4234,-1 -0.941,-1 -0.5175,0 -1.2191,0.45 -1.559,1 l -0.618,1 1.559,0 z m -24.4365,41 0.9341,0 3.3651,-5.25 c 1.8509,-2.8875 4.0931,-5.84968 4.9828,-6.58262 l 1.6175,-1.33262 2.1729,0.68963 2.1728,0.68963 0.6252,-0.85701 c 0.3438,-0.47135 3.9626,-1.98201 8.0418,-3.35701 l 7.4167,-2.5 1.08,-1.75293 1.08,-1.75292 -2.2495,-4.24708 c -1.2372,-2.33589 -2.2482,-4.69707 -2.2467,-5.24707 0,-0.55 1.6237,-2.29328 3.6047,-3.87396 l 3.6019,-2.87397 3.8981,-6.03107 c 2.1439,-3.31709 3.8981,-6.63631 3.8981,-7.37604 l 0,-1.34496 -1.5856,0 -1.5856,0 -5.1644,5.46102 -5.1644,5.46101 -6.75,2.49417 -6.75,2.49417 0,-0.95518 0,-0.95519 1.1061,0 1.1061,0 2.0737,-2.63626 2.0736,-2.63627 0.2521,-2.36373 0.252,-2.36374 -0.6818,0.0354 c -0.375,0.0195 -1.6351,0.58198 -2.8002,1.25 -1.1652,0.66801 -4.5658,3.46456 -7.5571,6.21456 l -5.4386,5 -5.1929,7.13969 -5.193,7.13969 0,9.17605 0,9.17605 1.0352,1.93426 c 0.5693,1.06384 1.4555,1.93426 1.9693,1.93426 z m -2.1871,-95.00638 -1.6826,0.006 -0.6458,-2.0346 -0.6457,-2.0346 -7.2281,0.655 -7.2281,0.65499 -3.2553,-2.97324 -3.2553,-2.97323 7.8118,-1.25824 7.8117,-1.25825 15.1268,-4.30026 15.1268,-4.30026 9.9925,-1.58866 c 5.4959,-0.87338 12.0763,-1.58827 14.6232,-1.58827 l 4.6307,0 0,0.82569 c 0,0.45412 -1.0125,1.77243 -2.25,2.92956 -1.2375,1.15714 -4.9229,3.7102 -8.1898,5.67347 -3.2668,1.96326 -8.4418,4.51069 -11.5,5.66094 -3.0581,1.15025 -10.5102,3.39777 -16.5602,4.99448 -6.05,1.59671 -11.7572,2.90598 -12.6826,2.90948 z m 52.791,6.00638 c -0.3346,0 -0.6084,-0.70156 -0.6084,-1.55902 l 0,-1.55901 -1.0998,0.67969 -1.0998,0.67969 1.1052,-2.06498 c 0.6078,-1.13574 1.5527,-2.3416 2.0998,-2.67969 l 0.9946,-0.61471 0,1.61803 0,1.61803 -1.0401,-0.6428 -1.0401,-0.64281 0.6485,2.58379 0.6485,2.58379 -0.6084,0 z m -92.6674,2 c -0.5175,0 -0.941,-0.17686 -0.941,-0.39301 0,-0.21616 0.6984,-0.661 1.552,-0.98855 l 1.5519,-0.59553 -0.611,0.98854 c -0.336,0.5437 -1.0344,0.98855 -1.5519,0.98855 z m 89.059,0.5 -0.8595,2 -0.055,-1.5 c -0.03,-0.825 0.3813,-2.175 0.9144,-3 l 0.9694,-1.5 -0.055,1 c -0.03,0.55 -0.4417,1.9 -0.9144,3 z m -79.5833,1.495 c -0.046,0.003 -0.3834,-0.295 -0.75,-0.66167 -0.3667,-0.36666 -0.6667,-2.01141 -0.6667,-3.65498 l 0,-2.98833 -2.189,1.90499 -2.1891,1.90499 2.3823,-3.42571 2.3822,-3.4257 -0.094,-3.3243 -0.094,-3.32429 0.9764,0 0.9764,0 -0.3254,8.495 c -0.1789,4.67225 -0.3628,8.49725 -0.4086,8.5 z m 3.1333,0.90532 -2.05,-0.0997 2.5,-0.69053 2.5,-0.69052 0.5774,-6.4598 c 0.3176,-3.55288 0.6551,-5.73298 0.75,-4.84465 0.095,0.88833 1.0726,2.75931 2.1726,4.15773 1.1,1.39842 2,2.87885 2,3.28985 0,0.41099 -0.9,-0.0672 -2,-1.06272 l -2,-1.80998 0,2.95499 0,2.95499 -1.2,1.2 -1.2,1.2 -2.05,-0.0997 z m 62.2682,86.28436 0.3182,-3.31533 -1.1906,-1.43467 -1.1907,-1.43468 -2.1276,-0.116 -2.1275,-0.116 1.8392,-0.47451 1.8392,-0.4745 2.1608,1.95247 c 1.1884,1.07386 3.1613,2.19433 4.3842,2.48994 l 2.2235,0.53748 4.4953,-3.95693 4.4953,-3.95694 6.0868,-8.07776 6.0868,-8.07776 3.3262,-6.61474 c 1.8295,-3.63811 4.5115,-10.37262 5.96,-14.96556 l 2.6338,-8.35081 1.1322,-9.95686 1.1322,-9.95686 -1.2217,-10.19233 -1.2217,-10.19233 -3.049,-9.24 -3.0491,-9.24 -4.3165,-7.57454 -4.3165,-7.57455 -5.5844,-6.91161 -5.5843,-6.91162 -6.9116,-5.58433 -6.9116,-5.58433 -7.5745,-4.31654 -7.5746,-4.31654 -9.24,-3.05405 -9.24,-3.05404 -6.4136,-0.71661 -6.4137,-0.7166 0.7439,1.89768 c 0.4091,1.04372 2.2189,7.07268 4.0218,13.39768 1.8029,6.325 4.3424,16.5625 5.6432,22.75 l 2.3652,11.25 7.5266,0.10942 7.5266,0.10941 -9.5,2.32451 c -5.225,1.27848 -14.3068,3.02924 -20.1819,3.89058 l -10.6819,1.56608 -11.9664,0 -11.9664,0 -8.7687,3.19433 c -4.8228,1.75688 -8.356,3.31781 -7.8517,3.46873 0.5044,0.15091 7.6074,0.7014 15.7846,1.22329 l 14.8677,0.94891 1.1323,1.14969 1.1324,1.14969 -2,1.52238 -2,1.52238 -6.9121,-0.61174 -6.912,-0.61175 -2.2467,2.11066 -2.2467,2.11066 -15.8413,-1.10632 -15.8412,-1.10632 -5.8395,-1.37182 -5.8396,-1.37183 -1.1104,-1.11047 -1.1105,-1.11047 1.1297,-1.12969 1.1297,-1.12969 8.3203,-2.41573 c 4.5762,-1.32865 14.1703,-3.53239 21.3203,-4.89721 7.15,-1.36481 14.35,-2.82329 16,-3.24108 l 3,-0.7596 0.2389,-11.9635 0.2388,-11.9635 1.5819,-12.84592 c 0.8701,-7.06526 1.3729,-13.05497 1.1174,-13.31047 -0.2555,-0.2555 -3.9027,0.87046 -8.1048,2.50214 l -7.6401,2.96668 -6.7161,4.01185 c -3.6938,2.20651 -9.9317,6.73111 -13.8619,10.05465 l -7.146,6.04281 -6.1596,8.17438 -6.1596,8.17439 -3.3263,6.61474 c -1.8294,3.63811 -4.4808,10.27572 -5.8919,14.75024 l -2.5658,8.13549 -1.178,8.85224 -1.178,8.85225 0.6594,8.73463 0.6594,8.73464 1.9061,7.45306 c 1.0484,4.09919 3.2881,10.74912 4.9771,14.77763 1.689,4.02851 3.5052,7.99957 4.0361,8.82457 l 0.9651,1.5 13.652,-14.29804 13.652,-14.29804 5.122,-2.59243 5.1219,-2.59243 5.1078,-4.35953 5.1078,-4.35953 2.3922,0.0703 c 1.3157,0.0386 3.2922,0.43212 4.3922,0.87436 l 2,0.80409 1.75,-0.90956 1.75,-0.90955 0,-1.36432 c 0,-0.75038 -1.5164,-3.61765 -3.3697,-6.37171 -1.8533,-2.75406 -3.8469,-6.37618 -4.4301,-8.04916 l -1.0604,-3.04178 2.4995,0.95031 2.4995,0.9503 2.1806,-0.35584 c 1.1993,-0.1957 1.6181,-0.16344 0.9306,0.0717 -0.6875,0.23514 -1.235,0.73203 -1.2167,1.1042 0.018,0.37218 0.8779,1.68918 1.9103,2.92668 l 1.877,2.25 3.261,0 3.2609,0 1.8993,-1.71885 1.8993,-1.71884 3.6465,0.31416 3.6465,0.31416 2.0055,1.40469 2.0054,1.40468 3.2049,0 3.205,0 2.1486,-2.73151 2.1486,-2.73152 -3.3261,-0.84677 c -1.8293,-0.46574 -3.776,-1.32779 -4.326,-1.91568 l -1,-1.0689 2,0.75563 c 1.1,0.4156 3.4625,1.17798 5.25,1.69419 1.7875,0.5162 3.25,1.15204 3.25,1.41298 0,0.26094 -1.1476,2.20866 -2.5503,4.32827 l -2.5504,3.85382 -7.9056,0.68962 -7.9057,0.68962 -7.164,-0.70592 -7.164,-0.70592 -3.0618,-4.34381 c -1.684,-2.3891 -3.2364,-4.16924 -3.4498,-3.95587 -0.2133,0.21337 0.5213,2.11905 1.6325,4.23484 l 2.0204,3.84691 4.0451,3.30287 4.045,3.30286 2.5312,5.35047 2.5312,5.35046 1.3963,0.53583 1.3964,0.53583 -0.2146,-5.93916 -0.2147,-5.93916 2.2529,0 2.2529,0 -0.2242,6.5 -0.2242,6.5 1.1408,0 1.1407,0 1.4848,2.23627 1.4848,2.23626 1.6372,-1.35871 1.6371,-1.35871 0,-5.30083 0,-5.30083 2.4794,-2.94662 c 1.3637,-1.62065 4.055,-5.86385 5.9808,-9.42934 l 3.5012,-6.48272 -0.5238,-0.52385 -0.5238,-0.52384 1.5431,-0.59216 c 0.8487,-0.32568 1.5431,-0.36682 1.5431,-0.0914 0,0.27541 -0.6499,2.05631 -1.4443,3.95757 -0.7944,1.90125 -2.7495,5.3743 -4.3447,7.71788 l -2.9002,4.26105 -1.6412,4.88644 -1.6412,4.88643 4.5081,3.9682 4.5082,3.9682 6.6511,8.90672 6.6511,8.90671 2.0766,-1.79541 c 1.1421,-0.98749 4.4001,-3.89926 7.2401,-6.47062 l 5.1636,-4.6752 2.4348,-0.61108 2.4347,-0.61107 1.6006,-3.35661 1.6006,-3.3566 -0.5615,-3.46048 -0.5616,-3.46048 2.1993,-2.19923 2.1992,-2.19924 2.2772,0.57154 2.2772,0.57154 3.7565,-9.06306 3.7566,-9.06307 2.2345,0.56083 2.2345,0.56082 1.014,-2.23264 1.014,-2.23264 -0.3318,4.63051 -0.3318,4.6305 -3.0216,7.60648 -3.0216,7.60648 1.145,2.51302 1.145,2.51301 -1.0225,2.25 -1.0226,2.25 1.0314,1.63032 1.0315,1.63031 -2.1694,3.67685 -2.1694,3.67684 0,1.94284 0,1.94284 -2,2 -2,2 0,3.3 0,3.3 -1.1091,1.10912 -1.1092,1.10912 -0.327,3.34088 c -0.1799,1.83748 -0.3558,3.86036 -0.3909,4.49527 l -0.064,1.15439 -5.5,2.27962 -5.4999,2.27963 0,0.8481 c 0,0.46646 0.6592,2.4258 1.4648,4.35409 l 1.4649,3.50598 -2.53,0.9619 c -1.3915,0.52904 -3.2528,0.9619 -4.1361,0.9619 l -1.6062,0 -1.8287,-1.65499 -1.8288,-1.65499 0,-2.34501 0,-2.34501 -1,0 -1,0 0,1.03212 c 0,0.56766 0.6521,2.59266 1.449,4.5 l 1.449,3.46788 2.301,0.15753 c 1.2656,0.0866 2.751,0.1513 3.301,0.14367 0.55,-0.008 2.35,-0.30869 4,-0.66901 l 3,-0.65513 2.5,4.26147 2.5,4.26147 0.3182,-3.31532 z m -52.3182,23.39691 -15,0.34717 -6.5,-1.36209 c -3.575,-0.74914 -9.425,-2.34167 -13,-3.53894 -3.575,-1.19727 -10.2094,-4.13966 -14.7432,-6.53865 l -8.2433,-4.36179 -5.766,-4.43684 c -3.1713,-2.44026 -8.6869,-7.53594 -12.2568,-11.32372 -3.5699,-3.78779 -8.2197,-9.49617 -10.333,-12.6853 -2.1132,-3.18912 -5.569,-9.48459 -7.6795,-13.98992 l -3.8373,-8.19151 -2.3205,-8.5 -2.3204,-8.5 0,-16.5 0,-16.5 2.3204,-8.5 2.3205,-8.5 3.8373,-8.19151 c 2.1105,-4.50533 5.5663,-10.8008 7.6795,-13.98992 2.1133,-3.18913 6.7673,-8.90686 10.3423,-12.70609 l 6.5,-6.90767 6.5,-4.94443 6.5,-4.94443 10,-4.86423 10,-4.86423 8.5,-2.29375 8.5,-2.29374 16.5,0 16.5,0 8.5,2.32045 8.5,2.32045 8.2275,3.85412 8.2274,3.85412 7.4832,5.17313 7.4832,5.17314 7.2911,7.65229 7.2911,7.6523 3.8405,5.80849 c 2.1123,3.19467 5.5673,9.49467 7.6778,14 l 3.8373,8.19151 2.3204,8.5 2.3205,8.5 0,16.5 0,16.5 -2.3205,8.5 -2.3204,8.5 -3.8373,8.19151 c -2.1105,4.50533 -5.5655,10.80533 -7.6778,14 l -3.8405,5.80849 -7.2911,7.6523 -7.2911,7.65229 -7.4832,5.17314 -7.4832,5.17313 -8.2274,3.85009 -8.2275,3.85008 -8,2.1917 -8,2.1917 -15,0.34716 z m 37.5872,6.86452 c -0.3389,0.20944 -2.958,-1.04276 -5.8203,-2.78266 -2.8623,-1.7399 -5.2183,-3.42972 -5.2356,-3.75516 -0.017,-0.32544 1.7571,-1.12753 3.943,-1.78243 2.1858,-0.65489 8.3733,-3.39619 13.75,-6.09177 l 9.7757,-4.90107 8.4593,-6.85717 8.4594,-6.85716 6.8769,-8.45935 6.8769,-8.45934 5.3778,-11 5.3779,-11 2.0145,-7.5 2.0146,-7.5 0.9173,-8.31268 c 0.5046,-4.57197 1.1049,-8.50014 1.334,-8.72927 0.2291,-0.22912 1.9634,0.92008 3.854,2.55378 l 3.4374,2.97037 -3.7608,3.11457 -3.7609,3.11457 3.0109,3.42913 c 1.6559,1.88602 3.0108,3.86346 3.0108,4.39433 0,0.53086 -0.4207,0.9652 -0.9349,0.9652 -0.5142,0 -2.1081,0.44605 -3.542,0.99122 l -2.6072,0.99123 2.5421,3.74091 c 1.3981,2.0575 2.542,4.03637 2.542,4.39748 0,0.36112 -1.6841,0.97251 -3.7424,1.35865 -2.0583,0.38615 -4.1009,0.92364 -4.539,1.19443 l -0.7967,0.49236 2.4687,4.41686 2.4686,4.41686 -3.1796,0.0153 c -1.7488,0.008 -3.7268,0.36301 -4.3956,0.78797 l -1.2159,0.77266 1.4677,4.87691 c 0.8073,2.6823 1.3544,4.96929 1.216,5.0822 -0.1385,0.11291 -2.5018,0.60391 -5.2518,1.09111 l -5,0.88581 -0.2963,6.18878 -0.2963,6.18878 -4.2037,0.30523 -4.2037,0.30525 -0.3023,5.25 -0.3022,5.25 -4.3865,0 -4.3865,0 -0.65,4.33456 c -0.3575,2.384 -0.9843,4.87549 -1.3929,5.53662 l -0.7429,1.20207 -4.7513,-2.03663 c -2.6132,-1.12014 -5.1639,-2.03662 -5.6683,-2.03662 l -0.9171,0 0,6.11663 0,6.11663 -1.75,-0.50792 c -0.9625,-0.27935 -3.4034,-1.22363 -5.4242,-2.0984 l -3.6743,-1.59048 -1.7241,4.51442 c -0.9482,2.48294 -2.0013,4.68579 -2.3402,4.89523 z m -54.2574,5.55389 c -0.2723,0 -1.9563,-1.81837 -3.7423,-4.04082 l -3.2473,-4.04082 -4.5944,2.56783 -4.5944,2.56784 -0.5757,-0.843 c -0.3166,-0.46365 -1.6249,-2.5008 -2.9072,-4.52701 l -2.3316,-3.68402 -1.1684,0.0119 c -0.6427,0.007 -3.5855,0.65517 -6.5395,1.44142 l -5.3711,1.42956 0.6736,-5.07763 0.6735,-5.07763 -3.8025,0.60961 c -2.0914,0.33529 -5.265,0.90283 -7.0525,1.26121 l -3.25,0.65156 0,-5.58946 0,-5.58947 -4.5829,1.96447 c -2.5206,1.08045 -4.7491,1.96446 -4.9523,1.96446 -0.2032,0 -0.5034,-2.8125 -0.6671,-6.25 l -0.2977,-6.25 -4,-0.26654 c -2.2,-0.1466 -5.0188,-0.49426 -6.264,-0.77257 l -2.264,-0.50603 1.514,-2.92777 c 0.8327,-1.61027 1.514,-3.38462 1.514,-3.94299 l 0,-1.01521 -5.0897,-0.67517 -5.0897,-0.67517 0.4838,-2.10928 c 0.2661,-1.1601 0.8127,-3.57177 1.2147,-5.35927 l 0.7309,-3.25 -3.375,-0.0153 -3.375,-0.0153 -1.3395,-0.84903 -1.3396,-0.84904 2.1199,-4.15537 2.12,-4.15538 -1.2804,-0.40432 c -0.7042,-0.22237 -2.9443,-0.91561 -4.978,-1.54053 l -3.6976,-1.13621 2.6976,-3.82929 c 1.4837,-2.10611 2.8602,-3.67888 3.0589,-3.49505 0.1988,0.18384 1.8292,3.71071 3.6232,7.83749 l 3.2618,7.50325 5.5357,8.30206 5.5358,8.30205 8.3411,8.07818 8.3411,8.07818 6.3812,4.29816 c 3.5096,2.36398 10.0346,6.00778 14.5,8.09733 l 8.1188,3.79918 8,2.0944 8,2.0944 9.4024,1.052 9.4025,1.052 10.1933,-1.09748 c 5.6063,-0.60361 11.7222,-1.53597 13.591,-2.07191 1.8687,-0.53597 3.7457,-0.97447 4.1711,-0.97447 l 0.7734,0 -2.5524,5.03701 -2.5525,5.03702 -1.2144,-0.68455 c -0.6679,-0.3765 -2.7175,-1.79701 -4.5546,-3.1567 l -3.3402,-2.47215 -4.387,4.30555 -4.3871,4.30555 -4.5537,-3.27024 -4.5537,-3.27024 -4.8066,3.08438 c -2.6436,1.6964 -5.0294,3.08437 -5.3017,3.08437 z"
         inkscape:connector-curvature="0" />
    </g>
  </g>
</svg>
