<?xml version="1.0" encoding="UTF-8" standalone="no"?>
<!-- Created with Inkscape (http://www.inkscape.org/) -->

<svg
   xmlns:dc="http://purl.org/dc/elements/1.1/"
   xmlns:cc="http://creativecommons.org/ns#"
   xmlns:rdf="http://www.w3.org/1999/02/22-rdf-syntax-ns#"
   xmlns:svg="http://www.w3.org/2000/svg"
   xmlns="http://www.w3.org/2000/svg"
   xmlns:sodipodi="http://sodipodi.sourceforge.net/DTD/sodipodi-0.dtd"
   xmlns:inkscape="http://www.inkscape.org/namespaces/inkscape"
   id="svg3327"
   version="1.1"
   inkscape:version="0.48.2 r9819"
   width="1052.3625"
   height="744.09497"
   xml:space="preserve"
   sodipodi:docname="Piratbyran_Logo_Black.pdf"><metadata
     id="metadata3333"><rdf:RDF><cc:Work
         rdf:about=""><dc:format>image/svg+xml</dc:format><dc:type
           rdf:resource="http://purl.org/dc/dcmitype/StillImage" /><dc:title></dc:title></cc:Work></rdf:RDF></metadata><defs
     id="defs3331"><clipPath
       clipPathUnits="userSpaceOnUse"
       id="clipPath3347"><path
         d="m 0,0 595.276,0 0,841.89 L 0,841.89 0,0 z"
         id="path3349"
         inkscape:connector-curvature="0" /></clipPath><clipPath
       clipPathUnits="userSpaceOnUse"
       id="clipPath3357"><path
         d="m 0,0 595.276,0 0,841.89 L 0,841.89 0,0 z"
         id="path3359"
         inkscape:connector-curvature="0" /></clipPath></defs><sodipodi:namedview
     pagecolor="#ffffff"
     bordercolor="#666666"
     borderopacity="1"
     objecttolerance="10"
     gridtolerance="10"
     guidetolerance="10"
     inkscape:pageopacity="0"
     inkscape:pageshadow="2"
     inkscape:window-width="1280"
     inkscape:window-height="752"
     id="namedview3329"
     showgrid="false"
     inkscape:zoom="0.63429547"
     inkscape:cx="507.0486"
     inkscape:cy="328.3684"
     inkscape:window-x="0"
     inkscape:window-y="0"
     inkscape:window-maximized="1"
     inkscape:current-layer="g3335" /><g
     id="g3335"
     inkscape:groupmode="layer"
     inkscape:label="Piratbyran_Logo_Black"
     transform="matrix(1.25,0,0,-1.25,0,744.09492)"><g
       id="g3337" /><g
       id="g3339" /><g
       id="g3341"
       transform="translate(131.99123,-107.01992)"><g
         id="g3343"><g
           id="g3345"
           clip-path="url(#clipPath3347)"><g
             id="g3351" /><g
             id="g3353"><g
               id="g3355"
               clip-path="url(#clipPath3357)"><path
                 d="m 563.1699,327.8154 -0.0251,0.01 0.0251,0 -3.5121,3.932 c -2.1869,2.295 -2.849,3.002 -3.672,7.714 -0.099,0.301 -0.099,0.582 -0.099,0.877 0,2.437 1.6701,5.132 3.5431,8.222 2.666,4.351 5.9309,9.712 5.9309,16.632 0,0.444 0,0.849 -0.0459,1.295 -0.594,10.433 -8.03,22.381 -18.922,23.59 -12.793,1.406 -23.463,-5.969 -28.383,-13.949 -1.518,-2.467 -2.3361,-6.199 -3.207,-10.154 -1.8691,-8.486 -3.99,-18.097 -13.315,-19.43 l -198.9641,-27.944 c -0.0399,0.185 -6.5239,-0.747 -7.482,-0.877 -0.6059,0.14 -15.1219,3.699 -15.1219,3.699 -0.0851,-0.211 -195.52305,46.322 -195.52305,46.322 -9.17401,2.196 -10.40002,11.976 -11.45901,20.576 -0.48002,4 -0.94901,7.803 -2.23002,10.423 -4.164,8.362 -14.09198,16.754 -26.93597,16.56 -10.98999,-0.183 -19.51001,-11.428 -21.07104,-21.721 -1.15595,-7.472 1.82104,-13.538 4.17602,-18.403 1.79999,-3.652 3.30499,-6.807 2.60303,-9.395 -1.29401,-4.595 -2.01904,-5.225 -4.41901,-7.322 l -3.867,-3.582 c -6.45301,-6.596 -11.830019,-18.699 -9.568,-29.071 0.94501,-4.2 4.77301,-8.003 10.81696,-10.687 7.401,-3.254 18.85706,-4.835 26.53204,-0.46 4.25199,2.431 7.59,7.166 10.77698,11.753 5.051,7.176 9.82401,13.971 17.60901,12.071 0,0 105.79906,-25.279 136.44096,-32.601 -14.2319,-2.058 -86.804,-12.607 -86.804,-12.607 -9.324,-1.327 -14.047,7.306 -18.2299,14.939 -1.9111,3.534 -3.7511,6.887 -5.9021,8.817 -6.95195,6.273 -19.26195,10.42 -31.15398,5.507 -10.129,-4.224 -13.89499,-17.78 -11.599,-27.945 1.70102,-7.383 6.70002,-11.934 10.69803,-15.565 2.96597,-2.751 5.56903,-5.1 5.84598,-7.761 0.50201,-4.757 0.08502,-5.637 -1.38498,-8.46 l -2.26501,-4.769 c -3.594,-8.501 -4.13102,-21.735 1.78399,-30.522 2.40702,-3.553 7.35202,-5.67 13.96701,-5.953 8.137,-0.332 19.32696,2.446 24.85596,9.331 3.0681,3.829 4.4211,9.45 5.718,14.908 2.041,8.521 3.957,16.585 11.879,17.718 l 123.5841,17.784 c 0,0 38.25,5.416 38.848,5.497 0.607,-0.145 30.6319,-7.318 30.6319,-7.318 0.2991,-0.072 120.922,-29.223 120.922,-29.223 7.776,-1.858 8.9501,-10.065 10.178,-18.755 0.7681,-5.556 1.5961,-11.263 4.283,-15.389 4.8421,-7.346 15.7871,-11.174 23.8501,-11.594 6.625,-0.377 11.762,1.259 14.482,4.596 6.729,8.191 7.416,21.399 4.651,30.223 l -1.803,4.971 c -1.195,2.914 -1.543,3.83 -0.598,8.52 0.543,2.635 3.313,4.737 6.588,7.174 4.322,3.265 9.688,7.317 12.0589,14.503 3.2911,9.897 0.818,23.738 -8.9159,28.917 -11.352,6.008 -24.002,3.066 -31.492,-2.518 -2.336,-1.749 -4.459,-4.904 -6.7251,-8.239 -4.867,-7.222 -10.383,-15.392 -19.5679,-13.186 0,0 -55.7311,13.558 -77.319,18.818 15.1369,2.134 130.858,18.474 130.858,18.474 7.947,1.165 12.0289,-6.061 16.369,-13.675 2.763,-4.88 5.6579,-9.895 9.648,-12.722 7.233,-5.077 18.7779,-4.605 26.4629,-2.014 6.268,2.107 10.4421,5.53 11.752,9.602 0.7721,2.425 1.123,4.966 1.123,7.572 0,8.244 -3.4779,16.817 -7.9099,22.264"
                 style="fill:#231f20;fill-opacity:1;fill-rule:nonzero;stroke:none"
                 id="path3361"
                 inkscape:connector-curvature="0" /><path
                 d="m 252.7954,418.9697 c 7.855,0 14.231,-6.346 14.231,-14.193 0,-7.834 -6.376,-14.229 -14.231,-14.229 -7.826,0 -14.179,6.395 -14.179,14.229 0,7.847 6.353,14.193 14.179,14.193 m -31.713,-20.051 c 0,-6 -4.874,-10.835 -10.877,-10.835 -5.995,0 -10.833,4.835 -10.833,10.835 0,5.997 4.838,10.875 10.833,10.875 6.003,0 10.877,-4.878 10.877,-10.875 m 179.584,0 c 0,-6 -4.85,-10.835 -10.856,-10.835 -6.006,0 -10.861,4.835 -10.861,10.835 0,5.997 4.855,10.875 10.861,10.875 6.006,0 10.856,-4.878 10.856,-10.875 m -53.442,20.051 c 7.848,0 14.186,-6.346 14.186,-14.193 0,-7.834 -6.338,-14.229 -14.186,-14.229 -7.834,0 -14.213,6.395 -14.213,14.229 0,7.847 6.379,14.193 14.213,14.193 m 109.762,198.079 c 14.41,0 26.154,-11.726 26.154,-26.12 l 0,-0.004 c 0,14.394 -11.75,26.124 -26.154,26.124 m -340.11,-143.086 c -2.792,-4.574 -4.436,-10.1 -4.436,-16.021 0,5.921 1.644,11.447 4.431,16.021 l 0,116.962 c 0,14.394 11.737,26.124 26.146,26.124 l 0.004,0 c -14.409,0 -26.145,-11.726 -26.145,-26.12 l 0,-116.966 z m 95.846,59.449 c 16.599,0 30.08,-13.441 30.08,-30.047 0,-16.635 -13.481,-30.073 -30.08,-30.073 -16.621,0 -30.066,13.438 -30.066,30.073 0,16.606 13.445,30.047 30.066,30.047 m 49.28,0 76.033,0 0,-31.741 -76.033,0 0,31.741 z m 125.294,0 c 16.629,0 30.075,-13.441 30.075,-30.047 0,-16.635 -13.446,-30.073 -30.075,-30.073 -16.597,0 -30.07,13.438 -30.07,30.073 0,16.606 13.473,30.047 30.07,30.047 m -252.463,-157.635 c 2.584,-0.847 5.329,-1.313 8.184,-1.313 l 0.004,0 313.965,0 c 2.857,0 5.601,0.466 8.199,1.313 12.619,1.841 22.381,13.833 22.381,28.28 l 0,53.885 c 0,5.921 -1.637,11.44 -4.426,16.021 l 0,116.962 c 0,14.394 -11.75,26.124 -26.154,26.124 l -313.965,0 c -14.409,0 -26.145,-11.726 -26.145,-26.12 l 0,-116.966 c -2.792,-4.574 -4.436,-10.1 -4.436,-16.021 l 0,-53.885 c 0,-0.903 0.039,-1.796 0.113,-2.677 1.121,-13.23 10.458,-23.877 22.28,-25.603"
                 style="fill:#231f20;fill-opacity:1;fill-rule:nonzero;stroke:none"
                 id="path3363"
                 inkscape:connector-curvature="0" /></g></g></g></g></g><rect
       style="fill:#ffffff"
       id="rect3369"
       width="1.8473228"
       height="15.551332"
       x="340.67215"
       y="-281.48465"
       transform="scale(1,-1)" /><rect
       style="fill:#ffffff"
       id="rect3371"
       width="2.0495179"
       height="17.815041"
       x="384.20581"
       y="-284.01587"
       transform="scale(1,-1)" /><rect
       style="fill:#ffffff"
       id="rect3373"
       width="1.9706818"
       height="18.288006"
       x="477.85303"
       y="-284.33118"
       transform="scale(1,-1)" /><rect
       style="fill:#ffffff"
       id="rect3375"
       width="2.5224741"
       height="15.450212"
       x="520.34113"
       y="-281.65103"
       transform="scale(1,-1)" /><rect
       style="fill:#ffffff"
       id="rect3379"
       width="3.7837181"
       height="96.957962"
       x="394.04575"
       y="-518.68567"
       transform="scale(1,-1)" /><rect
       style="fill:#ffffff"
       id="rect3384"
       width="3.1531045"
       height="103.73714"
       x="466.73831"
       y="-515.53259"
       transform="scale(1,-1)" /><rect
       style="fill:#ffffff"
       id="rect3386"
       width="72.99437"
       height="5.2026224"
       x="548.6402"
       y="-398.86771"
       transform="scale(1,-1)" /><rect
       style="fill:#ffffff"
       id="rect3388"
       width="70.629539"
       height="5.8332434"
       x="245.78452"
       y="-399.34067"
       transform="scale(1,-1)" /></g></svg>