<?xml version="1.0" encoding="UTF-8" ?>
<!DOCTYPE svg PUBLIC "-//W3C//DTD SVG 1.1//EN" "http://www.w3.org/Graphics/SVG/1.1/DTD/svg11.dtd">
<svg width="1581pt" height="632pt" viewBox="0 0 1581 632" version="1.1" xmlns="http://www.w3.org/2000/svg">
<path fill="#ffffff" d=" M 0.00 0.00 L 1581.00 0.00 L 1581.00 632.00 L 0.00 632.00 L 0.00 0.00 Z" />
<path fill="#000000" d=" M 316.92 24.24 C 320.50 23.35 324.93 22.29 328.02 24.98 C 331.50 28.35 334.11 33.00 333.81 37.98 C 334.33 45.40 329.82 51.87 325.32 57.31 C 320.97 62.49 313.86 64.46 310.07 70.18 C 308.28 73.46 307.40 77.26 307.71 80.99 C 310.25 79.17 311.94 76.41 314.57 74.71 C 318.99 72.28 323.87 70.13 329.05 70.57 C 333.03 70.88 337.16 69.85 340.35 67.40 C 344.37 63.64 341.71 56.37 337.06 54.41 C 333.95 55.92 331.10 57.88 328.10 59.58 C 330.09 54.54 334.55 50.20 340.10 49.65 C 347.61 50.26 351.71 58.19 351.54 65.02 C 351.90 70.94 348.31 76.68 342.88 79.02 C 337.78 81.89 331.86 79.69 326.40 80.58 C 322.40 82.12 319.97 86.66 320.79 90.85 C 322.05 95.20 325.49 98.35 328.05 101.93 C 331.21 106.15 333.81 111.37 332.56 116.78 C 331.42 120.39 328.28 122.80 326.15 125.81 C 332.41 124.46 338.49 121.80 345.02 122.29 C 350.24 122.20 354.93 125.00 359.01 127.96 C 364.45 132.47 370.65 136.52 374.06 142.92 C 375.84 146.25 377.20 150.33 380.95 151.95 C 383.47 152.99 386.82 154.28 389.18 152.21 C 391.40 150.57 392.78 147.08 396.01 147.42 C 400.25 147.84 403.73 151.31 405.32 155.12 C 406.38 158.40 405.12 161.78 404.72 165.06 C 404.94 167.91 407.84 168.98 409.83 170.44 C 409.74 173.58 409.63 177.01 407.60 179.60 C 405.02 183.22 400.53 184.47 397.30 187.32 C 395.57 188.57 394.02 190.41 391.75 190.55 C 387.70 191.36 383.74 188.35 379.77 189.76 C 376.32 191.89 374.89 195.92 373.23 199.39 C 371.71 201.74 373.72 204.09 374.57 206.26 C 372.77 206.27 370.97 206.29 369.21 206.66 C 369.49 210.57 372.05 214.48 370.49 218.37 C 368.64 219.22 366.70 219.89 364.90 220.84 C 363.06 222.68 362.25 225.43 359.98 226.90 C 357.49 228.47 354.87 229.86 352.66 231.84 C 346.89 232.41 344.43 224.69 338.58 226.35 C 336.69 229.60 335.30 233.83 338.05 237.06 C 342.27 242.07 345.45 248.65 352.00 251.00 C 359.58 254.27 366.68 258.66 374.50 261.38 C 378.16 262.83 382.15 262.50 385.99 262.27 C 399.98 260.79 414.06 262.34 428.08 261.53 C 440.15 260.41 452.07 258.13 464.03 256.19 C 467.64 255.50 471.40 254.72 474.40 252.45 C 482.00 246.87 484.66 236.82 492.55 231.53 C 499.45 226.78 508.38 226.99 516.22 228.86 C 516.44 229.52 516.88 230.84 517.10 231.50 C 517.51 232.79 517.93 234.08 518.36 235.37 C 516.34 235.72 513.51 235.17 512.27 237.19 C 509.03 244.10 504.67 250.89 498.38 255.38 C 492.84 258.30 487.30 261.39 481.30 263.30 C 466.62 267.58 452.40 273.29 437.72 277.58 C 425.81 280.11 414.02 283.20 402.02 285.30 C 396.11 285.99 390.06 285.72 384.25 284.38 C 379.26 283.55 374.44 281.53 369.32 281.64 C 371.05 285.97 375.61 288.04 378.58 291.42 C 382.93 295.22 387.74 300.58 386.05 306.84 C 385.61 310.83 381.97 312.93 379.43 315.55 C 378.49 318.28 379.87 321.22 382.09 322.89 C 387.46 327.14 392.33 332.00 397.01 336.99 C 407.88 349.11 419.29 360.73 430.11 372.89 C 440.28 383.09 448.82 394.80 459.37 404.64 C 463.03 407.32 467.93 408.43 470.37 412.62 C 472.14 415.92 477.05 417.35 476.54 421.66 C 472.77 422.89 469.34 418.71 465.78 420.71 C 463.82 423.53 463.86 427.26 464.69 430.47 C 467.29 436.35 474.93 438.09 476.85 444.44 C 472.18 446.19 470.65 439.40 466.17 439.21 C 468.68 443.18 473.06 445.68 474.77 450.21 C 473.65 451.70 472.05 451.55 470.70 450.51 C 466.01 446.92 461.76 442.79 457.33 438.90 C 458.21 444.56 462.08 449.60 461.40 455.48 C 460.20 455.44 458.87 456.05 457.77 455.41 C 456.37 453.51 455.35 451.39 454.20 449.35 C 453.42 450.38 453.00 452.33 451.32 451.58 C 449.58 449.49 449.59 446.61 449.55 444.04 C 449.53 436.67 448.88 429.25 450.15 421.94 C 450.60 417.52 451.61 412.34 448.21 408.78 C 443.07 403.22 437.09 398.51 431.15 393.85 C 419.32 383.30 406.37 374.07 395.00 362.99 C 389.96 358.71 385.31 354.02 380.65 349.34 C 378.52 347.44 376.65 345.00 373.81 344.13 C 369.87 356.39 363.21 367.91 353.53 376.53 C 347.62 382.12 340.67 386.40 334.16 391.23 C 327.71 395.75 320.58 399.13 313.61 402.73 C 311.13 404.05 308.32 405.98 308.24 409.09 C 307.66 412.60 311.52 414.29 313.65 416.34 C 332.46 429.61 353.71 439.48 370.66 455.32 C 378.61 462.18 386.52 469.84 389.96 480.04 C 392.28 485.67 392.43 493.24 387.60 497.61 C 385.40 499.87 382.64 501.53 379.70 502.64 C 364.67 507.09 348.89 507.45 333.49 509.93 C 307.76 512.76 281.92 514.94 256.00 514.66 C 249.34 514.55 242.67 514.47 236.00 514.73 C 222.13 516.16 208.11 515.60 194.26 514.23 C 187.51 512.92 180.82 511.20 173.95 510.59 C 166.92 510.02 160.63 506.55 153.99 504.56 C 148.78 504.55 143.42 507.91 138.36 505.06 C 137.63 502.01 141.05 500.64 142.90 498.92 C 146.91 496.30 150.09 492.07 155.05 491.22 C 162.37 488.91 170.06 495.35 177.15 491.28 C 183.41 487.54 190.08 482.96 197.80 484.35 C 203.93 484.97 204.92 492.81 210.59 494.26 C 216.17 495.62 222.03 494.55 227.54 493.35 C 235.99 491.25 244.62 489.70 252.86 486.83 C 265.54 480.96 278.47 475.64 291.39 470.31 C 295.41 468.66 299.78 468.41 303.97 467.45 C 303.74 466.17 302.59 465.69 301.49 465.36 C 284.68 459.51 266.90 454.57 252.84 443.15 C 251.62 441.87 250.02 443.16 248.80 443.74 C 240.55 448.88 231.98 453.51 223.49 458.26 C 210.20 465.62 194.74 467.13 180.81 472.85 C 171.86 476.47 163.98 482.23 155.05 485.90 C 143.48 490.72 132.43 496.65 121.25 502.28 C 113.14 506.56 104.38 509.64 96.72 514.72 C 84.62 523.50 72.91 533.08 59.28 539.43 C 52.40 542.98 45.60 546.88 38.11 549.03 C 30.99 551.37 24.07 554.28 17.16 557.19 C 12.20 559.24 9.50 564.17 5.67 567.64 C 4.53 568.95 2.67 568.59 1.13 568.85 C 0.46 565.74 1.22 562.62 2.59 559.82 C 4.54 555.76 4.40 550.91 7.05 547.16 C 8.65 545.08 10.56 543.26 12.51 541.51 C 15.44 538.85 20.01 538.66 22.48 535.42 C 26.12 530.52 25.62 523.54 30.16 519.16 C 31.94 516.83 35.16 517.15 37.74 517.46 C 40.40 518.34 42.57 520.23 45.16 521.30 C 50.91 522.08 56.53 519.44 60.98 516.00 C 68.93 508.93 75.15 500.18 82.81 492.81 C 97.42 477.16 113.89 461.22 135.38 456.09 C 141.24 454.97 145.72 450.82 150.17 447.17 C 163.68 435.72 178.02 425.08 193.80 416.94 C 198.30 414.90 203.07 413.18 206.87 409.89 C 212.06 405.37 217.89 400.48 219.13 393.30 C 220.54 384.30 221.08 374.46 226.97 367.02 C 233.65 359.85 243.24 355.57 252.97 354.91 C 264.53 352.68 275.88 356.46 287.14 358.57 C 292.27 359.71 298.62 360.90 302.82 356.84 C 308.79 350.20 310.22 340.70 309.57 332.08 C 309.34 327.85 307.35 324.03 305.84 320.15 C 304.45 316.85 303.45 313.38 301.88 310.16 C 301.50 310.23 300.75 310.36 300.38 310.43 C 297.29 317.69 295.02 325.60 289.51 331.51 C 285.53 335.66 279.51 337.03 273.93 336.54 C 268.48 335.95 263.86 340.65 258.45 339.62 C 255.70 338.35 252.68 335.52 253.49 332.18 C 254.01 329.76 254.82 327.40 254.92 324.91 C 250.14 324.37 244.49 326.10 240.57 322.47 C 238.12 320.34 234.93 318.25 234.42 314.78 C 233.80 311.14 237.10 308.64 239.45 306.45 C 244.55 302.58 248.56 297.12 254.76 294.87 C 263.38 291.71 273.35 292.47 281.20 287.14 C 282.22 286.60 282.65 285.52 283.15 284.55 C 278.46 283.63 273.74 282.64 269.33 280.74 C 265.01 278.58 262.33 274.20 258.07 271.95 C 247.17 266.03 236.41 259.83 226.25 252.71 C 218.78 248.05 212.65 241.52 207.52 234.43 C 202.48 226.50 200.15 217.24 197.52 208.31 C 196.37 204.38 195.52 199.72 197.95 196.08 C 201.21 192.30 206.57 193.07 210.99 193.45 C 222.24 195.03 233.01 198.81 243.86 201.97 C 243.05 193.21 238.44 184.99 239.37 176.06 C 239.50 173.49 241.36 170.98 244.04 170.70 C 249.68 170.04 254.21 174.17 259.44 175.46 C 269.22 177.93 278.28 182.68 286.39 188.62 C 290.26 191.49 292.82 195.65 295.47 199.57 C 299.53 206.14 303.71 213.07 304.35 220.94 C 304.48 225.40 303.50 230.55 306.96 234.09 C 314.08 225.81 314.43 214.32 315.29 203.98 C 315.84 200.96 312.79 199.50 310.60 198.34 C 302.21 194.57 293.12 188.62 291.17 178.98 C 289.52 171.72 291.12 164.21 289.70 156.92 C 289.54 152.94 287.51 148.65 289.75 144.91 C 292.72 139.31 297.56 135.03 302.29 130.93 C 301.40 129.31 300.47 127.71 299.50 126.14 C 295.27 127.19 290.56 128.92 286.49 126.38 C 283.27 125.20 282.57 121.56 281.28 118.80 C 279.34 114.46 281.20 109.59 280.09 105.12 C 278.35 99.83 271.90 99.25 268.65 95.32 C 266.89 93.04 267.56 89.89 268.23 87.33 C 269.30 83.30 272.44 80.40 274.67 77.03 C 273.48 74.08 271.65 71.10 272.45 67.79 C 273.27 63.38 272.64 58.09 268.42 55.59 C 264.67 54.31 262.80 58.74 260.49 60.78 C 259.44 57.73 259.45 54.15 261.57 51.55 C 264.64 48.21 269.99 46.45 274.09 49.02 C 277.90 50.66 279.42 54.66 280.98 58.17 C 283.29 54.89 285.60 51.22 285.46 47.04 C 285.65 40.25 283.40 32.45 277.33 28.67 C 274.37 26.64 270.78 28.50 267.54 28.45 C 270.43 24.55 276.27 24.59 280.29 26.53 C 284.91 28.36 287.67 32.97 289.22 37.47 C 290.23 43.26 291.07 49.35 289.36 55.10 C 287.93 61.40 282.93 66.42 282.57 73.03 C 282.19 75.92 283.71 78.52 285.12 80.91 C 287.10 76.26 288.65 71.04 292.86 67.84 C 296.70 64.16 302.13 62.59 305.67 58.58 C 307.65 54.98 308.47 49.10 304.44 46.52 C 300.78 45.50 298.88 50.09 295.28 49.51 C 294.68 51.36 293.98 53.17 293.19 54.95 C 291.32 49.35 293.67 41.76 299.57 39.69 C 304.98 37.33 311.12 40.15 315.02 44.04 C 317.65 46.76 318.73 50.46 319.73 54.00 C 323.45 53.00 325.43 49.28 327.29 46.21 C 330.27 41.53 329.98 35.28 327.62 30.41 C 325.57 26.32 320.67 25.89 316.92 24.24 Z" />
<path fill="#040407" d=" M 559.99 229.83 C 568.00 229.56 576.03 229.80 584.01 228.91 C 585.61 228.66 587.23 228.89 588.83 229.17 C 588.69 230.20 588.54 231.22 588.37 232.24 C 579.32 233.68 570.11 233.49 560.99 234.27 C 546.76 233.91 532.57 235.03 518.36 235.37 C 517.93 234.08 517.51 232.79 517.10 231.50 C 523.73 231.75 530.38 231.52 537.00 231.15 C 544.64 230.31 552.36 230.80 559.99 229.83 Z" />
<path fill="#fafaf7" d=" M 497.69 240.09 C 498.02 235.89 502.55 234.98 505.57 233.15 C 506.75 236.96 504.29 240.65 501.01 242.42 C 499.55 243.02 496.83 241.94 497.69 240.09 Z" />
<path fill="#000000" d=" M 1560.27 247.25 C 1561.40 243.67 1563.00 239.02 1567.22 238.27 C 1569.58 238.11 1572.63 237.64 1574.36 239.71 C 1576.48 242.77 1574.51 246.41 1573.47 249.48 C 1568.14 262.93 1562.33 276.19 1556.61 289.48 C 1553.63 296.53 1549.95 303.29 1547.47 310.55 C 1543.46 321.60 1539.18 332.55 1535.61 343.76 C 1532.03 355.61 1526.44 366.79 1520.01 377.32 C 1522.26 366.78 1525.64 356.48 1529.41 346.37 C 1541.20 313.82 1550.56 280.46 1560.27 247.25 Z" />
<path fill="#000000" d=" M 535.45 258.46 C 550.15 243.50 575.88 241.84 592.54 254.46 C 601.58 261.76 605.22 273.68 605.25 284.95 C 605.36 297.90 601.91 311.33 593.49 321.43 C 598.24 322.39 603.11 323.25 607.43 325.57 C 618.37 331.26 626.62 342.55 627.45 355.01 C 628.35 366.58 623.23 378.04 615.21 386.20 C 604.93 396.98 589.69 402.08 575.00 401.85 C 566.66 402.02 557.42 400.97 551.22 394.79 C 543.43 387.27 541.37 375.94 541.72 365.55 C 535.21 378.37 525.46 389.88 512.57 396.60 C 501.52 402.43 487.87 404.91 476.02 400.03 C 469.09 397.24 465.10 389.97 464.43 382.80 C 463.15 370.99 467.70 359.50 473.38 349.39 C 479.64 338.97 488.48 329.36 500.13 325.10 C 504.90 323.26 510.26 322.47 515.26 323.83 C 520.72 325.55 524.06 331.44 523.65 337.02 C 523.19 349.62 510.56 360.23 498.04 358.07 C 494.85 357.42 492.32 354.29 492.65 351.00 C 492.72 344.52 498.33 338.53 505.01 338.95 C 498.82 340.38 493.68 347.11 496.65 353.39 C 506.86 356.00 517.15 346.09 516.46 335.96 C 516.24 333.63 514.50 331.06 511.90 331.26 C 506.47 331.28 501.41 334.00 497.07 337.06 C 485.90 346.21 478.61 359.79 476.37 373.98 C 476.13 378.81 475.17 385.11 479.68 388.37 C 485.91 391.61 493.35 390.60 499.85 388.72 C 513.55 384.47 524.72 374.04 531.72 361.72 C 543.50 341.97 552.86 320.86 559.90 298.98 C 562.54 291.39 565.25 283.79 566.49 275.82 C 567.12 281.82 565.61 287.68 564.80 293.57 C 561.78 312.91 556.61 331.93 548.90 349.94 C 552.13 348.84 555.56 348.36 558.53 350.40 C 556.11 350.51 553.27 349.47 551.24 351.27 C 546.78 354.67 545.47 360.66 545.62 365.99 C 545.74 374.84 548.69 384.46 556.11 389.90 C 561.87 393.97 569.27 393.81 576.02 393.79 C 586.08 393.90 596.39 390.73 604.01 384.01 C 610.96 377.95 615.70 369.23 616.54 360.01 C 617.47 349.95 610.82 340.35 601.98 336.04 C 595.44 332.97 588.01 333.28 580.97 333.18 C 575.75 332.96 569.92 331.91 566.45 327.62 C 564.68 325.83 564.90 322.91 565.75 320.74 C 568.52 316.95 573.86 318.22 577.74 316.46 C 582.96 315.09 587.00 311.09 589.05 306.17 C 593.84 296.16 594.61 284.47 591.98 273.76 C 590.21 267.16 585.16 261.55 578.69 259.30 C 566.89 254.26 552.20 255.97 542.30 264.28 C 535.88 269.81 530.02 276.74 528.04 285.17 C 525.79 294.75 532.74 305.98 543.00 306.50 C 551.73 307.28 557.21 296.84 554.80 289.28 C 554.05 286.51 551.18 285.35 549.12 283.75 C 551.78 284.79 555.02 285.74 556.18 288.68 C 559.42 296.46 555.91 307.43 547.57 310.30 C 539.15 311.83 529.68 308.26 525.07 300.88 C 521.80 295.62 519.96 289.14 521.28 282.98 C 522.86 273.42 528.66 265.12 535.45 258.46 Z" />
<path fill="#000000" d=" M 1432.19 312.16 C 1435.85 309.48 1440.89 308.09 1445.23 309.86 C 1448.81 312.02 1448.41 316.65 1447.70 320.19 C 1446.48 318.17 1445.39 316.06 1444.05 314.13 C 1438.30 315.74 1434.74 320.96 1431.75 325.75 C 1426.43 334.65 1421.85 344.01 1417.63 353.46 C 1416.25 364.90 1413.84 376.35 1414.38 387.93 C 1414.50 391.14 1415.47 395.24 1419.04 396.18 C 1423.25 397.05 1427.55 396.22 1431.81 396.16 C 1427.33 401.32 1420.44 405.35 1413.42 403.33 C 1406.24 401.05 1402.53 393.64 1400.49 386.91 C 1395.90 394.00 1390.50 400.57 1383.90 405.88 C 1376.54 411.68 1369.14 417.88 1360.12 420.89 C 1355.79 422.36 1350.85 423.27 1346.52 421.34 C 1343.24 419.85 1341.41 416.34 1340.76 412.96 C 1340.43 409.37 1343.63 407.02 1345.99 404.88 C 1345.64 407.60 1343.19 410.86 1345.81 413.13 C 1346.98 414.95 1349.37 415.19 1351.22 414.32 C 1357.15 411.65 1362.14 407.23 1366.25 402.25 C 1372.38 395.02 1379.26 388.32 1384.12 380.11 C 1389.52 371.35 1395.24 362.76 1400.34 353.81 C 1401.87 345.77 1401.68 337.40 1400.46 329.32 C 1394.29 328.42 1389.25 332.73 1383.79 334.77 C 1385.66 328.57 1389.25 322.45 1395.12 319.31 C 1400.89 316.12 1408.93 317.80 1412.71 323.29 C 1414.35 324.89 1414.41 328.04 1416.67 328.86 C 1421.25 322.81 1425.95 316.62 1432.19 312.16 Z" />
<path fill="#000000" d=" M 828.38 323.06 C 828.61 319.24 831.05 315.27 835.02 314.56 C 839.89 313.44 844.93 317.98 844.37 322.93 C 843.59 333.54 840.61 343.94 840.57 354.62 C 844.87 353.36 849.43 351.86 853.93 353.11 C 860.89 355.05 867.41 359.82 870.15 366.68 C 872.48 372.64 871.39 379.34 869.06 385.11 C 866.01 392.42 860.84 399.13 853.85 403.01 C 847.83 405.48 841.03 406.44 834.61 405.17 C 830.85 404.39 827.76 401.67 826.55 398.02 C 831.87 403.34 840.18 402.15 846.55 399.60 C 851.13 397.91 854.47 394.03 856.91 389.93 C 859.78 384.99 861.62 379.12 860.49 373.38 C 859.31 369.14 855.10 366.22 850.93 365.59 C 845.65 367.07 840.60 370.15 834.91 369.17 C 830.60 380.89 825.35 393.44 814.51 400.57 C 808.86 404.05 800.82 406.12 794.99 401.97 C 789.45 397.52 791.20 388.41 796.57 384.54 C 796.40 387.90 796.41 391.34 797.88 394.46 C 802.79 394.99 807.48 392.26 810.51 388.54 C 814.50 383.68 816.89 377.75 818.90 371.85 C 823.95 356.01 826.00 339.45 828.38 323.06 Z" />
<path fill="#000000" d=" M 1242.81 321.96 C 1243.16 317.88 1246.73 314.12 1250.99 314.45 C 1254.37 314.35 1257.23 316.99 1258.35 320.02 C 1259.07 324.67 1257.76 329.29 1257.16 333.87 C 1256.20 340.76 1254.82 347.62 1254.74 354.60 C 1258.72 353.50 1262.83 352.10 1267.04 352.84 C 1275.58 354.73 1283.62 361.17 1285.37 370.05 C 1286.59 377.69 1283.87 385.41 1279.79 391.79 C 1275.81 397.74 1270.23 403.37 1262.91 404.69 C 1256.92 405.99 1250.06 406.70 1244.60 403.35 C 1242.35 402.03 1241.51 399.42 1240.57 397.17 C 1242.45 399.02 1244.33 401.37 1247.20 401.52 C 1254.96 402.41 1263.74 400.05 1268.61 393.58 C 1272.36 388.85 1274.80 383.00 1275.21 376.95 C 1275.32 372.50 1272.60 368.27 1268.45 366.62 C 1265.29 364.31 1261.83 366.90 1258.70 367.84 C 1255.64 369.15 1252.33 369.47 1249.05 369.21 C 1245.49 379.34 1241.09 389.65 1233.12 397.13 C 1228.42 401.69 1221.93 404.56 1215.32 404.23 C 1211.77 403.89 1207.90 402.11 1206.66 398.52 C 1204.38 393.61 1206.78 387.87 1210.64 384.51 C 1210.53 388.09 1210.44 391.89 1212.80 394.86 C 1217.64 394.33 1222.19 392.02 1225.11 388.06 C 1231.37 379.90 1233.99 369.69 1236.38 359.86 C 1239.42 347.39 1240.76 334.61 1242.81 321.96 Z" />
<path fill="#000000" d=" M 1484.16 321.21 C 1485.62 315.64 1493.84 314.28 1497.22 318.78 C 1499.52 321.37 1498.96 325.17 1498.04 328.22 C 1494.56 339.48 1491.68 350.92 1488.22 362.20 C 1480.81 385.06 1473.52 407.97 1465.70 430.70 C 1459.57 449.07 1452.90 468.04 1439.59 482.57 C 1429.83 493.33 1415.87 501.64 1400.93 500.76 C 1388.29 500.26 1376.72 492.03 1370.99 480.92 C 1363.72 468.05 1363.12 451.45 1370.44 438.47 C 1375.17 430.19 1383.47 424.09 1392.75 421.95 C 1402.10 420.02 1412.63 422.68 1419.16 429.86 C 1422.76 433.53 1424.59 438.80 1424.15 443.92 C 1423.28 452.79 1416.78 460.56 1408.67 463.93 C 1402.34 466.67 1394.77 464.75 1389.75 460.26 C 1393.27 461.92 1397.02 463.60 1401.02 463.19 C 1408.58 462.45 1414.94 456.53 1417.48 449.55 C 1419.11 445.22 1418.80 439.89 1415.72 436.27 C 1411.89 431.72 1405.74 429.75 1399.95 429.87 C 1391.08 430.48 1383.01 436.58 1379.63 444.74 C 1376.15 453.16 1376.35 463.16 1380.65 471.26 C 1383.96 478.09 1389.86 484.09 1397.49 485.73 C 1402.15 487.06 1407.08 485.97 1411.53 484.37 C 1419.40 481.34 1425.70 475.30 1430.66 468.62 C 1437.29 459.57 1441.89 449.21 1445.59 438.66 C 1449.69 426.46 1453.62 414.20 1457.85 402.05 C 1452.68 402.93 1446.98 403.60 1442.29 400.73 C 1436.18 397.93 1432.39 391.58 1431.71 385.04 C 1430.18 373.09 1434.53 361.61 1436.83 350.07 C 1438.38 342.13 1441.51 334.26 1440.40 326.03 C 1439.09 326.46 1438.03 327.19 1437.20 328.24 C 1433.59 332.44 1431.02 337.37 1428.03 342.00 C 1430.47 335.58 1432.69 328.58 1437.70 323.65 C 1440.24 321.07 1443.44 323.98 1444.03 326.75 C 1445.71 333.69 1444.48 340.88 1443.58 347.84 C 1442.17 359.10 1439.68 370.36 1440.64 381.76 C 1441.00 384.92 1442.16 388.22 1444.78 390.20 C 1448.13 392.89 1453.29 392.23 1456.29 389.30 C 1461.38 384.74 1464.63 378.53 1467.47 372.40 C 1474.27 355.76 1478.63 338.28 1484.16 321.21 Z" />
<path fill="#000000" d=" M 650.48 323.27 C 654.05 321.02 659.00 324.00 659.53 327.95 C 660.02 331.93 658.65 335.78 658.11 339.67 C 656.43 350.48 654.76 361.30 652.97 372.09 C 652.56 376.27 652.05 380.68 653.36 384.76 C 654.23 387.74 658.12 389.95 660.87 387.91 C 667.20 383.23 670.54 375.82 674.16 369.07 C 680.60 357.40 684.28 344.48 687.74 331.68 C 688.37 328.57 690.41 324.95 694.07 325.16 C 698.26 324.58 701.51 329.08 700.47 332.98 C 697.10 350.94 691.03 368.63 691.31 387.10 C 691.27 390.67 693.07 394.80 697.03 395.34 C 702.16 395.52 706.84 392.78 711.13 390.26 C 707.01 381.86 706.19 372.02 708.95 363.08 C 712.88 348.89 723.60 337.32 736.35 330.36 C 746.35 324.84 758.56 322.93 769.59 326.29 C 776.65 328.33 782.64 333.26 786.65 339.34 C 792.70 348.94 792.90 361.43 788.73 371.80 C 779.97 393.39 772.37 415.42 764.28 437.27 C 758.47 453.97 751.54 471.07 738.62 483.63 C 729.86 492.52 717.66 498.65 704.95 497.86 C 693.88 497.97 684.06 490.63 678.54 481.45 C 673.02 472.15 670.38 460.91 672.14 450.18 C 674.42 436.90 685.53 425.50 698.96 423.56 C 706.48 422.91 714.40 424.92 720.36 429.64 C 725.87 434.42 728.92 442.70 725.98 449.68 C 723.13 456.49 717.30 462.37 710.01 464.20 C 704.25 465.49 697.94 463.55 693.93 459.20 C 696.72 460.82 699.63 462.62 702.99 462.58 C 709.94 463.23 716.29 458.47 719.37 452.50 C 721.56 448.66 722.64 443.69 720.35 439.65 C 717.97 434.62 712.33 432.14 707.06 431.60 C 700.53 430.83 694.00 433.90 689.57 438.57 C 685.62 443.13 683.21 448.99 682.61 454.98 C 682.19 462.85 685.43 470.62 690.27 476.72 C 695.02 482.82 703.41 485.72 710.92 483.82 C 721.03 481.59 729.03 474.01 734.60 465.61 C 742.46 454.28 746.46 440.98 751.13 428.17 C 754.86 416.98 759.27 406.03 763.15 394.90 C 756.02 399.15 748.47 403.19 740.06 403.97 C 729.26 405.21 717.86 400.26 711.77 391.17 C 707.84 394.23 703.92 397.72 698.92 398.82 C 695.17 400.01 690.87 398.62 688.42 395.58 C 685.29 391.88 684.65 386.88 683.98 382.25 C 679.90 389.65 675.02 397.19 667.45 401.42 C 660.90 405.19 652.20 404.35 646.30 399.70 C 642.94 397.40 641.06 393.71 639.03 390.33 C 635.34 396.28 632.42 404.23 625.00 406.33 C 620.39 405.97 619.18 400.62 620.00 396.85 C 620.42 398.75 620.27 400.91 621.66 402.47 C 622.62 404.22 625.28 404.31 626.53 402.83 C 630.02 399.39 631.53 394.56 633.11 390.05 C 635.53 382.48 637.87 374.83 639.04 366.95 C 641.47 354.18 644.30 341.49 646.96 328.76 C 647.41 326.59 648.25 324.19 650.48 323.27 Z" />
<path fill="#000000" d=" M 1072.34 324.27 C 1076.49 322.76 1081.89 323.57 1084.31 327.61 C 1086.78 331.54 1084.63 336.14 1084.00 340.27 C 1090.83 333.58 1098.88 327.85 1108.25 325.38 C 1120.08 321.85 1134.15 324.01 1143.18 332.82 C 1147.27 336.64 1148.66 342.83 1146.99 348.13 C 1144.13 357.70 1134.75 364.29 1125.03 365.23 C 1118.07 365.66 1111.22 362.47 1106.85 357.09 C 1110.42 358.67 1113.96 360.77 1118.00 360.78 C 1126.21 361.44 1134.46 356.08 1137.34 348.40 C 1138.04 345.94 1138.31 342.63 1135.99 340.94 C 1130.68 337.04 1123.56 336.03 1117.22 337.51 C 1104.03 340.34 1092.68 349.95 1087.05 362.11 C 1083.92 369.21 1083.09 378.37 1088.30 384.71 C 1092.93 390.62 1100.96 392.11 1108.07 391.75 C 1121.28 391.08 1132.85 383.12 1141.56 373.65 C 1137.06 385.75 1126.74 395.14 1114.90 399.91 C 1105.82 403.65 1095.16 403.91 1086.16 399.82 C 1078.65 396.44 1072.83 389.49 1070.87 381.49 C 1068.32 369.09 1072.17 356.16 1079.45 346.03 C 1078.56 341.43 1079.05 336.72 1078.31 332.10 C 1072.71 334.13 1069.23 339.32 1066.02 344.02 C 1061.53 351.68 1058.69 360.17 1055.56 368.44 C 1051.91 378.59 1047.87 388.59 1043.50 398.45 C 1042.49 401.07 1039.83 402.94 1036.99 402.75 C 1032.54 402.91 1029.16 397.84 1030.72 393.72 C 1036.61 375.48 1043.52 357.48 1052.57 340.56 C 1058.37 334.34 1063.87 326.92 1072.34 324.27 Z" />
<path fill="#000000" d=" M 1315.16 330.12 C 1326.18 323.70 1340.20 321.48 1352.14 326.68 C 1357.52 329.16 1363.10 332.82 1365.10 338.69 C 1366.31 342.95 1365.89 347.71 1363.74 351.61 C 1360.03 359.20 1352.04 364.10 1343.81 365.18 C 1336.64 365.86 1329.43 362.59 1324.94 357.01 C 1328.45 358.63 1331.95 360.68 1335.93 360.77 C 1343.90 361.52 1351.82 356.56 1355.15 349.40 C 1356.07 346.69 1356.69 342.77 1354.02 340.83 C 1350.30 338.06 1345.56 336.96 1341.00 336.82 C 1330.42 337.29 1320.43 342.62 1313.30 350.30 C 1307.45 356.42 1302.95 364.36 1302.72 372.99 C 1302.41 378.81 1305.19 384.68 1310.00 388.00 C 1315.50 391.81 1322.56 392.14 1329.01 391.54 C 1341.14 389.87 1351.56 382.49 1359.71 373.70 C 1356.77 381.64 1351.27 388.50 1344.47 393.49 C 1336.60 399.36 1326.86 403.29 1316.92 402.73 C 1307.55 402.51 1298.03 398.06 1292.86 390.06 C 1287.28 382.07 1287.35 371.56 1289.73 362.46 C 1293.50 348.90 1303.10 337.22 1315.16 330.12 Z" />
<path fill="#000000" d=" M 968.07 326.91 C 972.57 325.42 977.35 325.33 982.00 324.57 C 991.03 324.30 1000.27 327.89 1006.47 334.52 C 1014.05 342.95 1015.62 355.60 1012.07 366.13 C 1009.82 373.94 1006.17 381.68 1006.85 390.00 C 1007.90 396.06 1016.67 396.26 1020.05 392.06 C 1023.76 388.86 1023.87 383.62 1021.65 379.54 C 1023.65 381.93 1025.90 384.65 1025.44 388.01 C 1024.79 393.49 1021.15 398.87 1015.77 400.65 C 1010.04 402.56 1002.91 400.60 999.66 395.33 C 997.65 392.02 997.39 388.09 997.00 384.35 C 991.70 390.12 985.77 395.49 978.49 398.62 C 970.16 402.35 960.44 404.08 951.61 401.12 C 942.58 398.11 935.21 390.31 933.23 380.93 C 930.25 368.17 934.92 354.82 942.71 344.70 C 949.21 336.51 958.11 330.15 968.07 326.91 Z" />
<path fill="#ffffff" d=" M 748.40 339.69 C 754.79 338.04 761.97 337.96 767.96 341.05 C 773.42 343.81 776.92 349.90 776.60 356.01 C 776.61 364.08 772.32 371.18 769.66 378.57 C 768.10 382.05 767.24 385.89 765.16 389.12 C 756.51 395.19 745.67 398.51 735.06 397.63 C 728.10 397.04 721.51 392.63 718.64 386.21 C 716.59 381.45 716.10 376.02 717.50 371.02 C 721.01 355.90 733.76 344.01 748.40 339.69 Z" />
<path fill="#ffffff" d=" M 976.33 340.10 C 981.86 338.81 988.05 338.92 993.02 341.97 C 997.60 344.56 1000.42 349.72 1000.71 354.91 C 1001.28 361.67 999.01 368.17 997.92 374.75 C 997.29 377.03 997.48 379.88 995.45 381.47 C 988.36 387.75 979.42 391.95 970.03 393.29 C 963.31 394.05 955.91 392.89 950.65 388.36 C 946.35 384.58 944.75 378.53 945.57 372.98 C 947.90 357.11 960.87 343.79 976.33 340.10 Z" />
<path fill="#000000" d=" M 1514.49 385.48 C 1516.09 384.91 1518.31 385.03 1519.19 386.75 C 1521.52 391.34 1519.59 396.79 1516.49 400.50 C 1515.12 402.31 1511.86 402.31 1510.74 400.26 C 1508.98 397.98 1509.42 394.87 1510.12 392.29 C 1510.90 389.73 1511.98 386.81 1514.49 385.48 Z" />
</svg>
