<?xml version="1.0" encoding="UTF-8" standalone="no"?>
<!-- Created with Inkscape (http://www.inkscape.org/) -->

<svg
   xmlns:dc="http://purl.org/dc/elements/1.1/"
   xmlns:cc="http://creativecommons.org/ns#"
   xmlns:rdf="http://www.w3.org/1999/02/22-rdf-syntax-ns#"
   xmlns:svg="http://www.w3.org/2000/svg"
   xmlns="http://www.w3.org/2000/svg"
   xmlns:sodipodi="http://sodipodi.sourceforge.net/DTD/sodipodi-0.dtd"
   xmlns:inkscape="http://www.inkscape.org/namespaces/inkscape"
   width="210mm"
   height="297mm"
   id="svg2"
   version="1.1"
   inkscape:version="0.48.4 r9939"
   sodipodi:docname="so-many.svgz">
  <defs
     id="defs4" />
  <sodipodi:namedview
     id="base"
     pagecolor="#ffffff"
     bordercolor="#666666"
     borderopacity="1.0"
     inkscape:pageopacity="0.0"
     inkscape:pageshadow="2"
     inkscape:zoom="1.0025217"
     inkscape:cx="288.44539"
     inkscape:cy="493.96251"
     inkscape:document-units="px"
     inkscape:current-layer="layer1"
     showgrid="false"
     inkscape:window-width="1342"
     inkscape:window-height="744"
     inkscape:window-x="10"
     inkscape:window-y="10"
     inkscape:window-maximized="0" />
  <metadata
     id="metadata7">
    <rdf:RDF>
      <cc:Work
         rdf:about="">
        <dc:format>image/svg+xml</dc:format>
        <dc:type
           rdf:resource="http://purl.org/dc/dcmitype/StillImage" />
        <dc:title></dc:title>
      </cc:Work>
    </rdf:RDF>
  </metadata>
  <g
     inkscape:label="1. réteg"
     inkscape:groupmode="layer"
     id="layer1">
    <g
       style="font-size:100.64992523000000801px;font-style:normal;font-variant:normal;font-weight:normal;font-stretch:normal;text-align:center;line-height:125%;letter-spacing:0px;word-spacing:0px;text-anchor:middle;opacity:1;fill:#000000;fill-opacity:1;stroke:none;font-family:Delicious Curls Bold;-inkscape-font-specification:Delicious Curls Bold"
       id="text3082"
       transform="matrix(0.64995404,0,0,0.64995404,151.56209,181.50274)">
      <path
         d="m 218.14303,473.82983 c -0.55701,-0.62247 -1.26143,-0.83543 -2.11326,-0.63889 -0.68806,0.0983 -1.32695,0.42597 -1.91667,0.98291 -0.98293,0.88466 -1.53991,2.16244 -1.67095,3.83334 -0.0983,1.5727 0.26209,2.75219 1.0812,3.53848 0.65525,0.65531 1.63816,0.86827 2.94873,0.63889 2.91594,-0.42589 5.06195,-1.72005 6.43806,-3.88249 1.4088,-2.19513 1.75282,-4.4722 1.03205,-6.83122 -0.32767,-1.04839 -0.81912,-1.86748 -1.47436,-2.45728 -0.65531,-0.4914 -1.39249,-0.75351 -2.21155,-0.78632 -1.76926,-0.16377 -3.94804,0.60617 -6.53635,2.30983 0.0655,-0.0327 -0.22936,0.16387 -0.88462,0.58975 l -0.4423,0.29487 -0.24573,0.24573 c -0.45871,0.36044 -0.90102,0.78637 -1.32693,1.27778 -0.78634,0.88466 -1.58905,1.96586 -2.40813,3.2436 -1.60543,2.49008 -2.78492,5.04564 -3.53847,7.6667 -1.96583,6.4217 -2.42452,11.97513 -1.37608,16.66031 0.58974,2.42453 1.58903,4.14461 2.99788,5.16028 1.40882,1.08121 3.48931,1.63819 6.24147,1.67094 5.76638,0.0328 10.89389,-1.60541 15.38254,-4.91455 4.48858,-3.24358 7.94514,-7.73219 10.36969,-13.46586 l 0.19658,-0.4423 c 0.0327,-0.13103 0.0982,-0.2457 0.19658,-0.34402 0.29483,-0.39314 0.65523,-0.99926 1.0812,-1.81839 0.36036,-0.65524 0.70438,-1.34327 1.03206,-2.0641 0.65522,-1.57263 1.17944,-3.06337 1.57265,-4.47224 0.91734,-3.2108 1.37603,-6.37249 1.37608,-9.48508 0.131,-6.22504 -1.42527,-12.69585 -4.66882,-19.41246 l 0.0491,0.0491 c -1.50717,-2.29339 -2.50646,-3.91519 -2.99787,-4.86541 0.98286,1.08127 2.29341,2.44096 3.93164,4.07908 l 0.0491,0.0983 c 2.29341,2.8505 4.1937,5.88114 5.70088,9.09191 1.50707,3.40748 2.53912,6.92956 3.09616,10.56628 0.52416,3.83339 0.4914,7.58482 -0.0983,11.25431 -0.32769,2.03138 -0.75362,3.89891 -1.27778,5.60258 -0.32769,0.91742 -0.67171,1.81842 -1.03206,2.70301 -0.45874,1.17951 -0.90105,2.12966 -1.32692,2.85043 l 0.39316,-0.78633 c -2.29351,7.40461 -6.27429,13.46588 -11.94235,18.18383 -2.916,2.42451 -6.19236,4.30842 -9.82909,5.65173 -1.73651,0.65527 -3.57127,1.14673 -5.5043,1.47436 -1.80202,0.32764 -3.70231,0.52422 -5.70087,0.58975 -4.84904,0.13105 -8.96087,-1.03206 -12.33551,-3.48933 -1.9003,-1.3433 -3.45657,-3.06339 -4.66882,-5.16027 -1.01568,-1.73647 -1.78562,-3.75143 -2.30984,-6.0449 -0.75357,-3.47293 -0.88462,-7.28989 -0.39317,-11.45089 0.42593,-3.60397 1.22864,-7.12606 2.40813,-10.56628 1.21225,-3.44014 2.93234,-6.73288 5.16028,-9.87824 1.14672,-1.60537 2.39173,-3.04697 3.73505,-4.3248 0.78632,-0.75351 1.57265,-1.40878 2.35899,-1.96582 l 0.73718,-0.5406 0.58974,-0.34402 c 0.81908,-0.4914 1.22862,-0.73712 1.22864,-0.73718 1.86751,-0.98285 3.68589,-1.72003 5.45515,-2.21155 2.35896,-0.62245 4.5705,-0.7535 6.63464,-0.39316 2.55553,0.42598 4.68516,1.58909 6.38891,3.48933 1.57262,1.76929 2.53914,3.8334 2.89958,6.19233 0.688,4.48866 -0.42596,8.38753 -3.34189,11.69662 -1.40887,1.60545 -3.06343,2.76856 -4.96369,3.48933 -1.70374,0.72083 -3.58765,1.06485 -5.65173,1.03205 -1.17952,4e-5 -2.22795,-0.19655 -3.14531,-0.58974 -1.14675,-0.49142 -2.03137,-1.22861 -2.65386,-2.21155 -1.04845,-1.67091 -1.2778,-3.62034 -0.68804,-5.84831 0.6225,-2.12959 1.68731,-3.60396 3.19446,-4.42309 0.8846,-0.49141 1.75283,-0.70437 2.60471,-0.63889 1.01565,4e-5 1.72007,0.42597 2.11326,1.27778 m 46.29503,-28.70096 c 0.55691,0.62259 1.26133,0.83555 2.11325,0.6389 0.68797,-0.0982 1.34324,-0.42586 1.96582,-0.98291 0.95007,-0.88455 1.49067,-2.16233 1.6218,-3.83335 0.13098,-1.57258 -0.21304,-2.75207 -1.03205,-3.53847 -0.65535,-0.6552 -1.63826,-0.88454 -2.94873,-0.68804 -2.91603,0.45877 -5.07843,1.76931 -6.4872,3.93164 -1.4089,2.19524 -1.75292,4.47231 -1.03206,6.83122 0.32757,1.0485 0.83541,1.86759 1.52351,2.45727 0.62244,0.49152 1.35963,0.75363 2.21155,0.78633 1.76917,0.16388 3.94795,-0.60606 6.53635,-2.30984 -0.1639,0.0984 0.13098,-0.0982 0.88462,-0.58974 l 0.39316,-0.29488 0.24573,-0.24572 c 0.45861,-0.36033 0.90092,-0.78626 1.32692,-1.27779 0.81902,-0.88454 1.63811,-1.96574 2.45728,-3.2436 1.60533,-2.52272 2.78482,-5.07828 3.53847,-7.66669 1.93297,-6.42159 2.37528,-11.97502 1.32693,-16.66032 -0.55707,-2.4244 -1.55636,-4.16088 -2.99787,-5.20942 -1.37616,-1.04833 -3.44027,-1.58893 -6.19233,-1.6218 -5.79924,-0.0326 -10.92675,1.60553 -15.38254,4.91455 -4.48867,3.27646 -7.94523,7.76508 -10.36969,13.46586 l -0.19658,0.44231 c -0.0328,0.13114 -0.0983,0.26219 -0.19658,0.39316 -0.36045,0.45878 -0.77,1.14682 -1.22864,2.06411 -0.42598,0.78641 -0.80276,1.58912 -1.13035,2.40813 -0.72084,1.76932 -1.29421,3.50579 -1.72009,5.20942 -0.8519,3.50578 -1.16315,7.19169 -0.93376,11.05773 0.19653,3.40748 1.01562,7.14254 2.45727,11.20517 0.5897,1.70376 1.35964,3.50576 2.30984,5.406 1.67089,2.94878 2.6538,4.70163 2.94873,5.25857 l -4.02993,-4.52139 c -1.08125,-1.27773 -2.27712,-2.96506 -3.58762,-5.06198 -2.12968,-3.47289 -3.70234,-7.339 -4.71797,-11.59833 -1.01571,-4.16092 -1.27782,-8.43657 -0.78632,-12.82697 0.26206,-2.26061 0.68799,-4.40663 1.27778,-6.43806 0.32759,-1.08111 0.68799,-2.12955 1.0812,-3.14531 0.55694,-1.31045 1.06477,-2.39165 1.52351,-3.2436 l -0.39317,0.78633 c 2.32618,-7.43725 6.30696,-13.49852 11.94235,-18.18382 2.94867,-2.45717 6.22503,-4.34108 9.8291,-5.65173 1.7364,-0.65516 3.58755,-1.14662 5.55344,-1.47437 1.80192,-0.36028 3.68583,-0.55686 5.65173,-0.58974 4.8817,-0.13094 9.00991,1.03217 12.38465,3.48932 1.9002,1.34343 3.45648,3.06351 4.66882,5.16028 1.01558,1.76934 1.76915,3.7843 2.2607,6.04489 0.75346,3.50581 0.9009,7.32277 0.44231,11.4509 -0.45879,3.60408 -1.27788,7.12617 -2.45728,10.56627 -1.17958,3.44026 -2.88329,6.73301 -5.11113,9.87824 -1.17958,1.60549 -2.44098,3.04709 -3.7842,4.3248 -0.75365,0.75363 -1.53997,1.4089 -2.35898,1.96582 l -0.68804,0.49146 -0.63889,0.39316 c -0.78641,0.45875 -1.19595,0.6881 -1.22864,0.68804 -1.8676,1.01573 -3.68598,1.75291 -5.45514,2.21154 -2.35906,0.65534 -4.55422,0.80277 -6.5855,0.44231 -2.58839,-0.42586 -4.73441,-1.60535 -6.43805,-3.53847 -1.53996,-1.73641 -2.4901,-3.78414 -2.85044,-6.14318 -0.72086,-4.48855 0.3931,-8.4038 3.34189,-11.74577 1.37601,-1.57258 3.01419,-2.7193 4.91455,-3.44018 1.7364,-0.72072 3.63669,-1.06474 5.70087,-1.03206 1.17942,9e-5 2.22786,0.19667 3.14531,0.58975 1.11389,0.49153 1.98213,1.22872 2.60471,2.21154 1.04836,1.67103 1.27771,3.62046 0.68804,5.84831 -0.62259,2.12971 -1.67102,3.60408 -3.14531,4.4231 -0.88469,0.49152 -1.75293,0.70449 -2.60471,0.63889 -1.01575,7e-5 -1.73655,-0.42586 -2.1624,-1.27779"
         id="path3116"
         inkscape:connector-curvature="0"
         style="fill:#000000" />
      <path
         d="m 299.62622,467.53921 c 2.09682,0.78638 3.35822,2.35903 3.7842,4.71796 0.36035,1.99863 0.0819,4.14465 -0.83547,6.43806 -0.91743,2.26073 -2.27712,4.04635 -4.07908,5.35686 -1.90033,1.34334 -3.9972,2.22796 -6.29062,2.65385 -3.01429,0.52425 -5.55347,0.0164 -7.61755,-1.52351 -1.21228,-0.91735 -2.0969,-2.1296 -2.65385,-3.63676 -0.22938,-0.62247 -0.39319,-1.27775 -0.49146,-1.96582 -0.0983,-0.688 -0.13108,-1.44156 -0.0983,-2.26069 0.26208,-2.68658 1.42519,-5.07832 3.48933,-7.17524 2.09684,-2.16235 4.53773,-3.40737 7.32268,-3.73506 1.70367,-0.16376 3.2927,0.0656 4.76711,0.68804 0.29483,0.0983 0.90095,0.42598 1.81838,0.98291 0.52417,0.32769 1.03201,0.6717 1.52351,1.03205 1.99853,1.47442 3.66948,3.26003 5.01284,5.35686 2.71933,4.19379 3.71862,8.96089 2.99787,14.30133 -1.37613,9.01003 -6.24152,16.49651 -14.59621,22.45948 -3.93167,2.75215 -8.07627,4.61968 -12.4338,5.60259 -5.20944,1.0812 -9.97655,0.80271 -14.30133,-0.83548 -2.39176,-0.85185 -4.53777,-2.19516 -6.43806,-4.02992 -1.96582,-1.86753 -3.40742,-3.98078 -4.3248,-6.33977 -1.83476,-4.35755 -2.01496,-9.09189 -0.5406,-14.20304 2.42451,-8.45299 7.87965,-14.98933 16.36544,-19.60904 4.09544,-2.12959 8.10898,-3.32547 12.04064,-3.58762 4.71793,-0.26206 8.66595,0.6717 11.84406,2.80129 -3.47298,-1.17945 -7.27356,-1.24497 -11.40175,-0.19658 -3.66955,0.98295 -7.01144,2.62113 -10.02567,4.91454 -6.42169,4.71801 -10.30418,10.53355 -11.64748,17.44665 -0.62252,3.4402 -0.31126,6.47083 0.93376,9.09191 1.24501,2.6211 3.3255,4.39034 6.24148,5.30771 2.81765,0.88463 5.88105,0.91739 9.1902,0.0983 3.14528,-0.72079 6.17592,-2.11324 9.09191,-4.17737 2.8504,-1.9658 5.25853,-4.35754 7.22439,-7.17523 2.0313,-2.88318 3.34185,-5.86467 3.93164,-8.94448 0.62246,-3.2108 0.2293,-6.07762 -1.1795,-8.60046 -0.68808,-1.21221 -1.6546,-2.37532 -2.89958,-3.48933 -0.32768,-0.29483 -0.62255,-0.54055 -0.88462,-0.73718 -0.49149,-0.36036 -0.72084,-0.52417 -0.68803,-0.49145 -0.26215,-0.19654 -0.62255,-0.31121 -1.0812,-0.34402 -1.04848,-0.0327 -2.1133,0.40959 -3.19446,1.32693 -1.04847,0.85189 -1.72012,1.88395 -2.01496,3.09616 -0.0328,0.0656 -0.0656,0.19662 -0.0983,0.39317 -0.0328,0.19662 -0.0492,0.29491 -0.0491,0.29487 -3e-5,0.36044 0.0327,0.67169 0.0983,0.93376 0.0983,0.52426 0.29484,0.95018 0.58975,1.27778 0.65523,0.7536 1.88387,1.114 3.68591,1.0812 1.6709,-0.0327 3.27632,-0.42589 4.81625,-1.17949 1.31051,-0.62247 2.55552,-1.78558 3.73506,-3.48933 1.11392,-1.6709 1.68728,-3.35823 1.72009,-5.06198 0.13101,-1.96577 -0.65532,-3.58757 -2.35898,-4.8654"
         id="path3118"
         inkscape:connector-curvature="0"
         style="fill:#000000" />
      <path
         d="m 342.67765,473.87898 c 1.90029,-2.19512 3.83334,-3.99712 5.79916,-5.40601 1.24502,-0.88457 2.45727,-1.53984 3.63677,-1.96582 1.60541,-0.58969 3.09615,-0.72074 4.47224,-0.39316 0.0327,5e-5 0.39315,0.0983 1.0812,0.29487 0.65526,0.32769 1.04842,0.54065 1.17949,0.63889 0.65526,0.42598 1.245,0.99935 1.76923,1.7201 0.78632,0.98295 1.42521,2.34264 1.91668,4.07907 0.45867,1.73652 0.83545,4.4559 1.13034,8.15815 0.26209,4.12825 0.18019,9.46872 -0.24572,16.02142 -0.22937,2.7194 -0.68806,7.92882 -1.37608,15.62826 l -7.32267,-1.13034 c 1.83475,-12.05701 3.88248,-20.87042 6.14318,-26.44027 l 2.60471,-6.19233 c 1.08118,-2.45723 2.12962,-4.57048 3.14531,-6.33976 1.47434,-2.55552 2.99785,-4.65239 4.57053,-6.29062 2.55554,-2.62104 5.34044,-4.17731 8.35473,-4.66882 1.7692,-0.26206 3.53844,-0.14738 5.30771,0.34402 1.70367,0.42598 3.24356,1.1304 4.61968,2.11325 2.68657,1.90034 4.50495,4.61972 5.45514,8.15815 0.98286,3.66957 1.11392,8.71517 0.39317,15.1368 l -1.86753,12.97441 -0.83547,6.4872 c -0.45874,3.27637 -0.81914,5.58621 -1.0812,6.92951 -0.26216,1.37608 -0.98296,2.45728 -2.16241,3.2436 -1.17953,0.78633 -2.45731,1.03206 -3.83334,0.73719 -1.37611,-0.26211 -2.45731,-0.96653 -3.2436,-2.11326 -0.7536,-1.17949 -0.99933,-2.45727 -0.73718,-3.83335 1.53985,-7.99431 2.3917,-12.38464 2.55556,-13.17098 1.08116,-5.04558 2.55552,-9.56696 4.42309,-13.56415 l 2.89958,-6.09404 c 1.17945,-2.45723 2.27703,-4.55411 3.29275,-6.29062 1.37602,-2.32617 2.89953,-4.35752 4.57053,-6.09404 2.42445,-2.45722 4.9964,-3.99711 7.71584,-4.61967 1.63812,-0.36035 3.30906,-0.34397 5.01284,0.0491 0.68797,0.19664 1.11389,0.31131 1.27778,0.34402 l 0.78633,0.29487 c 0.85178,0.36046 1.60535,0.75362 2.26069,1.17949 2.62102,1.671 4.37387,4.14465 5.25856,7.42097 0.91731,3.53852 0.86816,8.43668 -0.14743,14.6945 l -2.50642,13.07269 c -0.88469,4.55416 -1.327,6.76571 -1.32693,6.63464 -0.75363,3.21085 -1.17956,5.30772 -1.27778,6.29062 l -0.0491,0.19658 c -0.39323,2.19517 -0.60619,4.40671 -0.63889,6.63464 -7e-5,2.68662 0.32757,4.81625 0.98291,6.38891 0.42586,1.08119 1.03198,1.86752 1.81838,2.35898 0.78626,0.52421 1.78555,0.72079 2.99788,0.58975 1.73639,-0.19659 3.84965,-1.01568 6.33976,-2.45727 -2.3263,1.76922 -4.3904,2.8668 -6.19233,3.29274 -1.40891,0.32763 -2.65392,0.21296 -3.73505,-0.34402 -1.08127,-0.49146 -1.98227,-1.39246 -2.703,-2.703 -0.91745,-1.73648 -1.52358,-4.07907 -1.81839,-7.0278 -0.19664,-2.39174 -0.19664,-4.79987 0,-7.22438 l 0,0.19658 c -0.0328,-1.04843 0.14737,-3.34188 0.54061,-6.88037 -0.0328,0.16383 0.13098,-2.01495 0.49145,-6.53634 0.2948,-4.4886 0.67159,-8.91169 1.13035,-13.26928 0.45862,-5.24215 0.19651,-9.1574 -0.78633,-11.74577 -0.55705,-1.47432 -1.35976,-2.50637 -2.40813,-3.09616 -0.0328,4e-5 -0.27856,-0.0983 -0.73718,-0.29488 l -0.78633,-0.24572 c 0.0327,4e-5 -0.0656,-0.0163 -0.29487,-0.0491 -0.55705,-0.0655 -1.09765,-0.0163 -1.6218,0.14744 -1.99865,0.4915 -4.12828,2.91601 -6.38891,7.27353 -0.85191,1.50716 -1.75291,3.37469 -2.70301,5.60258 l -2.55556,6.04489 c -1.44165,3.47297 -2.55561,7.42099 -3.34189,11.84406 -0.2294,1.2778 -0.99934,5.6026 -2.30984,12.97441 l -10.02567,-1.96582 c 0.2293,-1.14672 0.5078,-3.17807 0.83547,-6.09404 l 0.78633,-6.53635 0.83547,-6.58549 0.98291,-6.4872 c 0.72076,-4.91451 0.75352,-8.56766 0.0983,-10.95944 -0.36044,-1.27774 -0.88466,-2.16236 -1.57266,-2.65386 -0.3932,-0.26206 -0.81912,-0.47503 -1.27778,-0.63889 -0.42596,-0.13101 -0.81913,-0.16377 -1.17949,-0.0983 -0.88465,0.0983 -1.86756,0.65532 -2.94873,1.67094 -1.04847,1.01572 -2.14605,2.42456 -3.29274,4.22651 -0.91741,1.47441 -1.88394,3.24364 -2.89959,5.30772 l -2.75214,5.79916 c -2.52283,5.7009 -4.89819,13.80989 -7.1261,24.32701 l -0.0491,0.19658 c -0.22936,1.01568 -0.76996,1.802 -1.6218,2.35898 -0.85187,0.55699 -1.78563,0.72081 -2.80129,0.49146 -0.95016,-0.19658 -1.70372,-0.70442 -2.2607,-1.52351 -0.55699,-0.78632 -0.76995,-1.67094 -0.63889,-2.65386 0.29487,-1.96581 0.73717,-4.57051 1.32693,-7.81413 0.68803,-3.7678 1.14672,-6.32336 1.37607,-7.66669 0.95014,-5.96296 1.55626,-11.04132 1.81839,-15.2351 0.13104,-3.40738 0.0819,-5.88103 -0.14744,-7.42096 -0.42594,-2.78487 -1.47438,-4.48857 -3.14531,-5.11113 -1.57266,-0.62246 -3.81697,-0.24568 -6.73293,1.13034 -2.09688,1.01572 -4.25927,2.42456 -6.4872,4.22652"
         id="path3120"
         inkscape:connector-curvature="0"
         style="fill:#000000" />
      <path
         d="m 469.71869,499.18889 c -2.78495,7.01143 -7.79778,12.26999 -15.03851,15.7757 -3.76785,1.76924 -7.60119,2.60471 -11.50004,2.50642 -4.55416,-0.0655 -8.53494,-1.55627 -11.94235,-4.47224 -3.50571,-2.98148 -5.53706,-6.86397 -6.09404,-11.64748 -0.55698,-4.0299 0.0164,-8.20727 1.72009,-12.53209 3.07978,-7.76495 8.51854,-13.67878 16.3163,-17.74152 3.86609,-1.99853 7.86325,-3.12888 11.99149,-3.39103 0.16379,-0.0327 0.70439,-0.0655 1.62181,-0.0983 0.19655,5e-5 0.70438,0.0164 1.52351,0.0491 1.34327,0.1311 2.47361,0.29492 3.39103,0.49146 2.26066,0.45874 4.37391,1.27783 6.33977,2.45727 4.22646,2.49008 6.97861,6.09408 8.25644,10.812 1.17944,4.12825 1.04838,8.38752 -0.39317,12.77782 -1.90034,5.83195 -2.88325,9.05917 -2.94872,9.68166 -0.29492,1.80202 -0.44236,3.37467 -0.44231,4.71797 -0.0328,0.58975 0.0327,1.11397 0.19658,1.57265 0.131,0.4587 0.36035,0.83548 0.68803,1.13035 0.98286,0.91739 2.12959,1.37608 3.44019,1.37607 1.24496,0.0328 2.50636,-0.49145 3.7842,-1.57265 0.32758,-0.29487 0.58969,-0.55698 0.78633,-0.78633 0.26205,-0.36039 0.49139,-0.70441 0.68803,-1.03206 0.45864,-0.72079 0.73713,-1.44159 0.83548,-2.1624 0.29481,-1.40882 -0.22941,-2.93233 -1.57266,-4.57052 1.83471,1.21226 2.834,2.75215 2.99787,4.61967 0.0982,0.91739 -0.0328,1.9003 -0.39316,2.94873 -0.16388,0.42593 -0.34408,0.88462 -0.5406,1.37607 -0.26217,0.49146 -0.52428,0.93377 -0.78633,1.32693 -1.24507,1.93306 -2.99793,3.16169 -5.25856,3.68591 -0.68809,0.13105 -1.29422,0.19658 -1.81838,0.19658 l -0.78633,-0.0491 -0.83548,-0.0983 c -1.24506,-0.16381 -2.34264,-0.52421 -3.29274,-1.0812 -1.17954,-0.68803 -2.12968,-1.62179 -2.85044,-2.80129 -0.58979,-1.04843 -0.99933,-2.22792 -1.22864,-3.53847 -0.26215,-1.90028 -0.32767,-3.88248 -0.19658,-5.9466 0.0327,-0.6225 0.75352,-4.27564 2.1624,-10.95944 0.62247,-3.21081 0.5078,-5.96296 -0.34402,-8.25644 -0.91742,-2.49 -2.49007,-4.32477 -4.71796,-5.5043 -2.09691,-1.17945 -4.65247,-1.63814 -7.66669,-1.37607 -2.85047,0.22939 -5.61899,1.04848 -8.30559,2.45727 -5.73365,2.916 -9.86187,7.15889 -12.38466,12.72868 -1.31055,2.78493 -1.88392,5.53708 -1.72009,8.25644 0.13105,2.88322 1.08119,5.27496 2.85044,7.17524 1.73646,1.9003 4.19373,3.12893 7.37182,3.68591 3.07976,0.49146 6.22507,0.26211 9.43593,-0.68804 6.55269,-1.83475 12.10613,-5.6681 16.66031,-11.50004"
         id="path3122"
         inkscape:connector-curvature="0"
         style="fill:#000000" />
      <path
         d="m 491.24442,470.04563 c 1.93305,0.32768 3.40741,1.65461 4.42309,3.98078 0.65527,1.47441 1.1631,3.45661 1.52351,5.9466 0.45868,3.76786 0.60612,7.74864 0.44231,11.94235 -0.0655,1.60545 -0.18021,3.55488 -0.34402,5.84831 -0.19659,2.75217 -0.37679,4.71798 -0.5406,5.89746 l -1.32693,11.4509 -8.50216,-1.7201 c 1.83476,-9.86184 3.83334,-17.44662 5.99575,-22.75435 0.75355,-1.96579 1.57264,-3.81693 2.45727,-5.55344 1.24501,-2.49 2.12963,-4.22647 2.65385,-5.20942 2.52279,-4.5541 5.1275,-8.05981 7.81413,-10.51713 2.29344,-2.03129 4.76709,-3.29269 7.42097,-3.7842 1.53986,-0.29482 3.09614,-0.27844 4.66882,0.0491 0.75353,0.1311 1.5071,0.34407 2.26069,0.63889 l 0.68804,0.29487 1.13034,0.58975 c 2.68659,1.50717 4.60326,3.70233 5.75003,6.58549 0.81904,2.09691 1.24497,4.52142 1.27778,7.27353 -5e-5,3.01429 -0.63894,7.09336 -1.91668,12.23722 l -1.37607,5.50429 -1.47436,5.5043 -5.55344,-2.45728 0.14743,-0.19658 0.34402,-0.34402 c 0.55695,-0.62249 1.24499,-0.95013 2.06411,-0.98291 0.85182,-0.0655 1.589,0.1966 2.21155,0.78633 0.91734,0.81911 1.21222,1.83478 0.88462,3.04702 -0.52426,1.86754 -0.91742,3.93165 -1.17949,6.19233 -0.26215,2.49004 -0.18024,4.48862 0.24572,5.99575 0.52418,1.93305 1.73644,2.91596 3.63677,2.94873 1.63814,-10e-6 3.76777,-0.52422 6.38891,-1.57266 -2.22797,1.90029 -4.29208,3.07978 -6.19233,3.53847 -1.50717,0.3604 -2.88324,0.22935 -4.12822,-0.39316 -1.27782,-0.58975 -2.29349,-1.6218 -3.04702,-3.09616 -0.98294,-1.83477 -1.63821,-4.30842 -1.96582,-7.42097 -0.16385,-2.35897 -0.1147,-4.81624 0.14744,-7.37182 l 5.50429,2.45727 -0.14743,0.19658 c -0.45873,0.72082 -1.09762,1.16312 -1.91668,1.32693 -0.81912,0.16383 -1.57269,0.0328 -2.26069,-0.39316 -1.04847,-0.68803 -1.50716,-1.63817 -1.37607,-2.85044 l 0.0491,-0.5406 c 0.29484,-3.30911 0.72077,-7.10969 1.27778,-11.40175 0.62248,-4.42306 0.81906,-7.87962 0.58975,-10.36969 -0.0983,-1.47433 -0.40958,-2.75211 -0.93376,-3.83335 -0.3932,-0.78629 -0.96656,-1.37603 -1.72009,-1.76924 -0.0656,4e-5 -0.11471,-0.0163 -0.14744,-0.0491 l -0.58975,-0.19658 c -0.0328,4e-5 -0.1147,-0.0163 -0.24572,-0.0491 -0.13109,-0.0655 -0.22938,-0.0983 -0.29488,-0.0983 -0.32766,-0.0327 -0.63892,-0.0163 -0.93376,0.0491 -0.75359,0.19663 -1.58907,0.72085 -2.50642,1.57266 -1.57268,1.44164 -3.40744,4.04635 -5.50429,7.81413 -0.49148,0.88465 -1.35971,2.52283 -2.60471,4.91455 -1.04846,2.06413 -1.8184,3.66955 -2.30984,4.81625 -1.90031,4.39035 -4.19376,11.35262 -6.88037,20.88683 l -0.0983,0.39316 c -0.29488,1.11397 -0.96653,1.96582 -2.01496,2.55557 -1.04844,0.58974 -2.14603,0.7208 -3.29275,0.39316 -1.0812,-0.29487 -1.91667,-0.93376 -2.50642,-1.91667 -0.58974,-0.98291 -0.76994,-2.03135 -0.5406,-3.14531 0.58975,-2.71938 1.49075,-6.48719 2.703,-11.30346 l 1.37608,-5.55344 c 0.52421,-2.19514 0.93376,-4.06267 1.22863,-5.60258 1.01567,-5.01281 1.63818,-8.73148 1.86753,-11.15603 0.22934,-2.29341 0.22934,-4.12817 0,-5.50429 -0.32764,-2.12959 -1.26141,-3.63672 -2.80129,-4.52138"
         id="path3124"
         inkscape:connector-curvature="0"
         style="fill:#000000" />
      <path
         d="m 504.12052,552.8066 c 0.39319,1.08117 1.24504,1.93302 2.55557,2.55557 1.04845,0.42589 2.22794,0.70438 3.53847,0.83547 2.39176,0.22931 4.61969,-0.36044 6.68378,-1.76924 1.9986,-1.31058 3.55487,-3.01429 4.66882,-5.11113 1.14674,-2.16243 1.58905,-4.27568 1.32693,-6.33976 -0.19657,-1.99861 -1.14672,-3.7187 -2.85044,-5.16028 -1.57264,-1.34333 -3.45655,-2.21156 -5.65172,-2.60471 -2.29344,-0.39318 -4.35755,-0.31127 -6.19233,0.24573 -0.39315,0.0983 -0.91737,0.27847 -1.57266,0.5406 -0.55696,0.26209 -1.01565,0.47505 -1.37607,0.63889 -0.98289,0.55696 -1.85112,1.14671 -2.60471,1.76924 -3.21081,2.65383 -5.14386,6.27421 -5.79917,10.86115 -0.65524,4.42305 0.0328,8.53489 2.06411,12.33551 -0.0655,-0.1311 0.18023,0.31121 0.73718,1.32693 0.55701,0.88457 0.86827,1.37603 0.93377,1.47436 0.58977,0.81905 1.24504,1.58899 1.96582,2.30984 1.2778,1.34326 2.85046,2.42446 4.71796,3.2436 3.4402,1.47431 7.20802,1.42517 11.30346,-0.14743 1.93306,-0.75362 3.73506,-1.76929 5.406,-3.04702 1.1795,-0.88467 2.03135,-1.60547 2.55557,-2.1624 0.62251,-0.5898 1.35969,-1.35974 2.21154,-2.30984 2.68662,-3.11259 5.14389,-6.94593 7.37182,-11.50004 1.93305,-3.93167 3.6859,-8.4039 5.25857,-13.41672 l 4.76711,-14.39962 9.7308,-28.65181 2.35899,-7.12609 c 0.62247,-1.8675 0.99926,-3.01422 1.13034,-3.44019 l 1.13035,-3.68591 c 2.58829,-8.42021 4.04627,-13.18731 4.37394,-14.30133 l 9.2885,2.65386 -2.40813,7.32267 -1.0812,3.48933 -1.0812,3.93164 c -0.95019,3.21087 -2.98153,8.19094 -6.09404,14.94022 -2.94876,6.19235 -5.94663,10.92669 -8.99362,14.20304 -2.71941,2.78492 -5.50431,4.48862 -8.35473,5.11113 -1.86754,0.42593 -3.70231,0.37678 -5.50429,-0.14743 -0.78634,-0.26211 -1.22865,-0.42593 -1.32693,-0.49146 -0.75357,-0.32763 -1.08121,-0.47507 -0.98291,-0.44231 -0.88463,-0.45869 -1.67095,-0.96652 -2.35898,-1.52351 -2.52281,-2.03134 -4.01355,-4.9473 -4.47224,-8.74789 -0.32764,-2.4245 -0.24573,-5.27493 0.24573,-8.55131 0.29487,-1.76922 0.86823,-4.37393 1.72009,-7.81413 l 1.72009,-7.56841 1.72009,-7.47011 c 0.19657,-1.21221 0.29487,-2.42446 0.29487,-3.63676 0,-0.65523 -0.0492,-1.22859 -0.14743,-1.72009 -0.0655,-0.49141 -0.14745,-0.80266 -0.24573,-0.93377 -0.32764,0.0983 -0.57337,0.2294 -0.73718,0.39317 -0.36041,0.29492 -0.76995,0.70446 -1.22864,1.22863 -0.68804,0.78638 -1.4416,1.81843 -2.26069,3.09617 -1.01568,1.53993 -2.3426,3.76786 -3.98078,6.68378 0.9829,-2.68658 1.98219,-5.11108 2.99787,-7.27353 0.68803,-1.40879 1.32692,-2.5719 1.91667,-3.48933 0.42593,-0.65522 0.86823,-1.2122 1.32693,-1.67094 0.32763,-0.32759 0.65527,-0.57332 0.98291,-0.73718 0.58974,-0.32759 1.17948,-0.37674 1.76924,-0.14744 0.65526,0.32769 1.22862,1.08125 1.72009,2.26069 0.19657,0.58979 0.34401,1.29421 0.44231,2.11326 0.16381,1.37611 0.21295,2.76857 0.14743,4.17736 -0.0655,0.65532 -0.37679,3.26002 -0.93376,7.81413 l -1.03205,7.76499 c -0.49147,3.37467 -0.78634,5.88109 -0.88462,7.51925 -0.55699,6.19235 0.42592,10.05845 2.94873,11.59833 0.26209,0.19659 0.58973,0.37679 0.98291,0.5406 -2e-5,10e-6 0.26209,0.0983 0.78632,0.29488 -0.0983,-0.0655 0.0819,-0.0328 0.5406,0.0983 0.72079,0.13106 1.44159,0.0819 2.1624,-0.14744 1.44159,-0.42592 2.91595,-1.5235 4.4231,-3.29275 2.35896,-2.78489 4.65241,-6.92949 6.88036,-12.4338 2.45725,-6.12677 4.11181,-10.82835 4.96369,-14.10475 l 0.93377,-3.63676 c 0.16378,-0.72076 0.52418,-2.04769 1.0812,-3.98079 l 2.1624,-7.51925 c 0.39313,-1.27773 1.16307,-2.24426 2.30984,-2.89959 1.17945,-0.62245 2.40808,-0.75351 3.68591,-0.39316 1.27774,0.36045 2.22788,1.11402 2.85043,2.26069 0.65523,1.14678 0.81905,2.34265 0.49146,3.58762 l -0.0492,0.0983 c -0.26215,0.98296 -1.63822,5.8975 -4.12822,14.74364 l -1.03205,3.58762 c -0.16386,0.72083 -0.52426,1.98223 -1.0812,3.7842 l -2.30984,7.27353 -9.38678,28.79925 -4.91455,14.35048 c -1.83479,5.4715 -3.81698,10.35328 -5.9466,14.64535 -2.88322,5.6353 -5.963,10.18944 -9.23935,13.66244 -1.14674,1.24496 -2.19517,2.26064 -3.14531,3.04702 -0.85186,0.75351 -1.96582,1.63812 -3.34189,2.65385 -2.45728,1.70365 -5.07836,3.06334 -7.86328,4.07908 -6.48719,2.29339 -12.56484,2.09681 -18.23297,-0.58975 -5.37321,-2.45733 -9.41951,-6.81489 -12.13893,-13.07269 -2.49,-5.63539 -3.12889,-11.36903 -1.91667,-17.20092 1.24505,-6.22512 4.32483,-11.09051 9.23935,-14.5962 1.14675,-0.81911 2.44091,-1.53991 3.88249,-2.16241 0.58977,-0.29488 1.29419,-0.57337 2.11325,-0.83547 0.78635,-0.22936 1.47439,-0.40956 2.06411,-0.5406 2.91599,-0.58976 5.84833,-0.4587 8.79704,0.39317 2.9815,0.85184 5.48792,2.30982 7.51926,4.37394 2.32622,2.35897 3.48933,5.09473 3.48933,8.2073 0,0.68801 -0.0491,1.44157 -0.14744,2.26069 -0.0328,0.0983 -0.11467,0.4259 -0.24573,0.98291 l -0.0491,0.19658 0,0.19658 -0.0491,0.14744 -0.19658,0.49145 c -0.42592,1.31052 -1.06481,2.57192 -1.91667,3.7842 -1.60542,2.32619 -3.63676,4.1118 -6.09404,5.35686 -1.31053,0.65523 -2.58832,1.08116 -3.83335,1.27778 -1.17947,0.13102 -2.52278,0.0491 -4.02993,-0.24573 -1.40881,-0.32767 -2.62107,-0.80274 -3.63676,-1.42521 -1.31052,-0.81913 -2.08047,-1.81842 -2.30984,-2.99788"
         id="path3126"
         inkscape:connector-curvature="0"
         style="fill:#000000" />
      <path
         d="m 634.84748,463.50928 c -0.0656,-0.26205 -0.26214,-0.22929 -0.58975,0.0983 -0.16384,0.16387 -0.36042,0.37684 -0.58974,0.63889 -0.2949,0.39322 -0.62253,0.86829 -0.98291,1.42522 -0.62253,0.9502 -1.17951,1.93311 -1.67095,2.94873 -0.557,1.17954 -0.7372,2.09692 -0.5406,2.75215 0.0655,0.32768 0.22933,0.60617 0.49146,0.83547 0.0983,0.0656 0.2457,0.16386 0.44231,0.29487 0.0983,0.0328 0.26208,0.0656 0.49145,0.0983 1.245,0.0983 2.93232,-0.67161 5.06199,-2.30983 1.50709,-1.17945 3.16166,-2.65381 4.96369,-4.4231 3.47291,-3.34183 5.93018,-6.76563 7.37182,-10.2714 0.85181,-2.09681 1.35965,-3.96434 1.52351,-5.60258 0.2293,-2.03128 -4e-5,-3.24353 -0.68804,-3.63677 -0.0983,-0.0654 -0.22939,-0.13098 -0.39316,-0.19658 l -0.0492,-0.0491 c 0.16378,0.0984 0.24569,0.14751 0.24573,0.14744 l -0.0492,-0.0492 -0.0491,0 -0.19658,-0.0983 c -0.19663,-0.0654 -0.29492,-0.0982 -0.29488,-0.0983 0.0327,0.0328 0.0491,0.0492 0.0492,0.0491 -0.22939,7e-5 -0.5734,0.11474 -1.03206,0.34402 -1.114,0.49152 -2.45731,1.57272 -4.02992,3.2436 -1.114,1.21232 -2.44093,2.88326 -3.98079,5.01284 l -2.06411,2.80129 c -0.45872,0.62257 -1.06484,1.50718 -1.81838,2.65385 -4.84904,7.33911 -9.50148,15.10409 -13.95731,23.29496 -2.16242,3.99719 -3.55487,7.83053 -4.17737,11.50004 -0.72081,4.19376 -0.26212,7.50289 1.37607,9.92738 1.96581,2.94874 4.71795,4.43948 8.25644,4.47224 3.50569,0.0655 6.79843,-1.32692 9.87824,-4.17736 2.9487,-2.71937 4.98004,-6.09403 6.09404,-10.12397 1.21222,-4.48859 1.2286,-8.5349 0.0491,-12.13893 -0.68807,-1.96579 -1.75289,-3.47291 -3.19446,-4.52139 -0.81912,-0.65523 -1.49077,-0.98287 -2.01496,-0.98291 -0.16385,-0.0327 -0.2949,-0.0163 -0.39317,0.0491 -0.0656,0.0656 -0.14746,0.16386 -0.24572,0.29487 0.0327,-0.0655 -0.0164,0.0164 -0.14744,0.24573 -0.0328,4e-5 -0.0656,0.0492 -0.0983,0.14744 -0.0983,0.22938 -0.14747,0.45873 -0.14744,0.68803 0.0327,0.16386 0.11465,0.27853 0.24573,0.34402 0.22932,-0.0655 0.40952,-0.0491 0.5406,0.0491 0.0655,0.0328 0.26208,0.0164 0.58975,-0.0491 0.58971,-0.13102 1.09755,-0.29483 1.52351,-0.49145 1.44156,-0.62247 3.44014,-1.75282 5.99574,-3.39104 -1.86756,2.16244 -3.58765,3.80062 -5.16027,4.91455 -0.45872,0.36043 -0.99932,0.68807 -1.6218,0.98291 -0.49149,0.19661 -0.85189,0.32767 -1.0812,0.39316 -0.19661,0.0328 -0.37681,0.0656 -0.5406,0.0983 l -0.19658,0 c -0.0656,4e-5 -0.213,4e-5 -0.44231,0 -1.114,-0.0655 -1.93309,-0.60609 -2.45728,-1.6218 -0.45871,-0.81905 -0.58977,-1.72005 -0.39316,-2.703 0.0327,-0.22931 0.0819,-0.45865 0.14744,-0.68804 0.0983,-0.26207 0.18017,-0.44227 0.24572,-0.5406 0.19656,-0.42588 0.44229,-0.80267 0.73719,-1.13034 0.72077,-0.81905 1.62177,-1.24498 2.703,-1.27779 1.31051,-0.0655 2.78487,0.36045 4.42309,1.27779 2.35894,1.37611 4.16094,3.40745 5.406,6.09403 1.90025,4.32484 2.37532,9.4032 1.42522,15.2351 -0.91742,5.43878 -3.22726,10.09121 -6.92951,13.95731 -4.22654,4.4231 -9.1247,6.81484 -14.6945,7.17524 -3.0798,0.22935 -5.99576,-0.34402 -8.74789,-1.72009 -1.31056,-0.62251 -2.57196,-1.4416 -3.7842,-2.45727 -0.42594,-0.3604 -0.72081,-0.60612 -0.88462,-0.73718 l -0.73718,-0.78633 c -0.52423,-0.52421 -1.01568,-1.0812 -1.47437,-1.67095 -1.86753,-2.4245 -3.07978,-5.16026 -3.63676,-8.20729 -0.49146,-2.49002 -0.50784,-5.29131 -0.0491,-8.40388 0.32764,-2.35895 0.95015,-4.88175 1.86753,-7.5684 0.55698,-1.53986 1.03205,-2.75211 1.42522,-3.63676 0.42592,-0.95011 0.96652,-2.08046 1.6218,-3.39104 4.06268,-7.47007 9.04275,-15.49715 14.94022,-24.08128 0.8846,-1.24496 1.62178,-2.22787 2.21155,-2.94873 l 2.21154,-2.703 c 1.86751,-2.32615 3.52207,-4.17729 4.9637,-5.55344 2.55553,-2.39167 4.93089,-4.02985 7.12609,-4.91455 1.96578,-0.75348 3.88245,-0.9173 5.75002,-0.49145 0.49141,0.0984 1.04839,0.29495 1.67095,0.58974 -0.0656,-0.0327 0.0982,0.0492 0.49145,0.24573 l 0.19658,0.0983 0.34402,0.19658 0.14744,0.0983 c 0.88457,0.55706 1.62175,1.22872 2.21154,2.01497 1.14668,1.40891 1.83472,3.11262 2.06411,5.11113 0.16377,1.4089 0.0982,2.91603 -0.19658,4.52138 -0.52427,2.68668 -1.44165,5.1931 -2.75214,7.51926 -2.2935,4.02998 -5.65177,7.71589 -10.07483,11.05773 -2.22796,1.60546 -4.2593,2.93239 -6.09403,3.98078 -1.27782,0.68808 -2.44092,1.19592 -3.48933,1.52351 -1.67097,0.52426 -3.12896,0.58979 -4.37395,0.19658 -0.45871,-0.16377 -0.83549,-0.36035 -1.13035,-0.58974 -0.39318,-0.2293 -0.67167,-0.5078 -0.83547,-0.83547 -0.557,-0.688 -0.85187,-1.44156 -0.88462,-2.2607 -0.0328,-1.11391 0.44229,-2.37531 1.42522,-3.7842 0.72078,-0.91733 1.50711,-1.80195 2.35898,-2.65385 0.49143,-0.49141 0.91736,-0.90095 1.27779,-1.22864 0.29484,-0.19653 0.54057,-0.36035 0.73718,-0.49145 0.16379,-0.0982 0.31123,-0.16377 0.44231,-0.19659 0.26208,-0.0982 0.36037,-0.0163 0.29487,0.24573"
         id="path3128"
         inkscape:connector-curvature="0"
         style="fill:#000000" />
      <path
         d="m 704.68318,508.32995 c -1.70376,1.93306 -3.5549,3.57124 -5.55344,4.91455 -1.2123,0.78633 -2.37541,1.35969 -3.48932,1.72009 -1.53994,0.52422 -2.96516,0.62251 -4.27566,0.29487 l -1.03205,-0.34402 c -0.58979,-0.32763 -0.96657,-0.55698 -1.13035,-0.68803 -0.58979,-0.42593 -1.13039,-0.99929 -1.6218,-1.72009 -0.68808,-0.98291 -1.24506,-2.29345 -1.67095,-3.93164 -0.45872,-1.96581 -0.73721,-4.53775 -0.83547,-7.71584 -0.0328,-4.22649 0.24569,-9.19018 0.83547,-14.89108 l 1.91668,-14.44877 7.81413,1.57266 c -1.99863,10.28782 -4.30847,18.39681 -6.92952,24.32701 0.0327,-0.0655 -0.42596,0.86825 -1.37607,2.80129 l -1.37607,2.80129 c -1.14676,2.22794 -2.22796,4.14461 -3.2436,5.75002 -1.50716,2.29346 -3.04705,4.16099 -4.61968,5.60258 -2.52282,2.32622 -5.20944,3.65315 -8.05985,3.98079 -1.67097,0.19658 -3.34191,0.0164 -5.01284,-0.5406 -1.57267,-0.49146 -2.96513,-1.24502 -4.17737,-2.2607 -2.42452,-1.90028 -3.98079,-4.50499 -4.66882,-7.81413 -0.7208,-3.47293 -0.55699,-8.15813 0.49146,-14.0556 l 2.45727,-11.94235 c 0.88461,-4.12818 1.32692,-6.15952 1.32693,-6.09404 0.68802,-2.78486 1.09757,-4.58686 1.22864,-5.406 l 7.91242,1.03206 c -1.08122,4.58695 -2.40815,9.51787 -3.98079,14.79278 -1.47438,4.78352 -3.1617,9.56701 -5.06198,14.35048 -2.42452,5.93023 -4.63606,10.5499 -6.63464,13.85902 -0.81909,1.31055 -1.60542,2.37537 -2.35898,3.19446 -1.24502,1.34331 -2.42451,2.14602 -3.53848,2.40813 -0.88461,0.16381 -1.65456,-0.0164 -2.30983,-0.5406 -0.52422,-0.42593 -0.91738,-1.01568 -1.17949,-1.76924 -0.22934,-0.68804 -0.32764,-1.35969 -0.29488,-2.01497 0.0655,-0.88461 0.36041,-1.42521 0.88462,-1.6218 -0.72079,0.91739 -0.68803,2.01497 0.0983,3.29275 0.32764,0.52422 0.70442,0.901 1.13035,1.13035 0.45869,0.2621 0.88462,0.27849 1.27778,0.0491 0.7208,-0.29487 1.47437,-1.04843 2.26069,-2.26069 0.52422,-0.81909 1.06482,-1.86752 1.6218,-3.14531 1.21225,-3.01425 2.65385,-7.71583 4.3248,-14.10475 1.04843,-3.99714 2.12963,-8.82978 3.24361,-14.49791 1.08119,-5.20939 1.9658,-10.07478 2.65385,-14.59621 0.16381,-1.08115 0.68802,-1.94939 1.57266,-2.60471 0.85184,-0.65522 1.83474,-0.90095 2.94872,-0.73718 1.01566,0.1311 1.85113,0.60618 2.50642,1.42522 0.62249,0.78637 0.91737,1.67099 0.88462,2.65385 l 0,0.29488 c -0.0656,1.14677 -0.40956,3.34193 -1.03205,6.58549 0.0327,-0.0327 -0.26213,1.93309 -0.88462,5.89746 l -0.93377,5.99574 -0.98291,6.0449 c -0.8191,4.55416 -0.95016,7.96158 -0.39316,10.22225 0.29486,1.14674 0.76993,1.96583 1.42522,2.45728 0.32762,0.22935 0.7044,0.40955 1.13035,0.5406 0.32761,0.13106 0.67163,0.18021 1.03205,0.14743 0.72078,-0.0328 1.58902,-0.50782 2.60471,-1.42521 1.01565,-0.88461 2.06409,-2.14601 3.14531,-3.78421 0.88459,-1.31053 1.83474,-2.91594 2.85044,-4.81625 l 2.703,-5.25857 c 2.22789,-4.29201 4.75069,-11.6802 7.5684,-22.1646 l 0.0983,-0.34402 c 0.29484,-1.04839 0.91735,-1.8511 1.86753,-2.40813 0.9501,-0.55693 1.9494,-0.68799 2.99787,-0.39316 1.01563,0.26215 1.80196,0.8519 2.35899,1.76923 0.55693,0.91743 0.72075,1.88396 0.49145,2.89958 l -3.14531,14.25219 c -1.24506,5.86472 -2.04777,10.53353 -2.40813,14.00646 -0.29491,3.40743 -0.3932,5.66812 -0.29487,6.78208 0.19654,2.45728 0.99925,4.01355 2.40813,4.66882 1.40879,0.7208 3.45652,0.50784 6.14318,-0.6389 1.83472,-0.75355 3.93159,-1.93304 6.29062,-3.53847"
         id="path3130"
         inkscape:connector-curvature="0"
         style="fill:#000000" />
      <path
         d="m 745.96539,500.1718 c -3.21088,6.71656 -8.22371,11.76216 -15.03851,15.13681 -8.25646,4.06269 -15.6938,4.11183 -22.31205,0.14743 -3.66953,-2.22792 -6.15956,-5.47152 -7.47011,-9.7308 -1.21225,-3.73504 -1.32693,-7.76496 -0.34402,-12.08979 1.73647,-7.5356 6.07765,-13.97365 13.02355,-19.31417 7.3718,-5.537 15.03849,-7.71578 23.00008,-6.53634 4.78346,0.72085 8.73147,2.75219 11.84406,6.09404 3.17803,3.30916 4.98002,7.421 5.406,12.33551 0.16377,2.26072 0.0655,4.4395 -0.29487,6.53635 -0.26216,1.21227 -0.52427,2.27709 -0.78633,3.19445 -0.16387,0.45871 -0.52427,1.39248 -1.0812,2.80129 -1.2123,3.04704 -2.49008,6.3234 -3.83334,9.8291 -2.03139,5.406 -4.4559,12.02425 -7.27353,19.85477 l -3.63677,9.92738 c -2.45731,6.68376 -3.70232,10.07479 -3.73505,10.17312 -3.44022,8.28916 -7.38823,14.80912 -11.84406,19.55989 -6.65104,7.04413 -14.00647,10.46793 -22.06632,10.27141 -4.71796,-0.13112 -8.82979,-1.62186 -12.33551,-4.47224 -3.11253,-2.42456 -5.58618,-5.75007 -7.42097,-9.97653 -1.67092,-3.89892 -2.4081,-7.92884 -2.21154,-12.08979 0.22936,-4.32483 1.44162,-8.20732 3.63676,-11.64747 2.359,-3.70232 5.47154,-6.37255 9.33764,-8.01072 2.09688,-0.88463 4.11184,-1.39246 6.04489,-1.52351 2.09688,-0.13106 4.1446,0.0983 6.14319,0.68804 4.61966,1.37606 7.73221,3.96438 9.33764,7.76499 1.67093,3.99714 1.13033,7.89601 -1.6218,11.69662 -2.49005,3.47291 -5.60259,5.52063 -9.33764,6.14318 -1.76924,0.19654 -3.604,-0.0492 -5.5043,-0.73718 -2.22792,-0.81913 -3.5057,-2.03138 -3.83334,-3.63677 0.55699,1.40881 1.9003,2.37533 4.02993,2.89959 1.83476,0.39312 3.50571,0.39312 5.01283,0 3.14531,-0.91742 5.56982,-2.96515 7.27353,-6.14319 1.76923,-3.1781 1.93305,-6.04492 0.49146,-8.60045 -1.34332,-2.42453 -3.7023,-3.96442 -7.07695,-4.61968 -2.8832,-0.65529 -5.73363,-0.22936 -8.55131,1.27778 -2.68661,1.40882 -4.71795,3.45655 -6.09404,6.14319 -3.01424,5.50426 -3.03062,11.20513 -0.0492,17.10262 2.98151,6.09399 7.27354,9.09186 12.87612,8.99362 2.65385,-0.0328 5.32409,-0.78638 8.01071,-2.26069 2.4245,-1.31059 4.75072,-3.1945 6.97866,-5.65173 3.73503,-4.25931 6.96225,-9.86189 9.68165,-16.80775 0.0655,-0.22937 1.245,-3.50573 3.53848,-9.82909 l 3.53847,-10.07482 c 2.88317,-7.79775 5.40597,-14.44877 7.5684,-19.95307 1.34327,-3.47293 2.6702,-6.78205 3.98079,-9.92738 0.68799,-1.57263 1.1303,-2.9487 1.32693,-4.12822 0.29482,-1.40881 0.4095,-2.75212 0.34401,-4.02993 -0.0983,-2.68659 -0.98295,-4.98004 -2.65385,-6.88037 -1.70375,-1.93301 -3.91529,-3.14526 -6.63464,-3.63676 -5.56985,-1.04839 -11.23795,0.36044 -17.00433,4.22651 -5.63536,3.80062 -9.37041,8.6824 -11.20517,14.64535 -0.98292,3.14533 -1.14673,6.09406 -0.49146,8.84619 0.68803,2.9815 2.24431,5.38962 4.66882,7.22438 2.39174,1.76924 5.32408,2.75215 8.79704,2.94873 3.047,0.16382 6.2906,-0.3604 9.73081,-1.57266 6.71651,-2.45726 12.08974,-6.65101 16.11971,-12.58124"
         id="path3132"
         inkscape:connector-curvature="0"
         style="fill:#000000" />
      <path
         d="m 758.05519,505.77439 c -0.52422,1.27779 -0.6389,2.65386 -0.34402,4.12822 0.32763,1.4416 0.85185,2.26069 1.57265,2.45727 0.16382,0.0655 0.3604,0.0492 0.58975,-0.0491 l 0.29487,-0.19658 c 0.0328,10e-6 0.16382,-0.0164 0.39317,-0.0491 0.29486,-0.0328 0.4423,-0.0655 0.44231,-0.0983 1.01566,-0.19658 1.94942,-0.57336 2.80129,-1.13035 2.98148,-1.83476 5.58618,-5.89744 7.81413,-12.18808 1.44158,-4.22648 2.76851,-9.64886 3.98078,-16.26715 0.49143,-2.8504 1.37605,-8.55127 2.65386,-17.10262 l 0,-0.0983 c 0.22932,-1.37602 0.90097,-2.48999 2.01496,-3.3419 1.11394,-0.81903 2.35895,-1.13028 3.73506,-0.93376 1.37604,0.2294 2.47362,0.90106 3.29274,2.01497 0.85182,1.11401 1.16308,2.35903 0.93377,3.73505 l -1.6218,11.05773 c -0.22938,1.76928 -0.42596,3.52213 -0.58975,5.25857 -0.16385,1.99861 -0.18023,3.50574 -0.0491,4.52138 -4e-5,0.26214 -4e-5,0.39319 0,0.39316 -0.0656,-0.13102 -0.16385,-0.29484 -0.29488,-0.49145 l -0.29487,-0.29487 0.14744,0.14743 c 0.0655,0.0656 0.0819,0.0819 0.0491,0.0491 -0.16385,-0.16379 -0.40958,-0.27846 -0.73718,-0.34402 -0.13109,3e-5 -0.22938,3e-5 -0.29487,0 -0.0656,3e-5 -0.0656,0.0164 0,0.0491 0.16378,0.0328 0.75353,-0.13103 1.76923,-0.49146 1.44157,-0.49142 2.52277,-0.80268 3.2436,-0.93376 1.5071,-0.29484 2.94869,-0.31123 4.32481,-0.0491 0.78628,0.16385 1.52346,0.3932 2.21154,0.68804 l 0.73718,0.34402 0.83548,0.39316 c 2.35893,1.24505 4.21008,2.85047 5.55344,4.81626 1.47431,2.12966 2.24425,4.5214 2.30983,7.17524 0.0655,2.16241 -0.32768,4.39034 -1.17949,6.68378 -1.5727,4.12823 -3.94806,7.53564 -7.12609,10.22226 -1.73652,1.53989 -3.66957,2.5228 -5.79917,2.94873 -2.03138,0.52421 -4.02996,0.72079 -5.99575,0.58974 -2.42453,-0.13105 -4.37397,-0.62251 -5.84831,-1.47436 -0.9174,-0.52422 -1.6382,-1.2614 -2.1624,-2.21155 -0.52424,-0.91738 -0.72082,-1.85114 -0.58974,-2.80129 0.39314,1.96582 1.5071,3.17807 3.34189,3.63676 1.44157,0.42593 3.14528,0.47508 5.11113,0.14744 1.80197,-0.29487 3.45653,-0.78633 4.96369,-1.47436 1.4088,-0.62251 2.65382,-1.53989 3.73506,-2.75215 2.26065,-2.65385 3.75139,-5.53705 4.47223,-8.6496 0.75352,-3.34188 0.34398,-5.88106 -1.22863,-7.61755 -0.72084,-0.81907 -1.7529,-1.52349 -3.09617,-2.11326 l -0.44231,-0.19658 c -0.36043,-0.13103 -0.54063,-0.19656 -0.5406,-0.19658 -0.13109,-0.0327 -0.29491,-0.0491 -0.49145,-0.0491 -0.36044,3e-5 -0.76998,0.0819 -1.22864,0.24573 -0.49149,0.16384 -1.17952,0.42595 -2.06411,0.78633 -1.53992,0.62253 -2.71941,1.01569 -3.53847,1.17949 -0.95018,0.1966 -1.98223,0.16384 -3.09617,-0.0983 -1.31057,-0.29485 -2.39177,-0.81907 -3.2436,-1.57266 l -0.44231,-0.39316 -0.0983,-0.14744 c -0.0983,-0.0983 -0.26213,-0.27846 -0.49145,-0.5406 -0.36043,-0.45866 -0.70444,-1.03202 -1.03206,-1.72009 -0.26213,-0.58972 -0.49147,-1.35966 -0.68803,-2.30983 -0.26213,-1.63816 -0.37681,-3.8497 -0.34402,-6.63464 0.0655,-1.47433 0.21294,-3.44015 0.44231,-5.89746 0.0327,-0.13101 0.50781,-3.84968 1.42522,-11.15602 l 9.97653,1.37607 c -1.08124,7.6995 -2.06414,13.54781 -2.94873,17.54494 -1.4744,6.88039 -3.27639,12.74507 -5.406,17.59407 -1.44163,3.34191 -3.03066,6.15958 -4.76711,8.45302 -2.359,3.21085 -5.04562,5.5043 -8.05986,6.88037 -1.76925,0.78633 -3.63678,1.19587 -5.60259,1.22864 -0.13106,0 -0.57337,0 -1.32692,0 -0.68804,-0.0983 -1.31055,-0.26211 -1.86753,-0.49146 -1.31055,-0.49145 -2.30984,-1.32692 -2.99787,-2.50642 -0.95015,-1.83476 -1.06482,-3.80057 -0.34402,-5.89745 0.65527,-1.86752 1.7037,-3.12892 3.14531,-3.7842"
         id="path3134"
         inkscape:connector-curvature="0"
         style="fill:#000000" />
    </g>
    <text
       xml:space="preserve"
       style="font-size:12px;font-style:normal;font-variant:normal;font-weight:normal;font-stretch:normal;text-align:center;line-height:125%;letter-spacing:0px;word-spacing:0px;text-anchor:middle;fill:#000000;fill-opacity:1;stroke:none;font-family:SF Toontime;-inkscape-font-specification:Sans"
       x="-171.40813"
       y="649.35681"
       id="text3107"
       sodipodi:linespacing="125%"><tspan
         sodipodi:role="line"
         id="tspan3109" /></text>
    <g
       style="font-size:100.64992523000000801px;font-style:normal;font-variant:normal;font-weight:normal;font-stretch:normal;text-align:center;line-height:125%;letter-spacing:0px;word-spacing:0px;text-anchor:middle;opacity:1;fill:#000000;fill-opacity:1;stroke:none;font-family:Delicious Curls Bold;-inkscape-font-specification:Delicious Curls Bold"
       id="text3111"
       transform="matrix(0.65066784,0,0,0.65066784,151.4044,181.62641)">
      <path
         d="m 210.90768,621.68573 c -0.557,-0.62247 -1.26142,-0.83543 -2.11325,-0.6389 -0.68806,0.0983 -1.32695,0.42598 -1.91668,0.98291 -0.98293,0.88466 -1.53991,2.16245 -1.67094,3.83335 -0.0983,1.57269 0.26209,2.75218 1.0812,3.53847 0.65525,0.65531 1.63816,0.86828 2.94873,0.6389 2.91593,-0.4259 5.06195,-1.72006 6.43805,-3.8825 1.40881,-2.19512 1.75283,-4.47219 1.03206,-6.83122 -0.32767,-1.04839 -0.81912,-1.86748 -1.47437,-2.45727 -0.6553,-0.49141 -1.39248,-0.75352 -2.21154,-0.78633 -1.76926,-0.16377 -3.94805,0.60618 -6.53635,2.30984 0.0655,-0.0327 -0.22937,0.16386 -0.88462,0.58974 l -0.44231,0.29488 -0.24572,0.24573 c -0.45871,0.36044 -0.90102,0.78637 -1.32693,1.27778 -0.78635,0.88466 -1.58906,1.96586 -2.40813,3.2436 -1.60543,2.49007 -2.78492,5.04564 -3.53847,7.66669 -1.96583,6.4217 -2.42452,11.97514 -1.37608,16.66032 0.58974,2.42452 1.58903,4.14461 2.99788,5.16027 1.40882,1.08121 3.48931,1.63819 6.24147,1.67095 5.76638,0.0328 10.89388,-1.60541 15.38253,-4.91455 4.48858,-3.24358 7.94514,-7.7322 10.3697,-13.46586 l 0.19658,-0.44231 c 0.0327,-0.13102 0.0982,-0.2457 0.19658,-0.34402 0.29483,-0.39313 0.65523,-0.99926 1.0812,-1.81838 0.36035,-0.65524 0.70437,-1.34328 1.03206,-2.06411 0.65522,-1.57262 1.17944,-3.06336 1.57265,-4.47224 0.91733,-3.21079 1.37602,-6.37248 1.37608,-9.48507 0.131,-6.22504 -1.42527,-12.69586 -4.66882,-19.41246 l 0.0491,0.0491 c -1.50717,-2.29338 -2.50646,-3.91518 -2.99787,-4.8654 0.98286,1.08127 2.29341,2.44096 3.93163,4.07907 l 0.0491,0.0983 c 2.29341,2.8505 4.1937,5.88113 5.70087,9.09191 1.50708,3.40747 2.53913,6.92956 3.09617,10.56627 0.52416,3.83339 0.4914,7.58483 -0.0983,11.25432 -0.32769,2.03138 -0.75362,3.8989 -1.27778,5.60258 -0.32769,0.91741 -0.67171,1.81841 -1.03206,2.703 -0.45874,1.17952 -0.90105,2.12966 -1.32693,2.85044 l 0.39317,-0.78633 c -2.29351,7.4046 -6.27429,13.46587 -11.94235,18.18383 -2.916,2.42451 -6.19237,4.30842 -9.8291,5.65172 -1.7365,0.65528 -3.57126,1.14673 -5.50429,1.47437 -1.80202,0.32764 -3.70231,0.52422 -5.70087,0.58974 -4.84904,0.13106 -8.96087,-1.03205 -12.33552,-3.48932 -1.90029,-1.34331 -3.45657,-3.0634 -4.66882,-5.16028 -1.01567,-1.73646 -1.78562,-3.75142 -2.30983,-6.04489 -0.75357,-3.47293 -0.88462,-7.28989 -0.39317,-11.4509 0.42593,-3.60397 1.22864,-7.12606 2.40813,-10.56627 1.21225,-3.44015 2.93234,-6.73289 5.16027,-9.87824 1.14672,-1.60537 2.39174,-3.04697 3.73506,-4.3248 0.78632,-0.75352 1.57264,-1.40879 2.35898,-1.96582 l 0.73719,-0.5406 0.58974,-0.34402 c 0.81908,-0.4914 1.22862,-0.73713 1.22864,-0.73718 1.86751,-0.98286 3.68589,-1.72004 5.45515,-2.21155 2.35895,-0.62245 4.5705,-0.75351 6.63463,-0.39316 2.55554,0.42598 4.68517,1.58909 6.38892,3.48933 1.57261,1.76928 2.53914,3.83339 2.89958,6.19232 0.688,4.48867 -0.42597,8.38754 -3.34189,11.69663 -1.40887,1.60545 -3.06344,2.76856 -4.9637,3.48933 -1.70373,0.72083 -3.58764,1.06484 -5.65173,1.03205 -1.17951,3e-5 -2.22795,-0.19655 -3.14531,-0.58975 -1.14674,-0.49142 -2.03136,-1.2286 -2.65385,-2.21154 -1.04846,-1.67091 -1.2778,-3.62035 -0.68804,-5.84831 0.62249,-2.1296 1.68731,-3.60396 3.19446,-4.4231 0.88459,-0.49141 1.75283,-0.70437 2.60471,-0.63889 1.01565,5e-5 1.72006,0.42598 2.11325,1.27779 m 46.29504,-28.70096 c 0.55691,0.62258 1.26132,0.83555 2.11325,0.63889 0.68796,-0.0982 1.34324,-0.42585 1.96582,-0.98291 0.95007,-0.88454 1.49067,-2.16232 1.6218,-3.83334 0.13098,-1.57258 -0.21304,-2.75207 -1.03205,-3.53848 -0.65535,-0.65519 -1.63826,-0.88454 -2.94873,-0.68804 -2.91604,0.45878 -5.07844,1.76932 -6.4872,3.93164 -1.40891,2.19524 -1.75292,4.47231 -1.03206,6.83122 0.32757,1.04851 0.83541,1.8676 1.52351,2.45728 0.62244,0.49152 1.35962,0.75363 2.21155,0.78632 1.76916,0.16389 3.94794,-0.60606 6.53634,-2.30983 -0.16389,0.0984 0.13098,-0.0982 0.88462,-0.58975 l 0.39317,-0.29487 0.24572,-0.24573 c 0.45862,-0.36033 0.90093,-0.78626 1.32693,-1.27778 0.81901,-0.88455 1.6381,-1.96575 2.45728,-3.2436 1.60533,-2.52273 2.78482,-5.07829 3.53847,-7.6667 1.93297,-6.42158 2.37528,-11.97501 1.32693,-16.66031 -0.55707,-2.42441 -1.55636,-4.16088 -2.99788,-5.20942 -1.37615,-1.04833 -3.44026,-1.58893 -6.19233,-1.6218 -5.79923,-0.0327 -10.92674,1.60552 -15.38253,4.91455 -4.48868,3.27646 -7.94524,7.76507 -10.36969,13.46586 l -0.19658,0.4423 c -0.0328,0.13115 -0.0983,0.2622 -0.19659,0.39317 -0.36045,0.45878 -0.76999,1.14681 -1.22863,2.06411 -0.42598,0.78641 -0.80276,1.58912 -1.13035,2.40813 -0.72085,1.76931 -1.29421,3.50579 -1.72009,5.20942 -0.8519,3.50578 -1.16316,7.19169 -0.93376,11.05773 0.19653,3.40748 1.01562,7.14253 2.45727,11.20516 0.5897,1.70377 1.35964,3.50577 2.30984,5.40601 1.67089,2.94877 2.6538,4.70162 2.94872,5.25856 l -4.02992,-4.52138 c -1.08125,-1.27773 -2.27713,-2.96506 -3.58762,-5.06198 -2.12968,-3.47289 -3.70234,-7.339 -4.71797,-11.59834 -1.01571,-4.16091 -1.27782,-8.43656 -0.78633,-12.82696 0.26207,-2.26062 0.688,-4.40663 1.27779,-6.43806 0.32759,-1.08112 0.68799,-2.12955 1.0812,-3.14531 0.55693,-1.31046 1.06477,-2.39166 1.52351,-3.2436 l -0.39317,0.78633 c 2.32617,-7.43726 6.30695,-13.49852 11.94235,-18.18383 2.94867,-2.45716 6.22503,-4.34107 9.8291,-5.65173 1.7364,-0.65516 3.58755,-1.14661 5.55343,-1.47436 1.80193,-0.36029 3.68584,-0.55687 5.65173,-0.58975 4.8817,-0.13094 9.00992,1.03217 12.38466,3.48933 1.9002,1.34342 3.45647,3.06351 4.66882,5.16027 1.01558,1.76935 1.76914,3.78431 2.26069,6.0449 0.75347,3.50581 0.90091,7.32277 0.44231,11.45089 -0.45878,3.60409 -1.27788,7.12618 -2.45727,10.56628 -1.17959,3.44026 -2.88329,6.733 -5.11113,9.87824 -1.17958,1.60549 -2.44098,3.04708 -3.7842,4.3248 -0.75365,0.75363 -1.53998,1.4089 -2.35898,1.96582 l -0.68804,0.49145 -0.63889,0.39317 c -0.78641,0.45875 -1.19596,0.6881 -1.22864,0.68803 -1.86761,1.01574 -3.68599,1.75292 -5.45515,2.21155 -2.35905,0.65533 -4.55421,0.80277 -6.58549,0.44231 -2.58839,-0.42587 -4.73441,-1.60536 -6.43806,-3.53847 -1.53995,-1.73641 -2.49009,-3.78414 -2.85043,-6.14319 -0.72086,-4.48854 0.3931,-8.4038 3.34189,-11.74577 1.37601,-1.57257 3.01419,-2.7193 4.91455,-3.44018 1.7364,-0.72071 3.63669,-1.06473 5.70087,-1.03205 1.17942,8e-5 2.22785,0.19666 3.14531,0.58974 1.11389,0.49154 1.98212,1.22872 2.60471,2.21155 1.04836,1.67102 1.2777,3.62046 0.68804,5.84831 -0.62259,2.12971 -1.67103,3.60407 -3.14531,4.42309 -0.8847,0.49153 -1.75293,0.70449 -2.60471,0.63889 -1.01575,7e-5 -1.73655,-0.42585 -2.1624,-1.27778"
         id="path3137"
         inkscape:connector-curvature="0"
         style="fill:#000000" />
      <path
         d="m 292.39087,615.39511 c 2.09683,0.78637 3.35823,2.35903 3.78421,4.71796 0.36035,1.99863 0.0819,4.14464 -0.83548,6.43806 -0.91743,2.26073 -2.27712,4.04634 -4.07907,5.35685 -1.90033,1.34335 -3.99721,2.22796 -6.29062,2.65386 -3.01429,0.52425 -5.55347,0.0164 -7.61755,-1.52351 -1.21228,-0.91735 -2.0969,-2.1296 -2.65386,-3.63677 -0.22937,-0.62247 -0.39319,-1.27774 -0.49145,-1.96581 -0.0983,-0.688 -0.13108,-1.44157 -0.0983,-2.2607 0.26208,-2.68657 1.42519,-5.07832 3.48933,-7.17523 2.09684,-2.16236 4.53773,-3.40737 7.32267,-3.73506 1.70367,-0.16377 3.29271,0.0656 4.76711,0.68804 0.29483,0.0983 0.90096,0.42597 1.81839,0.98291 0.52417,0.32768 1.03201,0.6717 1.52351,1.03205 1.99853,1.47441 3.66947,3.26003 5.01283,5.35686 2.71933,4.19378 3.71862,8.96089 2.99788,14.30133 -1.37613,9.01002 -6.24152,16.49651 -14.59621,22.45948 -3.93167,2.75215 -8.07627,4.61968 -12.4338,5.60258 -5.20944,1.0812 -9.97655,0.80271 -14.30133,-0.83547 -2.39176,-0.85185 -4.53778,-2.19516 -6.43806,-4.02993 -1.96582,-1.86752 -3.40742,-3.98077 -4.3248,-6.33976 -1.83477,-4.35755 -2.01497,-9.0919 -0.5406,-14.20305 2.4245,-8.45298 7.87965,-14.98932 16.36544,-19.60904 4.09543,-2.12959 8.10898,-3.32546 12.04064,-3.58762 4.71793,-0.26206 8.66595,0.67171 11.84406,2.80129 -3.47299,-1.17944 -7.27357,-1.24497 -11.40175,-0.19658 -3.66956,0.98296 -7.01144,2.62114 -10.02568,4.91455 -6.42169,4.718 -10.30417,10.53354 -11.64747,17.44664 -0.62252,3.44021 -0.31127,6.47084 0.93376,9.09191 1.24501,2.62111 3.3255,4.39034 6.24148,5.30771 2.81765,0.88463 5.88105,0.9174 9.1902,0.0983 3.14528,-0.72079 6.17592,-2.11325 9.09191,-4.17737 2.8504,-1.9658 5.25853,-4.35755 7.22438,-7.17524 2.03131,-2.88318 3.34185,-5.86466 3.93164,-8.94447 0.62247,-3.21081 0.2293,-6.07762 -1.17949,-8.60046 -0.68808,-1.21222 -1.6546,-2.37533 -2.89958,-3.48933 -0.32768,-0.29483 -0.62255,-0.54056 -0.88462,-0.73718 -0.49149,-0.36036 -0.72084,-0.52418 -0.68804,-0.49146 -0.26214,-0.19654 -0.62254,-0.31121 -1.0812,-0.34402 -1.04847,-0.0327 -2.11329,0.40959 -3.19445,1.32693 -1.04847,0.8519 -1.72013,1.88395 -2.01497,3.09617 -0.0328,0.0656 -0.0656,0.19662 -0.0983,0.39316 -0.0328,0.19662 -0.0492,0.29491 -0.0491,0.29487 -4e-5,0.36044 0.0327,0.6717 0.0983,0.93377 0.0983,0.52425 0.29484,0.95018 0.58974,1.27778 0.65524,0.7536 1.88388,1.114 3.68591,1.0812 1.67091,-0.0327 3.27633,-0.42589 4.81626,-1.17949 1.3105,-0.62247 2.55552,-1.78558 3.73506,-3.48933 1.11391,-1.6709 1.68728,-3.35823 1.72009,-5.06198 0.131,-1.96577 -0.65532,-3.58757 -2.35899,-4.8654"
         id="path3139"
         inkscape:connector-curvature="0"
         style="fill:#000000" />
      <path
         d="m 385.3741,593.96768 c -1.31059,0.95022 -2.26073,1.8676 -2.85043,2.75215 -0.75361,1.08126 -0.83552,1.9495 -0.24573,2.60471 -5e-5,-0.0327 0.0327,6e-5 0.0983,0.0983 0.0655,0.0983 0.0983,0.13112 0.0983,0.0983 0.0327,6e-5 0.0819,0.0164 0.14744,0.0491 0.0655,7e-5 0.16377,7e-5 0.29487,0 0.42588,-0.0982 0.7699,-0.21289 1.03205,-0.34401 0.85181,-0.36034 1.6709,-0.98285 2.45728,-1.86753 1.5726,-1.76917 2.22788,-3.42373 1.96582,-4.9637 -0.0983,-0.45861 -0.37683,-0.85178 -0.83548,-1.17949 -0.45874,-0.32756 -1.06486,-0.5569 -1.81838,-0.68803 -1.63823,-0.2948 -3.16173,0.0492 -4.57053,1.03205 -1.31058,0.95022 -2.99791,2.53926 -5.06198,4.76711 -3.14535,3.50578 -6.19236,7.5357 -9.14106,12.08979 -5.24221,8.09267 -9.86187,17.31563 -13.85902,27.6689 -0.39318,1.08123 -1.32694,3.52212 -2.80129,7.32267 -1.1795,3.04704 -2.09689,5.48793 -2.75215,7.32268 -0.98292,2.88321 -1.73648,5.37325 -2.26069,7.47011 -0.65528,3.53848 -0.62252,6.07766 0.0983,7.61755 -1.21226,-0.62251 -2.17879,-1.73647 -2.89958,-3.34189 -0.65528,-1.37607 -1.11397,-2.80129 -1.37608,-4.27566 -0.49145,-2.45726 -0.67165,-5.35684 -0.5406,-8.69875 0.16382,-5.53703 1.06482,-11.10685 2.703,-16.70946 3.2436,-11.33618 8.05985,-21.54204 14.44877,-30.61763 3.63675,-5.14382 7.43732,-9.46862 11.40175,-12.9744 2.78488,-2.42443 5.32406,-4.22643 7.61755,-5.406 3.5712,-1.86745 7.28987,-2.1787 11.15602,-0.93377 2.06406,0.65536 3.75139,1.76932 5.06199,3.3419 1.5726,1.76931 2.29339,3.81704 2.1624,6.14318 -0.22941,3.73512 -2.06417,6.70023 -5.5043,8.89533 -1.60546,1.01574 -3.17812,1.63824 -4.71796,1.86753 -1.14677,0.13111 -2.12968,0.0328 -2.94873,-0.29488 -0.58979,-0.22928 -1.06486,-0.5733 -1.42522,-1.03205 -0.22939,-0.22928 -0.40959,-0.47501 -0.5406,-0.73718 0.0327,0.0328 -0.0492,-0.19652 -0.24573,-0.68804 -0.32767,-1.01561 -0.27853,-1.96575 0.14744,-2.85044 0.3276,-0.72073 0.8682,-1.34324 1.6218,-1.86752 1.11392,-0.78626 2.40808,-1.34324 3.88249,-1.67095"
         id="path3141"
         inkscape:connector-curvature="0"
         style="fill:#000000" />
      <path
         d="m 374.51295,624.58531 c 0.29485,-2.62105 0.91736,-5.52063 1.86753,-8.69875 0.19656,-0.5897 0.55696,-1.032 1.0812,-1.32693 0.55696,-0.29482 1.1467,-0.36035 1.76924,-0.19658 0.55695,0.19663 0.98288,0.55703 1.27778,1.0812 0.32761,0.52427 0.40952,1.06487 0.24573,1.6218 l -0.24573,0.98291 c -1.0157,4.19379 -2.80132,9.51788 -5.35686,15.97228 0.19656,-0.49142 -1.86754,4.50503 -6.19233,14.98937 -1.34332,3.3419 -2.22794,5.6845 -2.65385,7.0278 0.0655,-0.19657 -0.0983,0.54061 -0.49146,2.21155 -0.0328,0.0328 -0.14744,0 -0.34402,-0.0983 -0.26211,-0.0983 -0.34402,-0.0491 -0.24572,0.14743 0.19657,0.36041 0.99928,0.4587 2.40813,0.29487 0.75355,-0.0327 1.99856,-0.21295 3.73505,-0.5406 -0.0328,10e-6 2.70298,-0.70441 8.20729,-2.11325 -1.67096,2.29346 -3.73507,4.39033 -6.19232,6.29062 -1.21228,0.98291 -2.5392,1.802 -3.98079,2.45727 -2.16241,0.91739 -4.09546,1.27778 -5.79916,1.0812 -1.5399,-0.22934 -2.85045,-0.81909 -3.93164,-1.76923 -1.0812,-0.95015 -1.85115,-2.17878 -2.30984,-3.68591 -0.45869,-1.60542 -0.57336,-3.62038 -0.34402,-6.0449 0.32764,-2.45726 1.0812,-5.43875 2.2607,-8.94447 1.76923,-4.98005 4.2265,-10.14032 7.37182,-15.48083 2.88318,-4.81621 6.1104,-9.43588 9.68165,-13.85902 l 4.12822,2.21155 c -0.26213,0.29492 -0.7372,0.81913 -1.42522,1.57265 -0.58976,0.68808 -1.08122,1.22868 -1.47436,1.6218 -1.04846,1.17954 -2.06413,2.24435 -3.04702,3.19446 m 15.92313,-24.62188 c -3e-5,1.47443 -0.52425,2.73582 -1.57265,3.7842 -1.04847,1.0485 -2.30987,1.57271 -3.7842,1.57265 -1.47439,6e-5 -2.73579,-0.52415 -3.7842,-1.57265 -1.04847,-1.04838 -1.57268,-2.30977 -1.57266,-3.7842 -2e-5,-1.4743 0.52419,-2.7357 1.57266,-3.7842 1.04841,-1.04837 2.30981,-1.57259 3.7842,-1.57266 1.47433,7e-5 2.73573,0.52429 3.7842,1.57266 1.0484,1.0485 1.57262,2.3099 1.57265,3.7842"
         id="path3143"
         inkscape:connector-curvature="0"
         style="fill:#000000" />
      <path
         d="m 428.52383,584.77748 c -3.24364,3.47302 -7.09337,9.15751 -11.54918,17.05348 -3.11258,5.73369 -5.96301,11.81134 -8.55131,18.23297 -2.39177,5.93025 -4.60332,12.25363 -6.63464,18.97015 -1.11399,3.66955 -1.90031,6.83124 -2.35898,9.48507 -0.29489,1.44162 -0.45871,2.8996 -0.49146,4.37395 -0.0328,0.91739 0.0655,1.86754 0.29487,2.85044 l 0.49146,0.63889 c -0.0328,0.0328 0.14742,0.29488 0.5406,0.78633 0.29485,0.3604 0.58972,0.67166 0.88462,0.93376 0.65525,0.62252 1.39243,1.13035 2.21154,1.52351 1.70369,0.85186 3.63674,1.31055 5.79917,1.37607 3.63673,0.0655 8.05982,-0.88461 13.26928,-2.85043 -1.99863,1.70371 -3.96444,3.07978 -5.89746,4.12822 -2.45731,1.34331 -4.78352,2.22792 -6.97866,2.65385 -2.88322,0.55698 -5.55346,0.50784 -8.01071,-0.14744 -1.40885,-0.3604 -2.73578,-0.91738 -3.98078,-1.67094 -0.65529,-0.39316 -1.26142,-0.83547 -1.81838,-1.32693 -0.75358,-0.68803 -1.32695,-1.31054 -1.7201,-1.86753 l 0.49146,0.63889 c -1.6382,-1.47435 -2.8013,-3.71866 -3.48933,-6.73293 -0.32765,-1.6054 -0.49146,-3.63675 -0.49145,-6.09403 0.0655,-3.27635 0.5242,-6.99502 1.37607,-11.15603 1.53988,-7.1752 3.88248,-14.07194 7.0278,-20.69024 3.27634,-6.88031 7.27351,-12.99072 11.9915,-18.33126 2.81764,-3.14524 5.48787,-5.65166 8.01071,-7.51926 3.57119,-2.7193 6.76565,-4.47216 9.58336,-5.25856 m -40.44672,52.68394 c -0.65528,0.16385 -1.32693,-0.0163 -2.01496,-0.5406 -0.55699,-0.45866 -0.98292,-1.11393 -1.27778,-1.96582 -0.42594,-1.21222 -0.55699,-2.63744 -0.39317,-4.27565 0.0655,-0.52419 0.1802,-1.17946 0.34402,-1.96582 0.26211,-0.91735 0.55698,-1.67091 0.88462,-2.26069 0.81908,-1.53985 2.0641,-2.80125 3.73505,-3.7842 2.39174,-1.31051 5.38961,-1.83472 8.99363,-1.57266 2.39172,0.22939 4.7507,0.75361 7.07694,1.57266 2.75212,0.98295 4.47221,1.53993 5.16028,1.67094 1.63815,0.26215 3.09613,0.21301 4.37394,-0.14744 2.91593,-0.75352 5.89742,-3.25993 8.94448,-7.51925 0.81905,5.66815 -0.91742,10.27144 -5.20942,13.80988 -2.35902,1.86756 -5.11116,2.88323 -8.25644,3.04701 -1.27781,0.13109 -3.84975,-0.1474 -7.71584,-0.83547 -5.79918,-1.17946 -9.04278,-1.75282 -9.7308,-1.72009 -1.1795,-0.0983 -2.27708,0.47511 -3.29275,1.72009 -0.8191,0.88465 -1.37608,1.58907 -1.67094,2.11326 -0.62252,0.98294 -0.60614,1.86755 0.0491,2.65385"
         id="path3145"
         inkscape:connector-curvature="0"
         style="fill:#000000" />
      <path
         d="m 456.63504,584.77748 c -3.24364,3.47302 -7.09337,9.15751 -11.54919,17.05348 -3.11257,5.73369 -5.96301,11.81134 -8.55131,18.23297 -2.39177,5.93025 -4.60331,12.25363 -6.63464,18.97015 -1.11398,3.66955 -1.90031,6.83124 -2.35898,9.48507 -0.29489,1.44162 -0.45871,2.8996 -0.49145,4.37395 -0.0328,0.91739 0.0655,1.86754 0.29487,2.85044 l 0.49145,0.63889 c -0.0328,0.0328 0.14742,0.29488 0.5406,0.78633 0.29486,0.3604 0.58973,0.67166 0.88462,0.93376 0.65526,0.62252 1.39244,1.13035 2.21155,1.52351 1.70369,0.85186 3.63674,1.31055 5.79917,1.37607 3.63673,0.0655 8.05982,-0.88461 13.26927,-2.85043 -1.99862,1.70371 -3.96444,3.07978 -5.89745,4.12822 -2.45731,1.34331 -4.78353,2.22792 -6.97866,2.65385 -2.88323,0.55698 -5.55346,0.50784 -8.01071,-0.14744 -1.40886,-0.3604 -2.73579,-0.91738 -3.98079,-1.67094 -0.65528,-0.39316 -1.26141,-0.83547 -1.81838,-1.32693 -0.75358,-0.68803 -1.32694,-1.31054 -1.72009,-1.86753 l 0.49145,0.63889 c -1.63819,-1.47435 -2.8013,-3.71866 -3.48932,-6.73293 -0.32765,-1.6054 -0.49147,-3.63675 -0.49146,-6.09403 0.0655,-3.27635 0.52421,-6.99502 1.37607,-11.15603 1.53988,-7.1752 3.88248,-14.07194 7.02781,-20.69024 3.27634,-6.88031 7.2735,-12.99072 11.99149,-18.33126 2.81764,-3.14524 5.48788,-5.65166 8.01071,-7.51926 3.5712,-2.7193 6.76565,-4.47216 9.58337,-5.25856 m -40.44672,52.68394 c -0.65528,0.16385 -1.32694,-0.0163 -2.01497,-0.5406 -0.55698,-0.45866 -0.98291,-1.11393 -1.27778,-1.96582 -0.42593,-1.21222 -0.55698,-2.63744 -0.39316,-4.27565 0.0655,-0.52419 0.18019,-1.17946 0.34402,-1.96582 0.2621,-0.91735 0.55697,-1.67091 0.88461,-2.26069 0.81909,-1.53985 2.06411,-2.80125 3.73506,-3.7842 2.39174,-1.31051 5.38961,-1.83472 8.99362,-1.57266 2.39173,0.22939 4.75071,0.75361 7.07695,1.57266 2.75212,0.98295 4.47221,1.53993 5.16027,1.67094 1.63816,0.26215 3.09614,0.21301 4.37395,-0.14744 2.91593,-0.75352 5.89742,-3.25993 8.94448,-7.51925 0.81904,5.66815 -0.91743,10.27144 -5.20942,13.80988 -2.35902,1.86756 -5.11116,2.88323 -8.25644,3.04701 -1.27781,0.13109 -3.84976,-0.1474 -7.71584,-0.83547 -5.79918,-1.17946 -9.04278,-1.75282 -9.73081,-1.72009 -1.1795,-0.0983 -2.27708,0.47511 -3.29274,1.72009 -0.8191,0.88465 -1.37608,1.58907 -1.67095,2.11326 -0.62251,0.98294 -0.60613,1.86755 0.0491,2.65385"
         id="path3147"
         inkscape:connector-curvature="0"
         style="fill:#000000" />
      <path
         d="m 484.45137,593.96768 c -1.31059,0.95022 -2.26073,1.8676 -2.85043,2.75215 -0.75361,1.08126 -0.83552,1.9495 -0.24573,2.60471 -4e-5,-0.0327 0.0327,6e-5 0.0983,0.0983 0.0655,0.0983 0.0983,0.13112 0.0983,0.0983 0.0327,6e-5 0.0819,0.0164 0.14744,0.0491 0.0655,7e-5 0.16377,7e-5 0.29487,0 0.42588,-0.0982 0.7699,-0.21289 1.03206,-0.34401 0.8518,-0.36034 1.67089,-0.98285 2.45727,-1.86753 1.5726,-1.76917 2.22788,-3.42373 1.96582,-4.9637 -0.0983,-0.45861 -0.37683,-0.85178 -0.83548,-1.17949 -0.45873,-0.32756 -1.06486,-0.5569 -1.81838,-0.68803 -1.63823,-0.2948 -3.16173,0.0492 -4.57053,1.03205 -1.31058,0.95022 -2.99791,2.53926 -5.06198,4.76711 -3.14534,3.50578 -6.19236,7.5357 -9.14106,12.08979 -5.2422,8.09267 -9.86187,17.31563 -13.85902,27.6689 -0.39318,1.08123 -1.32694,3.52212 -2.80129,7.32267 -1.1795,3.04704 -2.09689,5.48793 -2.75215,7.32268 -0.98292,2.88321 -1.73648,5.37325 -2.26069,7.47011 -0.65528,3.53848 -0.62252,6.07766 0.0983,7.61755 -1.21226,-0.62251 -2.17879,-1.73647 -2.89958,-3.34189 -0.65528,-1.37607 -1.11397,-2.80129 -1.37608,-4.27566 -0.49145,-2.45726 -0.67165,-5.35684 -0.5406,-8.69875 0.16382,-5.53703 1.06482,-11.10685 2.70301,-16.70946 3.24359,-11.33618 8.05984,-21.54204 14.44876,-30.61763 3.63675,-5.14382 7.43732,-9.46862 11.40175,-12.9744 2.78488,-2.42443 5.32406,-4.22643 7.61755,-5.406 3.5712,-1.86745 7.28987,-2.1787 11.15602,-0.93377 2.06406,0.65536 3.75139,1.76932 5.06199,3.3419 1.5726,1.76931 2.2934,3.81704 2.1624,6.14318 -0.2294,3.73512 -2.06417,6.70023 -5.5043,8.89533 -1.60546,1.01574 -3.17812,1.63824 -4.71796,1.86753 -1.14677,0.13111 -2.12968,0.0328 -2.94873,-0.29488 -0.58979,-0.22928 -1.06486,-0.5733 -1.42522,-1.03205 -0.22939,-0.22928 -0.40958,-0.47501 -0.5406,-0.73718 0.0327,0.0328 -0.0492,-0.19652 -0.24573,-0.68804 -0.32767,-1.01561 -0.27853,-1.96575 0.14744,-2.85044 0.3276,-0.72073 0.8682,-1.34324 1.6218,-1.86752 1.11392,-0.78626 2.40808,-1.34324 3.88249,-1.67095"
         id="path3149"
         inkscape:connector-curvature="0"
         style="fill:#000000" />
      <path
         d="m 500.32537,646.25846 c -2.09691,5.93023 -6.12684,10.8284 -12.08978,14.6945 -6.8804,4.19374 -13.61332,5.37323 -20.19879,3.53847 -3.96441,-1.0812 -7.17525,-3.2436 -9.63251,-6.4872 -2.35899,-3.11254 -3.66953,-6.78206 -3.93164,-11.00859 -0.29487,-7.17521 2.1624,-13.87537 7.37182,-20.10049 4.88177,-5.7336 10.76284,-9.48503 17.64322,-11.25432 1.80198,-0.4914 3.57121,-0.78627 5.30771,-0.88462 0.95012,-0.0327 1.88388,-0.0327 2.8013,0 l 1.32692,0.0983 c 0.49142,0.0656 0.9665,0.1311 1.42522,0.19658 3.83331,0.68808 7.19158,2.24436 10.07482,4.66882 1.93301,1.63822 3.09612,3.60404 3.48933,5.89745 0.36035,2.03139 0.0655,4.11188 -0.88462,6.24148 -1.53993,3.40745 -4.04635,5.96301 -7.51925,7.66669 -3.44022,1.70374 -6.79849,2.12966 -10.07482,1.27778 -3.14534,-0.72077 -5.78281,-2.50639 -7.91243,-5.35685 2.75213,1.99861 5.48789,2.9979 8.2073,2.99787 2.81764,3e-5 5.34044,-0.85183 7.5684,-2.55556 2.32618,-1.80197 3.76778,-3.81693 4.3248,-6.0449 0.29483,-1.11392 0.27845,-2.04769 -0.0491,-2.80129 -0.22939,-0.688 -0.70446,-1.26136 -1.42522,-1.72009 -4.0955,-2.55552 -8.82984,-2.9323 -14.20304,-1.13035 -4.94734,1.67099 -9.19022,4.61972 -12.72868,8.84619 -3.66954,4.42312 -5.48792,8.96088 -5.45515,13.6133 -0.0328,2.35899 0.54059,4.47225 1.72009,6.33976 1.17948,1.86754 2.85043,3.25999 5.01284,4.17737 1.01566,0.42593 2.17877,0.75357 3.48933,0.98291 1.31053,0.19658 2.63745,0.27849 3.98078,0.24572 2.62107,-0.0983 5.30769,-0.68803 8.05986,-1.76923 5.40597,-1.99858 10.17307,-5.45514 14.30133,-10.3697"
         id="path3151"
         inkscape:connector-curvature="0"
         style="fill:#000000" />
      <path
         d="m 588.73807,584.77748 c -3.24365,3.47302 -7.09337,9.15751 -11.54919,17.05348 -3.11258,5.73369 -5.96301,11.81134 -8.55131,18.23297 -2.39177,5.93025 -4.60331,12.25363 -6.63464,18.97015 -1.11398,3.66955 -1.90031,6.83124 -2.35898,9.48507 -0.29489,1.44162 -0.45871,2.8996 -0.49146,4.37395 -0.0328,0.91739 0.0655,1.86754 0.29488,2.85044 l 0.49145,0.63889 c -0.0328,0.0328 0.14742,0.29488 0.5406,0.78633 0.29486,0.3604 0.58973,0.67166 0.88462,0.93376 0.65525,0.62252 1.39243,1.13035 2.21155,1.52351 1.70368,0.85186 3.63674,1.31055 5.79916,1.37607 3.63674,0.0655 8.05982,-0.88461 13.26928,-2.85043 -1.99862,1.70371 -3.96444,3.07978 -5.89746,4.12822 -2.4573,1.34331 -4.78352,2.22792 -6.97865,2.65385 -2.88323,0.55698 -5.55346,0.50784 -8.01072,-0.14744 -1.40885,-0.3604 -2.73578,-0.91738 -3.98078,-1.67094 -0.65529,-0.39316 -1.26141,-0.83547 -1.81838,-1.32693 -0.75358,-0.68803 -1.32694,-1.31054 -1.72009,-1.86753 l 0.49145,0.63889 c -1.63819,-1.47435 -2.8013,-3.71866 -3.48933,-6.73293 -0.32764,-1.6054 -0.49146,-3.63675 -0.49145,-6.09403 0.0655,-3.27635 0.52421,-6.99502 1.37607,-11.15603 1.53988,-7.1752 3.88248,-14.07194 7.0278,-20.69024 3.27635,-6.88031 7.27351,-12.99072 11.9915,-18.33126 2.81764,-3.14524 5.48788,-5.65166 8.01071,-7.51926 3.5712,-2.7193 6.76565,-4.47216 9.58337,-5.25856 m -40.44672,52.68394 c -0.65528,0.16385 -1.32694,-0.0163 -2.01497,-0.5406 -0.55699,-0.45866 -0.98291,-1.11393 -1.27778,-1.96582 -0.42593,-1.21222 -0.55699,-2.63744 -0.39317,-4.27565 0.0655,-0.52419 0.1802,-1.17946 0.34402,-1.96582 0.26211,-0.91735 0.55698,-1.67091 0.88462,-2.26069 0.81909,-1.53985 2.06411,-2.80125 3.73506,-3.7842 2.39173,-1.31051 5.3896,-1.83472 8.99362,-1.57266 2.39173,0.22939 4.75071,0.75361 7.07695,1.57266 2.75212,0.98295 4.47221,1.53993 5.16027,1.67094 1.63815,0.26215 3.09613,0.21301 4.37395,-0.14744 2.91593,-0.75352 5.89742,-3.25993 8.94447,-7.51925 0.81905,5.66815 -0.91742,10.27144 -5.20942,13.80988 -2.35901,1.86756 -5.11116,2.88323 -8.25644,3.04701 -1.27781,0.13109 -3.84975,-0.1474 -7.71583,-0.83547 -5.79919,-1.17946 -9.04278,-1.75282 -9.73081,-1.72009 -1.1795,-0.0983 -2.27708,0.47511 -3.29274,1.72009 -0.8191,0.88465 -1.37608,1.58907 -1.67095,2.11326 -0.62252,0.98294 -0.60613,1.86755 0.0491,2.65385"
         id="path3153"
         inkscape:connector-curvature="0"
         style="fill:#000000" />
      <path
         d="m 588.98379,624.58531 c 0.29486,-2.62105 0.91736,-5.52063 1.86753,-8.69875 0.19656,-0.5897 0.55696,-1.032 1.0812,-1.32693 0.55696,-0.29482 1.1467,-0.36035 1.76924,-0.19658 0.55695,0.19663 0.98288,0.55703 1.27778,1.0812 0.32761,0.52427 0.40952,1.06487 0.24573,1.6218 l -0.24573,0.98291 c -1.0157,4.19379 -2.80131,9.51788 -5.35686,15.97228 0.19656,-0.49142 -1.86754,4.50503 -6.19233,14.98937 -1.34332,3.3419 -2.22794,5.6845 -2.65385,7.0278 0.0655,-0.19657 -0.0983,0.54061 -0.49146,2.21155 -0.0328,0.0328 -0.14744,0 -0.34401,-0.0983 -0.26212,-0.0983 -0.34403,-0.0491 -0.24573,0.14743 0.19657,0.36041 0.99928,0.4587 2.40813,0.29487 0.75355,-0.0327 1.99856,-0.21295 3.73505,-0.5406 -0.0328,10e-6 2.70298,-0.70441 8.2073,-2.11325 -1.67097,2.29346 -3.73508,4.39033 -6.19233,6.29062 -1.21228,0.98291 -2.5392,1.802 -3.98079,2.45727 -2.16241,0.91739 -4.09546,1.27778 -5.79916,1.0812 -1.5399,-0.22934 -2.85045,-0.81909 -3.93164,-1.76923 -1.0812,-0.95015 -1.85115,-2.17878 -2.30984,-3.68591 -0.45869,-1.60542 -0.57336,-3.62038 -0.34402,-6.0449 0.32764,-2.45726 1.0812,-5.43875 2.2607,-8.94447 1.76923,-4.98005 4.2265,-10.14032 7.37182,-15.48083 2.88318,-4.81621 6.1104,-9.43588 9.68165,-13.85902 l 4.12822,2.21155 c -0.26213,0.29492 -0.7372,0.81913 -1.42521,1.57265 -0.58977,0.68808 -1.08123,1.22868 -1.47437,1.6218 -1.04846,1.17954 -2.06413,2.24435 -3.04702,3.19446 m 15.92313,-24.62188 c -3e-5,1.47443 -0.52425,2.73582 -1.57265,3.7842 -1.04847,1.0485 -2.30987,1.57271 -3.7842,1.57265 -1.47439,6e-5 -2.73579,-0.52415 -3.7842,-1.57265 -1.04846,-1.04838 -1.57268,-2.30977 -1.57266,-3.7842 -2e-5,-1.4743 0.5242,-2.7357 1.57266,-3.7842 1.04841,-1.04837 2.30981,-1.57259 3.7842,-1.57266 1.47433,7e-5 2.73573,0.52429 3.7842,1.57266 1.0484,1.0485 1.57262,2.3099 1.57265,3.7842"
         id="path3155"
         inkscape:connector-curvature="0"
         style="fill:#000000" />
      <path
         d="m 592.76799,621.73487 c 1.90029,-2.19512 3.83334,-3.99712 5.79916,-5.406 1.24502,-0.88457 2.45727,-1.53984 3.63677,-1.96582 1.60541,-0.58969 3.09615,-0.72075 4.47224,-0.39316 0.0327,5e-5 0.39315,0.0983 1.0812,0.29487 0.65526,0.32769 1.04842,0.54065 1.17949,0.63889 0.65526,0.42598 1.245,0.99934 1.76924,1.72009 0.78631,0.98296 1.4252,2.34265 1.91667,4.07908 0.45867,1.73651 0.83545,4.45589 1.13034,8.15814 0.2621,4.12826 0.18019,9.46873 -0.24572,16.02143 -0.22937,2.7194 -0.68806,7.92881 -1.37608,15.62826 l -7.32267,-1.13035 c 1.83475,-12.057 3.88248,-20.87041 6.14318,-26.44026 l 2.60471,-6.19233 c 1.08118,-2.45723 2.12962,-4.57049 3.14531,-6.33977 1.47434,-2.55551 2.99785,-4.65238 4.57053,-6.29062 2.55554,-2.62103 5.34045,-4.17731 8.35473,-4.66882 1.7692,-0.26205 3.53844,-0.14738 5.30771,0.34402 1.70367,0.42598 3.24356,1.1304 4.61968,2.11326 2.68657,1.90034 4.50495,4.61972 5.45514,8.15815 0.98286,3.66957 1.11392,8.71516 0.39317,15.1368 l -1.86753,12.9744 -0.83547,6.48721 c -0.45874,3.27637 -0.81914,5.5862 -1.0812,6.92951 -0.26216,1.37607 -0.98296,2.45727 -2.1624,3.2436 -1.17954,0.78633 -2.45732,1.03205 -3.83335,0.73718 -1.37611,-0.26211 -2.45731,-0.96653 -3.2436,-2.11325 -0.7536,-1.17949 -0.99933,-2.45727 -0.73718,-3.83335 1.53985,-7.99432 2.3917,-12.38464 2.55556,-13.17099 1.08116,-5.04557 2.55552,-9.56695 4.42309,-13.56415 l 2.89959,-6.09404 c 1.17944,-2.45723 2.27702,-4.5541 3.29274,-6.29062 1.37603,-2.32617 2.89953,-4.35751 4.57053,-6.09403 2.42446,-2.45722 4.9964,-3.99711 7.71584,-4.61968 1.63812,-0.36034 3.30906,-0.34396 5.01284,0.0492 0.68797,0.19663 1.11389,0.31131 1.27778,0.34402 l 0.78633,0.29487 c 0.85178,0.36045 1.60535,0.75362 2.26069,1.17949 2.62102,1.671 4.37387,4.14465 5.25857,7.42097 0.9173,3.53851 0.86816,8.43667 -0.14744,14.69449 l -2.50642,13.0727 c -0.88469,4.55416 -1.327,6.7657 -1.32693,6.63464 -0.75363,3.21084 -1.17956,5.30771 -1.27778,6.29062 l -0.0492,0.19658 c -0.39323,2.19517 -0.60619,4.40671 -0.63889,6.63464 -7e-5,2.68661 0.32757,4.81625 0.98291,6.38891 0.42586,1.08119 1.03199,1.86752 1.81838,2.35898 0.78626,0.52421 1.78555,0.72079 2.99788,0.58975 1.73639,-0.1966 3.84965,-1.01569 6.33976,-2.45728 -2.32629,1.76923 -4.3904,2.86681 -6.19232,3.29275 -1.40892,0.32762 -2.65393,0.21295 -3.73506,-0.34402 -1.08127,-0.49146 -1.98227,-1.39246 -2.703,-2.703 -0.91745,-1.73648 -1.52358,-4.07908 -1.81838,-7.0278 -0.19665,-2.39175 -0.19665,-4.79987 0,-7.22439 l 0,0.19659 c -0.0328,-1.04843 0.14736,-3.34189 0.5406,-6.88037 -0.0328,0.16383 0.13098,-2.01495 0.49145,-6.53635 0.2948,-4.48859 0.67159,-8.91168 1.13035,-13.26928 0.45862,-5.24214 0.19651,-9.15739 -0.78633,-11.74576 -0.55705,-1.47432 -1.35976,-2.50638 -2.40813,-3.09617 -0.0328,5e-5 -0.27856,-0.0982 -0.73718,-0.29487 l -0.78633,-0.24573 c 0.0327,5e-5 -0.0656,-0.0163 -0.29487,-0.0491 -0.55705,-0.0655 -1.09765,-0.0163 -1.6218,0.14743 -1.99865,0.4915 -4.12828,2.91601 -6.38891,7.27353 -0.85191,1.50717 -1.75291,3.3747 -2.703,5.60259 l -2.55557,6.04489 c -1.44165,3.47297 -2.55561,7.42099 -3.34189,11.84406 -0.22939,1.2778 -0.99934,5.60259 -2.30984,12.9744 l -10.02567,-1.96582 c 0.22931,-1.14672 0.5078,-3.17806 0.83547,-6.09404 l 0.78633,-6.53634 0.83547,-6.5855 0.98291,-6.4872 c 0.72076,-4.91451 0.75352,-8.56765 0.0983,-10.95944 -0.36044,-1.27774 -0.88466,-2.16235 -1.57266,-2.65385 -0.3932,-0.26207 -0.81912,-0.47503 -1.27778,-0.63889 -0.42596,-0.13101 -0.81912,-0.16378 -1.17949,-0.0983 -0.88465,0.0983 -1.86756,0.65532 -2.94873,1.67095 -1.04847,1.01572 -2.14605,2.42455 -3.29274,4.22651 -0.91741,1.4744 -1.88394,3.24364 -2.89959,5.30771 l -2.75214,5.79917 c -2.52282,5.7009 -4.89819,13.80989 -7.1261,24.32701 l -0.0491,0.19658 c -0.22936,1.01567 -0.76996,1.802 -1.6218,2.35898 -0.85187,0.55698 -1.78563,0.7208 -2.80129,0.49145 -0.95016,-0.19658 -1.70372,-0.70441 -2.2607,-1.5235 -0.55699,-0.78633 -0.76995,-1.67095 -0.63889,-2.65386 0.29487,-1.96581 0.73718,-4.57052 1.32693,-7.81413 0.68803,-3.7678 1.14672,-6.32336 1.37607,-7.66669 0.95014,-5.96296 1.55626,-11.04132 1.81839,-15.2351 0.13104,-3.40738 0.0819,-5.88103 -0.14744,-7.42097 -0.42594,-2.78486 -1.47438,-4.48857 -3.14531,-5.11113 -1.57266,-0.62245 -3.81697,-0.24567 -6.73293,1.13035 -2.09687,1.01572 -4.25927,2.42456 -6.4872,4.22651"
         id="path3157"
         inkscape:connector-curvature="0"
         style="fill:#000000" />
      <path
         d="m 721.08682,646.25846 c -2.09692,5.93023 -6.12684,10.8284 -12.08979,14.6945 -6.88039,4.19374 -13.61331,5.37323 -20.19879,3.53847 -3.96441,-1.0812 -7.17524,-3.2436 -9.63251,-6.4872 -2.35898,-3.11254 -3.66953,-6.78206 -3.93164,-11.00859 -0.29487,-7.17521 2.1624,-13.87537 7.37182,-20.10049 4.88177,-5.7336 10.76284,-9.48503 17.64323,-11.25432 1.80197,-0.4914 3.57121,-0.78627 5.30771,-0.88462 0.95011,-0.0327 1.88388,-0.0327 2.80129,0 l 1.32693,0.0983 c 0.49142,0.0656 0.96649,0.1311 1.42522,0.19658 3.8333,0.68808 7.19157,2.24436 10.07482,4.66882 1.93301,1.63822 3.09611,3.60404 3.48933,5.89745 0.36035,2.03139 0.0655,4.11188 -0.88462,6.24148 -1.53994,3.40745 -4.04636,5.96301 -7.51926,7.66669 -3.44022,1.70374 -6.79849,2.12966 -10.07482,1.27778 -3.14534,-0.72077 -5.78281,-2.50639 -7.91242,-5.35685 2.75212,1.99861 5.48788,2.9979 8.20729,2.99787 2.81764,3e-5 5.34044,-0.85183 7.56841,-2.55556 2.32617,-1.80197 3.76777,-3.81693 4.3248,-6.0449 0.29483,-1.11392 0.27844,-2.04769 -0.0492,-2.80129 -0.22939,-0.688 -0.70446,-1.26136 -1.42522,-1.72009 -4.09549,-2.55552 -8.82983,-2.9323 -14.20304,-1.13035 -4.94733,1.67099 -9.19022,4.61972 -12.72868,8.84619 -3.66954,4.42312 -5.48792,8.96088 -5.45514,13.6133 -0.0328,2.35899 0.54059,4.47225 1.72009,6.33976 1.17948,1.86754 2.85042,3.25999 5.01284,4.17737 1.01565,0.42593 2.17876,0.75357 3.48933,0.98291 1.31052,0.19658 2.63745,0.27849 3.98078,0.24572 2.62106,-0.0983 5.30768,-0.68803 8.05986,-1.76923 5.40596,-1.99858 10.17307,-5.45514 14.30133,-10.3697"
         id="path3159"
         inkscape:connector-curvature="0"
         style="fill:#000000" />
    </g>
    <path
       style="opacity:1;fill:#000000;stroke:none"
       d="m 155.59375,432.3125 c -3.98631,0.13892 -9.10476,3.80328 -9.6875,4.96875 -1.68717,0.97679 -1.21875,3 -1.21875,3 -4.62831,2.25044 -1.09375,6.9375 -1.09375,6.9375 0.3552,3.55195 -0.875,10.09375 -0.875,10.09375 -0.0888,9.50146 5.875,8.5625 5.875,8.5625 1.24318,8.85766 -3.08682,12.68049 -4.1875,13.5 -0.74267,-2.0324 -1.25284,-4.82529 -1.59375,-7.8125 -0.52801,-4.62669 -0.80593,-9.59994 -2.125,-13.0625 -0.0115,-0.0348 -0.0156,-0.0918 -0.0312,-0.125 -1.34661,-2.60141 -2.31506,-4.60606 -3.71875,-6.125 -1.40368,-1.51894 -3.25574,-2.42478 -5.9375,-2.8125 -0.0136,-3e-4 -0.018,-3e-4 -0.0312,0 -1.07061,-0.12898 -2.07698,-0.0346 -3,0.21875 -0.005,-0.003 -0.0268,0.003 -0.0312,0 -1.85325,-1.30566 -4.01311,-2.22494 -6.375,-2.1875 -5.13508,0.0814 -8.0208,3.36508 -7.84375,6.375 l 0.0312,0 c 0.12204,1.58667 0.78965,3.35634 1.78125,4.84375 0.99161,1.48741 2.27964,2.76316 3.9375,3 l 0.0625,0 0.0625,0 c 0.88712,0.0277 1.63462,-0.16035 2.25,-0.5 0.62938,2.14176 1.97459,3.64867 3.78125,4.6875 0.0265,0.015 0.0661,0.0503 0.0937,0.0625 0.79712,0.3587 1.62129,0.38069 2.3125,0.15625 0.69122,-0.22444 1.23566,-0.67738 1.65625,-1.15625 0.42059,-0.47888 0.73315,-0.99771 0.9375,-1.5 0.18737,-0.46054 0.25449,-0.85621 0.21875,-1.34375 l 0.0625,0 c 0,-0.0384 -0.03,-0.0876 -0.0312,-0.125 -0.0789,-1.44998 -1.375,-2.125 -1.375,-2.125 -0.41785,-0.25532 -1.04066,-0.11399 -1.28125,0.3125 -0.24059,0.4265 -0.0597,1.05568 0.375,1.28125 0,0 0.46875,0.36087 0.46875,0.65625 0.005,0.0344 0.0225,0.0602 0.0312,0.0937 -0.0122,-0.0912 -0.0566,0.24098 -0.1875,0.5625 -0.13082,0.32152 -0.33238,0.7024 -0.59375,1 -0.26138,0.29761 -0.5559,0.50029 -0.84375,0.59375 -0.28203,0.0916 -0.55373,0.0874 -0.96875,-0.0937 -0.005,-0.003 -0.0263,0.003 -0.0312,0 -1.81239,-1.06191 -2.84762,-2.36601 -3.09375,-4.8125 0.1422,-0.40315 0.21249,-0.81887 0.1875,-1.21875 l -0.0312,0 c -0.0198,-0.27803 -0.0964,-0.52984 -0.1875,-0.75 0.1437,-1.24823 0.87779,-2.94445 2.09375,-4.21875 0.61326,-0.64268 1.31007,-1.16424 2.125,-1.53125 1.51463,1.21004 2.82968,2.68981 3.78125,4.125 0.007,0.0117 0.024,0.0508 0.0312,0.0625 1.82802,3.12878 3.56481,9.96196 3.5,13.65625 l 0,0.0312 c 0.0237,1.72757 0.65473,4.42154 1.625,7.15625 0.18955,0.53426 0.38366,1.06966 0.59375,1.59375 -17.46887,-12.14747 -39.66828,-26.77644 -55.03125,-27.375 -3.96728,0.62343 -5.21875,3.8125 -5.21875,3.8125 -0.283377,1.58691 1.9375,3.15625 1.9375,3.15625 1.190184,0.4534 3.076083,-0.62327 2.15625,-1.125 -1.24686,-0.68011 -2.153102,0.21926 -2.84375,-1.34375 0.636868,-1.85106 3.186943,-2.91207 4.09375,-2.96875 9.691499,1.13351 15.875,8.28125 15.875,8.28125 0,0 -1.063571,1.53109 -1.03125,2.15625 -12.921999,-0.96348 -15.484097,4.30288 -15.9375,7.25 0.113351,2.15367 2.09375,2.71875 2.09375,2.71875 1.530237,0.0567 3.506861,-0.45487 3.1875,-1.59375 -0.245687,-0.87615 -1.35854,0.0233 -2.71875,0.25 -1.303535,-0.56675 -1.03125,-1.59375 -1.03125,-1.59375 3.287175,-6.80105 14.041139,-6.80028 18.8125,-0.90625 4.42068,1.53024 2.5,3.96875 2.5,3.96875 0.93515,1.78528 2.33647,1.98469 2.96875,1.96875 -6.946122,1.22178 0.375,3.96875 0.375,3.96875 0.28505,3.8774 5.62594,2.35457 7.625,6.96875 0.11588,-0.0125 0.228,-0.0188 0.34375,-0.0312 -2.10422,1.49217 -4.57562,3.26888 -5.34375,4.03125 -0.87319,-0.18001 -1.43772,-0.58911 -1.8125,-1.03125 -0.57868,-0.68269 -0.69053,-1.58615 -0.625,-1.90625 0.22276,-1.08812 0.96764,-1.41778 1.71875,-1.375 0.37556,0.0214 0.73079,0.17002 0.96875,0.375 0.23796,0.20498 0.38596,0.43535 0.375,0.78125 -0.0131,0.41232 -0.11683,0.4494 -0.0937,0.4375 0.0229,-0.0119 -0.0592,0.0204 -0.21875,-0.0625 -0.14695,-0.0763 -0.31737,-0.20916 -0.40625,-0.3125 -0.003,-0.004 0.003,-0.0276 0,-0.0312 0.0489,-0.34751 -0.36357,-0.66622 -0.6875,-0.53125 -0.13037,0.0564 -0.25844,0.19631 -0.3125,0.34375 -0.0541,0.14744 -0.0533,0.27952 -0.0312,0.375 0.0441,0.19095 0.12541,0.28639 0.21875,0.40625 0.18669,0.23972 0.43897,0.4634 0.75,0.625 0.31103,0.1616 0.74144,0.30973 1.15625,0.0937 0.41481,-0.21578 0.60632,-0.72343 0.625,-1.3125 0.0205,-0.64694 -0.28733,-1.19087 -0.71875,-1.5625 -0.43142,-0.37163 -0.98516,-0.59212 -1.5625,-0.625 -1.15468,-0.0658 -2.43692,0.65821 -2.75,2.1875 -0.15016,0.7335 0.0216,1.78569 0.8125,2.71875 2.13759,1.67483 4.29762,1.84984 7.0625,2 0.091,0.25993 0.32618,0.48061 0.59375,0.6875 -1.92551,1.16766 -4.11047,2.63282 -6.28125,4.03125 -1.8551,1.19506 -3.66484,2.32819 -5.15625,3.125 -0.7457,0.39841 -1.42471,0.70915 -1.96875,0.90625 -0.54404,0.1971 -0.94206,0.24565 -1.125,0.21875 l -0.0312,0 -0.0312,0 c -1.96654,-0.15219 -3.342867,-0.98396 -4.1875,-1.96875 -0.844633,-0.98479 -1.109773,-2.12835 -0.90625,-2.84375 0.249728,-0.87782 0.670057,-1.37689 1.15625,-1.65625 0.486193,-0.27936 1.072161,-0.34705 1.625,-0.25 0.552839,0.0971 1.076034,0.36614 1.40625,0.6875 0.330216,0.32136 0.437422,0.6754 0.375,1 l 0,0.0625 0,0.0625 c 0.03516,0.5802 -0.08948,0.86967 -0.21875,1.03125 -0.129266,0.16158 -0.294807,0.21675 -0.53125,0.25 -0.472885,0.0665 -1.0625,-0.125 -1.0625,-0.125 -0.253618,-0.09 -0.566256,0.0589 -0.65625,0.3125 -0.08999,0.25362 0.05888,0.56626 0.3125,0.65625 0,0 0.752969,0.27009 1.5625,0.15625 0.404765,-0.0569 0.83467,-0.22302 1.15625,-0.625 0.29822,-0.37278 0.42148,-0.92768 0.40625,-1.59375 l 0.0312,0 c 0.006,-0.0323 -0.004,-0.0616 0,-0.0937 0.001,-0.0107 -0.001,-0.0206 0,-0.0312 0.0786,-0.66945 -0.21903,-1.32534 -0.6875,-1.78125 -0.498427,-0.48507 -1.192435,-0.8067 -1.9375,-0.9375 -0.745065,-0.1308 -1.560041,-0.0394 -2.28125,0.375 -0.721209,0.4144 -1.317591,1.13818 -1.625,2.21875 -0.330602,1.16209 0.106406,2.59363 1.125,3.78125 1.013439,1.18161 2.64915,2.13435 4.84375,2.3125 0.0112,9.1e-4 0.0203,-8.7e-4 0.0312,0 0.49004,0.0645 0.98868,-0.062 1.59375,-0.28125 0.61659,-0.22338 1.32284,-0.55688 2.09375,-0.96875 1.54181,-0.82374 3.35684,-1.9568 5.21875,-3.15625 2.35842,-1.5193 4.76707,-3.10276 6.75,-4.28125 0.73177,0.32132 1.4375,0.5 1.4375,0.5 0.56675,0.99182 0,1.28125 0,1.28125 -2.46539,0.28337 -3.34375,1.59375 -3.34375,1.59375 0,0 0.95417,1.15049 2.65625,2.15625 -2.19245,0.39978 -3.36661,1.5442 -3.875,2.71875 -0.35944,0.83042 -0.42711,1.61864 -0.40625,2.1875 -7.959,0.77569 -11.57648,5.5669 -11.78125,6.71875 -0.32302,1.81699 0.0488,3.1213 0.71875,4.03125 -1.49729,0.98848 -2.759804,2.76362 -2.875,4.90625 l 0,0.0312 c -0.03052,0.97663 0.317067,2.38092 1.125,3.65625 0.76799,1.21229 2.13621,2.20873 3.90625,2.09375 l 0,0.0312 c 0.0544,0.0104 0.10249,-0.0373 0.15625,-0.0312 0.0364,-0.004 0.0571,0.0362 0.0937,0.0312 l 0,-0.0312 c 0.91106,0.0619 1.76938,-0.40311 2.75,-1.09375 1.0718,-0.75487 2.26348,-1.81284 3.4375,-2.96875 1.71813,-1.69164 3.37288,-3.58291 4.53125,-5.125 0.0525,0.3614 0.16358,0.68634 0.34375,0.96875 0.46108,0.72272 1.18734,1.15039 1.90625,1.3125 0.71891,0.16211 1.49199,0.10266 1.96875,-0.4375 0.23838,-0.27008 0.34841,-0.67204 0.28125,-1.0625 -0.0672,-0.39046 -0.28861,-0.79002 -0.625,-1.21875 -0.32725,-0.40906 -1.1085,0.21594 -0.78125,0.625 0.26998,0.34409 0.37978,0.62739 0.40625,0.78125 0.0265,0.15386 0.01,0.17227 -0.0312,0.21875 -0.082,0.093 -0.50618,0.23635 -1,0.125 -0.49382,-0.11135 -0.99329,-0.42363 -1.28125,-0.875 -0.26286,-0.41203 -0.35685,-0.96042 -0.0937,-1.75 2.24656,-0.58046 5.91583,0.73136 6.1875,1.46875 0,0 -2.12927,1.47276 0.34375,2.28125 0.31156,0.5608 0.20678,1.05866 0.0937,1.34375 -3.58445,1.54309 -6.47327,3.44188 -8.8125,5.40625 -0.44077,-0.18314 -0.88296,-0.28847 -1.34375,-0.3125 -1.79213,-0.0935 -3.59256,1.01023 -4.25,3.03125 -0.21793,0.66995 -0.0874,1.40395 0.21875,2.15625 0.0796,0.19568 0.14597,0.39728 0.25,0.59375 -2.40596,3.36034 -3.30861,6.22766 -3.21875,7.15625 -0.40354,2.89206 1.61204,5.03601 3.5625,4.96875 2.62303,0.20177 7.125,-4.77239 7.125,-5.78125 0.21762,-0.81607 0.11089,-1.64709 -0.1875,-2.375 0.50584,-0.13172 1.03214,-0.3478 1.5625,-0.65625 0.90017,-0.52353 1.83225,-1.25181 2.71875,-2.03125 0.63412,-0.55754 1.21569,-1.13195 1.75,-1.6875 -0.36809,0.62888 -1.46476,1.38403 -1.4375,2.09375 0.10222,2.66219 -1.118,6.05369 -1.4375,6.8125 0,3.5145 3.71801,6.98768 8.03125,7.90625 0.41581,0.0558 0.85215,0.0517 1.28125,0.0312 -0.19154,0.44801 -0.36677,0.89981 -0.5625,1.34375 -1.67832,3.80652 -3.51303,7.4245 -5.4375,9.90625 -0.96224,1.24087 -1.95697,2.18343 -2.90625,2.75 -0.94928,0.56657 -1.82955,0.74642 -2.75,0.53125 l -0.0625,0 -0.0625,0 c -1.37909,0 -1.99189,-0.42372 -2.40625,-1.3125 -0.40532,-0.86938 -0.5153,-2.32703 -0.4375,-4.15625 0.40207,-2.14437 2.18229,-3.65437 3.78125,-4.03125 0.79948,-0.18844 1.50917,-0.0809 2,0.25 0.49083,0.33087 0.83044,0.90857 0.84375,2 l 0,0.0312 0,0.0312 c 0.13183,1.29194 -0.31772,1.95986 -0.875,2.40625 -0.27864,0.2232 -0.5802,0.37439 -0.84375,0.46875 -0.23417,0.0838 -0.42049,0.11893 -0.46875,0.125 -0.0148,-0.002 -0.017,0.002 -0.0312,0 -0.4119,-0.0517 -0.60693,-0.18924 -0.75,-0.34375 -0.14803,-0.15986 -0.23935,-0.37482 -0.28125,-0.625 -0.0838,-0.50035 0.0312,-1.03125 0.0312,-1.03125 0.10497,-0.30948 -0.0962,-0.68676 -0.4117,-0.77202 -0.31548,-0.0853 -0.67933,0.13929 -0.74455,0.45952 0,0 -0.19948,0.71329 -0.0625,1.53125 0.0685,0.40898 0.21104,0.87045 0.5625,1.25 0.35146,0.37955 0.89241,0.64631 1.5625,0.71875 l 0.0312,0 0.0312,0 c 0.26782,0 0.56856,-0.0554 0.9375,-0.1875 0.36894,-0.13209 0.783,-0.33224 1.1875,-0.65625 0.79718,-0.63856 1.48518,-1.79309 1.34375,-3.40625 -0.001,-0.0119 0.001,-0.0194 0,-0.0312 -2.1e-4,-0.0112 2.7e-4,-0.0201 0,-0.0312 -0.0329,-1.33814 -0.57741,-2.37878 -1.40625,-2.9375 -0.84267,-0.56805 -1.89891,-0.65105 -2.9375,-0.40625 -2.07718,0.48959 -4.18858,2.30783 -4.6875,4.96875 l 0,0.0312 0,0.0312 c -0.0917,1.95601 -0.0473,3.57162 0.53125,4.8125 0.55778,1.1964 1.75275,1.91692 3.34375,1.96875 l 0,0.0312 c 0.0522,0.0122 0.10403,-0.0102 0.15625,0 1.20135,0.23458 2.40576,-0.0344 3.5,-0.6875 1.1418,-0.68148 2.19889,-1.74731 3.21875,-3.0625 2.03972,-2.63037 3.89739,-6.27757 5.59375,-10.125 0.29648,-0.67243 0.58982,-1.352 0.875,-2.03125 1.79096,-0.42052 3.32089,-1.4434 3.5625,-2.8125 -0.0559,-0.98689 -0.66014,-1.87331 -1.40625,-2.5625 0.50712,-1.30278 1.0158,-2.6212 1.46875,-3.78125 0.72527,-1.8575 1.40131,-3.46372 1.96875,-4.6875 0.0483,-0.0306 0.11269,-0.0647 0.15625,-0.0937 l 0.75,0.28125 c -0.3705,4.86554 -2.15151,12.27502 -2.75,13.9375 -1.10796,4.9067 -10.23093,13.95206 -9.28125,20.125 -0.23742,3.95701 3.60876,5.85836 4.875,5.9375 2.97188,0.15641 7.03643,-2.83597 8.8125,-6.34375 7.18921,4.25955 21.73558,6.58666 36.8125,8.71875 0,0 0.85501,11.99499 0,17.125 0,0 -1.51247,14.94372 -10.0625,24.5625 0,0 4.48999,7.06499 9.40625,9.84375 0,0 5.15994,1.49126 22.6875,-0.21875 0,0 2.5209,-3.24749 19,-6.625 0,0 2.60239,-2.19561 4.25,-4.21875 -13.3198,-19.53571 -17.01701,-29.56127 -18.375,-37.46875 5.86071,-0.1776 30.80371,-0.42369 45.125,-19.875 0,0 0.85,-3.22249 -0.21875,-4.71875 -1.18369,-1.62756 -2.1362,-2.68587 -6.25,-5 l 0.25,-0.0937 c 6.3935,-1.95357 11,-0.1875 11,-0.1875 3.37435,3.01915 6.59375,3.75 6.59375,3.75 1.32933,-0.13992 2.01419,-0.73518 1.59375,-1.0625 -2.38233,-1.85468 -6.21875,-6.59375 -6.21875,-6.59375 -1.59837,-2.30877 -15.09375,-10.65625 -15.09375,-10.65625 -4.97272,-2.84155 -14.39545,-20.23304 -18.125,-26.09375 11.36623,0 18.46875,-3.375 18.46875,-3.375 8.52468,-3.72954 25.41219,-14.20268 30.5625,-16.15625 1.59838,-0.5328 4.4375,1.25 4.4375,1.25 1.24318,0.71039 3.53125,0 3.53125,0 2.30876,-15.45096 4.62629,-13.31137 11.375,-24.5 0.53278,-2.48636 -0.6875,-3.40625 -0.6875,-3.40625 -2.66396,2.48636 -6.0625,3.75 -6.0625,3.75 -1.77597,-0.35519 -7.25,4.59375 -7.25,4.59375 -3.90714,5.15032 -14.21875,12.96875 -14.21875,12.96875 -8.70227,5.50551 -29.14676,10.4793 -39.625,14.03125 -2.48636,0 -4.96875,-0.1875 -4.96875,-0.1875 -2.13117,-6.21591 -6.2014,-6.23911 -7.8125,-6.53125 -5.50551,0.88799 -9.22355,5.77548 -13.84375,10.09375 -7.28149,6.9263 -8.00374,10.31689 -10.3125,16 -1.95357,-3.01915 -4.09375,-7.46875 -4.09375,-7.46875 0.53279,-15.09577 -0.71875,-15.625 -0.71875,-15.625 8.16948,-7.10389 -1.9375,-11.90625 -1.9375,-11.90625 -12.9646,-3.01915 -17.40625,-6.75 -17.40625,-6.75 -0.3552,-2.30877 0,-3.71875 0,-3.71875 3.01915,-1.06558 4.77022,-0.65539 7.15625,-0.84375 3.72954,-3.90715 3.34375,-6.25 3.34375,-6.25 1.77598,-0.35518 2.125,-0.90625 2.125,-0.90625 -0.0888,-1.06558 -2.125,-3.5625 -2.125,-3.5625 0.2664,-1.24318 0.15625,-2.3125 0.15625,-2.3125 5.32792,0.26641 5.34375,-6.90625 5.34375,-6.90625 0.35519,-7.19268 -6.59375,-11.1875 -6.59375,-11.1875 -6.21591,-3.64074 -8.6875,-2.84375 -8.6875,-2.84375 -0.67154,-2.71668 -2.44318,-3.60401 -4.53125,-3.53125 z m -34,17 c 1.4917,-0.0236 2.95626,0.43621 4.3125,1.21875 -0.67191,0.41161 -1.28985,0.92101 -1.8125,1.46875 -1.14834,1.20343 -1.94501,2.63515 -2.34375,4.03125 -0.42124,-0.0114 -0.81534,0.30728 -0.90625,0.71875 -0.0909,0.41148 0.14441,0.86413 0.53125,1.03125 0,0 0.037,0.0243 0.0937,0.0625 -0.01,0.43013 0.003,0.85377 0.0312,1.25 -0.0515,0.0839 -0.11476,0.14338 -0.1875,0.21875 -0.28553,0.29592 -0.74187,0.54887 -1.625,0.53125 -0.78557,-0.14129 -1.81515,-0.94147 -2.625,-2.15625 -0.82335,-1.23503 -1.40775,-2.82827 -1.5,-3.96875 -0.0898,-1.74746 1.65251,-4.33683 6.03125,-4.40625 z m 8.25,1.875 c 0.28996,-0.007 0.59907,0.0267 0.90625,0.0625 2.39294,0.34928 3.67743,1.02173 4.8125,2.25 1.12518,1.21757 2.11119,3.09381 3.4375,5.65625 1.1289,2.97822 1.46583,7.91315 2,12.59375 0.51093,4.47697 1.109,8.75375 3.3125,11.15625 -1.21556,-0.79631 -2.96562,-1.63579 -4.15625,-2.46875 -0.69324,-1.25221 -1.38795,-2.76361 -1.9375,-4.3125 -0.91943,-2.59141 -1.50604,-5.24761 -1.53125,-6.5 2.1e-4,-0.0121 -1.8e-4,-0.0504 0,-0.0625 0.0648,-4.27052 -1.63751,-10.9884 -3.78125,-14.625 l 0,-0.0312 c -0.80715,-1.22374 -1.84075,-2.55427 -3.0625,-3.71875 z m -13.3125,48.1875 c -0.74264,0.60271 -1.4375,1.375 -1.4375,1.375 0,0 1.29156,1.99496 2,2.25 l 0.15625,0 -0.5625,0.21875 c -1.16117,-0.0926 -2.2246,-0.11612 -3.25,-0.0625 -0.003,-0.45935 0.071,-1.08852 0.34375,-1.71875 0.36848,-0.85132 1.10158,-1.69846 2.75,-2.0625 z m -7.0625,6.75 c 2.59763,-0.0338 5.09777,1.13615 7.25,3.1875 -0.58306,1.20619 -1.26101,1.65376 -2.1875,2.5 -0.35723,0.32629 -0.41532,1.0678 -0.375,1.75 -0.92916,1.45003 -3.03659,3.94477 -5.1875,6.0625 -1.13849,1.12093 -2.28126,2.13022 -3.25,2.8125 -0.96874,0.68228 -1.80158,0.92629 -1.90625,0.90625 l -0.125,0 -0.0937,0 c -1.3242,0.17526 -2.15055,-0.50443 -2.78125,-1.5 -0.62446,-0.98572 -0.917247,-2.2885 -0.90625,-2.84375 1.1e-4,-0.006 -1.68e-4,-0.0259 0,-0.0312 0.10602,-1.72898 1.31134,-3.31176 2.5,-4 0.82942,0.58661 1.72786,0.86226 2.40625,0.96875 0.0262,0.18184 0.0603,0.3596 0.0625,0.59375 l 0,0.0312 c 0.0813,1.40303 -0.46202,1.77032 -1.09375,2.03125 -0.63173,0.26093 -1.34375,0.21875 -1.34375,0.21875 -0.36817,-0.0246 -0.72545,0.28807 -0.75,0.65625 -0.0245,0.36817 0.28807,0.72548 0.65625,0.75 0,0 0.95973,0.10427 1.96875,-0.3125 1.00242,-0.41404 2.06189,-1.51864 1.96875,-3.375 -6.1e-4,-0.0122 7.1e-4,-0.019 0,-0.0312 -0.002,-0.14597 -0.0196,-0.26782 -0.0312,-0.40625 3.24478,0.033 4.375,-3.1875 4.375,-3.1875 -0.9416,-4.50623 -7.53059,-3.05102 -6.65625,-0.5625 0.11431,0.36115 0.28092,0.66475 0.46875,0.9375 -0.61413,-0.18426 -1.30225,-0.10087 -1.9375,0.125 -0.61717,-0.71308 -1.02399,-1.73833 -0.8125,-3.21875 2.48852,-2.79118 5.18362,-4.02871 7.78125,-4.0625 z m -2.75,4.625 c 1.03504,-0.0738 2.16372,0.35696 2.5,1.9375 0,0 0.007,2.18876 -3.1875,2.28125 -0.11959,-0.34567 -0.2669,-0.6856 -0.46875,-0.9375 2.27897,0.17178 -0.88781,-1.36069 -0.84375,-2.1875 0.0236,-0.44169 0.96496,-1.01997 2,-1.09375 z M 209.5,514 c 0,0 4.25966,7.47005 11.71875,14.21875 0,0 9.2293,10.29336 12.78125,13.3125 -0.14799,1.44291 -0.20459,2.63671 -0.1875,3.6875 -8.56056,-4.69595 -20.01422,-11.34052 -33.25,-13.59375 1.78269,-4.79044 4.86824,-12.12601 8.9375,-17.625 z m -46.34375,0.875 c 0.8137,5.25826 -1.56388,15.5685 -0.0625,20.0625 0,0 -0.73273,0.25048 -1.03125,0.34375 L 162,535.25 c 0,0 -1.1102,-2.49113 -3.59375,-4.375 -0.80953,-0.61406 -0.0721,-1.83897 -0.75,-3.125 0.17682,-0.16734 0.34178,-0.34857 0.53125,-0.5625 0.66355,-0.74924 1.39229,-1.78493 2.09375,-3.09375 1.33382,-2.88968 2.6498,-7.71597 2.875,-9.21875 z m -1.375,1.53125 c -0.4466,2.8446 -1.36089,5.29532 -2.375,7.1875 -0.57755,1.07761 -1.18007,1.96365 -1.71875,2.625 0.0571,-0.35899 0.10515,-0.72669 0.28125,-1.03125 1.83078,-3.1662 2.29281,-4.56383 3.8125,-8.78125 z m -50.25,8.96875 c 0.1698,-0.0182 0.32917,-0.009 0.5,0 0.15899,0.008 0.3122,0.0306 0.46875,0.0625 -1.40359,1.26933 -2.5625,2.57128 -3.53125,3.8125 -0.009,-0.021 -0.0229,-0.0417 -0.0312,-0.0625 -0.25081,-0.61633 -0.29473,-1.13913 -0.1875,-1.46875 0.45986,-1.41367 1.59267,-2.2164 2.78125,-2.34375 z m 6.3125,0.125 c 1.42217,-0.11659 2.82078,0.20961 4.09375,1.125 0.25728,0.0455 0.19418,0.74768 0.21875,1 -0.19869,0.24911 -0.42115,0.51713 -0.6875,0.8125 -0.63283,0.70177 -1.42747,1.49934 -2.28125,2.25 -0.85378,0.75066 -1.78096,1.46478 -2.59375,1.9375 -0.59617,0.34674 -1.13288,0.5626 -1.53125,0.625 -0.004,-0.005 -0.0275,0.005 -0.0312,0 -0.47352,-0.60122 -1.08443,-1.03463 -1.78125,-1.0625 -0.32074,-0.0437 -0.76589,0.12103 -1.25,0.375 -0.6645,-0.37432 -1.27005,-0.88145 -1.78125,-1.4375 -0.19111,-0.20788 -0.33674,-0.43543 -0.5,-0.65625 0.35829,-0.42492 0.73049,-0.82784 1.125,-1.21875 1.15209,0.99721 2.2585,1.61571 3.28125,1.625 0.58158,0.005 1.15775,-0.22835 1.53125,-0.6875 0.3735,-0.45915 0.55696,-1.08402 0.59375,-1.875 l 0,-0.0625 0,-0.0625 c -0.20029,-0.80196 -0.54751,-1.47682 -0.96875,-2.03125 0.84639,-0.35672 1.7092,-0.5863 2.5625,-0.65625 z m -3.46875,1.09375 c 0.36584,0.45521 0.65265,1.04335 0.84375,1.78125 -0.0452,0.57418 -0.1719,0.97624 -0.34375,1.1875 -0.18558,0.22813 -0.40679,0.31562 -0.75,0.3125 -0.58602,-0.005 -1.50939,-0.46429 -2.53125,-1.3125 0.87699,-0.77415 1.81157,-1.45315 2.78125,-1.96875 z m -5.3125,4.71875 c 0.12868,0.1633 0.26203,0.31188 0.40625,0.46875 0.4626,0.50319 0.99893,0.95588 1.59375,1.34375 -1.54471,1.12028 -3.12436,2.93356 -2.90625,3.71875 -0.20177,0.67257 0.79142,2.08899 1.53125,2.15625 0.67257,0 1.82472,-0.4042 2.09375,-0.875 -0.80709,-0.53806 -2.44443,0.56203 -2.09375,-1.5625 0.22699,-1.74028 1.61562,-2.67802 2.8125,-2.71875 0.38311,0.14092 0.78129,0.25318 1.1875,0.3125 0.3507,0.263 0.57826,0.69269 0.59375,1.28125 -0.0673,3.56463 -4.51493,5.5 -5.1875,5.5 -2.89206,-0.33629 -2.72912,-2.88988 -2.8125,-3.625 0.28978,-1.90426 1.32335,-4.05845 2.78125,-6 z m 16.5,1.75 c 3.46348,1.22363 6.06301,0.87919 7.78125,0.28125 -0.42763,1.02565 -0.86813,2.17059 -1.375,3.46875 -0.41667,1.06715 -0.88072,2.28642 -1.34375,3.46875 -0.59484,-0.3508 -1.19507,-0.5625 -1.65625,-0.5625 -1.03837,-0.11981 -2.87598,0.97219 -3.0625,1.625 -0.14263,0.49921 1.44438,1.59894 1.84375,1.71875 1.87706,0.0399 -0.35763,-0.85581 -0.4375,-1.375 -0.0799,-0.55912 1.40625,-0.8125 1.40625,-0.8125 0.61507,0.0641 1.09269,0.23903 1.46875,0.46875 -0.52412,1.32713 -1.05446,2.66412 -1.625,4.03125 -0.50809,0.0194 -1.04642,-0.0217 -1.59375,-0.1875 -5.9068,-1.35413 -6.89311,-4.18436 -5.8125,-6.9375 0.62221,0.14072 1.195,0.14225 1.6875,0 0.70171,-0.20267 1.24753,-0.67618 1.5625,-1.28125 0.48171,-0.92539 0.52487,-2.09636 0.3125,-3.25 0.28105,-0.23265 0.55801,-0.45104 0.84375,-0.65625 z m -1.75,1.46875 c 0.0396,0.75588 -0.0562,1.4763 -0.3125,1.96875 -0.21666,0.41622 -0.48175,0.6899 -0.90625,0.8125 -0.2519,0.0728 -0.57564,0.0687 -0.96875,0 0.55219,-0.987 1.31419,-1.93935 2.1875,-2.78125 z m 20.125,1.09375 0.25,0.0937 -0.125,7.3125 c -0.63947,0.43463 -1.24048,0.87408 -1.71875,1.3125 -0.0329,0.0215 -0.0614,0.0409 -0.0937,0.0625 -0.19434,-0.26942 -0.41963,-0.55554 -0.625,-0.875 -0.48215,-0.75001 -0.90767,-1.58668 -1.15625,-2.3125 0.043,-0.0136 0.1875,-0.0625 0.1875,-0.0625 1.48093,-1.04899 1.93145,-4.01067 3.28125,-5.53125 z m 11.5,0.1875 4.9375,0 c -1.31411,0.43956 -2.99956,1.05229 -4.84375,1.75 z m -15.96875,5.78125 c 0.29355,0.85197 0.81683,1.69771 1.3125,2.46875 0.22113,0.34397 0.44639,0.67872 0.65625,0.96875 -3.8561,3.17304 -3.16044,7.55491 -8.9375,11.9375 l 0.4375,3.21875 c 0.0202,0.80826 0.23307,1.56057 0.59375,2.28125 -0.72136,0.24422 -1.27127,0.63344 -1.65625,1.03125 -0.67838,0.70099 -0.90625,1.46875 -0.90625,1.46875 l -0.0312,0.0937 0.0312,0.0625 c 0.0493,0.59169 0.31116,1.14505 0.8125,1.4375 0.50134,0.29245 1.16251,0.35 1.90625,0.21875 0.2618,-0.0491 0.45534,-0.33195 0.40625,-0.59375 -0.0491,-0.2618 -0.33195,-0.45534 -0.59375,-0.40625 -0.60164,0.10617 -0.97657,0.0293 -1.1875,-0.0937 -0.17836,-0.10404 -0.26671,-0.27538 -0.3125,-0.53125 0.0195,-0.0644 0.12093,-0.48017 0.59375,-0.96875 0.32098,-0.33167 0.79519,-0.66527 1.46875,-0.84375 0.6165,0.86186 1.45865,1.66443 2.53125,2.40625 -1.12751,2.15448 -4.34052,5.15013 -7.03125,5.1875 -2.84107,0.0395 -3.68637,-2.42782 -3.78125,-4.5625 -0.22182,-4.99095 5.8129,-11.35103 7,-14.4375 2.13679,-3.40303 3.5625,-8.46875 3.5625,-8.46875 0.40283,-0.75532 1.98811,-1.44364 3.125,-1.875 z m -8.375,0.6875 c 0.155,0.25032 0.26884,0.46613 0.3125,0.625 0.25157,0.91541 -0.38381,1.75425 -1.40625,2.1875 0.38701,-0.94573 0.73048,-1.88931 1.09375,-2.8125 z"
       id="path3161"
       inkscape:connector-curvature="0"
       sodipodi:nodetypes="sccccccsccsccccsccsccccccsssccccsccccscccccccscccccsccccsccccccscccccccccsscscccccccccsccscscccssscccssscsccccsccccsccccssssscccsscccccscscccscccccsscssscccccssccccccsccccccssccccccssccsscsccccsccccscsccsccscscccsscccccccssscccscccccccccccccccccccccsccccccccccccccccccccccccccccccsccccccccccsccccscsccscccccccccccscscscsscccsccccccscccsccccccccsccccccccccccccccscccccscsccccccccsccsssccccscccsccccscccccccccccccccccccccsccscccccccssccccscccccccscccccccccccccscccscscccscccsccccscc" />
  </g>
</svg>
