<?xml version="1.0" encoding="UTF-8" standalone="no"?>
<!-- Created with Inkscape (http://www.inkscape.org/) -->

<svg
   xmlns:dc="http://purl.org/dc/elements/1.1/"
   xmlns:cc="http://creativecommons.org/ns#"
   xmlns:rdf="http://www.w3.org/1999/02/22-rdf-syntax-ns#"
   xmlns:svg="http://www.w3.org/2000/svg"
   xmlns="http://www.w3.org/2000/svg"
   xmlns:sodipodi="http://sodipodi.sourceforge.net/DTD/sodipodi-0.dtd"
   xmlns:inkscape="http://www.inkscape.org/namespaces/inkscape"
   width="744.09448819"
   height="1052.3622047"
   id="svg3182"
   version="1.1"
   inkscape:version="0.48.2 r9819"
   sodipodi:docname="New document 14">
  <defs
     id="defs3184" />
  <sodipodi:namedview
     id="base"
     pagecolor="#ffffff"
     bordercolor="#666666"
     borderopacity="1.0"
     inkscape:pageopacity="0.0"
     inkscape:pageshadow="2"
     inkscape:zoom="1.7460215"
     inkscape:cx="375"
     inkscape:cy="794.9107"
     inkscape:document-units="px"
     inkscape:current-layer="layer1"
     showgrid="false"
     inkscape:window-width="1280"
     inkscape:window-height="752"
     inkscape:window-x="0"
     inkscape:window-y="0"
     inkscape:window-maximized="1" />
  <metadata
     id="metadata3187">
    <rdf:RDF>
      <cc:Work
         rdf:about="">
        <dc:format>image/svg+xml</dc:format>
        <dc:type
           rdf:resource="http://purl.org/dc/dcmitype/StillImage" />
        <dc:title></dc:title>
      </cc:Work>
    </rdf:RDF>
  </metadata>
  <g
     inkscape:label="Layer 1"
     inkscape:groupmode="layer"
     id="layer1">
    <path
       style="fill:#000000"
       d="m 496.14286,397.38894 c -25.65345,-8.43215 -38.32077,-12.48736 -40.5,-12.96531 -2.0217,-0.4434 -7.39798,-2.15733 -37.7575,-12.03683 -9.21663,-2.99925 -17.56413,-5.45318 -18.55,-5.45318 -0.98588,0 -2.22,-0.36425 -2.7425,-0.80945 -0.5225,-0.44519 -5.225,-2.07276 -10.45,-3.61681 -5.225,-1.54405 -11.3,-3.40527 -13.5,-4.13604 -2.2,-0.73078 -5.69247,-1.62923 -7.76105,-1.99656 -2.06857,-0.36732 -3.98892,-1.03658 -4.26743,-1.48723 -0.27852,-0.45064 -3.08605,-1.35407 -6.23896,-2.00762 -3.15291,-0.65355 -6.62019,-1.80882 -7.70507,-2.56728 -1.08487,-0.75845 -3.2489,-1.37901 -4.80893,-1.37901 -1.56004,0 -6.74741,-1.28475 -11.5275,-2.855 -4.78008,-1.57024 -14.76606,-4.73603 -22.19106,-7.03507 -7.425,-2.29905 -18.675,-5.7837 -25,-7.74367 -6.325,-1.95997 -13.75,-4.35059 -16.5,-5.31248 -2.75,-0.9619 -9.05,-2.97627 -14,-4.47637 -4.95,-1.5001 -9.78139,-3.1437 -10.73643,-3.65244 -0.95504,-0.50873 -2.46964,-0.92497 -3.36579,-0.92497 -1.82585,0 -10.15323,-2.60078 -15.22906,-4.7563 -1.8322,-0.77807 -4.95382,-1.61592 -6.93694,-1.86189 -1.98311,-0.24596 -4.08403,-0.83053 -4.66872,-1.29904 -0.87503,-0.70116 -3.11051,-1.3748 -8.56306,-2.58041 -0.275,-0.0608 -4.55,-1.39247 -9.5,-2.95926 -4.95,-1.56679 -10.2375,-2.77279 -11.75,-2.68002 -1.5125,0.0928 -2.75,-0.28846 -2.75,-0.8472 0,-0.55873 -0.6199,-1.01588 -1.37756,-1.01588 -3.29495,0 -3.87173,-2.673 -2.09608,-9.71393 0.94126,-3.73234 2.08352,-9.48607 2.53835,-12.78607 0.95941,-6.96105 1.7884,-11.4235 2.48833,-13.39466 0.52563,-1.48034 2.37929,-13.24464 3.01035,-19.10534 0.89789,-8.33882 2.70922,-11.54388 9.93661,-17.58241 3.85,-3.2167 7.35986,-6.42657 7.79969,-7.13306 0.43983,-0.70649 1.27971,-1.28453 1.8664,-1.28453 0.5867,0 2.73897,-1.6875 4.78283,-3.75 4.79732,-4.84106 8.91891,-8.53769 17.55108,-15.74149 3.85,-3.21294 7.96815,-6.77924 9.15145,-7.92511 5.71043,-5.52981 21.16249,-19.10695 33.74839,-29.65345 1.59491,-1.33647 5.30972,-4.75572 8.25512,-7.59832 2.9454,-2.84261 5.7702,-5.31761 6.27733,-5.5 0.69856,-0.25125 19.56341,-17.18514 30.47198,-27.35295 0.60265,-0.56173 2.44573,-2.06392 4.09573,-3.33819 1.65,-1.27428 5.29851,-4.41468 8.10781,-6.97868 2.8093,-2.56399 7.7593,-6.90165 11,-9.63924 3.2407,-2.737583 8.81719,-7.719453 12.39219,-11.070813 7.1916,-6.74172 28.83291,-25.7114 36.45174,-31.95176 5.8695,-4.80754 8.34051,-7.00038 15.55669,-13.80542 3.02964,-2.85702 7.52964,-6.89215 10,-8.96695 2.47036,-2.07481 5.85206,-4.99981 7.51487,-6.5 1.66282,-1.5002 5.90654,-5.20263 9.43049,-8.22763 3.52396,-3.025 9.0482,-8.0875 12.27609,-11.2499999 6.28868,-6.16127 9.02993,-7.01295 13.77012,-4.2782 1.375,0.79327 3.4,1.9014 4.5,2.46251 1.1,0.56111 4.475,2.57777 7.5,4.4814899 3.025,1.90371 8.37182,5.11914 11.88183,7.14541 8.69522,5.01959 13.51444,8.98859 12.63732,10.4078 -0.47907,0.77514 2.43656,16.20388 4.63498,24.52709 0.58052,2.19786 1.22574,4.89786 1.43381,6 1.05643,5.59571 1.70803,8.09638 2.34617,9.0039 0.63438,0.9022 1.10853,3.88172 1.39241,8.75 0.0561,0.9625 0.42805,1.75 0.82649,1.75 0.39845,0 1.02885,2.1375 1.40089,4.75 0.37205,2.6125 1.57155,8.575 2.66557,13.25 1.09402,4.675003 2.16745,9.465413 2.38541,10.645373 0.21796,1.17995 1.79313,8.15495 3.50039,15.5 1.70726,7.34504 3.51271,15.37048 4.01212,17.8343 0.49941,2.46382 1.54845,6.96382 2.3312,10 0.78275,3.03618 2.80541,11.82033 4.4948,19.52033 1.68939,7.7 4.16575,18.725 5.50302,24.5 1.33728,5.775 3.16172,13.875 4.05431,18 0.8926,4.125 1.89046,8.625 2.21747,10 0.32701,1.375 0.7241,3.175 0.88242,4 0.15832,0.825 0.72725,3.3 1.2643,5.5 2.96874,12.16147 5.19859,21.88729 6.64888,29 0.89716,4.4 2.24616,10.25 2.99777,13 0.75162,2.75 1.68689,6.8 2.07838,9 0.39149,2.2 1.2645,4.9 1.94002,6 0.67553,1.1 1.2709,3.73975 1.32305,5.8661 0.0522,2.12636 0.5359,4.39758 1.075,5.04715 0.5391,0.64958 1.1829,2.73483 1.43068,4.6339 0.24777,1.89907 1.16945,6.37785 2.04817,9.95285 4.31594,17.55905 11.71191,48.84053 12.1763,51.5 0.28812,1.65 1.01566,4.96201 1.61677,7.36003 1.07114,4.27316 1.02655,4.41197 -2.23767,6.96661 -1.83183,1.43362 -4.23666,2.74486 -5.34408,2.91386 -1.10742,0.169 -2.74748,0.97153 -3.64458,1.78339 -0.89709,0.81186 -2.40839,1.47611 -3.35843,1.47611 -0.95004,0 -4.44829,1.35 -7.77388,3 -3.3256,1.65 -6.49485,3 -7.04278,3 -0.99346,0 -2.3921,0.57906 -12.79851,5.29879 -4.89069,2.21812 -12.64227,4.78446 -14,4.63502 -0.275,-0.0303 -7.925,-2.49559 -17,-5.47849 z m 20.20295,-0.41093 c 1.26338,-0.52559 5.44705,-2.14693 9.29705,-3.60298 3.85,-1.45605 10.6,-4.31104 15,-6.34442 4.4,-2.03337 10.83272,-4.79953 14.29494,-6.14702 5.90661,-2.29883 6.12252,-2.49274 3.5,-3.14324 -2.59802,-0.64442 -12.18293,-4.02363 -25.29494,-8.91787 -3.025,-1.12913 -8.875,-3.17832 -13,-4.55377 -4.125,-1.37545 -8.18042,-2.85046 -9.01204,-3.27782 -0.83162,-0.42735 -4.20662,-1.53052 -7.5,-2.4515 -5.41737,-1.51494 -10.42324,-3.30291 -15.98796,-5.7105 -2.09667,-0.90714 -14.11421,-5.10217 -28.5,-9.94868 -4.675,-1.57499 -11.65,-4.05312 -15.5,-5.50696 -3.85,-1.45384 -8.35,-3.01934 -10,-3.47888 -1.65,-0.45954 -7.725,-2.50017 -13.5,-4.53473 -26.67203,-9.39672 -36.03836,-12.62817 -43,-14.83532 -4.125,-1.30781 -13.78435,-4.67573 -21.46521,-7.48427 -7.68087,-2.80853 -14.7863,-5.10643 -15.78984,-5.10643 -1.00354,0 -3.4942,-0.8281 -5.53479,-1.84023 -2.04059,-1.01212 -7.08516,-2.85201 -11.21016,-4.08863 -7.60246,-2.27911 -12.83603,-4.13809 -18.78393,-6.67208 -1.80616,-0.76948 -3.80158,-1.39906 -4.43427,-1.39906 -0.63269,0 -2.97993,-0.81947 -5.21608,-1.82105 -2.23614,-1.00158 -7.44072,-2.89918 -11.56572,-4.21689 -4.125,-1.31771 -8.625,-2.97047 -10,-3.67279 -1.375,-0.70232 -3.20298,-1.27972 -4.06217,-1.28311 -0.85919,-0.003 -3.42496,-0.90616 -5.70169,-2.00616 -2.27674,-1.1 -4.83627,-2 -5.68783,-2 -0.85157,0 -1.54831,-0.82576 -1.54831,-1.83501 0,-1.15654 3.42007,-4.35505 9.25,-8.65075 5.0875,-3.74865 9.7,-7.31039 10.25,-7.91498 0.55,-0.60459 3.025,-2.44095 5.5,-4.08078 5.28712,-3.50304 27.45427,-19.72009 30.83495,-22.55824 1.28422,-1.07813 2.57399,-1.96024 2.86615,-1.96024 0.29217,0 3.39428,-2.25 6.89359,-5 3.49931,-2.75 6.61585,-5 6.92566,-5 0.3098,0 1.55696,-0.94705 2.77146,-2.10455 1.21451,-1.1575 3.33319,-2.84059 4.70819,-3.7402 3.71041,-2.42757 11.42604,-8.29081 12,-9.11902 0.275,-0.39681 2.975,-2.45963 6,-4.58403 7.11568,-4.99722 19.25586,-13.60472 25.09294,-17.79113 2.52611,-1.81175 9.27611,-6.65166 15,-10.75534 5.72388,-4.10368 12.43206,-8.93779 14.90706,-10.74246 2.475,-1.80467 8.50095,-6.17968 13.391,-9.72225 4.89006,-3.54256 8.32941,-6.44102 7.64301,-6.44102 -0.68639,0 -1.00326,-0.63776 -0.70414,-1.41724 0.30079,-0.78384 -0.21006,-1.70961 -1.14301,-2.07142 -1.53491,-0.59525 -1.512,-0.78287 0.25427,-2.08276 1.06762,-0.78572 2.75512,-1.42858 3.75,-1.42858 2.17646,0 2.54311,-4.46261 0.46834,-5.70031 -2.01618,-1.20275 -2.66176,-5.0529 -1.06891,-6.37485 1.03379,-0.85797 1.23331,-2.7022 0.78834,-7.28677 -0.67206,-6.92424 -1.77417,-9.63807 -3.91408,-9.63807 -1.57581,0 -1.93092,-1.20056 -0.71482,-2.41667 0.4125,-0.4125 0.80625,-1.1625 0.875,-1.66666 0.0688,-0.50417 0.23807,-1.029173 0.37628,-1.166673 0.1382,-0.1375 0.34947,-2.3875 0.4695,-5 0.21074,-4.58729 -0.92464,-6.3368 -2.10915,-3.25 -0.31659,0.825 -1.08996,1.5088 -1.71862,1.51955 -0.62865,0.0108 -3.51226,2.26075 -6.40801,5 -2.89575,2.739253 -5.59575,4.982533 -6,4.985083 -0.40425,0.003 -2.17309,1.35254 -3.93077,3 -1.75767,1.64745 -3.55767,3.00299 -4,3.01231 -0.44232,0.009 -2.95492,2.03432 -5.58354,4.5 -2.62862,2.46568 -5.05202,4.48306 -5.38533,4.48306 -0.33331,0 -1.58614,1.0125 -2.78407,2.25 -1.19793,1.2375 -3.23306,2.925 -4.52251,3.75 -1.28945,0.825 -3.73593,2.64923 -5.43662,4.05384 -1.70069,1.40461 -4.27714,3.42961 -5.72546,4.5 -5.82636,4.30603 -40.76456,33.13967 -46.48297,38.36127 -3.36394,3.07169 -9.85863,8.50989 -14.43264,12.08489 -4.574,3.575 -9.87821,7.9625 -11.78713,9.75 -1.90892,1.7875 -3.76688,3.25 -4.1288,3.25 -0.36192,0 -1.53039,0.79457 -2.5966,1.76572 -1.06621,0.97114 -3.28385,2.80819 -4.9281,4.08234 -3.1199,2.41764 -11.02028,9.11558 -17.95551,15.22269 -2.23022,1.96391 -6.19245,5.07769 -8.80495,6.91952 -2.6125,1.84182 -4.75,3.72249 -4.75,4.17925 0,0.45676 -0.65264,0.83048 -1.45031,0.83048 -0.79767,0 -1.81017,0.56896 -2.25,1.26435 -0.43983,0.69539 -3.26196,3.28289 -6.2714,5.75 -3.00943,2.46711 -6.19217,5.16065 -7.07274,5.98565 -4.23556,3.96826 -8.01399,7 -8.72403,7 -0.43219,0 -2.18541,1.27835 -3.89604,2.84077 -1.71063,1.56242 -5.29683,4.59992 -7.96933,6.75 -9.06253,7.29098 -19.83967,16.63063 -27.15437,23.53242 -4.00852,3.78225 -7.47556,6.87681 -7.70454,6.87681 -0.6174,0 -5.68035,5.17482 -5.31785,5.43534 0.17084,0.12277 3.46061,1.22768 7.31061,2.45536 3.85,1.22767 7.9,2.63572 9,3.12898 1.1,0.49327 4.025,1.40368 6.5,2.02314 2.475,0.61946 8.71002,2.48503 13.85561,4.14572 5.14558,1.66068 9.87058,3.09779 10.5,3.19356 0.62941,0.0958 1.59439,0.43014 2.14439,0.74304 0.55,0.31289 7.75,2.69534 16,5.29432 8.25,2.59899 19.95,6.2865 26,8.19447 6.05,1.90798 15.83546,5.0743 21.74547,7.03628 5.91001,1.96199 11.42251,3.30744 12.25,2.9899 0.82749,-0.31754 1.50453,-0.18891 1.50453,0.28584 0,0.47475 4.6125,2.30314 10.25,4.0631 5.6375,1.75996 12.5,3.9334 15.25,4.82987 2.75,0.89647 5.69342,1.688 6.54093,1.75895 0.84751,0.0709 6.24751,1.72538 12,3.6765 5.75249,1.95112 12.20197,3.84786 14.33218,4.21497 2.13021,0.36711 4.60521,1.06606 5.5,1.55322 0.89479,0.48716 5.00189,1.82884 9.12689,2.98151 4.125,1.15266 8.85,2.55299 10.5,3.11183 1.65,0.55885 7.5,2.37346 13,4.03249 5.5,1.65902 16.75,5.20252 25,7.87443 22.25987,7.20926 25.79354,8.28288 28.09687,8.53653 1.15328,0.12701 3.49344,0.95311 5.20034,1.83578 1.70691,0.88268 4.13832,1.60764 5.40313,1.61103 1.26481,0.003 3.42466,0.5893 4.79966,1.30202 1.375,0.71272 5.875,2.32231 10,3.57686 4.125,1.25455 12.225,3.80888 18,5.67629 12.00388,3.88158 11.18527,3.73846 14.20295,2.48306 z m 1.79705,-9.54439 c 0,-0.825 0.45,-1.5 1,-1.5 0.55,0 1,0.675 1,1.5 0,0.825 -0.45,1.5 -1,1.5 -0.55,0 -1,-0.675 -1,-1.5 z m 17,-4.05902 c 0,-0.85746 0.45734,-1.27636 1.01631,-0.9309 0.55897,0.34546 0.75742,1.04702 0.44098,1.55902 -0.85723,1.38704 -1.45729,1.12841 -1.45729,-0.62812 z m -42,-1.32295 c 0,-0.55 0.45,-1.27811 1,-1.61803 0.55,-0.33992 1,-0.16803 1,0.38197 0,0.55 -0.45,1.27811 -1,1.61803 -0.55,0.33992 -1,0.16803 -1,-0.38197 z m 32.07414,-4.07221 c -1.33209,-0.82328 -0.6915,-3.04582 0.87789,-3.04582 1.14071,0 2.14218,2.82374 1.20655,3.40199 -0.41474,0.25633 -1.35274,0.096 -2.08444,-0.35617 z m -57.07414,-2.04582 c 0,-0.55 0.70156,-1 1.55902,-1 0.85746,0 1.2809,0.45 0.94098,1 -0.33992,0.55 -1.04148,1 -1.55902,1 -0.51754,0 -0.94098,-0.45 -0.94098,-1 z m 17,-4.44098 c 0,-1.50117 1.79534,-3.09702 2.59007,-2.30228 0.69748,0.69747 -0.68337,3.74326 -1.69706,3.74326 -0.49115,0 -0.89301,-0.64844 -0.89301,-1.44098 z m 26.17288,-1.21821 c 0.19498,-1.01244 1.02335,-1.84081 1.84082,-1.84081 2.1435,0 1.8339,2.90567 -0.35451,3.32712 -1.3364,0.25736 -1.74367,-0.14991 -1.48631,-1.48631 z m -48.17288,-2.22278 c 0,-0.55 0.45,-1.27811 1,-1.61803 0.55,-0.33992 1,-0.16803 1,0.38197 0,0.55 -0.45,1.27811 -1,1.61803 -0.55,0.33992 -1,0.16803 -1,-0.38197 z m -28.45729,-4.04893 c -0.31644,-0.512 -0.11799,-1.21356 0.44098,-1.55902 0.55897,-0.34546 1.01631,0.0734 1.01631,0.9309 0,1.75653 -0.60006,2.01516 -1.45729,0.62812 z m -19.04708,-1.07616 c -0.75927,-1.22854 1.99283,-2.42712 3.47279,-1.51245 0.58531,0.36174 0.80531,1.07661 0.48887,1.58861 -0.76324,1.23495 -3.18006,1.18848 -3.96166,-0.0762 z m 80.50437,-0.99294 c 0,-0.55 0.47656,-1 1.05902,-1 0.58246,0 0.7809,0.45 0.44098,1 -0.33992,0.55 -0.81648,1 -1.05902,1 -0.24254,0 -0.44098,-0.45 -0.44098,-1 z m -41.27311,-4.60644 c -0.96625,-0.96626 0.37852,-3.39356 1.8801,-3.39356 0.76615,0 1.39301,0.3949 1.39301,0.87756 0,1.24731 -2.56789,3.22122 -3.27311,2.516 z m 19.80433,-1.68669 c -0.42806,-0.98622 -0.4977,-2.07372 -0.15476,-2.41666 1.01549,-1.0155 1.83409,0.41094 1.3667,2.38152 -0.41435,1.74695 -0.46826,1.74851 -1.21194,0.0351 z m -59.53122,-3.64785 c 0,-0.51754 0.45,-1.2191 1,-1.55902 0.55,-0.33992 1,0.0835 1,0.94098 0,0.85746 -0.45,1.55902 -1,1.55902 -0.55,0 -1,-0.42344 -1,-0.94098 z m 14,-0.93658 c 0,-0.48265 0.675,-1.43775 1.5,-2.12244 1.2532,-1.04007 1.5,-0.89568 1.5,0.87756 0,1.21995 -0.63782,2.12244 -1.5,2.12244 -0.825,0 -1.5,-0.3949 -1.5,-0.87756 z m -37.39369,-1.53888 c 0.33422,-0.87096 1.04702,-1.58356 1.58401,-1.58356 1.31439,0 0.49134,2.27278 -1.0035,2.77106 -0.73075,0.24358 -0.95424,-0.21359 -0.58051,-1.1875 z m -30.91246,-5.22304 c -0.79893,-0.79893 0.10419,-2.36052 1.36517,-2.36052 0.51754,0 0.94098,0.675 0.94098,1.5 0,1.54641 -1.17996,1.9867 -2.30615,0.86052 z m 44.8891,-4.22631 c -0.43077,-0.697 -0.51316,-1.53733 -0.18309,-1.86741 0.89497,-0.89496 1.87077,0.4213 1.38739,1.87145 -0.33872,1.01617 -0.57427,1.01538 -1.2043,-0.004 z m -19.08295,-1.13421 c -0.39915,-0.64585 -0.27574,-1.62426 0.27426,-2.17426 0.66667,-0.66667 1.24192,-0.60858 1.72574,0.17426 0.39915,0.64585 0.27574,1.62426 -0.27426,2.17426 -0.66667,0.66667 -1.24192,0.60858 -1.72574,-0.17426 z m -28,-4 c -0.33992,-0.55 0.30852,-1 1.44098,-1 1.13246,0 2.05902,0.45 2.05902,1 0,0.55 -0.64844,1 -1.44098,1 -0.79254,0 -1.7191,-0.45 -2.05902,-1 z m -10.5,-3 c 0,-0.55 0.47656,-1 1.05902,-1 0.58246,0 0.7809,0.45 0.44098,1 -0.33992,0.55 -0.81648,1 -1.05902,1 -0.24254,0 -0.44098,-0.45 -0.44098,-1 z m 14,-7.44098 c 0,-2.05411 2.07025,-3.06338 3.04582,-1.48488 0.45222,0.7317 0.60035,1.68935 0.32918,2.12811 -0.84042,1.35984 -3.375,0.87678 -3.375,-0.64323 z m 16.93823,1.44098 c -0.0502,-0.275 -0.23744,-1.25639 -0.41611,-2.18086 -0.17867,-0.92447 0.37017,-1.94756 1.21964,-2.27354 2.07229,-0.79521 2.15054,-0.47789 0.60522,2.4544 -0.72462,1.375 -1.35856,2.275 -1.40875,2 z m -69.93823,-2.44098 c 0,-2.03936 1.95984,-2.99918 3.32877,-1.63025 0.87268,0.87268 0.79038,1.38472 -0.33713,2.09756 -2.11015,1.33408 -2.99164,1.19639 -2.99164,-0.46731 z m 32.25,-7.80902 c 0.22917,-0.6875 1.01667,-1.25 1.75,-1.25 0.73333,0 1.52083,0.5625 1.75,1.25 0.24786,0.74359 -0.46111,1.25 -1.75,1.25 -1.28889,0 -1.99786,-0.50641 -1.75,-1.25 z m -63.25,-3.12756 c 0,-0.20765 0.675,-0.93775 1.5,-1.62244 1.22851,-1.01957 1.5,-0.95124 1.5,0.37756 0,0.89234 -0.675,1.62244 -1.5,1.62244 -0.825,0 -1.5,-0.1699 -1.5,-0.37756 z m 16.66667,-8.28911 c -1.26779,-1.26779 -0.65891,-2.33333 1.33333,-2.33333 1.11111,0 2,0.66667 2,1.5 0,1.52241 -2.1154,2.05126 -3.33333,0.83333 z m -58.66667,-5.22634 c 0,-1.01369 3.04579,-2.39454 3.74326,-1.69706 0.25136,0.25135 0.16039,0.93695 -0.20214,1.52354 -0.79781,1.29088 -3.54112,1.42531 -3.54112,0.17352 z m 76.2619,-0.79747 c 0.92977,-0.92976 1.97126,-1.4097 2.31443,-1.06653 0.98418,0.98419 -0.52669,2.75701 -2.34963,2.75701 -1.52648,0 -1.52374,-0.13153 0.0352,-1.69048 z m -53.0442,-2.46402 c 0.24642,-0.74002 1.25007,-1.50098 2.23033,-1.691 1.14002,-0.221 1.62085,0.13937 1.33427,1 -0.24642,0.74002 -1.25007,1.50098 -2.23033,1.691 -1.14002,0.221 -1.62085,-0.13937 -1.33427,-1 z m -37.82483,-3.31656 c 0.34622,-2.3589 1.6394,-3.09194 2.64619,-1.49998 1.40144,2.216 1.15986,2.97104 -0.95058,2.97104 -1.11359,0 -1.82139,-0.61407 -1.69561,-1.47106 z m 53.60713,-5.52894 c 0,-0.55 0.45,-1 1,-1 0.55,0 1,0.45 1,1 0,0.55 -0.45,1 -1,1 -0.55,0 -1,-0.45 -1,-1 z m -64.8455,-5.55197 c 0.19002,-0.98026 0.95098,-1.98391 1.691,-2.23033 0.86063,-0.28658 1.221,0.19425 1,1.33427 -0.19002,0.98026 -0.95098,1.98391 -1.691,2.23033 -0.86063,0.28658 -1.221,-0.19425 -1,-1.33427 z m 25.8455,-0.94803 c 0,-0.825 0.45,-1.5 1,-1.5 0.55,0 1,0.675 1,1.5 0,0.825 -0.45,1.5 -1,1.5 -0.55,0 -1,-0.675 -1,-1.5 z m 7.68169,-8.15164 c -1.23053,-1.23053 -0.71295,-3.34836 0.81831,-3.34836 1.66626,0 1.8741,0.8624 0.66638,2.76503 -0.44164,0.69576 -1.10975,0.95826 -1.48469,0.58333 z m -19.49419,-6.41086 c 0.24062,-0.72188 1.02812,-1.50937 1.75,-1.75 0.75,-0.25 1.125,0.125 0.875,0.875 -0.24062,0.72187 -1.02813,1.50937 -1.75,1.75 -0.75,0.25 -1.125,-0.125 -0.875,-0.875 z m 19.8125,-7.37848 c 0,-0.85746 0.45,-1.55902 1,-1.55902 0.55,0 1,0.42344 1,0.94098 0,0.51754 -0.45,1.2191 -1,1.55902 -0.55,0.33992 -1,-0.0835 -1,-0.94098 z m 22.58295,-9.42481 c -0.43077,-0.697 -0.51316,-1.53733 -0.18309,-1.86741 0.89497,-0.89496 1.87077,0.4213 1.38739,1.87145 -0.33872,1.01617 -0.57427,1.01538 -1.2043,-0.004 z m -4.58295,-13.29926 c 0,-1.55751 2.88959,-4.02122 3.94866,-3.36668 0.53019,0.32768 0.72752,1.21202 0.43849,1.96521 -0.62088,1.618 -4.38715,2.82113 -4.38715,1.40147 z m 18,-1.64463 c 0,-0.53699 0.7126,-1.24979 1.58356,-1.58401 0.97391,-0.37373 1.43108,-0.15024 1.1875,0.58051 -0.49828,1.49484 -2.77106,2.31789 -2.77106,1.0035 z m 17.63617,-11.68458 c 0.31537,-0.82184 0.98359,-1.24074 1.48493,-0.9309 1.04858,0.64806 0.20682,2.42516 -1.14873,2.42516 -0.50028,0 -0.65157,-0.67242 -0.3362,-1.49426 z m -14.63617,-1.50574 c 0,-2.38425 1.53559,-2.65261 2.39301,-0.41821 0.85768,2.23506 0.79004,2.41821 -0.89301,2.41821 -0.83333,0 -1.5,-0.88889 -1.5,-2 z m 21,-12.44098 c 0,-0.79254 0.40285,-1.68996 0.89522,-1.99426 1.02941,-0.63621 2.27065,1.93604 1.36921,2.83747 -1.07302,1.07303 -2.26443,0.62938 -2.26443,-0.84321 z m 17.1875,0.37848 c 0.24062,-0.72188 1.02812,-1.50937 1.75,-1.75 0.75,-0.25 1.125,0.125 0.875,0.875 -0.24063,0.72187 -1.02813,1.50937 -1.75,1.75 -0.75,0.25 -1.125,-0.125 -0.875,-0.875 z m 32.38276,-25.82381 c -0.30127,-0.48747 0.44002,-1.14462 1.64732,-1.46034 2.51997,-0.65898 3.26746,-0.24717 2.32354,1.28012 -0.79932,1.29333 -3.21515,1.40297 -3.97086,0.18022 z m -11.91525,-6.86288 c -0.93795,-1.51764 1.13559,-3.86021 2.34573,-2.65007 0.7787,0.7787 0.67467,1.42376 -0.36933,2.2902 -0.79935,0.6634 -1.68872,0.82534 -1.9764,0.35987 z m 42.34499,-15.25081 c 0,-0.55 0.70156,-1 1.55902,-1 0.85746,0 1.2809,0.45 0.94098,1 -0.33992,0.55 -1.04148,1 -1.55902,1 -0.51754,0 -0.94098,-0.45 -0.94098,-1 z m -18.81955,-4.17167 c 0.47108,-3.2015 2.81955,-3.54438 2.81955,-0.41166 0,1.6805 -0.54853,2.58333 -1.56955,2.58333 -1.04234,0 -1.46221,-0.72946 -1.25,-2.17167 z m 29.81955,-4.32833 c 0,-1.68305 0.18315,-1.75069 2.41821,-0.89301 2.2344,0.85742 1.96604,2.39301 -0.41821,2.39301 -1.11111,0 -2,-0.66667 -2,-1.5 z m 28,-9.5 c 0,-0.55 0.70156,-1 1.55902,-1 0.85746,0 1.2809,0.45 0.94098,1 -0.33992,0.55 -1.04148,1 -1.55902,1 -0.51754,0 -0.94098,-0.45 -0.94098,-1 z m -5.54377,-3.07082 c -0.37508,-0.60689 -0.24093,-1.54448 0.29812,-2.08353 0.64011,-0.64011 1.18443,-0.44756 1.56919,0.55511 0.69959,1.82308 -0.88407,3.11933 -1.86731,1.52842 z m 7.07499,-3.22231 c -0.42806,-0.98622 -0.4977,-2.07372 -0.15476,-2.41666 1.01549,-1.0155 1.83409,0.41094 1.3667,2.38152 -0.41435,1.74695 -0.46826,1.74851 -1.21194,0.0351 z m -30.34306,-1.44539 c 0.50201,-2.60673 3.81184,-2.89745 3.81184,-0.3348 0,1.43109 -0.64223,2.07332 -2.07332,2.07332 -1.4311,0 -1.96962,-0.53852 -1.73852,-1.73852 z m 24.81184,-2.70246 c 0,-0.85746 0.45,-1.55902 1,-1.55902 0.55,0 1,0.42344 1,0.94098 0,0.51754 -0.45,1.2191 -1,1.55902 -0.55,0.33992 -1,-0.0835 -1,-0.94098 z m 10.20826,-0.30357 c -0.99224,-0.34562 -1.02182,-0.77518 -0.12755,-1.8527 1.49872,-1.80585 3.91929,-1.81186 3.91929,-0.01 0,1.59441 -1.8925,2.52398 -3.79174,1.86244 z m -2.90547,-4.0481 c -1.77213,-1.12516 0.14432,-3.63349 2.17944,-2.85254 0.92625,0.35543 1.50604,1.18038 1.28843,1.83322 -0.51526,1.54578 -1.96675,1.97242 -3.46787,1.01932 z m -4.89355,-3.58326 c -0.84721,-2.20781 0.27991,-3.33494 1.80743,-1.80742 0.9019,0.9019 0.90574,1.46092 0.0161,2.35055 -0.88962,0.88962 -1.3233,0.76045 -1.82354,-0.54313 z m -12.70086,-3.24904 c -0.78038,-0.78038 0.29485,-3.37505 1.39861,-3.37505 1.14261,0 1.16842,2.71175 0.0325,3.4138 -0.47329,0.2925 -1.11728,0.27507 -1.4311,-0.0388 z m 17.39658,-2.74858 c -0.89273,-1.07567 -0.6053,-1.72384 1.32541,-2.98889 1.51026,-0.98956 2.7021,-1.23225 3.0765,-0.62646 0.33614,0.54388 0.0795,0.98888 -0.5703,0.98888 -0.89247,0 -0.90066,0.33834 -0.0335,1.38322 0.88853,1.07061 0.78472,1.5226 -0.45934,2 -2.10864,0.80916 -2.0231,0.82855 -3.33878,-0.75675 z m 0.89504,-7.1979 c 0,-0.31428 0.69643,-1.26786 1.54762,-2.11905 1.9261,-1.9261 3.20089,-0.91634 1.47244,1.16631 -1.24856,1.50442 -3.02006,2.06327 -3.02006,0.95274 z m 133.44833,249.04496 c -1.34087,-6.58544 -3.35616,-16.47353 -4.47842,-21.97353 -1.12227,-5.5 -2.45338,-11.575 -2.95803,-13.5 -0.50464,-1.925 -1.15355,-4.85 -1.442,-6.5 -1.10705,-6.33236 -1.83322,-9.04033 -2.72044,-10.14474 -0.50579,-0.62961 -0.85053,-1.52961 -0.76611,-2 0.0844,-0.47039 0.0422,-1.08026 -0.0939,-1.35526 -0.13605,-0.275 -0.35483,-1.625 -0.48617,-3 -0.13134,-1.375 -1.01896,-5.2 -1.9725,-8.5 -0.95354,-3.3 -2.10715,-8.025 -2.56356,-10.5 -0.45642,-2.475 -1.50148,-7.425 -2.32234,-11 -0.82087,-3.575 -2.66291,-11.675 -4.09342,-18 -1.43051,-6.325 -3.28116,-14.2 -4.11255,-17.5 -0.8314,-3.3 -3.28029,-14.55 -5.44199,-25 -2.1617,-10.45 -4.35662,-20.575 -4.8776,-22.5 -1.23463,-4.5619 -4.38414,-18.93328 -4.71175,-21.5 -0.14041,-1.1 -1.83361,-8.3 -3.76269,-16 -3.59078,-14.33279 -7.8268,-32.70331 -9.79999,-42.5 -0.60928,-3.025 -1.94863,-8.949983 -2.97634,-13.166613 -1.02767,-4.21664 -1.86853,-8.79164 -1.86853,-10.16667 0,-1.37503 -0.42912,-2.65005 -0.95359,-2.83339 -0.52448,-0.18333 -1.13271,-1.90833 -1.35162,-3.83333 -0.2189,-1.925 -1.13155,-5.975 -2.0281,-9 -1.72444,-5.81835 -5.19669,-20.38399 -6.10563,-25.6123 -0.29758,-1.71177 -1.43551,-5.98677 -2.52873,-9.5 -2.03505,-6.53998 -1.88051,-6.37334 -11.03233,-11.89645 -1.375,-0.82981 -4.60608,-2.96731 -7.18018,-4.75 -2.57409,-1.78269 -4.99535,-3.24125 -5.38057,-3.24125 -0.38521,0 -2.95092,-1.61685 -5.70157,-3.59299 l -5.00117,-3.5929899 0.69614,2.7736499 c 0.38288,1.52551 1.08506,6.18362 1.5604,10.35136 0.47534,4.16774 1.31758,10.49895 1.87164,14.06934 0.55406,3.57039 1.74982,11.66663 2.65725,17.99163 0.90742,6.325 2.47571,15.325 3.48508,20 1.00937,4.675 2.33357,12.1 2.94265,16.5 1.69312,12.230953 3.79031,25.717503 6.14234,39.500003 1.17325,6.875 2.32953,14.075 2.56953,16 0.24,1.925 0.84212,5.75 1.33805,8.5 0.49593,2.75 1.16634,7.25 1.4898,10 0.32347,2.75 1.67359,11.3 3.00027,19 1.32669,7.7 2.67237,16.6517 2.99041,19.89267 0.31804,3.24098 0.77671,6.21379 1.01927,6.60626 0.24256,0.39248 0.67426,2.69077 0.95934,5.10733 0.81905,6.94305 1.35274,10.55668 3.53067,23.90626 1.12275,6.88189 2.25734,14.30689 2.52131,16.5 1.49626,12.43126 6.85025,43.00346 9.10436,51.98748 0.27599,1.1 -0.1196,2.84036 -0.8791,3.86748 -1.30323,1.76245 -1.559,1.77537 -4.54793,0.22973 -1.74187,-0.90075 -3.50925,-1.68253 -3.92751,-1.73727 -1.42823,-0.18694 -7.96244,-2.95774 -20.26048,-8.59137 -3.575,-1.63767 -8.975,-3.77198 -12,-4.74289 -3.025,-0.97092 -6.85,-2.37346 -8.5,-3.11675 -4.5148,-2.03383 -37.07632,-15.20921 -44.5,-18.00605 -3.575,-1.34686 -8.525,-3.39491 -11,-4.55122 -2.475,-1.1563 -9.9,-4.09716 -16.5,-6.53524 -6.6,-2.43807 -12.9,-4.84321 -14,-5.34475 -9.78334,-4.46065 -20.85115,-8.97167 -22.01203,-8.97167 -0.78227,0 -6.89599,-2.25 -13.58605,-5 -6.69006,-2.75 -12.66733,-5.00277 -13.28283,-5.00616 -0.6155,-0.003 -2.33004,-0.63793 -3.81009,-1.41009 -2.56128,-1.33625 -2.97102,-1.18715 -8.5,3.09295 -5.85708,4.53409 -7.38287,6.3233 -5.39233,6.3233 0.59583,0 1.08333,0.45 1.08333,1 0,0.55 -0.9,1 -2,1 -1.1,0 -2,-0.46037 -2,-1.02305 0,-1.92035 -4.87982,2.16805 -5.19089,4.34901 -0.21373,1.49853 -0.93136,2.10612 -2.30959,1.95545 -3.39555,-0.37122 -4.89905,0.53226 -3.56359,2.1414 1.28997,1.55431 -0.19217,3.15489 -1.92801,2.08208 -0.54564,-0.33722 -1.78314,-0.15246 -2.75,0.41058 -1.66927,0.97209 -1.66967,1.02525 -0.008,1.05412 0.9625,0.0167 1.75,0.70541 1.75,1.53041 0,0.83333 -0.88889,1.5 -2,1.5 -1.1,0 -2,-0.46037 -2,-1.02305 0,-1.03746 -4.32817,1.3738 -6.91218,3.85084 -1.21624,1.16588 -1.21624,1.47775 0,2.24765 1.47275,0.93228 0.64092,1.27986 -2.33782,0.97686 -3.25843,-0.33146 -1.77431,1.69775 2,2.73455 5.12395,1.40755 9.16928,2.89831 20.0317,7.38196 5.10494,2.10716 10.05494,3.83396 11,3.83735 0.94507,0.003 2.8433,0.58605 4.2183,1.29481 1.375,0.70876 5.65,2.31618 9.5,3.57206 3.85,1.25587 8.39664,2.91307 10.10364,3.68265 1.707,0.76959 5.757,2.07018 9,2.89021 3.243,0.82003 10.39636,3.0964 15.89636,5.0586 5.5,1.9622 14.05,4.91394 19,6.55942 4.95,1.64548 12.15,4.28308 16,5.86133 12.49844,5.12356 16.89748,6.74524 23,8.47884 3.3,0.93746 7.92454,2.58005 10.27675,3.6502 2.35221,1.07014 5.05221,1.94735 6,1.94935 0.94779,0.002 5.32325,1.38308 9.72325,3.06909 4.4,1.68601 10.7,3.9052 14,4.93154 8.42802,2.62122 20.6253,6.84265 23,7.96021 1.1,0.51768 3.575,1.38493 5.5,1.92723 4.06022,1.14383 11.60716,3.769 14.5,5.04377 1.1,0.48473 4.025,1.5469 6.5,2.36037 5.34384,1.7564 28.60024,9.7792 35,12.07401 16.05715,5.75773 29.58757,9.65365 31.69313,9.12565 0.10622,-0.0266 -0.90394,-5.43652 -2.2448,-12.02197 z M 280.68557,272.00272 c -0.31644,-0.512 -0.11799,-1.21356 0.44098,-1.55902 1.19337,-0.73755 3.01631,0.19857 3.01631,1.54894 0,1.2168 -2.70662,1.22469 -3.45729,0.0101 z m -7.54271,-2.10048 c 0,-1.28894 2.84907,-2.45288 3.76417,-1.53779 0.37285,0.37286 0.0159,1.09656 -0.79313,1.60823 -1.93575,1.22421 -2.97104,1.19966 -2.97104,-0.0704 z m 22.22917,-1.15612 c 0.61807,-1.85422 2.77083,-2.16176 2.77083,-0.39583 0,0.87083 -0.7125,1.58333 -1.58333,1.58333 -0.87084,0 -1.40521,-0.53438 -1.1875,-1.1875 z m -24.22917,-1.84388 c 0,-1.28894 2.84907,-2.45288 3.76417,-1.53779 0.37285,0.37286 0.0159,1.09656 -0.79313,1.60823 -1.93575,1.22421 -2.97104,1.19966 -2.97104,-0.0704 z m 9,0.0314 c 0,-0.55 0.675,-1 1.5,-1 0.825,0 1.5,0.45 1.5,1 0,0.55 -0.675,1 -1.5,1 -0.825,0 -1.5,-0.45 -1.5,-1 z m 7.67534,-1.65799 c -0.75703,-0.75703 1.13576,-3.34201 2.4471,-3.34201 0.48266,0 0.87756,0.9 0.87756,2 0,1.92166 -1.95562,2.71105 -3.32466,1.34201 z m -2.67534,-4.42534 c 0,-2.43705 2.33677,-2.09257 2.82332,0.4162 0.19138,0.98676 -0.31876,1.66713 -1.25,1.66713 -0.92763,0 -1.57332,-0.855 -1.57332,-2.08333 z m 7,-5.88529 c 0,-2.15622 0.38933,-2.81921 1.42268,-2.42268 2.03433,0.78065 2.8743,3.58594 1.36119,4.54604 -2.1975,1.39435 -2.78387,0.94711 -2.78387,-2.12336 z m 201.64096,50.19669 c -0.26239,-0.42456 -0.75272,-3.91206 -1.08961,-7.75 -0.62512,-7.12147 -0.99988,-10.05201 -1.85144,-14.47807 -2.33444,-12.13344 -3.71934,-20.36162 -4.20779,-25 -0.31855,-3.025 -0.765,-6.175 -0.99212,-7 -0.22712,-0.825 -0.66728,-3.975 -0.97814,-7 -0.31086,-3.025 -1.21739,-9.1 -2.01451,-13.5 -0.79712,-4.4 -1.69277,-10.025 -1.99033,-12.5 -0.29757,-2.475 -0.76577,-5.85 -1.04045,-7.5 -0.27469,-1.65 -0.71243,-4.575 -0.97278,-6.5 -0.26034,-1.925 -0.71807,-5.3 -1.01716,-7.5 -0.2991,-2.2 -1.01951,-6.925 -1.60091,-10.5 -0.5814,-3.575 -1.27139,-8.525 -1.53331,-11 -0.26193,-2.475 -0.87528,-6.075 -1.36301,-8 -0.48774,-1.925 -1.15173,-5.975 -1.47555,-9 -0.32382,-3.025 -1.04983,-8.2 -1.61335,-11.5 -0.56352,-3.3 -1.41981,-9.21789 -1.90286,-13.15087 -0.48306,-3.93298 -1.33923,-9.78298 -1.90262,-13 -3.34632,-19.10802 -4.10762,-24.230613 -4.10166,-27.599133 0.004,-2.0625 -0.42966,-3.75 -0.96291,-3.75 -0.53325,0 -0.91111,-1.55447 -0.83968,-3.45437 0.0714,-1.8999 -0.39249,-4.08376 -1.03092,-4.85302 -0.63843,-0.76926 -1.40863,-4.05229 -1.71155,-7.29563 -0.30293,-3.24334 -0.81333,-7.02198 -1.13422,-8.39698 -0.32089,-1.375 -0.68308,-3.4 -0.80485,-4.5 -1.08187,-9.77281 -1.95081,-15.34565 -3.66422,-23.5 -1.09789,-5.225 -1.99626,-10.175 -1.99638,-11 -1.2e-4,-0.825 -0.41813,-3.75 -0.92893,-6.5 -0.51079,-2.75 -1.02521,-6.24216 -1.14317,-7.76035 -0.11795,-1.51819 -0.5118,-2.6431899 -0.87521,-2.4999999 -0.53869,0.21225 -28.43047,24.6525699 -32.29797,28.3012699 -0.60684,0.57251 -2.13379,1.75244 -3.39321,2.62207 -1.25942,0.86963 -4.40942,3.56044 -7,5.97958 -2.59058,2.41914 -7.59604,6.86421 -11.12325,9.87793 -3.52721,3.01373 -7.36321,6.3795 -8.52443,7.4795 -1.87512,1.77626 -9.00235,8.0292 -19.37693,17 -1.9082,1.65 -4.86807,4.28441 -6.57749,5.85425 -4.32437,3.97126 -20.95473,18.432043 -31.21847,27.145753 -3.23918,2.75 -7.56631,6.65918 -9.61583,8.68707 -2.04953,2.02788 -4.35053,4.05288 -5.11335,4.5 -0.76282,0.44711 -6.24093,5.31293 -12.17358,10.81293 -13.55428,12.56581 -21.97469,20.20646 -31.5005,28.58348 -23.59098,20.74597 -36.5801,32.454 -37.28601,33.60858 -0.43984,0.71939 -2.04219,1.9505 -3.56079,2.7358 -1.5186,0.78529 -4.08373,2.7245 -5.7003,4.30933 -1.61656,1.58484 -9.69857,8.98205 -17.96002,16.43824 -12.11451,10.93369 -15.06657,14.1147 -15.25733,16.44064 -0.13009,1.58616 -0.68171,4.2361 -1.22582,5.88874 -0.54412,1.65265 -1.42889,6.15265 -1.96617,10 -0.53727,3.84736 -1.83944,11.72019 -2.89369,17.49519 -1.05426,5.775 -1.70245,10.85721 -1.44042,11.2938 0.26203,0.4366 -0.0674,1.4491 -0.73211,2.25 -2.13801,2.57614 0.41961,1.5287 4.41064,-1.80633 2.13086,-1.78061 7.08086,-6.27084 11,-9.97829 3.91914,-3.70744 7.4847,-6.74494 7.92346,-6.75 0.43876,-0.005 1.84036,-1.13418 3.11467,-2.50918 1.27431,-1.375 2.59768,-2.5 2.94082,-2.5 0.88748,0 4.44336,-2.91822 8.58699,-7.04712 1.95787,-1.95092 5.69727,-5.01004 8.30977,-6.79804 2.6125,-1.78801 4.75,-3.57508 4.75,-3.97126 0,-0.39619 1.07372,-1.38707 2.38604,-2.20196 2.70109,-1.67726 10.76188,-8.47014 16.80656,-14.16301 2.23003,-2.10024 4.41168,-3.81861 4.84811,-3.81861 0.43644,0 5.44332,-3.84425 11.1264,-8.54277 16.31626,-13.48957 16.78093,-13.87493 18.6382,-15.45723 0.96837,-0.825 3.54583,-2.83582 5.72768,-4.46849 2.18186,-1.63267 5.09201,-4.00013 6.46701,-5.26103 1.375,-1.26091 3.2875,-2.54291 4.25,-2.8489 0.9625,-0.306 1.75,-0.95867 1.75,-1.45039 0,-0.49171 3.90274,-3.94889 8.67275,-7.68261 4.77001,-3.73372 10.95751,-8.89969 13.75,-11.47993 9.49578,-8.77404 10.44084,-9.5868 16.75923,-14.41299 3.47491,-2.65424 6.76802,-5.34374 7.31802,-5.97666 0.55,-0.63292 3.62386,-3.12361 6.83081,-5.53488 7.36022,-5.53407 16.73952,-13.01905 25.16919,-20.08582 1.1,-0.92216 5.825,-4.67399 10.5,-8.33742 12.47304,-9.77412 15.88475,-12.51986 21.07467,-16.960883 14.38158,-12.30632 14.96211,-12.70758 17.47291,-12.07741 2.17711,0.54642 2.47434,1.20275 2.64766,5.84646 0.25417,6.80946 0.55704,10.430733 1.73386,20.730953 0.53413,4.675 1.19561,12.1 1.46995,16.5 0.27434,4.4 0.9481,12.5 1.49725,18 0.54915,5.5 1.27233,14.92123 1.60706,20.93608 0.33474,6.01484 0.78322,11.2186 0.99664,11.56392 0.21342,0.34532 0.6866,5.54908 1.05152,11.56392 0.36491,6.01485 0.82449,11.20534 1.02128,11.53444 0.19679,0.3291 0.60875,5.7291 0.91546,12 0.30672,6.2709 0.98583,14.77664 1.50914,18.90164 0.52331,4.125 1.2038,12.675 1.51219,19 0.30839,6.325 0.9912,15.325 1.51735,20 0.52616,4.675 0.96034,10.53279 0.96486,13.01731 l 0.008,4.51731 6.25,2.35304 c 7.67378,2.88908 16.26699,6.31788 37.55902,14.98653 0.16996,0.0692 0.0943,-0.22156 -0.16806,-0.64612 z m -47.99445,-29.97807 c -0.36158,-5.9125 -1.09515,-15.475 -1.63017,-21.25 -1.00664,-10.86574 -3.03107,-37.9914 -3.61963,-48.5 -0.18482,-3.3 -0.80038,-9.825 -1.36791,-14.5 -0.56753,-4.675 -1.25058,-12.325 -1.51789,-17 -0.50374,-8.80971 -2.59252,-28.2291 -3.10414,-28.85909 -0.16039,-0.1975 -1.6245,0.59 -3.25357,1.75 -1.62907,1.16 -3.45497,2.10909 -4.05757,2.10909 -0.6026,0 -1.09563,0.45 -1.09563,1 0,0.55 -0.46921,1 -1.0427,1 -1.19977,0 -12.28957,7.9656 -12.79063,9.18728 -0.18334,0.447 -0.93334,0.81272 -1.66667,0.81272 -0.73333,0 -1.48333,0.39481 -1.66667,0.87737 -0.38775,1.0206 -35.54508,26.11606 -36.61513,26.13604 -0.71611,0.0134 -2.62008,1.43968 -10.538,7.89421 -2.29911,1.87419 -5.9802,4.57858 -8.1802,6.00976 -2.2,1.43118 -5.26582,3.80059 -6.81292,5.26536 -1.54711,1.46478 -5.90629,4.75754 -9.68708,7.31726 -3.78079,2.55972 -8.05066,5.74437 -9.4886,7.07701 -1.43794,1.33265 -2.81321,2.42299 -3.05615,2.42299 -0.24294,0 -2.90803,1.9083 -5.92242,4.24066 l -5.48071,4.24065 3.72394,1.68619 c 9.60676,4.3499 13.00862,5.74035 15.69198,6.41383 1.59426,0.40014 4.05365,1.33026 5.46531,2.06693 1.41166,0.73668 2.94864,1.34219 3.41552,1.34558 0.46688,0.003 2.26688,0.63394 4,1.40123 1.73312,0.7673 7.42613,3.03206 12.65113,5.03281 5.225,2.00076 10.85,4.2688 12.5,5.0401 5.41978,2.53348 16.95037,7.29405 19.5,8.05086 1.375,0.40813 4.525,1.6203 7,2.69369 12.47125,5.40871 15.93976,6.83384 21,8.62839 5.4934,1.94817 13.94744,5.53899 21.5,9.13205 6.92038,3.2923 6.88443,3.34332 6.14651,-8.72297 z M 434.49696,137.414 c -0.28579,-0.74475 -1.15738,-1.10936 -1.93686,-0.81025 -1.49426,0.5734 -1.8174,1.59638 -0.81947,2.5943 1.06003,1.06004 3.29307,-0.38531 2.75633,-1.78405 z"
       id="path3306"
       inkscape:connector-curvature="0" />
  </g>
</svg>
