<?xml version="1.0" encoding="UTF-8" standalone="no"?>
<!-- Created with Inkscape (http://www.inkscape.org/) -->

<svg
   xmlns:dc="http://purl.org/dc/elements/1.1/"
   xmlns:cc="http://creativecommons.org/ns#"
   xmlns:rdf="http://www.w3.org/1999/02/22-rdf-syntax-ns#"
   xmlns:svg="http://www.w3.org/2000/svg"
   xmlns="http://www.w3.org/2000/svg"
   xmlns:sodipodi="http://sodipodi.sourceforge.net/DTD/sodipodi-0.dtd"
   xmlns:inkscape="http://www.inkscape.org/namespaces/inkscape"
   width="210mm"
   height="297mm"
   viewBox="0 0 210 297"
   version="1.1"
   id="svg8"
   inkscape:version="0.92.1 r15371"
   sodipodi:docname="tvpolo.svgz">
  <defs
     id="defs2" />
  <sodipodi:namedview
     id="base"
     pagecolor="#ffffff"
     bordercolor="#666666"
     borderopacity="1.0"
     inkscape:pageopacity="0.0"
     inkscape:pageshadow="2"
     inkscape:zoom="0.69621928"
     inkscape:cx="63.569982"
     inkscape:cy="516.37775"
     inkscape:document-units="mm"
     inkscape:current-layer="layer1"
     showgrid="false"
     inkscape:window-width="1916"
     inkscape:window-height="1041"
     inkscape:window-x="0"
     inkscape:window-y="18"
     inkscape:window-maximized="0" />
  <metadata
     id="metadata5">
    <rdf:RDF>
      <cc:Work
         rdf:about="">
        <dc:format>image/svg+xml</dc:format>
        <dc:type
           rdf:resource="http://purl.org/dc/dcmitype/StillImage" />
        <dc:title />
      </cc:Work>
    </rdf:RDF>
  </metadata>
  <g
     inkscape:label="Layer 1"
     inkscape:groupmode="layer"
     id="layer1">
    <path
       style="opacity:1;fill:#000000;stroke:none;stroke-width:0.99999994px;stroke-linecap:butt;stroke-linejoin:miter;stroke-opacity:1"
       d="M 415.08594 573.06836 L 415.11719 575.92188 C 423.29954 588.66862 431.08733 600.57383 438.58008 611.83789 C 446.26737 606.57607 454.45585 601.03496 463.19727 595.17969 C 460.21156 590.73294 457.0913 586.05209 453.9375 581.31445 L 415.08594 573.06836 z M 460.29297 582.66406 C 462.52866 586.01456 464.81251 589.44946 466.96289 592.65234 C 470.05311 590.58862 473.49041 588.32673 476.76172 586.16016 L 460.29297 582.66406 z M 415.21289 584.45703 L 415.69336 627.69922 C 421.817 623.41068 428.11984 619.02491 434.83984 614.4082 C 428.52243 604.91239 422.0008 594.9692 415.21289 584.45703 z M 482.98242 587.48047 C 478.40241 590.50722 473.74848 593.57626 469.49609 596.41602 C 477.24852 607.93182 484.47777 618.53844 491.2207 628.29297 C 496.92877 623.22195 502.89012 617.95956 509.21875 612.41602 C 504.38957 605.35668 499.23883 597.73663 493.9043 589.79883 L 482.98242 587.48047 z M 500.2793 591.15234 C 504.55202 597.49231 508.71625 603.64456 512.65625 609.40625 C 517.25365 605.38889 522.12183 601.1632 527.10742 596.84766 L 500.2793 591.15234 z M 532.66602 598.02734 C 526.61429 603.25739 520.73153 608.35882 515.23633 613.16211 C 524.62892 626.85164 533.18223 639.06951 541.24609 650.39453 C 548.77836 643.41134 556.6014 636.04245 564.75781 628.23047 C 558.33639 619.7025 551.41481 610.36379 544.14258 600.46289 L 532.66602 598.02734 z M 465.73047 598.94141 C 456.97952 604.80288 448.78737 610.3483 441.0957 615.61328 C 449.60639 628.35307 457.73015 640.24417 465.52344 651.38672 C 472.47838 645.0538 479.87107 638.39305 487.80469 631.32422 C 480.96056 621.42862 473.61194 610.64805 465.73047 598.94141 z M 550.80859 601.87891 C 556.82379 610.0399 562.63122 617.86645 568.05078 625.06641 C 573.41095 619.91095 578.91083 614.57019 584.55273 609.04102 L 550.80859 601.87891 z M 589.88086 610.17188 C 583.30988 616.63116 576.97669 622.77443 570.79492 628.7168 C 577.95774 638.19827 584.63405 646.87839 591.11328 655.21875 L 606.89062 613.7832 L 589.88086 610.17188 z M 511.80273 616.17188 C 505.48287 621.70951 499.51862 626.97463 493.82031 632.03906 C 503.33822 645.75822 512.02886 658.01552 520.31445 669.50586 C 526.00119 664.4014 531.85827 659.07066 537.89258 653.50391 C 529.80309 642.14817 521.22125 629.89369 511.80273 616.17188 z M 437.35547 618.18164 C 429.7346 623.41745 422.61322 628.37762 415.75391 633.19531 L 415.84766 641.63086 C 424.96043 653.50032 433.3826 664.39341 440.94922 674.07031 C 447.65113 667.80126 454.66287 661.31157 462.14844 654.4707 C 454.24003 643.17236 445.99685 631.11533 437.35547 618.18164 z M 567.50195 631.88086 C 559.31302 639.71964 551.46226 647.11159 543.89844 654.11914 C 551.27897 664.44417 558.2749 674.04149 565.19531 683.46094 C 572.15596 677.54515 579.64973 671.24049 587.51953 664.6582 L 589.22266 660.18359 C 582.31678 651.31243 575.17305 642.03174 567.50195 631.88086 z M 490.40625 635.07031 C 482.47999 642.13559 475.0953 648.79005 468.14844 655.11914 C 477.39865 668.27358 486.23141 680.4652 494.7832 691.94727 C 501.90771 685.8169 509.27306 679.36337 516.91797 672.53906 C 508.62577 661.04541 499.92365 648.78102 490.40625 635.07031 z M 415.93164 649.17773 L 416.46484 697.26172 C 423.3565 690.66879 430.31121 684.04727 437.625 677.18164 C 431.02512 668.74277 423.68903 659.25798 415.93164 649.17773 z M 540.54297 657.22656 C 534.51163 662.78675 528.66655 668.10249 522.98047 673.20312 C 530.1017 683.0427 536.98376 692.41139 543.88281 701.73828 C 549.51204 696.86301 555.49433 691.73065 561.73438 686.41211 C 554.84434 677.03525 547.88501 667.49322 540.54297 657.22656 z M 464.77539 658.20703 C 457.35877 664.98894 450.40229 671.43034 443.75391 677.65234 C 453.8301 690.50705 462.78035 701.75921 471.0332 712.00391 C 477.62399 706.54521 484.37515 700.8692 491.33789 694.91211 C 482.80614 683.46189 473.99635 671.30977 464.77539 658.20703 z M 584.21289 673.34375 C 578.5519 678.09742 573.04804 682.73364 567.88672 687.12109 C 570.27382 690.36202 572.75015 693.6935 575.20117 697.00781 L 584.21289 673.34375 z M 519.58398 676.23633 C 511.95697 683.04052 504.60514 689.47545 497.49414 695.5918 C 504.80327 705.3474 511.92618 714.61126 518.96875 723.59766 C 525.72458 717.59195 532.84189 711.33082 540.45508 704.71484 C 533.56929 695.40786 526.68903 686.04871 519.58398 676.23633 z M 440.42773 680.76562 C 432.15231 688.53774 424.32155 696.00955 416.53516 703.47461 L 416.58398 707.91016 C 425.73334 718.73521 433.8411 727.70784 441.54297 735.95703 C 450.03445 729.17015 458.65013 722.21353 467.53516 714.89258 C 459.3278 704.70415 450.43101 693.52482 440.42773 680.76562 z M 564.42578 690.07227 C 558.19446 695.38451 552.21005 700.51601 546.58984 705.38477 C 552.03542 712.73538 557.70357 720.3679 563.39062 728.02539 L 573.2832 702.04297 C 570.31034 698.02699 567.31682 693.99695 564.42578 690.07227 z M 494.05078 698.55664 C 487.13394 704.47234 480.42807 710.10703 473.87891 715.53125 C 481.89143 725.44834 489.3688 734.5807 496.76367 743.57031 C 502.80505 738.07334 509.04445 732.4472 515.57617 726.61914 C 508.51674 717.61384 501.37798 708.33241 494.05078 698.55664 z M 543.16406 708.36523 C 535.58595 714.95268 528.49692 721.18971 521.76953 727.17188 C 527.94264 735.00701 534.06969 742.64799 540.20898 750.21094 C 546.53714 744.29344 553.24029 738.09034 560.37305 731.55664 C 554.54181 723.70478 548.74683 715.89967 543.16406 708.36523 z M 416.66406 715.00781 L 417.11133 755.34766 C 424.04354 749.86747 430.98248 744.37072 437.97852 738.79492 C 431.32146 731.6583 424.35354 723.97156 416.66406 715.00781 z M 470.38281 718.42188 C 461.58658 725.66982 453.06489 732.5483 444.66211 739.26562 C 453.49134 748.64421 461.97041 757.39404 471.05273 767.20312 C 478.46691 760.34179 485.87036 753.50703 493.4043 746.63086 C 485.96556 737.58787 478.44557 728.40137 470.38281 718.42188 z M 518.37695 730.19531 C 511.87712 735.99665 505.66492 741.59665 499.64844 747.07227 C 505.90759 754.67328 512.26218 762.38743 518.85938 770.41211 C 524.60617 764.90969 530.58932 759.23422 536.89062 753.32031 C 530.72768 745.72992 524.57642 738.06184 518.37695 730.19531 z M 559.33594 738.67383 C 553.67294 743.88099 548.21629 748.93043 543.07812 753.73633 C 545.4629 756.66333 547.86511 759.58407 550.26172 762.50586 L 559.33594 738.67383 z M 441.10156 742.10742 C 433.06755 748.51163 425.12425 754.79263 417.17383 761.07812 L 417.26953 769.62305 L 460.71875 776.76953 C 463.06648 774.59205 465.38759 772.44844 467.7207 770.28711 C 458.58506 760.42259 450.03654 751.60544 441.10156 742.10742 z M 496.29102 750.13477 C 488.81496 756.95971 481.48028 763.73261 474.13086 770.53516 C 477.00832 773.67662 479.97681 776.97944 483.03516 780.43945 L 504.76562 784.01367 C 508.32776 780.55452 511.87394 777.10812 515.57031 773.55664 C 508.94759 765.4999 502.5727 757.7633 496.29102 750.13477 z M 539.75977 756.84375 C 533.46526 762.75273 527.49027 768.42228 521.74805 773.92188 C 525.59903 778.61262 529.7594 783.7203 533.90625 788.80859 L 539.87305 789.78906 L 548.40039 767.39062 C 545.51316 763.8769 542.62893 760.36458 539.75977 756.84375 z M 470.79688 773.61914 C 469.32588 774.98201 467.86304 776.33223 466.38672 777.70117 L 475.92188 779.26953 C 474.18598 777.33626 472.47702 775.4531 470.79688 773.61914 z M 518.46094 777.06836 C 515.68398 779.73723 513.03746 782.31769 510.33984 784.93164 L 527.13867 787.69531 C 524.24875 784.15699 521.21098 780.41856 518.46094 777.06836 z "
       transform="scale(0.26458333)"
       id="path75" />
    <path
       style="fill:#000000;stroke:none;stroke-width:0.26458332px;stroke-linecap:butt;stroke-linejoin:miter;stroke-opacity:1;opacity:1"
       d="m 47.436012,132.43862 c 12.428033,4.67721 29.366011,6.51336 41.860862,7.18154 -10.423512,25.52424 -9.204823,38.92521 -4.393972,60.23996 C 74.212121,188.76843 69.398227,180.0857 64.98828,156.49916 51.609743,172.08464 47.921913,186.10787 45.829613,194.66294 40.350588,175.95407 43.026065,151.94929 47.436012,132.43862 Z"
       id="path4553"
       inkscape:connector-curvature="0"
       sodipodi:nodetypes="cccccc" />
    <circle
       style="opacity:1;fill:#000000;stroke:none;stroke-width:0.26458332"
       id="path4555"
       cx="111.51379"
       cy="73.523468"
       r="16.83798" />
    <path
       style="fill:#000000;stroke:none;stroke-width:0.26458332px;stroke-linecap:butt;stroke-linejoin:miter;stroke-opacity:1;opacity:1"
       d="m 48.926191,125.28788 c 9.879327,-15.52466 23.992651,-28.69709 40.144567,-41.555897 5.3317,7.527106 14.429412,11.167806 21.169992,10.663401 13.64288,15.367846 20.85635,15.681476 35.75375,23.992656 -15.05421,-1.88178 -29.40196,-2.69507 -43.12405,-7.3703 -6.586218,5.48852 -12.545174,14.11333 -14.897395,25.71762 -12.545177,-1.0977 -26.815316,-5.95896 -39.046864,-11.44748 z"
       id="path4557"
       inkscape:connector-curvature="0"
       sodipodi:nodetypes="ccccccc" />
    <path
       transform="rotate(47.749378)"
       style="opacity:1;fill:#000000;stroke:none;stroke-width:0.20962876"
       d="m 193.49073,-24.111667 c -1e-5,-2.847651 0.012,-6.177094 5.0316,-6.593307 3.77899,-0.313342 5.6683,3.727044 5.6683,6.574691 l -5.32492,-0.0474 z"
       id="path4559"
       inkscape:connector-curvature="0"
       sodipodi:nodetypes="csccc" />
    <path
       style="opacity:1;fill:#000000;stroke:none;stroke-width:1.04939044"
       d="M 603.39844 391.30273 A 7.1525231 7.1525231 0 0 0 596.24609 398.45508 A 7.1525231 7.1525231 0 0 0 598.72852 403.86719 L 585.48438 461.08984 L 593.02344 462.70508 L 605.30273 405.34961 A 7.1525231 7.1525231 0 0 0 610.55078 398.45508 A 7.1525231 7.1525231 0 0 0 603.39844 391.30273 z "
       transform="scale(0.26458333)"
       id="path4562" />
    <path
       style="opacity:1;fill:#000000;stroke:none;stroke-width:1.04939044"
       d="M 673.59961 472.0957 A 7.1525231 7.1525231 0 0 0 667.06445 476.35352 L 608.46484 481.91602 L 609.54297 489.81641 L 667.93945 483.61523 A 7.1525231 7.1525231 0 0 0 673.59961 486.40039 A 7.1525231 7.1525231 0 0 0 680.75195 479.24805 A 7.1525231 7.1525231 0 0 0 673.59961 472.0957 z "
       transform="scale(0.26458333)"
       id="circle4564" />
    <path
       style="opacity:1;fill:#000000;stroke:none;stroke-width:0.26458332px;stroke-linecap:butt;stroke-linejoin:miter;stroke-opacity:1"
       d="m 114.86368,135.15526 15.67619,-15.39116 c 2.09016,-1.80514 5.55792,-1.04509 7.64808,-0.42754 2.31772,0.97411 5.65293,5.2254 5.65293,5.2254 0.76006,0.99758 0.14827,2.02635 -0.85507,1.04508 0,0 -3.4466,-3.84681 -4.37033,-4.41784 -0.57004,-0.51066 -2.3387,-0.71662 -3.6688,0.2572 0,0 -10.15927,9.64346 -15.61766,14.2789 -1.21134,0.92632 -1.25884,2.83834 -0.71255,3.51527 2.90554,2.50246 14.5836,15.15365 14.5836,15.15365 l -5.41541,-0.99758 -12.73096,-12.96848 c -1.75763,-2.05453 -1.27073,-4.2397 -0.19002,-5.2729 z"
       id="path4490"
       inkscape:connector-curvature="0"
       sodipodi:nodetypes="ccccccccccccc" />
    <path
       style="opacity:1;fill:#000000;stroke:none;stroke-width:0.26458332px;stroke-linecap:butt;stroke-linejoin:miter;stroke-opacity:1"
       d="m 157.15134,137.09427 c 1.26803,0.91533 3.91325,4.01402 3.91325,4.01402 1.59553,1.49476 1.3268,3.89645 0.48705,5.03851 -0.21377,0.65911 -11.58858,12.09245 -11.58858,12.09245 l -2.56965,-0.16794 11.70615,-11.70616 c 0.75578,-1.15046 1.0497,-2.0322 0.10918,-3.53536 l -3.16588,-4.19036 z"
       id="path4492"
       inkscape:connector-curvature="0"
       sodipodi:nodetypes="ccccccccc" />
    <path
       style="opacity:1;fill:#000000;stroke:none;stroke-width:0.26458332px;stroke-linecap:butt;stroke-linejoin:miter;stroke-opacity:1"
       d="m 140.99066,127.17466 10.49829,12.16092 c 1.81387,3.22465 1.33595,6.84183 -0.42753,9.3107 l -5.41541,4.51284 c -3.0567,2.13297 -6.02851,2.44056 -8.59815,0.19002 l -10.35578,-11.68589 c -2.40169,-2.41849 -1.7913,-5.52375 -0.095,-7.50557 l 7.12554,-6.88802 c 2.35143,-1.82889 5.84293,-1.50823 7.26804,-0.095 z"
       id="path4494"
       inkscape:connector-curvature="0"
       sodipodi:nodetypes="ccccccccc" />
  </g>
</svg>
